<svg xmlns="http://www.w3.org/2000/svg" width="32" height="32" viewBox="0 0 32 32" fill="none">
  <path fill-rule="evenodd" clip-rule="evenodd" d="M2.66675 10.3907C2.66675 6.12503 6.12451 2.66663 10.3908 2.66663H21.6094C25.8756 2.66663 29.3334 6.12445 29.3334 10.3907V21.6087C29.3334 25.8749 25.8751 29.3333 21.6089 29.3333H10.3913C6.12521 29.3333 2.66675 25.8756 2.66675 21.6093V10.3907ZM10.3908 5.00708C7.41723 5.00708 5.00721 7.41751 5.00721 10.3907V21.6093C5.00721 24.5827 7.41757 26.9928 10.3913 26.9928H21.6089C24.5825 26.9928 26.993 24.5823 26.993 21.6087V10.3907C26.993 7.41705 24.583 5.00708 21.6094 5.00708H10.3908Z" fill="#02455C"/>
  <path fill-rule="evenodd" clip-rule="evenodd" d="M16.0001 11.2982C13.4034 11.2982 11.2984 13.4033 11.2984 16C11.2984 18.5966 13.4034 20.7017 16.0001 20.7017C18.5968 20.7017 20.7018 18.5966 20.7018 16C20.7018 13.4033 18.5968 11.2982 16.0001 11.2982ZM8.9579 16C8.9579 12.1107 12.1108 8.95778 16.0001 8.95778C19.8894 8.95778 23.0423 12.1107 23.0423 16C23.0423 19.8892 19.8894 23.0421 16.0001 23.0421C12.1108 23.0421 8.9579 19.8892 8.9579 16Z" fill="#02455C"/>
  <path d="M23.1302 10.128C23.825 10.128 24.3883 9.56473 24.3883 8.86988C24.3883 8.17504 23.825 7.61176 23.1302 7.61176C22.4353 7.61176 21.872 8.17504 21.872 8.86988C21.872 9.56473 22.4353 10.128 23.1302 10.128Z" fill="#02455C"/>
</svg>