<svg xmlns="http://www.w3.org/2000/svg" width="160" height="10" viewBox="0 0 160 10" fill="none">
  <path fill-rule="evenodd" clip-rule="evenodd" d="M154.839 1.25H5.16129C3.02341 1.25 1.29032 2.92893 1.29032 5C1.29032 7.07107 3.02342 8.75 5.16129 8.75H154.839C156.977 8.75 158.71 7.07107 158.71 5C158.71 2.92893 156.977 1.25 154.839 1.25ZM5.16129 0C2.31079 0 0 2.23858 0 5C0 7.76142 2.31079 10 5.16129 10H154.839C157.689 10 160 7.76142 160 5C160 2.23858 157.689 0 154.839 0H5.16129Z" fill="#1C9DC9"/>
  <rect x="1.29028" y="1.25" width="20.6452" height="7.5" rx="3.75" fill="#E7E9EA"/>
</svg>