<svg xmlns="http://www.w3.org/2000/svg" width="24" height="24" viewBox="0 0 24 24" fill="none">
  <path fill-rule="evenodd" clip-rule="evenodd" d="M5.10707 5.10707C6.4562 3.75794 8.28602 3 10.194 3C12.1019 3 13.9318 3.75794 15.2809 5.10707C16.63 6.4562 17.388 8.28602 17.388 10.194C17.388 11.1387 17.2019 12.0742 16.8404 12.947C16.5674 13.6059 16.1986 14.2193 15.7468 14.7677L20.7972 19.8182C21.0676 20.0885 21.0676 20.5269 20.7972 20.7972C20.5269 21.0676 20.0885 21.0676 19.8182 20.7972L14.7677 15.7468C14.2193 16.1986 13.6059 16.5674 12.947 16.8404C12.0742 17.2019 11.1387 17.388 10.194 17.388C9.24925 17.388 8.31378 17.2019 7.44096 16.8404C6.56815 16.4788 5.77509 15.9489 5.10707 15.2809C4.43904 14.6129 3.90914 13.8198 3.54761 12.947C3.18608 12.0742 3 11.1387 3 10.194C3 8.28602 3.75793 6.4562 5.10707 5.10707ZM10.194 4.38462C8.65324 4.38462 7.17561 4.99667 6.08614 6.08614C4.99667 7.17561 4.38462 8.65324 4.38462 10.194C4.38462 10.9569 4.53488 11.7123 4.82683 12.4171C5.11877 13.122 5.54669 13.7624 6.08614 14.3018C6.62559 14.8413 7.26601 15.2692 7.97083 15.5611C8.67566 15.8531 9.43108 16.0033 10.194 16.0033C10.9569 16.0033 11.7123 15.8531 12.4171 15.5611C13.122 15.2692 13.7624 14.8413 14.3018 14.3018C14.8413 13.7624 15.2692 13.122 15.5611 12.4171C15.8531 11.7123 16.0033 10.9569 16.0033 10.194C16.0033 8.65324 15.3913 7.17561 14.3018 6.08614C13.2124 4.99667 11.7347 4.38462 10.194 4.38462Z" fill="#1C9DC9"/>
</svg>