<svg xmlns="http://www.w3.org/2000/svg" width="32" height="32" viewBox="0 0 32 32" fill="none">
  <path fill-rule="evenodd" clip-rule="evenodd" d="M16.0001 29.3333C23.3639 29.3333 29.3334 23.3638 29.3334 16C29.3334 8.63616 23.3639 2.66663 16.0001 2.66663C8.63628 2.66663 2.66675 8.63616 2.66675 16C2.66675 23.3638 8.63628 29.3333 16.0001 29.3333ZM18.1586 6.67178C17.578 6.67256 16.9964 6.67335 16.4129 6.68238L16.4135 6.68296C16.3982 8.68787 16.3991 10.6933 16.4001 12.7011C16.4007 13.8234 16.4012 14.9464 16.3989 16.0705C16.3964 16.4475 16.3968 16.824 16.3972 17.2003C16.3982 18.2129 16.3992 19.2242 16.3435 20.2385C16.3354 20.5199 16.1942 20.7674 16.0571 21.0077C16.0461 21.0269 16.0352 21.046 16.0244 21.065C15.5717 21.803 14.7393 22.307 13.8707 22.3163C12.5606 22.4324 11.3332 21.3596 11.1483 20.0833C11.1469 20.0208 11.1447 19.9578 11.1425 19.8946C11.1299 19.5346 11.117 19.1675 11.2539 18.832C11.4488 18.2743 11.8216 17.7961 12.315 17.4711C12.9893 17.0027 13.8912 16.9327 14.6629 17.1824C14.6629 16.6904 14.6713 16.1986 14.6797 15.7068C14.691 15.0471 14.7023 14.3874 14.6932 13.7273C13.0039 13.4111 11.1997 13.9455 9.91166 15.0672C8.77533 16.0303 8.04325 17.446 7.90325 18.926C7.88919 19.3117 7.8923 19.6978 7.91258 20.0833C8.07358 21.9033 9.179 23.599 10.7499 24.5254C11.6978 25.0842 12.8091 25.3875 13.9215 25.324C15.7351 25.2936 17.5008 24.3212 18.5182 22.8296C19.1505 21.9336 19.5092 20.8515 19.5699 19.7642C19.5857 18.2705 19.5847 16.774 19.5837 15.2758C19.5832 14.5038 19.5827 13.7313 19.5845 12.9585C19.9887 13.2227 20.4017 13.4811 20.8451 13.6818C21.863 14.1648 22.99 14.3981 24.1117 14.4349V11.303C22.9147 11.1694 21.6845 10.7745 20.8147 9.91171C19.9432 9.06996 19.5151 7.85721 19.4538 6.66663C19.0224 6.67061 18.5908 6.67119 18.1586 6.67178Z" fill="#02455C"/>
</svg>