<svg xmlns="http://www.w3.org/2000/svg" width="272" height="80" viewBox="0 0 272 80" fill="none">
  <path d="M238.662 47.1753C238.847 46.8997 238.934 46.6697 239.116 46.4397C239.489 45.9702 239.969 45.5996 240.514 45.3594C241.059 45.1192 241.653 45.0165 242.246 45.0602C243.114 45.0915 243.94 45.4523 244.559 46.0715C244.813 46.3308 245.012 46.6397 245.144 46.9796C245.277 47.3194 245.34 47.6831 245.33 48.0485C245.33 48.9679 245.376 49.888 245.421 50.853L245.557 54.3013C245.603 55.6345 245.648 56.9683 245.648 58.3015C245.648 60.8766 245.648 63.4511 245.603 66.0262C245.557 67.4975 245.418 68.9688 245.24 70.4402C244.997 72.2233 244.258 73.8986 243.108 75.2679C241.457 77.3183 239.197 78.7701 236.666 79.4062C233.595 80.2823 230.335 80.1862 227.319 79.1306C225.127 78.4053 223.209 77.008 221.829 75.1304C221.607 74.8419 221.41 74.5343 221.24 74.211C220.883 73.629 220.764 72.9283 220.908 72.2584C221.052 71.5885 221.448 71.0022 222.011 70.6246C222.579 70.2114 223.249 69.9668 223.946 69.9181C224.643 69.8694 225.339 70.0186 225.958 70.3489C226.46 70.5747 226.874 70.9627 227.137 71.4527C227.601 72.2519 228.255 72.9195 229.04 73.3936C229.824 73.8677 230.714 74.1332 231.626 74.1653C233.404 74.3951 235.202 73.9353 236.662 72.8778C237.214 72.4876 237.677 71.9824 238.022 71.3958C238.367 70.8092 238.585 70.1547 238.662 69.4757C238.753 68.7401 238.798 68.0044 238.846 67.2688V66.9006C238.662 66.9925 238.574 67.0844 238.484 67.1306C236.746 68.2972 234.751 69.008 232.677 69.1995C230.637 69.4274 228.576 69.0606 226.734 68.1419C225.515 67.5122 224.443 66.6241 223.59 65.5375C222.737 64.4509 222.123 63.191 221.79 61.8429C221.185 59.598 221.031 57.2524 221.336 54.9457C221.498 53.4352 221.896 51.9606 222.515 50.5774C223.967 47.5428 226.235 45.5653 229.592 44.9677C232.306 44.4593 235.11 44.9654 237.486 46.3928C237.848 46.6228 238.211 46.8984 238.665 47.1747M227.778 57.2452C227.823 58.0271 227.869 58.6709 227.962 59.2684C228.075 60.1561 228.352 61.0141 228.779 61.7973C229.029 62.2599 229.388 62.6529 229.823 62.9415C230.258 63.2301 230.756 63.4056 231.274 63.4523C231.963 63.4979 232.653 63.355 233.27 63.0386C234.18 62.6675 234.986 62.0752 235.619 61.3136C236.251 60.552 236.691 59.6444 236.898 58.6702C237.141 57.4604 237.063 56.2064 236.671 55.0376C236.397 54.0934 235.909 53.2275 235.247 52.5089C234.585 51.7904 233.767 51.2391 232.858 50.8993C232.16 50.5648 231.36 50.522 230.631 50.7799C229.902 51.0377 229.301 51.5758 228.957 52.2787C228.535 52.9307 228.256 53.6681 228.141 54.44C228.005 55.4057 227.914 56.4176 227.778 57.2452Z" fill="white"/>
  <path d="M225.235 23.8636H225.734C227.321 23.8636 228.909 23.9099 230.497 23.8636C232.219 23.8174 233.945 23.6799 235.669 23.588C236.483 23.5115 237.301 23.4808 238.118 23.4961C238.984 23.5629 239.793 23.9567 240.387 24.5999C240.646 24.8577 240.851 25.1654 240.991 25.5049C241.132 25.8444 241.204 26.209 241.204 26.5772C241.204 26.9454 241.132 27.3099 240.991 27.6495C240.851 27.989 240.646 28.2966 240.387 28.5545C239.83 29.1631 239.07 29.5399 238.255 29.612C236.395 29.7501 234.535 29.9339 232.675 29.9802C230.362 30.072 228.048 30.072 225.734 30.072H225.19C225.214 31.202 225.351 32.3266 225.598 33.4284C225.913 33.4818 226.232 33.5125 226.551 33.5203C227.866 33.5666 229.137 33.5666 230.452 33.5666C231.858 33.5666 233.31 33.4747 234.717 33.4284C235.896 33.3822 237.03 33.2903 238.209 33.1984C239.234 33.0672 240.269 33.3296 241.113 33.9341C241.489 34.1847 241.8 34.5249 242.018 34.9253C242.236 35.3257 242.355 35.7741 242.364 36.2317C242.373 36.6892 242.272 37.1421 242.07 37.551C241.868 37.9599 241.57 38.3124 241.204 38.5781C240.577 39.0719 239.818 39.3605 239.026 39.4056C237.12 39.5437 235.261 39.6812 233.355 39.7275C230.951 39.8194 228.546 39.9112 226.099 39.7737C225.079 39.7219 224.063 39.5989 223.059 39.4056C220.609 38.9456 219.203 37.4286 218.613 34.9916C218.321 33.754 218.139 32.4922 218.069 31.2215C217.933 28.9226 217.978 26.6237 218.024 24.3705C218.069 22.7611 218.251 21.1979 218.341 19.5884L218.613 16.6914C218.798 14.7144 219.884 13.4725 221.565 12.645C222.689 12.1419 223.882 11.8162 225.103 11.6793C227.617 11.3801 230.151 11.2879 232.679 11.4037C234.766 11.4499 236.853 11.6793 238.94 11.8637C239.481 11.8998 240.015 12.008 240.528 12.1856C240.929 12.3132 241.299 12.527 241.612 12.8126C241.925 13.0981 242.174 13.4487 242.342 13.8406C242.6 14.4155 242.655 15.063 242.498 15.6742C242.341 16.2854 241.982 16.8232 241.481 17.1971C241.038 17.554 240.528 17.8156 239.982 17.9661C239.436 18.1165 238.866 18.1526 238.306 18.0721C236.537 17.8883 234.768 17.7502 232.953 17.704C231.774 17.6577 230.549 17.6121 229.369 17.6121C228.247 17.62 227.126 17.6968 226.012 17.8421C225.649 17.8883 225.604 17.934 225.604 18.3021C225.468 19.9116 225.332 21.5666 225.196 23.1773C225.233 23.4044 225.248 23.6347 225.241 23.8649" fill="black"/>
  <path d="M251.866 39.9562C250.82 39.91 250.006 39.91 249.235 39.8181C248.782 39.7617 248.344 39.6149 247.947 39.3861C247.55 39.1573 247.201 38.851 246.921 38.4849C246.682 38.2035 246.506 37.8729 246.404 37.5159C246.302 37.1589 246.278 36.7837 246.331 36.4161C246.377 35.3123 246.516 34.2091 246.516 33.1034C246.561 30.1608 246.607 27.1719 246.607 24.228C246.607 22.0671 246.562 19.9059 246.471 17.7446C246.426 16.7791 246.38 15.8134 246.335 14.8476C246.289 14.0543 246.539 13.2725 247.035 12.6584C247.531 12.0443 248.237 11.6431 249.012 11.5349C249.792 11.4126 250.584 11.3817 251.371 11.443C252.817 11.48 254.258 11.6339 255.68 11.9031C259.064 12.4476 262.295 13.7192 265.156 15.6332C266.974 16.8322 268.545 18.3781 269.784 20.1853C271.014 21.9314 271.765 23.9785 271.961 26.1168C272.091 27.4778 271.94 28.8512 271.518 30.1496C271.096 31.4479 270.413 32.6427 269.511 33.6578C267.852 35.5478 265.766 36.9995 263.433 37.888C261.13 38.7889 258.72 39.3773 256.265 39.6381C254.768 39.8219 253.181 39.8681 251.865 39.96M253.725 17.9815C253.77 19.8209 253.861 21.5216 253.861 23.2692C253.906 24.9705 253.861 26.7175 253.861 28.4188C253.861 30.1202 253.815 31.8671 253.77 33.6147H254.132C255.807 33.5063 257.465 33.2129 259.077 32.7397C260.689 32.2987 262.169 31.4615 263.387 30.302C263.959 29.7441 264.375 29.0407 264.59 28.2646C264.806 27.4885 264.813 26.668 264.612 25.8881C264.248 24.2572 263.352 22.799 262.071 21.7498C260.154 20.054 257.844 18.8829 255.357 18.3471C254.826 18.1711 254.279 18.0478 253.724 17.979" fill="black"/>
  <path d="M128.065 57.7971C128.065 60.6478 127.611 62.9011 126.343 64.9699C124.94 67.3545 122.756 69.1613 120.174 70.0739C118.069 70.846 115.824 71.1446 113.594 70.949C110.941 70.8032 108.367 69.9811 106.109 68.5582C103.555 67.0395 101.599 64.6669 100.575 61.8454C100.192 60.7651 99.9629 59.635 99.8939 58.489C99.771 56.7094 100.018 54.9235 100.62 53.2475C101.269 51.5853 102.278 50.0925 103.571 48.8792C105.899 46.6463 108.877 45.2425 112.057 44.879C114.912 44.4178 117.837 44.7844 120.495 45.9365C124.442 47.6866 126.801 50.7643 127.709 55.0407C127.96 55.9377 128.082 56.867 128.071 57.7996M106.704 57.3858C106.658 58.4519 106.85 59.5149 107.267 60.4945C107.683 61.4741 108.313 62.3449 109.109 63.0411C110.104 63.965 111.306 64.628 112.61 64.9726C113.914 65.3171 115.282 65.3327 116.594 65.018C117.589 64.8446 118.516 64.3907 119.27 63.7079C120.024 63.0251 120.574 62.1409 120.858 61.156C121.509 59.15 121.477 56.9796 120.767 54.9944C120.441 53.9204 119.827 52.9599 118.993 52.2209C118.16 51.4819 117.141 50.9935 116.049 50.8105C114.841 50.5405 113.589 50.5533 112.386 50.8481C111.184 51.1428 110.063 51.7118 109.109 52.5118C108.36 53.0763 107.753 53.8116 107.335 54.6584C106.918 55.5052 106.702 56.4386 106.704 57.3858Z" fill="black"/>
  <path d="M171.888 32.6459C171.888 33.3816 171.843 34.0716 171.843 34.761C171.797 35.4485 171.797 36.1867 171.752 36.8761C171.713 37.4516 171.519 38.0051 171.191 38.4756C170.863 38.9462 170.413 39.3156 169.892 39.5431C169.14 39.9016 168.299 40.0188 167.481 39.8791C166.662 39.7394 165.905 39.3494 165.31 38.7612C165.057 38.5109 164.858 38.21 164.725 37.8776C164.593 37.5452 164.529 37.1884 164.539 36.8298C164.584 34.301 164.675 31.7259 164.675 29.197C164.675 26.99 164.675 24.783 164.629 22.5761C164.584 21.0135 164.493 19.4953 164.445 17.9321C164.399 16.9208 164.354 15.9089 164.26 14.8513C164.229 14.3692 164.321 13.8871 164.528 13.4521C164.735 13.017 165.049 12.6437 165.44 12.3687C166.156 11.8422 167.015 11.5532 167.899 11.5412C169.395 11.4949 170.938 11.4493 172.435 11.4949C176.126 11.548 179.768 12.3613 183.141 13.8856C184.612 14.5504 185.95 15.4857 187.088 16.6445C188.092 17.6279 188.787 18.8922 189.084 20.2772C189.24 21.0865 189.232 21.9196 189.06 22.7256C188.889 23.5317 188.557 24.2936 188.086 24.9649C186.962 26.6029 185.469 27.9431 183.731 28.8732C181.244 30.2184 178.588 31.2084 175.835 31.8152C174.746 32.0909 173.658 32.2753 172.524 32.5028C172.339 32.549 172.115 32.5947 171.888 32.6409M171.704 17.7433C171.795 20.6403 171.888 23.3986 171.931 26.2037C172.069 26.2138 172.207 26.1981 172.339 26.1575C173.385 25.9275 174.426 25.6975 175.424 25.4218C177.114 24.9636 178.733 24.2673 180.233 23.353C180.796 23.026 181.29 22.5883 181.685 22.0654C181.838 21.8962 181.923 21.6747 181.923 21.4448C181.923 21.2148 181.838 20.9933 181.685 20.8241C181.594 20.686 181.458 20.5941 181.368 20.456C180.785 19.9414 180.127 19.5226 179.417 19.2146C177.694 18.4964 175.874 18.0469 174.019 17.8815L171.704 17.7433Z" fill="black"/>
  <path d="M198.79 32.6922V34.0716C198.744 35.0829 198.699 36.0486 198.654 37.0605C198.593 37.8049 198.252 38.4968 197.701 38.9918C196.933 39.6595 195.945 40.0068 194.935 39.9642C193.925 39.9215 192.968 39.4919 192.257 38.7618C191.99 38.4843 191.783 38.1524 191.65 37.7879C191.517 37.4235 191.461 37.0346 191.486 36.6467C191.486 36.1867 191.532 35.7717 191.532 35.3135C191.577 32.049 191.622 28.7382 191.622 25.4737C191.622 23.7724 191.577 22.071 191.486 20.3697C191.395 18.4846 191.259 16.6452 191.169 14.7601C191.146 14.3312 191.224 13.9029 191.398 13.5113C191.572 13.1197 191.835 12.7762 192.167 12.51C192.897 11.864 193.83 11.5052 194.798 11.4987C196.296 11.4524 197.838 11.4068 199.335 11.4524C203.281 11.6362 207.092 12.2799 210.63 14.1194C212.043 14.8105 213.308 15.7794 214.35 16.9702C215.279 17.9477 215.868 19.2071 216.028 20.5566C216.227 22.0875 215.872 23.6395 215.03 24.9249C213.924 26.561 212.446 27.9017 210.721 28.8332C208.341 30.1544 205.791 31.1296 203.145 31.7302C201.738 32.0984 200.287 32.374 198.79 32.6959M198.605 17.7983C198.696 20.6491 198.741 23.408 198.832 26.2125C198.94 26.2231 199.049 26.2073 199.15 26.1662C200.643 25.897 202.114 25.5128 203.55 25.0168C204.985 24.5655 206.346 23.8992 207.588 23.0398C208.015 22.7443 208.385 22.3699 208.677 21.936C208.776 21.7954 208.83 21.6265 208.83 21.4532C208.83 21.2799 208.776 21.111 208.677 20.9704C208.501 20.7096 208.286 20.4777 208.041 20.2828C207.483 19.8918 206.891 19.5533 206.272 19.2715C204.797 18.6336 203.238 18.2155 201.645 18.0302C200.641 17.8605 199.623 17.7836 198.605 17.8002" fill="black"/>
  <path d="M205.64 71.0389C202.125 71.0645 198.699 69.9177 195.887 67.7744C193.612 66.1134 191.963 63.7125 191.213 60.9691C190.467 58.2927 190.643 55.4375 191.713 52.8769C192.352 51.3391 193.33 49.9707 194.571 48.8767C197.191 46.4431 200.554 44.9984 204.097 44.7846C206.773 44.5208 209.469 44.9975 211.9 46.164C213.601 46.9538 215.09 48.147 216.242 49.6433C217.395 51.1395 218.177 52.8951 218.524 54.7626C219.098 57.2043 219.035 59.7564 218.339 62.1654C217.862 63.8646 217.015 65.433 215.86 66.7542C214.706 68.0755 213.274 69.1159 211.67 69.7983C210.116 70.5201 208.434 70.9113 206.726 70.9477C206.365 71.005 206.001 71.0357 205.636 71.0396M212.169 58.3515C212.186 57.3912 212.079 56.4328 211.852 55.5007C211.035 52.8337 209.357 51.1324 206.589 50.7186C204.507 50.3781 202.376 50.8727 200.646 52.0981C199.673 52.6954 198.876 53.5492 198.341 54.569C197.806 55.5889 197.552 56.7369 197.607 57.8915C197.623 58.8699 197.842 59.8339 198.248 60.721C198.654 61.6081 199.239 62.3985 199.966 63.0411C200.978 63.9977 202.209 64.6834 203.548 65.0366C204.886 65.3898 206.29 65.3993 207.633 65.0643C208.622 64.8727 209.541 64.4061 210.285 63.7162C211.03 63.0263 211.572 62.1401 211.852 61.156C212.037 60.2322 212.143 59.2939 212.169 58.3515Z" fill="white"/>
  <path d="M143.671 50.578C143.429 50.8403 143.201 51.1166 142.99 51.4055C142.234 52.5481 141.624 53.7842 141.176 55.0838C140.274 57.5809 139.576 60.149 139.089 62.7623C138.726 64.6474 138.454 66.5325 138.182 68.4176C138.126 68.8098 137.987 69.1851 137.776 69.5183C137.564 69.8514 137.285 70.1347 136.957 70.3489C136.267 70.8131 135.447 71.0371 134.621 70.9874C133.795 70.9377 133.007 70.617 132.375 70.0733C131.857 69.5972 131.533 68.9408 131.468 68.2338C131.332 66.2106 131.151 64.2336 130.97 62.2104C130.785 60.1416 130.607 58.1183 130.425 56.0489C130.289 54.4394 130.153 52.7843 130.063 51.1736C129.971 50.208 129.972 49.2423 129.878 48.3229C129.833 47.8712 129.9 47.4152 130.075 46.9972C130.249 46.5792 130.525 46.2129 130.876 45.9321C131.631 45.3173 132.589 45.0219 133.553 45.1076C134.516 45.1933 135.41 45.6534 136.048 46.3922C136.367 46.8179 136.556 47.3295 136.592 47.8635C136.637 48.2316 136.637 48.5991 136.683 49.0592C136.819 48.921 136.867 48.8292 136.955 48.7373C137.652 47.6559 138.545 46.7195 139.587 45.9784C140.443 45.3764 141.42 44.9737 142.447 44.7989C143.474 44.6241 144.526 44.6816 145.529 44.9671C146.502 45.237 147.413 45.7012 148.207 46.3328C149.002 46.9643 149.664 47.7505 150.157 48.6454C151.03 50.1844 151.687 51.8405 152.107 53.565C152.553 55.4276 152.887 57.3162 153.105 59.2203C153.416 61.9522 153.568 64.7005 153.559 67.4507C153.619 68.2224 153.383 68.9878 152.902 69.5875C152.42 70.1871 151.729 70.5747 150.973 70.6696C150.333 70.8359 149.659 70.8117 149.031 70.5997C148.404 70.3877 147.85 69.9969 147.435 69.4739C147.009 68.9957 146.781 68.3686 146.8 67.7238C146.8 66.62 146.8 65.5624 146.754 64.4593C146.663 62.7092 146.527 60.9191 146.346 59.1715C146.202 57.5507 145.898 55.9486 145.439 54.3894C145.196 53.3747 144.814 52.3996 144.305 51.4924C144.12 51.2168 143.897 50.9405 143.67 50.573" fill="black"/>
  <path d="M170.935 71.0396C170.119 70.9933 169.213 71.0396 168.304 70.9477C167.846 70.912 167.401 70.7739 167.001 70.5435C166.601 70.3131 166.256 69.9959 165.991 69.6145C165.624 69.1292 165.446 68.5234 165.491 67.9132C165.537 66.7638 165.627 65.6631 165.676 64.5105C165.721 61.1079 165.767 57.7052 165.721 54.3032C165.721 52.5531 165.63 50.8549 165.537 49.1073C165.537 48.6473 165.491 48.1879 165.491 47.7279C165.463 47.4104 165.501 47.0904 165.602 46.7889C165.704 46.4873 165.867 46.2109 166.081 45.9778C166.393 45.5994 166.782 45.2931 167.22 45.0791C167.658 44.865 168.135 44.7482 168.621 44.7365C172.851 44.6092 177.05 45.5075 180.87 47.3572C183.4 48.5573 185.574 50.4126 187.176 52.7368C188.565 54.7025 189.282 57.0766 189.217 59.4959C189.108 61.8161 188.154 64.0121 186.54 65.6574C184.762 67.4809 182.564 68.8242 180.145 69.5658C178.073 70.2524 175.925 70.6695 173.75 70.8071C172.797 70.9452 171.935 70.9908 170.937 71.0371M172.389 65.1518C174.145 65.0815 175.885 64.7723 177.561 64.2324C178.742 63.8822 179.839 63.2863 180.782 62.4823C181.508 61.8962 182.032 61.0897 182.277 60.18C182.522 59.2704 182.475 58.3051 182.142 57.4246C181.621 55.9976 180.708 54.7528 179.511 53.8381C177.771 52.4766 175.758 51.5193 173.614 51.0336C173.206 50.9418 172.797 50.8955 172.299 50.8036C172.525 55.6314 172.525 60.3666 172.39 65.1493" fill="white"/>
  <path d="M259.397 70.9933C256.927 71.0211 254.475 70.5523 252.184 69.6139C250.874 69.1127 249.705 68.2917 248.781 67.2231C248.499 66.901 248.256 66.546 248.056 66.1656C247.747 65.6525 247.623 65.0461 247.706 64.4505C247.789 63.8549 248.073 63.3072 248.51 62.9011C249.179 62.3166 250.023 61.9802 250.905 61.9468C251.787 61.9135 252.654 62.1851 253.364 62.7173C253.606 62.9013 253.807 63.1357 253.954 63.4048C254.215 63.8174 254.596 64.1384 255.043 64.3243C255.738 64.6351 256.47 64.8515 257.22 64.968C258.907 65.2756 260.639 65.213 262.301 64.7843C262.741 64.6639 263.167 64.4943 263.571 64.2786C263.735 64.2135 263.877 64.1017 263.979 63.9567C264.013 63.9272 264.04 63.8898 264.057 63.8476C264.073 63.8055 264.08 63.7598 264.075 63.7146C264.071 63.6694 264.056 63.626 264.031 63.588C264.006 63.5501 263.973 63.5187 263.934 63.4967C263.774 63.3791 263.607 63.2715 263.435 63.1748C262.427 62.6742 261.38 62.259 260.305 61.9335C258.717 61.3816 257.129 60.876 255.541 60.2784C253.992 59.7233 252.548 58.8985 251.277 57.8408C250.142 56.9344 249.304 55.7003 248.872 54.3007C248.501 52.9818 248.527 51.5798 248.947 50.2762C249.368 48.9725 250.163 47.827 251.231 46.9878C252.66 45.8392 254.369 45.108 256.176 44.8727C259.617 44.2818 263.153 44.6799 266.384 46.0222C267.674 46.5223 268.847 47.2884 269.832 48.2723C270.407 48.8886 270.841 49.6267 271.102 50.4336C271.209 50.7801 271.236 51.1469 271.181 51.5057C271.126 51.8645 270.991 52.2055 270.785 52.5025C269.288 54.7526 265.704 54.3875 264.706 52.1343C264.65 51.9932 264.564 51.8664 264.455 51.7631C264.345 51.6598 264.214 51.5825 264.071 51.5368C263.394 51.2285 262.697 50.9673 261.985 50.7549C260.388 50.2882 258.698 50.2565 257.085 50.663C256.789 50.7424 256.501 50.8502 256.225 50.9849C256.003 51.0981 255.813 51.2648 255.67 51.4703C255.527 51.6758 255.436 51.9139 255.404 52.1636C255.373 52.4133 255.403 52.667 255.49 52.9024C255.578 53.1378 255.721 53.3477 255.907 53.5137C256.291 53.8831 256.736 54.1795 257.223 54.3888C257.811 54.6882 258.417 54.9493 259.037 55.1707C260.988 55.8582 262.938 56.5039 264.844 57.1939C266.202 57.6706 267.473 58.3694 268.609 59.2628C269.689 60.0493 270.447 61.2107 270.741 62.5273C270.938 63.423 270.904 64.3552 270.641 65.2334C270.379 66.1116 269.898 66.906 269.244 67.5394C268.115 68.6882 266.706 69.513 265.162 69.9301C263.329 70.6657 261.371 71.0252 259.401 70.9877" fill="white"/>
  <path d="M108.06 17.8408C108.105 19.6803 108.105 21.5191 108.151 23.3586C108.345 23.3951 108.543 23.4106 108.74 23.4048C111.19 23.4048 113.64 23.4048 116.089 23.3586C117.677 23.3586 119.265 23.2667 120.853 23.2667C121.389 23.2752 121.915 23.4131 122.388 23.6689C122.861 23.9247 123.268 24.2911 123.574 24.738C123.975 25.2721 124.169 25.9373 124.119 26.6071C124.069 27.2769 123.778 27.9046 123.302 28.3707C122.562 29.0708 121.591 29.4645 120.58 29.4745C116.679 29.6126 112.823 29.7045 108.922 29.6583H108.378V30.7621C108.423 32.3246 108.469 33.9347 108.469 35.4979C108.455 36.0854 108.393 36.6708 108.284 37.248C108.181 37.9252 107.823 38.5353 107.286 38.9493C106.548 39.5276 105.639 39.8336 104.707 39.8169C103.776 39.8002 102.877 39.4618 102.16 38.8574C101.763 38.5448 101.463 38.1233 101.294 37.6426C101.125 37.1619 101.095 36.6422 101.207 36.1448C101.243 35.9788 101.258 35.809 101.253 35.6392L101.117 28.8801C101.117 28.1926 101.072 27.5469 101.072 26.8569C101.026 25.4312 100.981 23.9599 100.981 22.5348C100.935 20.6953 100.89 18.8565 100.89 17.017C100.875 16.5553 100.905 16.0932 100.981 15.6376C101.059 15.0092 101.286 14.4094 101.641 13.8891C101.997 13.3688 102.47 12.9433 103.022 12.6487C104.014 12.1832 105.069 11.8732 106.152 11.7293C108.032 11.4833 109.928 11.3758 111.823 11.4074C113.411 11.4074 114.999 11.4535 116.586 11.5455C117.902 11.5918 119.218 11.7293 120.487 11.8212C121.213 11.8674 121.894 11.9131 122.619 12.0049C123.383 12.1194 124.086 12.4919 124.615 13.0625C124.888 13.3452 125.099 13.6832 125.234 14.0544C125.369 14.4255 125.425 14.8215 125.4 15.2164C125.374 15.6113 125.267 15.9962 125.085 16.346C124.902 16.6959 124.65 17.0027 124.343 17.2464C123.89 17.6012 123.371 17.8612 122.819 18.0114C122.266 18.1616 121.689 18.199 121.122 18.1215C119.761 18.0296 118.4 17.9377 116.994 17.8458C115.86 17.7996 114.771 17.7077 113.637 17.6621C111.822 17.6158 110.009 17.6158 108.193 17.754C108.239 17.8002 108.193 17.8002 108.057 17.8458" fill="black"/>
  <path d="M135.006 33.5197C135.913 33.5659 136.728 33.6116 137.592 33.6116C139.769 33.6116 141.901 33.5653 144.079 33.5197C144.986 33.5197 145.893 33.4278 146.8 33.3816C147.391 33.3181 147.989 33.3929 148.547 33.6001C149.105 33.8074 149.61 34.1416 150.021 34.5772C150.527 35.1098 150.806 35.8237 150.798 36.564C150.789 37.3044 150.494 38.0114 149.976 38.5318C149.608 38.9075 149.169 39.2031 148.686 39.4008C148.202 39.5984 147.684 39.6938 147.163 39.6812C144.532 39.7731 141.856 39.865 139.224 39.865C137.455 39.865 135.732 39.7731 133.962 39.6812C133.228 39.645 132.498 39.5372 131.784 39.3593C131.024 39.2041 130.314 38.8576 129.72 38.3515C129.126 37.8454 128.665 37.1958 128.382 36.4623C127.966 35.4513 127.706 34.3812 127.611 33.2897C127.391 31.2439 127.33 29.1837 127.426 27.1281C127.472 25.9325 127.472 24.6905 127.517 23.4955C127.608 22.116 127.702 20.7366 127.835 19.4034C127.926 18.3921 128.019 17.3802 128.152 16.3689C128.243 15.6332 128.288 14.9432 128.379 14.2075C128.471 13.5681 128.756 12.9737 129.195 12.5062C129.591 12.133 130.056 11.8428 130.562 11.6523C131.068 11.4619 131.606 11.3748 132.146 11.3962C132.685 11.4175 133.215 11.5469 133.705 11.7769C134.196 12.0068 134.636 12.3328 135.002 12.7362C135.261 13.0329 135.45 13.3865 135.552 13.7694C135.654 14.1523 135.668 14.554 135.592 14.9432C135.456 15.9545 135.365 16.9202 135.275 17.9321C135.139 19.3572 135.002 20.7828 134.912 22.1623C134.866 22.9898 134.821 23.8636 134.776 24.6912C134.73 26.3925 134.685 28.0938 134.685 29.7951C134.653 31.0448 134.76 32.2941 135.002 33.5197" fill="black"/>
  <path d="M160.002 27.5882C160.002 28.692 160.048 29.7951 160.002 30.9008C159.927 32.9284 159.669 34.9446 159.231 36.9242C159.107 37.5069 158.854 38.0535 158.493 38.5232C158.132 38.9929 157.67 39.3736 157.144 39.6369C156.358 40.0391 155.45 40.1203 154.606 39.8638C153.763 39.6073 153.048 39.0326 152.608 38.2574C152.262 37.7201 152.028 37.1169 151.918 36.4846C151.809 35.8523 151.828 35.204 151.973 34.5791C152.19 33.4432 152.297 32.2881 152.29 31.1308V22.8067C152.29 21.4735 152.244 20.1397 152.199 18.8065C152.153 17.8871 152.108 16.967 152.108 16.0939C152.117 15.0266 152.503 13.9983 153.197 13.1969C153.53 12.8052 153.943 12.4919 154.407 12.2786C154.871 12.0652 155.375 11.957 155.884 11.9614C156.393 11.9658 156.895 12.0827 157.356 12.304C157.816 12.5254 158.224 12.8458 158.55 13.2431C159.183 14.0055 159.55 14.9591 159.595 15.9557C159.641 17.8408 159.731 19.7722 159.78 21.6573C159.871 23.6342 159.964 25.6118 160.007 27.5425C160.052 27.5888 160.007 27.5888 160.007 27.5888" fill="black"/>
  <path d="M64.4185 1.47623e-06H13.2014C9.70614 -0.00166417 6.35305 1.40626 3.87804 3.91477C1.40302 6.42327 0.00830685 9.82739 0 13.38V65.2912C0.00830685 68.8438 1.40302 72.2479 3.87804 74.7564C6.35305 77.2649 9.70614 78.6729 13.2014 78.6712H64.4185C67.9137 78.6729 71.2668 77.2649 73.7418 74.7564C76.2168 72.2479 77.6115 68.8438 77.6198 65.2912V13.38C77.6039 9.82979 76.2068 6.43016 73.7334 3.92332C71.26 1.41649 67.9114 0.00607295 64.4185 1.47623e-06Z" fill="white"/>
  <path fill-rule="evenodd" clip-rule="evenodd" d="M57.3412 78.6256C55.7713 76.6277 54.3605 74.5059 53.1222 72.2803C51.3075 69.1551 49.5383 62.3023 50.1281 61.3372C48.8001 62.2936 47.7501 63.596 47.0885 65.1074C46.1822 67.2812 45.6601 69.6003 45.5462 71.9584C45.4552 73.5678 45.4103 76.5561 45.4552 78.6256H57.3412Z" fill="black"/>
  <path d="M44.3668 78.6255C43.8899 76.2936 43.284 73.9909 42.5521 71.7284C42.1893 70.8533 41.781 69.9352 41.2816 68.9695C40.809 68.0912 40.2785 67.2463 39.6939 66.4406C38.4752 64.8788 36.8589 63.6862 35.0204 62.9923C35.4742 64.0961 35.1563 67.7282 34.8359 69.7514C34.2346 72.8431 33.1648 75.8211 31.6647 78.5793L44.3668 78.6255Z" fill="black"/>
  <path fill-rule="evenodd" clip-rule="evenodd" d="M27.4008 61.521C27.0576 61.4318 26.7081 61.3703 26.3554 61.3372C23.4037 60.7853 20.5486 59.3603 19.2332 58.1646C18.5111 57.4219 17.9456 56.5374 17.5712 55.565C17.1968 54.5927 17.0214 53.5529 17.0558 52.5093C17.0558 52.5093 17.0558 52.2793 16.8713 52.2793C16.8475 52.2729 16.8226 52.2714 16.7982 52.2749C16.7738 52.2784 16.7503 52.2868 16.7291 52.2997C16.708 52.3126 16.6896 52.3296 16.675 52.3498C16.6605 52.3701 16.65 52.3931 16.6444 52.4175C16.2361 53.3369 15.8733 54.0725 15.6463 54.6676C15.6008 54.2075 15.5553 53.9319 15.5553 53.9319C15.4077 51.3195 15.7305 48.7017 16.5079 46.2072C16.9617 44.5058 17.6873 42.3907 18.6853 39.7237L19.3661 37.9305C20.9538 33.8841 21.9064 31.2633 22.3177 30.1139C22.5902 29.1945 22.862 28.3638 23.0434 27.5388H23.0889V27.4469C22.9044 27.2169 22.7716 27.0788 22.7261 27.0788C18.9135 27.4925 15.6039 31.8146 12.7912 39.9994C11.3394 44.1833 10.0695 46.5747 9.02598 47.2641C8.92227 47.3412 8.80445 47.3965 8.67943 47.4267C8.55441 47.457 8.42472 47.4615 8.29795 47.4401C8.17119 47.4186 8.04991 47.3717 7.94124 47.302C7.83257 47.2322 7.7387 47.1412 7.66513 47.0341C7.06932 46.1619 6.6527 45.1766 6.44019 44.1371C5.08119 38.5312 3.94664 33.6109 3.08512 29.4733C2.2236 25.3356 3.90298 21.7023 6.94074 19.3115C9.98035 16.9664 12.702 16.2308 13.8815 16.0926C15.2423 15.9545 16.8332 16.0464 19.9601 17.2883C22.4155 18.3482 24.7822 19.6091 27.0367 21.0585C27.9248 20.3864 28.8836 19.8168 29.8956 19.3603C31.9822 18.5561 34.1627 18.0308 36.3825 17.7977V17.844C33.7967 18.1196 32.7076 19.4534 33.116 21.936C33.5243 24.4186 33.7967 26.8113 33.9769 29.2007C34.1786 31.5701 34.224 33.9505 34.1128 36.3261C34.0673 38.1655 34.0218 39.4068 32.8423 40.97C32.3866 41.5067 31.8687 41.9854 31.3001 42.3957C30.6648 42.9014 29.5782 43.7752 28.0335 45.1084C26.7987 46.2227 25.6883 47.4718 24.7221 48.8329C23.4773 50.2265 22.8107 52.0553 22.862 53.9369C22.8503 55.2403 23.2137 56.5188 23.9073 57.6152C24.9022 59.0646 26.0761 60.3781 27.4002 61.5235" fill="black"/>
  <path fill-rule="evenodd" clip-rule="evenodd" d="M58.4296 54.2563C58.9586 52.7603 59.0017 51.1313 58.5527 49.6086C58.1036 48.0859 57.1861 46.7496 55.9349 45.7959C54.722 44.6464 53.3824 43.6434 51.9427 42.807C50.1736 41.8413 48.9031 41.1519 48.223 40.7838C47.5855 40.4744 46.9779 40.1048 46.4083 39.68C45.002 38.3924 44.6865 37.1511 44.2764 35.4035C43.7354 33.0846 43.3256 30.736 43.049 28.3695C42.7765 26.0243 42.5951 23.5874 42.5503 21.1047C42.4592 18.6221 41.1439 17.4721 38.5581 17.7483V17.7027C40.7832 17.4919 43.0261 17.5846 45.2271 17.9783C46.3119 18.2327 47.3628 18.6186 48.3571 19.1278C50.2967 17.2668 52.3746 15.5604 54.5722 14.0238C57.3849 12.1843 58.9271 11.7737 60.3335 11.633C62.9225 11.5861 65.4815 12.2028 67.7742 13.4263C71.2221 15.1763 73.5355 18.3921 73.493 22.6223C73.4475 26.8988 73.2661 31.9102 72.9937 37.658C73.0036 38.7195 72.7868 39.7706 72.3585 40.7388C72.3097 40.8584 72.2376 40.9667 72.1467 41.0574C72.0557 41.148 71.9477 41.219 71.8291 41.2662C71.7104 41.3134 71.5837 41.3358 71.4564 41.3321C71.329 41.3284 71.2038 41.2985 71.088 41.2444C69.9086 40.7844 68.2298 38.6237 66.0075 34.8535C61.698 27.3588 57.6149 23.7724 53.8041 24.0943C53.7586 24.0943 53.6678 24.2322 53.5317 24.508V24.5999H53.5772C53.94 25.3356 54.3028 26.1175 54.8022 26.9906C55.3919 28.0482 56.8437 30.3933 59.1571 34.0716C59.5199 34.6235 59.8378 35.1754 60.1551 35.7267C61.3715 37.6452 62.4919 39.6249 63.5121 41.6582C64.8729 44.4627 65.6895 46.8997 65.8709 49.061C65.8709 49.061 65.9165 49.3367 65.962 49.7967C65.5992 49.2448 65.1453 48.601 64.5556 47.7735C64.5247 47.7319 64.4821 47.7008 64.4335 47.6844C64.3848 47.668 64.3324 47.667 64.2832 47.6816C64.0987 47.7279 64.1473 47.9572 64.1473 47.9572C64.384 48.9758 64.4095 50.0333 64.2219 51.0624C64.0344 52.0915 63.6381 53.0696 63.0582 53.9344C62.0129 55.3595 59.4301 57.3371 56.6629 58.4402C56.5719 58.4865 56.2546 58.624 55.6649 58.854C56.8262 57.4838 57.7607 55.931 58.4321 54.2563" fill="black"/>
  <path fill-rule="evenodd" clip-rule="evenodd" d="M29.9411 34.0716C30.6822 34.3927 31.3276 34.9055 31.8131 35.5589C32.2986 36.2124 32.6072 36.9837 32.7083 37.7961C32.8446 38.7067 32.7021 39.6378 32.2999 40.4631C32.0493 41.0442 31.6815 41.5654 31.2205 41.9931C30.7594 42.4208 30.2153 42.7456 29.6231 42.9464C29.0327 43.1746 28.4032 43.28 27.7719 43.2562C27.1407 43.2325 26.5205 43.0802 25.9483 42.8083C25.3743 42.55 24.8574 42.1766 24.4288 41.7105C24.0001 41.2444 23.6684 40.6951 23.4535 40.0956C23.2129 39.5116 23.0929 38.8835 23.1008 38.2504C23.1088 37.6173 23.2445 36.9925 23.4997 36.4149C23.7548 35.8373 24.1239 35.319 24.5842 34.8923C25.0444 34.4656 25.5859 34.1394 26.1752 33.9341C26.7785 33.6928 27.4242 33.5805 28.072 33.6043C28.7198 33.6281 29.3565 33.7867 29.9411 34.0716Z" fill="white"/>
  <path fill-rule="evenodd" clip-rule="evenodd" d="M32.2563 37.5199C31.9151 36.6011 31.2296 35.8572 30.35 35.451C29.5863 35.0804 28.7176 34.9988 27.9001 35.221C28.0417 35.2882 28.1669 35.3865 28.2668 35.5087C28.3667 35.6309 28.4387 35.774 28.4777 35.9279C28.5167 36.0817 28.5218 36.2424 28.4925 36.3984C28.4633 36.5545 28.4004 36.702 28.3084 36.8305C28.2629 36.9915 28.1817 37.1398 28.0711 37.2641C27.9605 37.3883 27.8234 37.4852 27.6703 37.5473C27.5172 37.6094 27.3521 37.6352 27.1878 37.6225C27.0234 37.6098 26.864 37.5591 26.7219 37.4743C26.52 37.4022 26.3477 37.2634 26.2326 37.08C26.1174 36.8967 26.066 36.6794 26.0867 36.463V36.3248C25.8645 36.5978 25.6671 36.8907 25.4969 37.1999C25.2917 37.6355 25.1777 38.1097 25.1621 38.5924C25.1464 39.0751 25.2294 39.5559 25.4059 40.0044C25.5759 40.4532 25.832 40.8632 26.1593 41.2105C26.4865 41.5578 26.8784 41.8356 27.3122 42.0276C28.1973 42.4401 29.2048 42.4895 30.1249 42.1657C30.5669 41.9942 30.971 41.7352 31.3136 41.4036C31.6563 41.0721 31.9307 40.6746 32.121 40.2344C32.3235 39.8149 32.44 39.3579 32.4632 38.8913C32.4865 38.4246 32.4161 37.958 32.2563 37.5199Z" fill="black"/>
  <path fill-rule="evenodd" clip-rule="evenodd" d="M46.9981 36.968C46.9517 36.1439 47.1152 35.3217 47.4728 34.5806C47.8305 33.8396 48.3701 33.2049 49.0396 32.7378C50.0729 31.9749 51.362 31.6602 52.6235 31.8627C53.2505 31.9393 53.8541 32.1513 54.3939 32.4844C54.9338 32.8175 55.3973 33.264 55.7535 33.7941C56.1143 34.3076 56.3687 34.8903 56.5013 35.5068C56.6338 36.1233 56.6418 36.7608 56.5246 37.3805C56.4248 38.0151 56.2007 38.6228 55.8656 39.1678C55.5306 39.7127 55.0914 40.1838 54.574 40.5531C54.0646 40.9339 53.4835 41.2039 52.8669 41.3463C52.2503 41.4887 51.6115 41.5004 50.9902 41.3807C50.3733 41.3088 49.7787 41.1033 49.2466 40.7781C48.7144 40.453 48.2569 40.0156 47.9051 39.4956C47.3481 38.7708 47.0307 37.887 46.9981 36.968Z" fill="white"/>
  <path fill-rule="evenodd" clip-rule="evenodd" d="M53.9855 34.9448C53.7483 34.6354 53.474 34.3574 53.1689 34.1172C53.2422 34.2654 53.3038 34.4192 53.3534 34.5772C53.4098 34.7863 53.3957 35.0086 53.3135 35.2086C53.2313 35.4086 53.0856 35.5749 52.8996 35.681C52.7754 35.7904 52.6285 35.8697 52.4699 35.9132C52.3113 35.9568 52.1451 35.9633 51.9837 35.9323C51.8222 35.9014 51.6698 35.8338 51.5377 35.7345C51.4056 35.6353 51.2973 35.5069 51.2208 35.3591C50.7221 34.6235 50.767 34.026 51.4053 33.6091C51.4561 33.5601 51.5205 33.528 51.5898 33.5172C51.1282 33.4441 50.6569 33.4674 50.2045 33.5856C49.7521 33.7038 49.3281 33.9144 48.9585 34.2047C48.5642 34.4811 48.2286 34.8351 47.9715 35.2457C47.7144 35.6564 47.541 36.1154 47.4617 36.5955C47.3821 37.0678 47.3973 37.5516 47.5065 38.0178C47.6157 38.484 47.8165 38.9229 48.0969 39.3081C48.3704 39.7084 48.7201 40.0489 49.1253 40.3096C49.5304 40.5702 49.9828 40.7457 50.4558 40.8257C50.9317 40.8988 51.4171 40.8757 51.8841 40.7578C52.3512 40.6398 52.7907 40.4292 53.1775 40.1381C53.5718 39.8618 53.9074 39.5078 54.1645 39.0971C54.4216 38.6864 54.595 38.2274 54.6743 37.7474C54.7802 36.7602 54.539 35.7667 53.9935 34.9429" fill="black"/>
  <path fill-rule="evenodd" clip-rule="evenodd" d="M55.3451 48.7848C55.082 48.4844 54.794 48.2075 54.4842 47.9572C54.2118 47.7272 53.4862 47.0822 53.1689 47.3597C52.8516 47.6372 53.5317 48.0035 53.7131 48.1416C54.0783 48.427 54.4128 48.7507 54.7112 49.1073C54.6218 50.5083 54.235 51.873 53.5772 53.1075C53.1514 53.9506 52.5265 54.6734 51.7586 55.211C50.9907 55.7486 50.1036 56.0844 49.1768 56.1883C47.0448 56.5564 45.3642 56.2801 44.1411 55.3132C42.918 54.3463 42.1905 53.7956 41.8277 53.4281C41.6818 53.2712 41.5732 53.0824 41.5104 52.8762C41.5559 52.7843 41.6463 52.6925 41.7373 52.5543C41.9218 52.2787 43.1437 51.543 45.3654 50.393C47.5872 49.2429 48.8133 48.5079 49.2217 47.6804C49.4708 47.3014 49.5829 46.8464 49.539 46.3928C49.4934 45.0134 48.5864 43.9552 46.8173 43.1283C44.9675 42.3498 42.9569 42.0492 40.965 42.2532H40.6476C38.5441 42.4042 36.5137 43.1007 34.7504 44.2764C33.1627 45.4259 32.3916 46.4834 32.3461 47.541C32.3144 48.0229 32.3923 48.5058 32.5735 48.9523C32.7548 49.3989 33.0347 49.797 33.3914 50.1161C34.4493 50.9204 35.7045 51.4134 37.0195 51.5412C38.7414 51.8168 39.8322 52.1387 40.331 52.5068C40.7848 52.875 41.0117 53.0587 41.0566 53.1044C41.07 53.3047 41.0547 53.506 41.0111 53.7019C40.876 54.2881 40.646 54.8475 40.3303 55.357C39.3778 56.8283 37.5176 57.6558 34.7959 57.7477C32.5475 57.8933 30.3278 57.1707 28.5808 55.7245C28.0527 55.2813 27.5666 54.7887 27.129 54.2532C26.9775 54.0142 26.7944 53.7976 26.5848 53.6094C26.4983 53.1459 26.5455 52.6668 26.7207 52.2299C26.8566 51.7243 26.8566 51.4943 26.7207 51.4943C26.5362 51.5405 26.3578 51.7699 26.1309 52.2299C25.5944 53.2173 25.2991 54.3213 25.27 55.4488L25.3155 56.3239C25.6783 54.8982 26.0412 54.1169 26.4495 54.025C26.6764 54.3932 26.7668 54.6226 26.8123 54.6688C27.1783 55.2622 27.6381 55.7901 28.1731 56.2314C29.0593 57.0218 30.1162 57.5888 31.2582 57.8865L35.7946 60.5072C36.3677 60.8465 36.9138 61.2308 37.4279 61.6566C37.7907 61.8867 38.0631 62.1167 38.3349 62.3004C38.5618 62.4842 38.9701 62.7604 39.5143 63.128C40.1993 63.559 40.9508 63.8698 41.7373 64.0474C42.3989 64.1849 43.0835 64.1562 43.7317 63.9638C44.3799 63.7715 44.9721 63.4213 45.457 62.9436C46.1066 62.3613 46.7132 61.7313 47.2717 61.0585C47.8614 60.371 48.6781 59.449 49.7665 58.254L49.8575 58.1621C49.9485 58.0702 49.9934 57.9783 50.0844 57.8865C50.9453 56.9208 51.5811 56.277 51.8536 56.0014C51.9895 55.8632 52.126 55.7714 52.2164 55.6795C52.7735 55.3591 53.2417 54.9004 53.5772 54.3463C54.1937 53.429 54.668 52.421 54.9836 51.3574C55.1774 50.7559 55.329 50.1412 55.4374 49.5179C55.5733 49.6561 56.4828 50.4374 56.7982 50.7136C56.3991 50.0083 55.911 49.3591 55.3464 48.7823" fill="black"/>
  <path fill-rule="evenodd" clip-rule="evenodd" d="M45.8641 61.8892C45.0907 62.7763 44.0268 63.3482 42.87 63.4986C41.5547 63.7742 39.8304 62.9467 37.6074 61.0154C37.7919 60.9691 38.1516 60.7854 38.6965 60.5553C39.1854 60.2899 39.73 60.148 40.2842 60.1416C40.8284 60.1416 41.3296 60.5097 41.872 61.291C42.3367 61.9121 42.7466 62.5736 43.0969 63.268C43.0717 62.661 42.8835 62.0726 42.5527 61.5666L42.1899 60.9691C42.0989 60.9691 42.2354 60.7853 42.6437 60.4172C43.0368 60.054 43.5255 59.8151 44.0501 59.7297C44.7044 59.7119 45.345 59.9228 45.8647 60.3272L46.6814 60.9247C46.4355 61.2687 46.1624 61.5917 45.8647 61.8904" fill="#E0C0C0"/>
  <path fill-rule="evenodd" clip-rule="evenodd" d="M49.312 57.7965C48.3785 58.683 47.542 59.6696 46.8173 60.7391C46.2692 60.1236 45.5617 59.6774 44.7757 59.4515C44.2428 59.2908 43.6753 59.2923 43.1432 59.4557C42.6112 59.6191 42.1378 59.9373 41.7816 60.3709C41.7361 60.3247 41.7361 60.3247 41.7361 60.2791C41.2374 59.6353 40.3297 59.4972 39.1503 59.9572C38.5024 60.1461 37.8894 60.4417 37.3356 60.8322C35.8389 59.8209 34.6588 59.039 33.8428 58.5821L33.2986 58.3065C33.7973 58.3527 34.2511 58.3527 34.7953 58.3527C36.5171 58.2608 39.4688 57.4777 40.738 55.7776C41.0782 55.3035 41.3671 54.7934 41.5996 54.2563C41.7355 54.3482 42.0079 54.5319 42.2348 54.6701C43.0514 55.2676 43.5956 55.6357 43.868 55.8657C45.2289 57.0614 47.4962 57.0614 49.4479 56.6933C49.9223 56.6129 50.3918 56.5054 50.8543 56.3714C50.4915 56.647 49.9934 57.1527 49.312 57.7965Z" fill="#834141"/>
  <path fill-rule="evenodd" clip-rule="evenodd" d="M40.1028 44.2789C38.9267 44.3932 37.7771 44.7038 36.7004 45.1984C35.8838 45.6121 35.4754 45.9803 35.521 46.2559C35.5665 46.5316 36.1107 46.6697 37.1542 46.6241C38.4157 46.5554 39.6727 46.4173 40.9194 46.2103C42.121 46.0091 43.332 45.871 44.5475 45.7965C45.5001 45.7046 46.0443 45.5665 46.0898 45.2446C46.1353 44.969 45.5001 44.6927 44.1835 44.3696C42.8348 44.1301 41.4582 44.0991 40.1004 44.2777" fill="white"/>
</svg>