<svg xmlns="http://www.w3.org/2000/svg" width="48" height="48" viewBox="0 0 48 48" fill="none">
  <path d="M24.0008 44.5713C12.6396 44.5713 3.42941 35.3612 3.42941 23.9999C3.42941 12.6386 12.6396 3.42847 24.0008 3.42847C35.3621 3.42847 44.5723 12.6386 44.5723 23.9999C44.5723 35.3612 35.3621 44.5713 24.0008 44.5713Z" fill="#02455C"/>
  <path d="M12.9209 24.6327C13.1331 25.0389 13.4184 25.4025 13.7623 25.7054C15.9507 27.9206 18.1522 30.1227 20.3667 32.3118C20.8123 32.8737 21.4549 33.2453 22.1643 33.3511C22.5769 33.3418 22.9773 33.2092 23.3139 32.9704C23.6505 32.7316 23.9079 32.3974 24.0529 32.011C24.1676 31.6757 24.1873 31.3153 24.1098 30.9695C24.0324 30.6238 23.8608 30.3062 23.6141 30.0518C22.3165 28.7457 21.0162 27.4451 19.7134 26.1501C19.6027 26.0394 19.4978 25.9229 19.3754 25.7926C19.5507 25.6368 19.7339 25.7054 19.8956 25.7044C24.4458 25.7044 28.996 25.7289 33.5452 25.6858C33.9002 25.7144 34.2562 25.643 34.5727 25.4797C34.8892 25.3165 35.1537 25.0678 35.3362 24.762C35.5187 24.4561 35.612 24.1052 35.6053 23.7491C35.5987 23.393 35.4924 23.0459 35.2987 22.747C35.0998 22.4318 34.8158 22.1793 34.4795 22.0186C34.1433 21.858 33.7684 21.7957 33.3983 21.8389C28.8804 21.8193 24.3635 21.8291 19.8456 21.8291H19.3558C19.3636 21.6479 19.5106 21.5872 19.6027 21.4951C20.9339 20.1511 22.2799 18.8277 23.6014 17.4758C23.835 17.2466 24.0045 16.9601 24.0928 16.6448C24.181 16.3296 24.1851 15.9968 24.1045 15.6795C24.0239 15.3622 23.8614 15.0717 23.6334 14.8368C23.4054 14.602 23.1197 14.431 22.8049 14.3411C22.4728 14.2298 22.1164 14.2118 21.7747 14.2892C21.433 14.3666 21.1191 14.5364 20.8673 14.78C18.5956 16.8812 16.4797 19.1382 14.2717 21.3031C13.8297 21.7203 13.4178 22.1685 13.0394 22.6442C12.8244 22.8861 12.6887 23.1881 12.6505 23.5094C12.6124 23.8308 12.6735 24.1562 12.8258 24.4417C12.8856 24.4584 12.9708 24.4584 12.9973 24.4976C13.0237 24.5367 12.9973 24.621 12.9199 24.6386" fill="#94DFF8"/>
</svg>