<svg xmlns="http://www.w3.org/2000/svg" width="48" height="48" viewBox="0 0 48 48" fill="none">
  <path d="M23.998 43.9998C35.0437 43.9998 43.9981 35.0455 43.9981 23.9998C43.9981 12.9541 35.0437 3.99976 23.998 3.99976C12.9524 3.99976 3.99805 12.9541 3.99805 23.9998C3.99805 35.0455 12.9524 43.9998 23.998 43.9998Z" fill="#02455C"/>
  <path d="M34.7702 24.615C34.5639 25.0099 34.2866 25.3634 33.9522 25.6579C31.8245 27.8115 29.6842 29.9525 27.5312 32.0807C27.098 32.6271 26.4732 32.9883 25.7836 33.0912C25.3824 33.0822 24.9931 32.9533 24.6659 32.7211C24.3386 32.4889 24.0884 32.164 23.9474 31.7884C23.8359 31.4624 23.8168 31.112 23.8921 30.7758C23.9674 30.4396 24.1342 30.1308 24.3741 29.8836C25.6356 28.6138 26.8998 27.3493 28.1664 26.0903C28.2741 25.9826 28.376 25.8693 28.495 25.7426C28.3245 25.5912 28.1464 25.6579 27.9893 25.6569C23.5655 25.6569 19.1417 25.6807 14.7188 25.6388C14.3737 25.6666 14.0276 25.5972 13.7198 25.4385C13.4121 25.2798 13.1549 25.038 12.9775 24.7407C12.8001 24.4433 12.7095 24.1022 12.7159 23.7559C12.7224 23.4097 12.8257 23.0722 13.0141 22.7817C13.2074 22.4753 13.4835 22.2298 13.8104 22.0735C14.1373 21.9173 14.5018 21.8568 14.8617 21.8988C19.2541 21.8798 23.6455 21.8893 28.0379 21.8893H28.5141C28.5064 21.7131 28.3636 21.6541 28.2741 21.5645C26.9798 20.2579 25.6712 18.9712 24.3864 17.6569C24.1593 17.434 23.9945 17.1555 23.9087 16.849C23.8228 16.5426 23.8189 16.2189 23.8973 15.9105C23.9756 15.602 24.1336 15.3195 24.3553 15.0912C24.577 14.8629 24.8547 14.6967 25.1607 14.6093C25.4837 14.501 25.8302 14.4835 26.1624 14.5588C26.4946 14.634 26.7998 14.7991 27.0445 15.036C29.2531 17.0788 31.3102 19.2731 33.4569 21.3779C33.8867 21.7835 34.2871 22.2192 34.655 22.6817C34.864 22.9169 34.9959 23.2105 35.0331 23.5229C35.0702 23.8354 35.0107 24.1517 34.8626 24.4293C34.8045 24.4455 34.7217 24.4455 34.696 24.4836C34.6702 24.5217 34.696 24.6036 34.7712 24.6207" fill="#94DFF8"/>
</svg>