<svg xmlns="http://www.w3.org/2000/svg" width="272" height="80" viewBox="0 0 272 80" fill="none">
  <path d="M238.648 48.4352C238.826 48.2043 238.944 47.9176 239.062 47.7427C239.437 47.293 239.917 46.9375 240.463 46.7063C241.009 46.4752 241.604 46.3751 242.198 46.4147C243.068 46.4455 243.893 46.7962 244.506 47.396C244.761 47.6455 244.962 47.9434 245.094 48.2712C245.226 48.599 245.288 48.9497 245.275 49.3015C245.275 50.1679 245.335 51.0912 245.335 51.9575C245.394 53.0547 245.394 54.1519 245.453 55.306C245.513 56.576 245.571 57.846 245.571 59.1161C245.571 61.6003 245.571 64.0844 245.512 66.5686C245.452 67.9546 245.334 69.3975 245.157 70.7834C244.897 72.5013 244.16 74.118 243.026 75.4599C241.358 77.4102 239.102 78.8035 236.577 79.4439C233.523 80.2737 230.28 80.1728 227.287 79.1551C225.083 78.4536 223.16 77.1014 221.784 75.287C221.567 75.0118 221.369 74.7223 221.193 74.4207C220.837 73.8581 220.719 73.1839 220.862 72.5386C221.006 71.8932 221.4 71.3264 221.962 70.9563C222.532 70.5587 223.203 70.3214 223.903 70.2704C224.602 70.2195 225.302 70.3569 225.927 70.6675C226.412 70.8996 226.822 71.2579 227.11 71.7026C227.576 72.467 228.232 73.1056 229.017 73.5596C229.803 74.0135 230.694 74.2684 231.608 74.3006C233.381 74.515 235.172 74.0831 236.636 73.0885C237.191 72.7077 237.656 72.218 238.002 71.6511C238.349 71.0842 238.569 70.4529 238.648 69.798C238.708 69.1056 238.766 68.4121 238.826 67.6616V67.3149C238.703 67.3848 238.584 67.4618 238.471 67.5457C236.739 68.6729 234.748 69.3669 232.673 69.5662C230.639 69.8081 228.576 69.4473 226.757 68.5311C225.535 67.9185 224.46 67.0616 223.604 66.0167C222.747 64.9719 222.128 63.7627 221.786 62.4687C221.176 60.3075 221.035 58.0467 221.372 55.8297C221.529 54.3717 221.928 52.9481 222.556 51.6149C223.182 50.2248 224.152 49.007 225.381 48.0702C226.609 47.1333 228.058 46.5066 229.596 46.246C232.305 45.7392 235.112 46.2335 237.465 47.632C237.82 47.9207 238.235 48.1495 238.649 48.4403M227.821 58.082C227.881 58.8325 227.939 59.41 227.999 59.9876C228.094 60.844 228.376 61.6709 228.827 62.4128C229.067 62.8587 229.423 63.2366 229.858 63.5098C230.293 63.7829 230.794 63.942 231.311 63.9716C231.988 64.0174 232.665 63.8776 233.264 63.5679C234.178 63.2105 234.986 62.6384 235.616 61.9027C236.246 61.1671 236.678 60.291 236.874 59.3531C237.122 58.1807 237.04 56.965 236.638 55.8339C236.36 54.9339 235.874 54.1073 235.218 53.417C234.562 52.7266 233.752 52.1907 232.851 51.8499C232.151 51.5305 231.35 51.4907 230.619 51.7391C229.889 51.9874 229.289 52.5039 228.946 53.1779C228.525 53.8073 228.243 54.5151 228.118 55.2563C228 56.3535 227.94 57.3347 227.822 58.0852" fill="#1C9DC9"/>
  <path d="M225.271 26.0352H225.804C227.402 26.0352 228.94 26.0931 230.538 26.0352C232.253 25.9772 233.97 25.8623 235.685 25.8044C236.513 25.7464 237.342 25.6884 238.111 25.6884C238.966 25.7544 239.765 26.1227 240.359 26.7235C240.619 26.9723 240.825 27.2689 240.966 27.596C241.107 27.923 241.18 28.274 241.18 28.6285C241.18 28.9831 241.107 29.3341 240.966 29.6611C240.825 29.9882 240.619 30.2847 240.359 30.5336C239.787 31.0995 239.037 31.4638 238.228 31.5687C236.395 31.7415 234.499 31.8575 232.667 31.9154C230.359 31.9734 228.051 31.9734 225.741 32.0313H225.15C225.201 33.1178 225.339 34.1986 225.564 35.2639C225.861 35.2639 226.215 35.3218 226.512 35.3218C227.814 35.3218 229.115 35.3798 230.358 35.3798C231.778 35.3798 233.198 35.3218 234.62 35.2639C235.803 35.2059 236.927 35.148 238.111 35.0331C239.139 34.9299 240.171 35.1969 241.01 35.7835C241.39 36.0296 241.702 36.3618 241.92 36.7515C242.138 37.1412 242.255 37.5766 242.261 38.02C242.267 38.4635 242.161 38.9017 241.954 39.2967C241.746 39.6917 241.443 40.0316 241.07 40.2871C240.449 40.7799 239.681 41.0636 238.88 41.0955L233.2 41.4422C230.774 41.5582 228.406 41.6151 225.982 41.5002C224.97 41.4416 223.963 41.3258 222.965 41.1534C221.866 40.9857 220.849 40.4897 220.053 39.7344C219.258 38.9791 218.725 38.0019 218.527 36.9386C218.263 35.7397 218.085 34.5243 217.995 33.3014C217.856 31.1099 217.836 28.9129 217.935 26.7194C217.995 25.1605 218.113 23.6597 218.29 22.1009C218.348 21.1776 218.468 20.2533 218.586 19.33C218.665 18.4832 218.983 17.674 219.505 16.9915C220.027 16.3091 220.733 15.7798 221.545 15.4619C222.673 14.98 223.87 14.6686 225.095 14.5386C227.606 14.2303 230.141 14.153 232.668 14.3078C234.739 14.3658 236.869 14.5966 238.94 14.7115C239.463 14.7463 239.98 14.8433 240.478 15.0003C241.274 15.2697 241.932 15.8285 242.313 16.5591C242.564 17.1108 242.618 17.7278 242.468 18.3129C242.318 18.8981 241.973 19.4183 241.485 19.7916C241.052 20.1377 240.55 20.3932 240.01 20.5423C239.471 20.6914 238.906 20.7307 238.35 20.658C236.575 20.4851 234.8 20.3112 233.023 20.3112C231.839 20.3112 230.656 20.2533 229.413 20.1953C228.284 20.186 227.157 20.2632 226.041 20.4261C225.686 20.4841 225.626 20.4841 225.626 20.8298C225.508 22.3886 225.33 23.9474 225.212 25.5063C225.273 25.672 225.293 25.8491 225.271 26.0238" fill="black"/>
  <path d="M251.837 41.5074C250.772 41.4495 250.002 41.4495 249.234 41.3915C248.782 41.3403 248.344 41.2016 247.948 40.9834C247.552 40.7653 247.204 40.4722 246.926 40.1215C246.474 39.5651 246.262 38.8601 246.335 38.1548C246.395 37.1198 246.513 36.0184 246.513 34.9792C246.572 32.1504 246.631 29.2636 246.631 26.4347C246.631 24.3563 246.572 22.2779 246.513 20.1994C246.513 19.2762 246.395 18.3518 246.335 17.4285C246.286 16.6706 246.532 15.9224 247.026 15.3336C247.52 14.7448 248.225 14.3589 248.999 14.2529C249.783 14.1568 250.574 14.118 251.365 14.137C252.815 14.1766 254.26 14.3309 255.684 14.5987C259.066 15.1239 262.293 16.3442 265.151 18.1779C266.981 19.3193 268.552 20.8125 269.766 22.5656C270.983 24.2379 271.737 26.1862 271.956 28.2233C272.084 29.5325 271.934 30.8533 271.517 32.1044C271.1 33.3555 270.424 34.5103 269.53 35.4978C267.889 37.3033 265.816 38.6895 263.495 39.5346C261.208 40.4368 258.794 41.0013 256.335 41.2093C254.737 41.3253 253.139 41.3822 251.838 41.4981M253.673 20.3682C253.732 22.0998 253.791 23.7746 253.851 25.4483V30.4166C253.851 32.0914 253.792 33.7071 253.792 35.385H254.147C255.815 35.298 257.465 35.0069 259.057 34.5186C260.67 34.1134 262.142 33.296 263.319 32.1514C263.87 31.6041 264.272 30.9323 264.488 30.1965C264.705 29.4607 264.73 28.6841 264.561 27.9366C264.176 26.3777 263.284 24.9808 262.017 23.9526C260.113 22.3214 257.812 21.1889 255.332 20.6621C254.859 20.5462 254.326 20.4893 253.675 20.3733" fill="black"/>
  <path d="M128.355 58.6544C128.472 61.0566 127.877 63.4409 126.64 65.5242C125.254 67.8179 123.073 69.5574 120.487 70.4315C118.381 71.1501 116.147 71.4448 113.92 71.2978C111.275 71.1406 108.712 70.3471 106.462 68.9886C103.905 67.5107 101.943 65.2298 100.9 62.5225C100.508 61.4854 100.288 60.3942 100.249 59.29C100.088 57.5799 100.352 55.8572 101.019 54.2668C101.652 52.6564 102.665 51.2128 103.977 50.052C106.302 47.9204 109.266 46.5653 112.438 46.1839C115.282 45.7115 118.207 46.0718 120.84 47.219C122.697 47.9618 124.329 49.1519 125.581 50.6771C126.834 52.2023 127.666 54.0122 128 55.9363C128.239 56.8222 128.358 57.7345 128.354 58.6503M107.054 58.1887C106.994 59.2144 107.183 60.2394 107.604 61.1817C108.026 62.1239 108.669 62.9571 109.481 63.6145C110.467 64.5046 111.663 65.1443 112.964 65.4768C114.265 65.8092 115.631 65.8241 116.939 65.5201C117.939 65.3638 118.871 64.9327 119.626 64.2779C120.382 63.6231 120.928 62.7718 121.201 61.8249C121.833 59.887 121.812 57.804 121.141 55.8784C120.83 54.8476 120.227 53.9226 119.4 53.2089C118.574 52.4951 117.558 52.0214 116.467 51.8416C115.258 51.589 114.005 51.6086 112.805 51.8989C111.604 52.1892 110.488 52.7425 109.542 53.5163C108.77 54.0434 108.142 54.744 107.709 55.5583C107.276 56.3726 107.053 57.2765 107.057 58.1928" fill="black"/>
  <path d="M172.081 34.4638C172.081 35.1562 172.081 35.8497 172.021 36.4842C172.021 37.1767 171.963 37.8122 171.903 38.5047C171.864 39.0503 171.673 39.5752 171.35 40.0229C171.026 40.4706 170.583 40.8239 170.068 41.0448C169.314 41.3983 168.466 41.5162 167.641 41.3822C166.815 41.2481 166.053 40.8688 165.458 40.2964C165.208 40.055 165.011 39.7668 164.879 39.4492C164.746 39.1316 164.682 38.7913 164.689 38.4488C164.749 36.0236 164.807 33.5415 164.807 31.1163C164.807 28.98 164.807 26.8446 164.747 24.7662C164.747 23.2653 164.629 21.7645 164.57 20.3205L164.392 17.3758C164.361 16.9154 164.454 16.4553 164.662 16.0404C164.869 15.6255 165.184 15.2699 165.575 15.0085C166.276 14.5046 167.129 14.2407 168.001 14.2581C169.54 14.2581 171.019 14.1422 172.557 14.2002C176.232 14.2712 179.854 15.0564 183.211 16.5094C184.69 17.1501 186.034 18.0505 187.176 19.1654C188.195 20.1074 188.879 21.3399 189.129 22.6846C189.29 23.4621 189.284 24.2636 189.111 25.0386C188.938 25.8137 188.601 26.5455 188.123 27.1882C186.989 28.7568 185.489 30.0425 183.745 30.9404C181.262 32.224 178.612 33.1776 175.867 33.7754C174.802 34.0063 173.678 34.2371 172.614 34.411C172.434 34.4073 172.255 34.4268 172.081 34.4689M171.844 20.1508C171.904 22.9217 172.022 25.5777 172.081 28.2916C172.222 28.3052 172.364 28.2853 172.495 28.2337C173.501 28.0028 174.566 27.772 175.572 27.5412C177.261 27.1164 178.876 26.4538 180.367 25.5746C180.925 25.2522 181.424 24.8427 181.846 24.3625C181.989 24.2024 182.068 23.9972 182.068 23.7849C182.068 23.5726 181.989 23.3675 181.846 23.2074C181.73 23.1066 181.63 22.9898 181.549 22.8606C180.972 22.3686 180.311 21.9778 179.596 21.7055C177.885 20.9991 176.066 20.5701 174.212 20.4354C173.432 20.2789 172.641 20.1824 171.845 20.1466" fill="black"/>
  <path d="M198.883 34.5217V35.8497C198.823 36.773 198.765 37.7553 198.705 38.6786C198.637 39.3876 198.299 40.0466 197.758 40.5262C196.996 41.1713 196.011 41.5121 195.001 41.48C193.991 41.4479 193.031 41.0454 192.314 40.3533C192.046 40.089 191.838 39.772 191.706 39.4236C191.573 39.0753 191.518 38.7034 191.545 38.3329C191.545 37.9292 191.605 37.4665 191.605 37.0628C191.665 33.8872 191.723 30.7696 191.723 27.595C191.723 25.9782 191.663 24.3625 191.605 22.6877C191.545 20.8981 191.368 19.1085 191.25 17.3188C191.22 16.9094 191.296 16.4992 191.472 16.1259C191.648 15.7526 191.917 15.4282 192.256 15.1824C193.005 14.5739 193.943 14.2283 194.919 14.2012C196.458 14.2012 197.937 14.0853 199.475 14.1432C203.374 14.1883 207.214 15.0757 210.717 16.7413C212.126 17.4068 213.392 18.328 214.446 19.4552C215.362 20.4165 215.96 21.6237 216.161 22.9196C216.368 24.3785 216.01 25.8602 215.155 27.0765C214.028 28.6301 212.551 29.9134 210.836 30.8286C208.472 32.1228 205.918 33.0573 203.263 33.5995C201.843 33.9462 200.422 34.1771 198.885 34.5228M198.707 20.2046C198.766 22.9186 198.885 25.5735 198.944 28.2875H199.298C200.78 28.0102 202.242 27.6438 203.676 27.1903C205.108 26.756 206.465 26.1135 207.699 25.2847C208.129 25.0009 208.509 24.6513 208.823 24.2497C208.924 24.1157 208.978 23.954 208.978 23.788C208.978 23.6221 208.924 23.4604 208.823 23.3264C208.653 23.0736 208.432 22.8573 208.172 22.6909C207.601 22.3299 207.008 22.0023 206.397 21.7096C204.922 21.1046 203.37 20.6969 201.782 20.4975C200.776 20.256 199.74 20.1587 198.705 20.2088" fill="black"/>
  <path d="M205.746 71.3558C202.228 71.3848 198.798 70.2894 195.984 68.2382C193.721 66.6314 192.076 64.3362 191.31 61.7172C190.565 59.1364 190.753 56.3856 191.842 53.9231C192.504 52.4571 193.471 51.1401 194.683 50.0551C197.295 47.7152 200.662 46.3277 204.209 46.129C206.869 45.8666 209.552 46.3264 211.96 47.457C213.664 48.2177 215.155 49.3645 216.308 50.801C217.461 52.2376 218.243 53.922 218.587 55.7128C219.15 58.0562 219.088 60.5003 218.409 62.8144C217.945 64.4428 217.107 65.9481 215.96 67.2179C214.812 68.4876 213.384 69.4889 211.782 70.1469C210.238 70.8292 208.568 71.2024 206.871 71.244C206.457 71.302 206.102 71.302 205.747 71.3599M212.256 59.1202C212.295 58.1839 212.176 57.2477 211.901 56.3493C211.627 55.1432 210.972 54.0502 210.029 53.2224C209.085 52.3946 207.899 51.8733 206.636 51.7308C204.542 51.4126 202.403 51.8881 200.66 53.0588C199.684 53.6314 198.884 54.4475 198.343 55.4223C197.802 56.3971 197.539 57.4949 197.583 58.6017C197.589 59.5316 197.797 60.4498 198.195 61.2957C198.593 62.1416 199.171 62.8959 199.891 63.5089C200.898 64.4212 202.122 65.078 203.454 65.421C204.785 65.7641 206.183 65.7828 207.523 65.4756C208.515 65.2953 209.435 64.8479 210.178 64.1843C210.921 63.5207 211.457 62.6676 211.725 61.7224C212.066 60.8958 212.246 60.0149 212.257 59.1244" fill="#1C9DC9"/>
  <path d="M143.858 51.6708C143.618 51.9228 143.401 52.1931 143.207 52.4792C142.456 53.5786 141.84 54.7598 141.372 55.9984C140.44 58.3917 139.747 60.8661 139.301 63.3878C138.946 65.1775 138.65 67.0251 138.353 68.8147C138.302 69.1865 138.17 69.5434 137.966 69.8619C137.762 70.1803 137.49 70.4532 137.17 70.6623C136.485 71.1128 135.666 71.3289 134.841 71.2766C134.016 71.2243 133.232 70.9066 132.614 70.3735C132.35 70.1485 132.135 69.8741 131.983 69.5666C131.83 69.2591 131.743 68.9248 131.727 68.5839C131.549 66.6783 131.43 64.7158 131.253 62.8103L130.721 56.9217L130.366 52.2453L130.188 49.4744C130.151 49.0476 130.224 48.6187 130.399 48.2258C130.575 47.833 130.848 47.4885 131.194 47.2231C131.949 46.618 132.92 46.3271 133.895 46.4135C134.87 46.4999 135.77 46.9568 136.401 47.6847C136.748 48.0672 136.937 48.5607 136.933 49.0707C136.993 49.4175 136.993 49.7632 137.052 50.2258C137.17 50.1099 137.229 49.995 137.288 49.9371C137.965 48.8921 138.85 47.9891 139.891 47.2811C140.74 46.7006 141.712 46.3113 142.735 46.1415C143.758 45.9718 144.808 46.0258 145.807 46.2998C146.785 46.5646 147.697 47.0181 148.49 47.633C149.283 48.248 149.94 49.0119 150.423 49.8791C151.34 51.341 152 52.941 152.376 54.6135C152.825 56.4007 153.161 58.2131 153.381 60.0404C153.698 62.6651 153.836 65.3071 153.796 67.9494C153.844 68.6829 153.611 69.4078 153.141 69.9838C152.671 70.5597 151.998 70.9457 151.252 71.067C150.608 71.216 149.934 71.1868 149.307 70.9826C148.679 70.7784 148.123 70.4075 147.702 69.9119C147.281 69.4498 147.049 68.854 147.051 68.2371C147.051 67.2021 147.051 66.1587 146.991 65.1195C146.873 63.4448 146.754 61.7131 146.577 60.0394C146.401 58.4804 146.104 56.9365 145.689 55.4209C145.438 54.4541 145.061 53.5228 144.565 52.65C144.328 52.3032 144.151 52.0724 143.855 51.6687" fill="black"/>
  <path d="M171.134 71.3558C170.264 71.3735 169.395 71.3348 168.531 71.2399C168.077 71.1952 167.637 71.0593 167.239 70.8406C166.842 70.622 166.496 70.3254 166.223 69.9698C165.864 69.507 165.695 68.9304 165.75 68.3531C165.81 67.2559 165.928 66.1587 165.928 65.0626C165.988 61.83 165.988 58.5416 165.988 55.306C165.988 53.6312 165.869 51.9575 165.81 50.3376C165.81 49.876 165.75 49.4713 165.75 49.0096C165.725 48.706 165.765 48.4006 165.866 48.1125C165.968 47.8244 166.13 47.5597 166.341 47.3349C166.651 46.9674 167.039 46.669 167.478 46.4599C167.917 46.2508 168.397 46.1358 168.886 46.1228C173.123 45.9761 177.332 46.8486 181.138 48.6629C183.676 49.8331 185.857 51.6236 187.469 53.8589C188.864 55.7562 189.572 58.0498 189.48 60.3799C189.401 62.6017 188.448 64.7093 186.817 66.2684C185.044 68.0202 182.845 69.3105 180.424 70.0206C178.347 70.6567 176.203 71.0633 174.032 71.2326C172.966 71.2326 172.079 71.2906 171.133 71.3486M172.553 65.6909C174.299 65.609 176.027 65.318 177.7 64.8245C178.891 64.4881 179.998 63.9182 180.954 63.1498C181.686 62.5905 182.214 61.8169 182.459 60.9436C182.704 60.0703 182.653 59.1435 182.314 58.3004C181.823 56.9376 180.917 55.7524 179.716 54.9023C177.975 53.5951 175.952 52.6871 173.799 52.2463C173.385 52.1883 172.972 52.0735 172.497 52.0155C172.675 56.5191 172.675 61.0796 172.556 65.6981" fill="#1C9DC9"/>
  <path d="M259.353 71.2979C256.88 71.3211 254.427 70.8698 252.134 69.9698C250.836 69.5012 249.678 68.7278 248.762 67.7186C248.46 67.4207 248.219 67.0694 248.053 66.6835C247.732 66.1956 247.603 65.6116 247.69 65.0388C247.777 64.4661 248.073 63.943 248.526 63.5659C249.189 62.9957 250.035 62.6669 250.92 62.6353C251.805 62.6038 252.673 62.8716 253.378 63.393C253.62 63.5607 253.822 63.7776 253.969 64.0285C254.22 64.4203 254.593 64.7239 255.034 64.8949C255.734 65.1934 256.47 65.4068 257.224 65.5304C258.914 65.8194 260.647 65.7605 262.312 65.3576C262.755 65.2293 263.19 65.0752 263.614 64.8959C263.774 64.8337 263.917 64.7346 264.029 64.6071C264.207 64.4343 264.147 64.3184 263.969 64.2035C263.791 64.0886 263.673 64.0306 263.496 63.9147C262.487 63.4267 261.438 63.0213 260.36 62.7026C258.762 62.1851 257.164 61.6675 255.627 61.1438C254.067 60.6195 252.621 59.8166 251.365 58.7766C250.24 57.8995 249.415 56.7118 248.999 55.3702C248.635 54.1062 248.659 52.7663 249.069 51.5157C249.479 50.2651 250.257 49.1583 251.306 48.3317C252.758 47.2461 254.467 46.5315 256.277 46.2532C259.708 45.6866 263.234 46.0668 266.454 47.3504C267.744 47.812 268.915 48.5411 269.885 49.4868C270.477 50.064 270.905 50.78 271.128 51.5652C271.229 51.8941 271.255 52.2407 271.204 52.5805C271.153 52.9203 271.026 53.245 270.831 53.5319C270.48 54.0182 270.007 54.4092 269.456 54.6677C268.905 54.9262 268.295 55.0436 267.685 55.0089C267.074 54.9741 266.483 54.7883 265.967 54.4692C265.451 54.15 265.028 53.708 264.737 53.1851C264.677 53.0497 264.588 52.9282 264.475 52.8287C264.363 52.7291 264.231 52.6538 264.086 52.6075C263.416 52.3071 262.724 52.0562 262.015 51.8571C260.41 51.4338 258.72 51.4138 257.104 51.7992C256.79 51.8641 256.49 51.9814 256.217 52.1459C255.996 52.2561 255.806 52.4173 255.665 52.6154C255.523 52.8135 255.434 53.0424 255.404 53.2819C255.375 53.5214 255.407 53.7643 255.497 53.9891C255.587 54.2139 255.733 54.4138 255.921 54.5711C256.308 54.906 256.747 55.1788 257.223 55.3795C257.819 55.6642 258.431 55.9148 259.057 56.1299C261.01 56.7654 262.904 57.3999 264.855 58.0965C266.229 58.5511 267.51 59.2348 268.642 60.117C269.707 60.8814 270.461 61.9849 270.773 63.2346C270.966 64.0985 270.932 64.9958 270.673 65.8435C270.415 66.6912 269.941 67.4617 269.294 68.084C268.164 69.1867 266.756 69.9829 265.211 70.3932C263.322 71.0042 261.343 71.3159 259.351 71.3165" fill="#1C9DC9"/>
  <path d="M108.417 20.2615C108.477 22.0512 108.477 23.7808 108.535 25.5725C108.772 25.5725 108.95 25.6305 109.127 25.6305C111.553 25.6305 114.037 25.6305 116.463 25.5725C118.061 25.5725 119.659 25.4566 121.258 25.5145C121.792 25.5208 122.317 25.6497 122.79 25.8905C123.263 26.1314 123.671 26.4774 123.98 26.9005C124.382 27.4106 124.574 28.0478 124.52 28.6882C124.465 29.3286 124.167 29.9262 123.684 30.3649C122.952 31.0455 121.974 31.4176 120.961 31.4C117.115 31.5159 113.21 31.6308 109.306 31.5728H108.773V32.6079C108.773 34.1087 108.832 35.6676 108.832 37.1684C108.835 37.7312 108.775 38.2927 108.655 38.8432C108.55 39.4891 108.189 40.0695 107.649 40.4599C106.919 41.0176 106.012 41.311 105.083 41.2898C104.155 41.2687 103.263 40.9343 102.56 40.344C102.16 40.0466 101.858 39.6428 101.69 39.1816C101.522 38.7204 101.495 38.2216 101.613 37.746C101.662 37.5778 101.682 37.403 101.673 37.2284C101.613 35.0341 101.555 32.8987 101.495 30.7075C101.495 30.072 101.495 29.4375 101.435 28.7409C101.376 27.3549 101.376 25.97 101.317 24.584C101.257 22.7944 101.257 21.0648 101.257 19.273C101.238 18.8273 101.278 18.3809 101.376 17.945C101.441 17.3328 101.665 16.7467 102.027 16.2417C102.39 15.7367 102.878 15.3295 103.447 15.0582C104.443 14.6223 105.499 14.3305 106.582 14.1919C108.465 13.9518 110.364 13.8553 112.262 13.9031C113.86 13.9031 115.458 13.9611 117.057 14.019C118.359 14.077 119.659 14.1919 120.961 14.2498L123.092 14.4227C123.866 14.5298 124.578 14.8958 125.104 15.4578C125.375 15.7257 125.586 16.0459 125.722 16.3978C125.859 16.7497 125.918 17.1254 125.895 17.5007C125.873 17.8761 125.77 18.2427 125.593 18.5771C125.416 18.9114 125.169 19.2059 124.867 19.4418C124.421 19.7838 123.906 20.0322 123.356 20.1714C122.806 20.3105 122.232 20.3373 121.671 20.2502C120.31 20.1342 118.949 20.0773 117.588 19.9614L114.216 19.7885C112.381 19.7305 110.606 19.7305 108.773 19.8465C108.595 20.1932 108.536 20.1932 108.418 20.2502" fill="black"/>
  <path d="M135.219 35.3301C136.106 35.3881 136.934 35.4461 137.822 35.4461C139.953 35.4461 142.141 35.3881 144.271 35.3301C145.158 35.3301 146.106 35.2722 146.993 35.2142C147.582 35.1479 148.178 35.218 148.734 35.4187C149.29 35.6195 149.788 35.9453 150.189 36.3693C150.445 36.6163 150.647 36.9107 150.783 37.2352C150.919 37.5597 150.986 37.9074 150.981 38.2577C150.975 38.608 150.897 38.9536 150.751 39.2738C150.604 39.5941 150.393 39.8824 150.13 40.1215C149.759 40.4842 149.316 40.7688 148.827 40.9576C148.338 41.1464 147.815 41.2353 147.289 41.2187C144.626 41.2766 142.023 41.3915 139.361 41.3915C137.586 41.3915 135.871 41.3335 134.096 41.2187C133.386 41.1607 132.617 41.0458 131.907 40.9299C131.146 40.774 130.435 40.4401 129.837 39.9573C129.239 39.4744 128.772 38.8572 128.475 38.159C128.073 37.1988 127.814 36.1882 127.706 35.1573C127.499 33.1819 127.439 31.1945 127.528 29.2108C127.528 28.0556 127.587 26.9015 127.646 25.6915C127.704 24.3635 127.824 23.0355 127.942 21.7655C128.06 20.7843 128.12 19.7989 128.238 18.8207C128.298 18.1283 128.357 17.4348 128.475 16.7423C128.54 16.1238 128.834 15.5492 129.303 15.1255C129.698 14.7699 130.163 14.4937 130.669 14.3128C131.175 14.1318 131.712 14.0497 132.251 14.0712C132.79 14.0926 133.319 14.2172 133.808 14.4377C134.297 14.6583 134.736 14.9704 135.101 15.3563C135.35 15.6394 135.532 15.9724 135.635 16.3316C135.737 16.6908 135.756 17.0674 135.692 17.4348C135.574 18.416 135.456 19.3403 135.396 20.3216C135.278 21.7075 135.159 23.0355 135.041 24.4205C134.981 25.2289 134.923 26.0372 134.923 26.8456C134.863 28.4624 134.805 30.0782 134.805 31.7529C134.923 32.965 135.041 34.1201 135.219 35.3322" fill="black"/>
  <path d="M160.187 29.6145C160.187 30.6495 160.247 31.7508 160.187 32.7901C160.139 34.7361 159.881 36.6719 159.417 38.5658C159.282 39.1169 159.027 39.6337 158.67 40.0817C158.313 40.5296 157.861 40.8985 157.346 41.1638C156.564 41.5453 155.661 41.6202 154.824 41.373C153.987 41.1258 153.28 40.5755 152.849 39.8358C152.167 38.7904 151.933 37.5272 152.198 36.3165C152.433 35.2346 152.552 34.1318 152.553 33.0261V25.056C152.553 23.786 152.493 22.5159 152.434 21.2459C152.434 20.3795 152.375 19.5142 152.375 18.6479C152.389 17.622 152.789 16.6366 153.499 15.877C153.83 15.4947 154.245 15.1885 154.713 14.9802C155.18 14.7719 155.69 14.6668 156.205 14.6723C156.719 14.6779 157.226 14.7939 157.689 15.0122C158.152 15.2305 158.559 15.5456 158.882 15.9349C159.524 16.6624 159.899 17.5762 159.948 18.533C160.007 20.3806 160.066 22.1702 160.126 24.0189C160.185 25.9244 160.304 27.771 160.362 29.6766C160.308 29.6455 160.247 29.6257 160.184 29.6186" fill="black"/>
  <path d="M37.001 79.4387C36.3088 79.4383 35.6283 79.2654 35.0245 78.9367C34.4206 78.608 33.9136 78.1343 33.5519 77.561C33.1901 76.9877 32.9857 76.3339 32.9582 75.662C32.9306 74.99 33.0808 74.3225 33.3945 73.723C34.6484 71.3122 35.5639 68.7489 36.1167 66.1018C36.5657 64.2296 36.6856 62.2971 36.4715 60.3861C36.1167 58.4805 32.9215 56.2872 32.4484 56.1144L34.4599 61.4812C33.9272 61.3653 29.0753 60.5579 29.0753 60.5579C25.5674 59.9513 22.2712 58.5024 19.4864 56.3431C17.865 54.8231 16.7344 52.8773 16.2325 50.7434L14.3393 50.4546L14.2796 49.6462C14.0557 46.4279 14.4573 43.1975 15.4633 40.1235C15.4633 40.0656 15.523 39.9507 15.523 39.8927C14.0441 43.0683 12.8594 44.1645 11.8547 44.8L11.7364 44.858C11.0402 45.2681 10.2428 45.4877 9.42868 45.4935C8.79264 45.4849 8.16629 45.3408 7.59378 45.0715C7.02127 44.8022 6.51654 44.4141 6.11519 43.9347C5.12493 42.6312 4.43854 41.134 4.10365 39.547C2.56516 33.3697 1.26321 28.0008 0.317101 23.3823C-0.26178 20.7461 -0.0449079 18.0036 0.941665 15.4842C1.92824 12.9649 3.64255 10.7758 5.87866 9.18006C8.61136 6.98727 11.9023 5.55121 15.4047 5.02321H15.4644C15.8765 4.97512 16.2917 4.95575 16.7066 4.96524C19.1347 5.03885 21.5255 5.56635 23.7481 6.51889C25.5087 7.23398 27.2271 8.04362 28.8952 8.94406C29.5462 9.29081 30.0789 9.57959 30.5519 9.86734C31.1978 9.44393 31.893 9.09648 32.6231 8.83227C35.5786 7.84881 38.6327 7.17156 41.7347 6.81181C43.3275 6.65179 44.9279 6.57473 46.5292 6.58099C48.3161 6.56744 50.1001 6.72205 51.8563 7.04263C52.6216 7.19715 53.3733 7.40964 54.1044 7.67816C54.5189 7.33142 54.9919 6.92774 55.5832 6.4661C57.0345 5.24073 58.5772 4.12152 60.1987 3.11764C62.5238 1.4863 65.2263 0.435553 68.068 0.0579638H68.1276C68.4238 0.0579638 68.7786 0 69.0748 0C72.2747 0.0691716 75.4144 0.859706 78.246 2.30925C80.7525 3.45715 82.8661 5.28125 84.3349 7.56397C85.8037 9.84669 86.5656 12.4917 86.5298 15.1835C86.4701 19.802 86.2933 25.4017 85.9971 31.6949C86.0034 33.3378 85.6168 34.9596 84.8677 36.4325C84.5115 37.1104 83.9694 37.6794 83.3011 38.0767C82.6329 38.474 81.8646 38.6841 81.0812 38.6838C80.5359 38.6719 79.9962 38.5744 79.483 38.395L79.3647 38.337C78.2407 37.8754 76.8801 37.009 74.809 34.1802C74.8686 34.2381 74.8686 34.353 74.9272 34.411C76.469 37.259 77.4899 40.3456 77.9445 43.5331L78.0042 44.3415L76.1695 44.977C76.0865 47.1647 75.3668 49.2847 74.094 51.0912C71.9646 53.5722 69.184 55.4474 66.0468 56.518C64.4307 56.9694 62.7582 57.2024 61.0766 57.2105L61.4378 53.5112C60.7946 53.9513 60.2174 54.4759 59.7224 55.07C59.6533 56.0911 59.693 57.1164 59.8407 58.1297C60.2951 61.49 61.3356 64.7506 62.9177 67.7714C64.1599 69.8498 65.3436 71.5815 66.408 73.0254C66.8615 73.6153 67.1399 74.3147 67.213 75.0476C67.2861 75.7804 67.151 76.5187 66.8225 77.1822C66.4806 77.8425 65.9565 78.3974 65.3087 78.7849C64.6609 79.1724 63.9149 79.3773 63.1542 79.3766H37.001V79.4387Z" fill="white"/>
  <path fill-rule="evenodd" clip-rule="evenodd" d="M63.0349 76.32C63.1931 76.3196 63.3481 76.2757 63.4818 76.1935C63.6155 76.1112 63.7225 75.9939 63.7906 75.8551C63.8586 75.7163 63.8849 75.5616 63.8664 75.4089C63.8478 75.2561 63.7852 75.1117 63.6858 74.992C62.324 73.2027 61.0785 71.3325 59.9568 69.3923C57.9453 65.9859 55.9338 58.5385 56.5847 57.4993C55.0825 58.5412 53.897 59.9572 53.153 61.5982C52.1165 63.9594 51.5351 66.4855 51.4376 69.0507C51.3194 70.7824 51.2597 74.019 51.3194 76.3252L63.0349 76.32Z" fill="black"/>
  <path d="M50.0771 76.3221C49.4261 73.6092 48.5982 70.2027 48.0655 68.8168C47.6337 67.7889 47.1399 66.7866 46.5867 65.8151C46.0515 64.8638 45.4379 63.9562 44.752 63.1011C43.3871 61.3763 41.5367 60.073 39.4249 59.349C39.8979 60.561 39.6028 64.4871 39.1883 66.6814C38.5747 69.6282 37.56 72.4824 36.171 75.169C36.1059 75.2932 36.0754 75.4318 36.0828 75.5709C36.0901 75.7101 36.135 75.845 36.213 75.962C36.2909 76.079 36.3991 76.174 36.5267 76.2376C36.6544 76.3012 36.797 76.331 36.9403 76.3242L50.0771 76.3221Z" fill="black"/>
  <path fill-rule="evenodd" clip-rule="evenodd" d="M30.8481 57.6722C30.4479 57.6264 30.0523 57.5481 29.6655 57.4382C26.7275 56.954 23.9611 55.763 21.6183 53.9738C20.7926 53.1631 20.1463 52.1969 19.719 51.1346C19.2918 50.0723 19.0926 48.9363 19.1337 47.7965C19.1323 47.7299 19.1084 47.6655 19.0656 47.6133C19.0229 47.5612 18.9637 47.5241 18.8972 47.5077C18.7872 47.5101 18.6819 47.5513 18.601 47.6237C18.1817 48.432 17.8065 49.2612 17.477 50.1078C17.4173 49.5903 17.4173 49.2995 17.4173 49.2995C17.2426 46.4504 17.6036 43.5942 18.4827 40.8709C19.1815 38.4834 20.0109 36.1339 20.9673 33.8324C21.1877 33.1641 21.4445 32.5076 21.7366 31.8657C23.5116 27.4201 24.6356 24.5912 25.0501 23.3781C25.3462 22.3969 25.6414 21.4726 25.8779 20.6073H25.9376V20.4913C25.701 20.2025 25.5828 20.0876 25.5231 20.0876C21.2038 20.5493 17.4759 25.2257 14.2817 34.175C12.625 38.7355 11.2048 41.3335 10.02 42.084C9.7829 42.2471 9.48978 42.3142 9.20265 42.2712C8.91551 42.2281 8.6569 42.0782 8.48151 41.8531C7.79548 40.9034 7.33114 39.8197 7.12095 38.6775C5.58247 32.5582 4.28051 27.2462 3.3344 22.6857C2.8867 20.6333 3.06207 18.4987 3.83922 16.5413C4.61637 14.5839 5.96186 12.8878 7.71227 11.6591C9.97899 9.84618 12.6899 8.63382 15.5816 8.13981C17.12 8.02388 18.9536 8.08184 22.4451 9.4678C25.2425 10.6322 27.9343 12.0227 30.4923 13.6247C31.4961 12.8675 32.5882 12.2279 33.7461 11.7191C36.1065 10.854 38.5727 10.2911 41.0827 10.0443V10.1023C38.1836 10.3911 36.9413 11.8919 37.3537 14.5479C37.766 17.2039 38.1229 19.8589 38.3594 22.4569C38.5941 25.0484 38.6535 27.652 38.5374 30.251C38.7237 32.0388 38.2173 33.8298 37.1171 35.2742C36.5849 35.8543 35.9898 36.3769 35.3421 36.833C34.6318 37.3526 33.3888 38.3343 31.6131 39.7778C30.2113 40.9933 28.9424 42.346 27.8266 43.8146C26.429 45.339 25.6689 47.3162 25.6957 49.3574C25.6923 50.7677 26.1029 52.1498 26.8794 53.3414C27.9767 54.9646 29.3123 56.4233 30.8439 57.6711" fill="black"/>
  <path fill-rule="evenodd" clip-rule="evenodd" d="M65.9936 49.7642C66.487 48.4332 66.6094 46.9991 66.3484 45.6074C65.9822 43.5969 64.8658 41.7881 63.2128 40.5272C61.8354 39.2816 60.3282 38.1788 58.7156 37.2367C56.7041 36.2017 55.2838 35.4471 54.5146 35.0424C53.7941 34.7244 53.1184 34.3181 52.5041 33.8334C50.906 32.4474 50.5512 31.1194 50.1378 29.1569C49.5125 26.6291 49.058 24.0642 48.7772 21.4788C48.481 18.8808 48.3042 16.2827 48.1859 13.5698C48.0677 10.8569 46.5878 9.64377 43.6887 9.87459V9.81662C46.2154 9.59765 48.7606 9.69471 51.2618 10.1054C52.4731 10.4277 53.6594 10.8327 54.8119 11.3175C56.9926 9.2793 59.3479 7.42501 61.8522 5.77467C65.0485 3.75421 66.8225 3.34949 68.361 3.17664C71.2918 3.09443 74.1922 3.77331 76.763 5.14327C78.7263 6.02613 80.3823 7.4458 81.5282 9.22859C82.6742 11.0114 83.2604 13.08 83.2152 15.1814C83.1555 19.7999 82.9787 25.2847 82.6825 31.578C82.6558 32.7266 82.4154 33.861 81.9729 34.9264C81.9169 35.0529 81.8352 35.167 81.7327 35.262C81.6302 35.3569 81.5089 35.4308 81.3763 35.4791C81.2437 35.5275 81.1023 35.5493 80.9608 35.5432C80.8193 35.5372 80.6805 35.5034 80.5527 35.444C79.2507 34.9264 77.3564 32.6151 74.8132 28.4583C69.9612 20.3174 65.3468 16.3924 61.0276 16.7382C60.9679 16.7382 60.8497 16.8541 60.6728 17.1998V17.3157H60.7325C61.1469 18.1241 61.5603 18.9905 62.093 19.9138C62.744 21.0689 64.4007 23.609 67.0036 27.6499C67.4127 28.2253 67.788 28.8228 68.1276 29.4395C69.5107 31.5247 70.7737 33.6827 71.911 35.9036C73.2999 38.3964 74.2029 41.117 74.5746 43.9285C74.5746 43.9285 74.5746 44.2172 74.6342 44.7369C74.2198 44.1593 73.6871 43.4089 73.0361 42.5425C72.9966 42.5079 72.9483 42.4843 72.8962 42.4741C72.8441 42.4639 72.7901 42.4675 72.7399 42.4845C72.7083 42.4915 72.6785 42.5047 72.6523 42.5231C72.6261 42.5416 72.604 42.565 72.5874 42.592C72.5708 42.619 72.56 42.649 72.5556 42.6801C72.5512 42.7113 72.5534 42.743 72.562 42.7733C72.8222 43.8852 72.8463 45.037 72.6327 46.1582C72.4191 47.2794 71.9723 48.3465 71.3197 49.2943C69.3596 51.4754 66.8821 53.1598 64.1014 54.2016C63.9831 54.2595 63.6283 54.3744 62.9773 54.6632C64.2053 53.1664 65.2201 51.5158 65.9946 49.7559" fill="black"/>
  <path fill-rule="evenodd" clip-rule="evenodd" d="M33.7472 27.7089C34.5884 28.0727 35.3188 28.641 35.868 29.359C36.4173 30.077 36.7668 30.9204 36.8827 31.8078C37.0124 32.7887 36.8693 33.7855 36.4683 34.6946C36.1909 35.3281 35.7786 35.8975 35.2586 36.3652C34.7385 36.833 34.1225 37.1885 33.451 37.4085C32.7884 37.6618 32.0799 37.782 31.3681 37.7621C30.6564 37.7422 29.9562 37.5825 29.3097 37.2926C28.0011 36.7121 26.9806 35.6541 26.4692 34.3478C26.1072 33.3776 26.0458 32.3256 26.2927 31.3219C26.5395 30.3182 27.0838 29.4068 27.8582 28.7004C28.6326 27.994 29.6031 27.5236 30.6498 27.3474C31.6964 27.1711 32.7733 27.2968 33.7472 27.7089Z" fill="white"/>
  <path fill-rule="evenodd" clip-rule="evenodd" d="M36.2915 31.52C36.1043 31.0193 35.8135 30.5612 35.4369 30.1739C35.0603 29.7867 34.606 29.4786 34.102 29.2687C33.2318 28.8766 32.2472 28.7949 31.3212 29.0379C32.0308 29.3847 32.149 29.9612 31.7942 30.8276C31.7369 31.0028 31.6411 31.1638 31.5135 31.2996C31.3859 31.4353 31.2295 31.5426 31.0551 31.6139C30.8807 31.6852 30.6924 31.719 30.5033 31.7128C30.3141 31.7066 30.1286 31.6606 29.9596 31.578C29.7257 31.5078 29.5256 31.3585 29.3954 31.1572C29.2652 30.9559 29.2136 30.7159 29.25 30.4808V30.308C28.9997 30.5922 28.7814 30.9018 28.599 31.2312C28.382 31.7119 28.2649 32.2295 28.2546 32.7543C28.2444 33.2791 28.341 33.8007 28.5391 34.289C28.7371 34.7774 29.0327 35.2228 29.4087 35.5997C29.7847 35.9767 30.2337 36.2776 30.7299 36.4853C31.731 36.9471 32.8785 37.0092 33.9262 36.6581C34.4328 36.4728 34.8943 36.1871 35.2812 35.8194C35.6682 35.4516 35.9723 35.0097 36.1743 34.5217C36.413 34.0585 36.5471 33.551 36.5675 33.0333C36.5879 32.5156 36.493 31.9996 36.2915 31.52Z" fill="black"/>
  <path fill-rule="evenodd" clip-rule="evenodd" d="M53.0358 30.9466C52.9911 30.0505 53.1791 29.158 53.5823 28.3509C53.9856 27.5439 54.5912 26.8483 55.3435 26.3281C55.9203 25.9065 56.5814 25.6066 57.2845 25.4476C57.9876 25.2886 58.717 25.274 59.4262 25.4048C60.126 25.502 60.7977 25.7378 61.3998 26.0976C62.0019 26.4573 62.5215 26.9334 62.9264 27.4962C63.3314 28.0591 63.613 28.6967 63.7539 29.3696C63.8948 30.0426 63.8919 30.7364 63.7455 31.4082C63.6466 32.1013 63.401 32.7669 63.0242 33.3632C62.6474 33.9594 62.1475 34.4734 61.556 34.8726C60.9873 35.2878 60.3363 35.5841 59.6439 35.743C58.9515 35.9019 58.2328 35.9199 57.533 35.7959C56.8344 35.7042 56.1632 35.472 55.5623 35.1141C54.9613 34.7563 54.4437 34.2806 54.0426 33.7175C53.4076 32.9238 53.0543 31.9517 53.0358 30.9466Z" fill="white"/>
  <path fill-rule="evenodd" clip-rule="evenodd" d="M60.9051 28.6912C60.6354 28.3418 60.3166 28.031 59.9579 27.7679C60.0609 27.929 60.1405 28.1031 60.1944 28.2854C60.2481 28.5102 60.2318 28.7455 60.1475 28.9613C60.0633 29.1771 59.915 29.3637 59.7214 29.4975C59.5799 29.612 59.4142 29.6947 59.236 29.7397C59.0578 29.7847 58.8715 29.7908 58.6906 29.7577C58.5097 29.7246 58.3385 29.653 58.1894 29.548C58.0403 29.4431 57.9169 29.3074 57.8281 29.1507C57.2364 28.3427 57.2957 27.7075 58.006 27.2452C58.0657 27.1872 58.1243 27.1872 58.1839 27.1292C57.1349 26.9975 56.0741 27.2665 55.2252 27.8797C54.7749 28.1735 54.3943 28.5572 54.1086 29.0052C53.8229 29.4532 53.6388 29.9552 53.5685 30.4777C53.4731 30.9896 53.4868 31.5151 53.6089 32.0216C53.7309 32.5281 53.9587 33.0049 54.2781 33.4225C54.7597 34.0609 55.4235 34.5481 56.1873 34.8236C56.9511 35.0992 57.7813 35.1511 58.5752 34.9728C59.369 34.7946 60.0916 34.394 60.6534 33.8208C61.2153 33.2475 61.5917 32.5267 61.7361 31.7477C61.8296 30.6658 61.5373 29.5855 60.9083 28.6881" fill="black"/>
  <path fill-rule="evenodd" clip-rule="evenodd" d="M62.4446 43.7587C62.0898 43.355 61.735 43.1232 61.4388 42.8354C61.084 42.6046 60.3148 41.9121 59.96 42.1999C59.6052 42.4876 60.3745 42.8924 60.5513 43.0662C60.9541 43.3813 61.33 43.7274 61.6754 44.1013C61.5757 45.6202 61.1311 47.0989 60.3734 48.431C59.8922 49.3431 59.1869 50.1259 58.3199 50.7099C57.453 51.294 56.4511 51.6614 55.4032 51.7795C52.9772 52.1832 51.0839 51.8954 49.7234 50.7982C48.3031 49.7632 47.5339 49.1235 47.0598 48.7198C46.9112 48.5464 46.7915 48.3516 46.705 48.1422C46.7768 48.0223 46.8557 47.9065 46.9415 47.7955C48.2129 46.8691 49.5814 46.0756 51.0242 45.4283C53.5685 44.1582 54.929 43.3499 55.4021 42.4266C55.6965 42.0033 55.8226 41.4905 55.7569 40.9837C55.6972 39.4828 54.6915 38.3277 52.6799 37.4644C50.5899 36.6066 48.3069 36.2885 46.0529 36.5412H45.6981C43.3094 36.6869 41.0028 37.444 39.0125 38.7355C37.2375 39.9476 36.349 41.1607 36.2904 42.3148C36.2507 42.843 36.3369 43.3729 36.5422 43.8635C36.7474 44.3541 37.0663 44.7921 37.4741 45.1436C38.68 45.9893 40.0861 46.5258 41.5621 46.7035C42.8659 46.7918 44.1362 47.1444 45.2911 47.7386C45.8239 48.1422 46.0604 48.3161 46.119 48.3741C46.1345 48.5877 46.1144 48.8023 46.0593 49.0096C45.9235 49.6486 45.6623 50.2562 45.2901 50.7993C44.166 52.4161 42.0938 53.2835 39.0179 53.3973C36.4685 53.5622 33.9499 52.7788 31.9732 51.2061C31.3631 50.7262 30.8077 50.1842 30.3165 49.5893C30.0203 49.1856 29.7838 48.9537 29.7252 48.8389C29.6502 48.3363 29.6902 47.8238 29.8424 47.338C30.0203 46.7604 30.0203 46.5296 29.8424 46.5876C29.6644 46.6455 29.4279 46.8764 29.1914 47.396C28.5693 48.4703 28.2431 49.6825 28.2442 50.9152L28.3039 51.8965C28.7183 50.3376 29.1317 49.4713 29.6058 49.3564C29.8424 49.7601 29.9606 49.9919 30.0203 50.1068C30.4505 50.7487 30.968 51.3312 31.5588 51.8385C32.564 52.6894 33.7588 53.3021 35.0491 53.6281L40.1962 56.5149C40.8536 56.8788 41.486 57.2837 42.0895 57.727C42.504 58.0158 42.7991 58.2446 43.0953 58.4195C43.3915 58.6503 43.8049 58.937 44.3972 59.3428C45.1633 59.8023 46.0031 60.1339 46.8818 60.324C47.5885 60.4492 48.3143 60.4295 49.0127 60.266C49.8001 60.0754 50.5173 59.6754 51.0839 59.1109C51.8186 58.4611 52.5104 57.7669 53.1551 57.0325C53.8061 56.2821 54.7533 55.2428 55.9359 53.9728C55.9955 53.9148 55.9955 53.9148 55.9955 53.8569L56.2917 53.5681C57.2975 52.533 57.9485 51.8364 58.3033 51.4897C58.4537 51.3887 58.5926 51.2725 58.7177 51.1429C59.3395 50.7853 59.8664 50.2911 60.2562 49.7C60.9462 48.7028 61.4844 47.6141 61.8544 46.4675C62.0667 45.8031 62.2445 45.1288 62.3871 44.447C62.565 44.563 63.5708 45.4283 63.9256 45.775C63.5882 45.0066 63.0829 44.3186 62.4446 43.7587Z" fill="black"/>
  <path fill-rule="evenodd" clip-rule="evenodd" d="M51.7338 58.0769C50.8609 59.0603 49.6323 59.6803 48.3021 59.8085C46.8232 60.0973 44.8703 59.173 42.326 57.0946C42.7305 56.9443 43.1257 56.7715 43.5097 56.577C44.0561 56.2905 44.6641 56.1324 45.2848 56.1154C45.8761 56.1154 46.4685 56.5191 47.1194 57.3854C47.6373 58.0888 48.1116 58.8215 48.5397 59.5798C48.5016 58.9175 48.2763 58.2782 47.8887 57.7322L47.5339 57.0397C47.4156 57.0397 47.5936 56.8669 48.0666 56.4621C48.5055 56.0558 49.0644 55.7934 49.6647 55.7117C50.4172 55.7004 51.15 55.9454 51.736 56.4042L52.6831 57.0397C52.6235 57.0397 52.5649 57.2126 51.736 58.0748" fill="#E0C0C0"/>
  <path fill-rule="evenodd" clip-rule="evenodd" d="M55.6386 53.6312C54.5899 54.5831 53.6569 55.6486 52.8578 56.8068C52.2543 56.1245 51.4482 55.6404 50.5501 55.4209C49.9509 55.2458 49.3119 55.2455 48.7125 55.4199C48.1131 55.5943 47.5795 55.9358 47.178 56.4021C47.178 56.3442 47.1184 56.3442 47.1184 56.2862C46.527 55.5937 45.5202 55.4778 44.1597 55.9394C43.4068 56.1237 42.7015 56.4578 42.0885 56.9207C40.3731 55.8235 39.0711 55.0151 38.124 54.4365C37.9395 54.3176 37.741 54.2206 37.5327 54.1477C38.103 54.1969 38.6756 54.2162 39.248 54.2057C41.2009 54.1477 44.5134 53.2244 45.9336 51.3768C46.3034 50.8589 46.6393 50.3189 46.9394 49.7601C47.0576 49.876 47.4124 50.0489 47.6489 50.2217C48.5365 50.8572 49.1874 51.3189 49.4836 51.4917C51.0221 52.8197 53.5664 52.7618 55.8144 52.415C56.4061 52.2998 56.9388 52.1842 57.4126 52.0683C56.782 52.5444 56.1887 53.0655 55.6376 53.6271" fill="#834141"/>
  <path fill-rule="evenodd" clip-rule="evenodd" d="M45.2251 38.9094C43.8945 39.0533 42.596 39.4027 41.3789 39.9445C40.4317 40.4061 40.0183 40.8108 40.0769 41.0996C40.1366 41.4464 40.7279 41.5613 41.9116 41.5033C43.0953 41.4453 44.5145 41.2725 46.1733 41.0416C47.8322 40.8108 49.1906 40.638 50.3147 40.58C51.3801 40.522 51.9714 40.2912 52.03 40.0024C52.0886 39.7137 51.379 39.3669 49.8991 39.0792C48.367 38.7305 46.7801 38.6718 45.2251 38.9063" fill="white"/>
</svg>