<svg xmlns="http://www.w3.org/2000/svg" width="124" height="8" viewBox="0 0 124 8" fill="none">
  <path d="M0 4C0 1.79086 1.79086 0 4 0H120C122.209 0 124 1.79086 124 4C124 6.20914 122.209 8 120 8H4C1.79086 8 0 6.20914 0 4Z" fill="white"/>
  <path fill-rule="evenodd" clip-rule="evenodd" d="M120 1H4C2.34315 1 1 2.34315 1 4C1 5.65685 2.34315 7 4 7H120C121.657 7 123 5.65685 123 4C123 2.34315 121.657 1 120 1ZM4 0C1.79086 0 0 1.79086 0 4C0 6.20914 1.79086 8 4 8H120C122.209 8 124 6.20914 124 4C124 1.79086 122.209 0 120 0H4Z" fill="#1C9DC9"/>
  <path d="M1 4C1 2.34315 2.34315 1 4 1H70C71.6569 1 73 2.34315 73 4C73 5.65685 71.6569 7 70 7H4C2.34315 7 1 5.65685 1 4Z" fill="#B7E9FA"/>
</svg>