<svg xmlns="http://www.w3.org/2000/svg" width="64" height="64" viewBox="0 0 64 64" fill="none">
  <path d="M14.6118 12.604L14.5372 12.6724L14.5066 12.5984L14.6118 12.604Z" fill="#1C9DC9"/>
  <path d="M14.602 25.4839L14.7021 25.3974C14.6978 25.461 14.6737 25.5005 14.602 25.4839Z" fill="#1C9DC9"/>
  <path d="M21.4414 37.9918L21.2958 38.0961C21.3172 38.0222 21.346 37.9586 21.4414 37.9918Z" fill="#1C9DC9"/>
  <path d="M13.9216 32.6084C13.8659 32.4394 13.9646 32.4028 14.0985 32.3962C14.1022 32.5208 14.0523 32.5988 13.9216 32.6084Z" fill="#1C9DC9"/>
  <path d="M13.2026 32.9194C13.2248 32.7844 13.3158 32.8055 13.4065 32.8262C13.3701 32.9271 13.3562 33.0821 13.2026 32.9194Z" fill="#1C9DC9"/>
  <path d="M57.4835 7.22428C57.1304 6.58315 56.541 6.40715 55.8781 6.40678C44.8642 6.40419 27.6364 6.40493 16.1853 6.40086C14.6016 6.39766 13.018 6.40247 11.4344 6.41528C11.1102 6.42096 10.7999 6.54988 10.5647 6.77659C10.3294 7.00329 10.1865 7.31132 10.1639 7.63986C10.1694 8.97093 10.1417 10.305 10.1861 11.6356C10.204 12.1755 10.0471 12.3223 9.53083 12.2864C8.13689 12.1895 6.97631 12.5752 6.40002 14.0223V14.327C6.52999 14.4287 6.5289 14.53 6.40002 14.6316V14.8346C6.5289 14.9359 6.52999 15.0376 6.40002 15.1393V15.444C6.53508 15.8364 6.75853 16.1913 7.05255 16.4805C7.34658 16.7697 7.70306 16.9851 8.09357 17.1096C8.63077 17.2141 9.18019 17.2376 9.72414 17.1795C10.0795 17.1732 10.1847 17.2905 10.177 17.6447C10.157 18.5746 10.153 19.5059 10.1788 20.4355C10.189 20.8052 10.1028 20.9354 9.71504 20.9198C8.96756 20.8337 8.21136 20.9648 7.5344 21.2981C7.28093 21.4415 7.05885 21.6358 6.88167 21.8691C6.70449 22.1024 6.57592 22.37 6.50378 22.6554C6.48011 22.7293 6.51033 22.8284 6.40148 22.858V22.9597C6.53145 23.0614 6.53035 23.1627 6.40148 23.2643V23.4673C6.53035 23.569 6.53145 23.6703 6.40148 23.772V23.975C6.72912 24.8136 7.21731 25.5338 8.11942 25.7497C8.67665 25.8388 9.24226 25.8611 9.8046 25.8159C10.0813 25.8133 10.1828 25.8851 10.1781 26.1823C10.1617 27.1806 10.1574 28.1789 10.1781 29.1743C10.1858 29.5189 10.0401 29.5536 9.76273 29.5492C9.01543 29.4727 8.2614 29.5955 7.57517 29.9056C7.30117 30.0469 7.06208 30.2491 6.8757 30.4973C6.68932 30.7454 6.56045 31.033 6.49868 31.3387C6.4823 31.4049 6.48084 31.4707 6.40148 31.4907V31.592C6.53145 31.6937 6.53035 31.795 6.40148 31.8967V32.0997C6.53035 32.2013 6.53145 32.3026 6.40148 32.4043V32.6073C6.68835 33.149 6.91115 33.7069 7.4685 34.0844C8.02586 34.4619 8.60579 34.4468 9.20574 34.4519C10.1719 34.4601 10.1723 34.4545 10.1723 35.4214C10.1723 36.1979 10.1581 36.9762 10.1788 37.753C10.1876 38.0772 10.106 38.1967 9.76637 38.1834C9.16236 38.132 8.55419 38.1908 7.97053 38.3568C7.59255 38.4607 7.25195 38.6728 6.98932 38.9678C6.72669 39.2628 6.55309 39.6282 6.48922 40.0206C6.48121 40.0576 6.4317 40.0894 6.40148 40.123V40.2247C6.53145 40.3264 6.53035 40.4277 6.40148 40.5294V40.7324C6.53035 40.834 6.53145 40.9353 6.40148 41.037V41.24C6.6059 41.7771 6.92869 42.2595 7.34509 42.6502C7.909 43.0854 8.55264 43.0906 9.20792 43.0883C10.1716 43.0854 10.1716 43.0883 10.1716 44.0589V45.7837C10.1716 46.8068 10.1716 46.8031 9.13693 46.8113C8.88977 46.8078 8.64277 46.8258 8.39865 46.8652C7.94609 46.9355 7.52097 47.1298 7.16906 47.4272C6.81714 47.7246 6.55176 48.1139 6.40148 48.5531V48.8578C6.53145 48.9594 6.53035 49.0608 6.40148 49.1624V49.3654C6.53035 49.4671 6.53145 49.5684 6.40148 49.6701V49.9747C6.68311 50.6859 7.21369 51.2661 7.89116 51.6038C7.98254 51.5717 8.09321 51.4866 8.10158 51.6826C8.63418 51.6948 9.16788 51.7329 9.69902 51.7107C10.0594 51.6955 10.1887 51.7769 10.1821 52.1766C10.1592 53.5298 10.1839 54.8842 10.1821 56.2378C10.1738 56.4162 10.2021 56.5944 10.2651 56.7612C10.3281 56.9279 10.4245 57.0796 10.5482 57.2066C10.6719 57.3336 10.8202 57.4331 10.9837 57.4989C11.1472 57.5647 11.3224 57.5953 11.4981 57.5888C20.0434 57.5888 33.1309 57.591 42.3825 57.5918C42.4325 57.597 42.4828 57.5998 42.5332 57.5999C46.924 57.5888 51.3144 57.5958 55.7048 57.5873C56.1817 57.5873 56.6721 57.6099 57.086 57.2586C57.2888 57.0867 57.3212 56.7706 57.6 56.6781V7.52229C57.426 7.47792 57.5338 7.31856 57.4824 7.22428M8.67714 15.6532C8.57127 15.6556 8.46609 15.6354 8.36839 15.5939C8.27069 15.5524 8.18263 15.4906 8.10991 15.4124C8.03719 15.3342 7.98141 15.2414 7.94618 15.14C7.91095 15.0386 7.89704 14.9308 7.90536 14.8235C7.88497 14.2009 8.12889 13.8437 8.65857 13.8193C9.35536 13.7872 10.0543 13.8027 10.7522 13.8005C11.5335 13.7983 12.3147 13.7938 13.0959 13.8005C13.8004 13.8075 14.0996 14.0892 14.1014 14.7222C14.1033 15.3733 13.8102 15.6569 13.1149 15.6625C12.4003 15.668 11.6853 15.6625 10.9706 15.6625V15.654C10.2061 15.654 9.44164 15.6643 8.67714 15.6499M8.76014 24.2863C8.64194 24.2989 8.52245 24.284 8.41076 24.2428C8.29906 24.2015 8.19808 24.1349 8.11549 24.0481C8.03289 23.9613 7.97085 23.8565 7.93406 23.7418C7.89728 23.627 7.88671 23.5052 7.90318 23.3856C7.89808 22.7685 8.17257 22.4494 8.77398 22.4395C9.82098 22.4224 10.8687 22.4139 11.9153 22.4372C12.4534 22.4491 13.0009 22.3241 13.5313 22.5282C14.0374 22.723 14.1775 22.9515 14.0974 23.572C14.0911 23.6723 14.0653 23.7703 14.0215 23.8604C13.9778 23.9506 13.917 24.0311 13.8426 24.0974C13.7683 24.1637 13.6817 24.2144 13.588 24.2467C13.4943 24.279 13.3953 24.2922 13.2965 24.2856C12.5157 24.3033 11.734 24.2904 10.9528 24.2904C10.2214 24.2904 9.49006 24.2996 8.75869 24.2863M8.71791 32.9212C8.60793 32.9284 8.4977 32.9116 8.39469 32.8718C8.29169 32.832 8.1983 32.7701 8.12087 32.6905C8.04344 32.6108 7.98377 32.5152 7.9459 32.4101C7.90802 32.3049 7.89283 32.1928 7.90136 32.0812C7.88388 31.4637 8.13398 31.0932 8.66404 31.0829C10.193 31.0581 11.722 31.0256 13.2478 31.088C13.8717 31.1136 14.1826 31.2759 14.0982 32.3943C14.1018 32.5189 14.0519 32.5973 13.9216 32.6066C13.8561 32.6781 13.7762 32.7346 13.6873 32.7722C13.5984 32.8098 13.5027 32.8275 13.4065 32.8243C13.3701 32.9253 13.3562 33.0802 13.2026 32.9175C11.7078 32.9175 10.2131 32.9268 8.71828 32.9197M8.69316 41.5521C8.58312 41.5557 8.4736 41.5353 8.37202 41.4922C8.27043 41.4491 8.17914 41.3843 8.10434 41.3023C8.02953 41.2203 7.97295 41.1228 7.93844 41.0167C7.90392 40.9105 7.89227 40.798 7.90427 40.6869C7.89189 40.0775 8.15 39.723 8.6928 39.7126C9.92255 39.6893 11.1527 39.6897 12.3824 39.7052C12.7736 39.6506 13.1717 39.6818 13.5499 39.7969C14.0232 40.0114 14.1892 40.2543 14.096 40.8581C14.0772 41.06 13.9811 41.2463 13.8284 41.377C13.6757 41.5077 13.4785 41.5723 13.2794 41.5569C12.4982 41.5687 11.7169 41.5602 10.9357 41.5602C10.9357 41.5602 10.9357 41.5576 10.9357 41.5561C10.1879 41.5561 9.43946 41.5669 8.69207 41.5524M10.92 50.197V50.187C10.1719 50.187 9.4238 50.1981 8.67569 50.1829C8.18277 50.1729 7.91119 49.8435 7.90208 49.3033C7.89444 48.7187 8.14418 48.3719 8.65821 48.3494C9.35536 48.3187 10.0543 48.3338 10.7526 48.332C11.5338 48.332 12.3154 48.3257 13.0967 48.332C13.8095 48.339 14.0978 48.6104 14.1 49.2515C14.1022 49.9023 13.8088 50.1874 13.1142 50.1936C12.3824 50.2003 11.651 50.1936 10.9193 50.1936M56.1067 55.6614C56.1067 55.9967 56.0179 56.0755 55.6961 56.0736C53.4131 56.0592 51.1298 56.0633 48.8465 56.067C47.4952 56.0692 46.1438 56.073 44.7925 56.0784C44.7071 56.07 44.6213 56.0659 44.5355 56.0662H12.299C12.1825 56.0605 12.0657 56.0612 11.9492 56.0684C11.7308 56.0928 11.6652 56.0082 11.6671 55.7856C11.6765 54.5331 11.6765 53.2807 11.6671 52.0283C11.6652 51.782 11.7464 51.707 11.9845 51.7125C12.484 51.7244 12.9846 51.7214 13.4837 51.7003C13.9722 51.6802 14.4378 51.4843 14.7971 51.1476C15.1165 50.8591 15.3582 50.4927 15.4992 50.083C15.6402 49.6732 15.676 49.2337 15.6031 48.806C15.5231 48.3423 15.3078 47.9137 14.9852 47.5758C14.6625 47.2379 14.2473 47.0062 13.7935 46.9107C13.208 46.8138 12.6139 46.7817 12.0216 46.8149C11.7304 46.8149 11.6605 46.7229 11.6652 46.4419C11.6809 45.5112 11.6991 44.5788 11.6598 43.6496C11.6398 43.1763 11.7821 43.0521 12.235 43.0721C12.7931 43.151 13.3607 43.1252 13.9096 42.9959C14.4372 42.8404 14.8949 42.503 15.204 42.0417C15.5131 41.5805 15.6542 41.0242 15.6031 40.4687C15.5833 39.95 15.394 39.4526 15.0651 39.0552C14.7362 38.6578 14.2863 38.3829 13.7865 38.274C13.1996 38.1931 12.6071 38.1618 12.0151 38.1804C11.7668 38.1737 11.6605 38.1235 11.6642 37.8447C11.6783 36.8294 11.6813 35.8137 11.6642 34.7984C11.6587 34.4837 11.7894 34.4397 12.0497 34.4475C12.5159 34.4701 12.9829 34.4666 13.4487 34.4372C13.7998 34.4057 14.1396 34.2955 14.4437 34.1144C14.7478 33.9334 15.0085 33.686 15.207 33.3902C15.4055 33.0945 15.5369 32.7576 15.5917 32.404C15.6465 32.0504 15.6233 31.6888 15.5238 31.3454C15.3321 30.789 15.0197 30.2836 14.6097 29.8664L14.5368 29.9341L14.507 29.8601C14.2554 29.8742 14.0614 29.6993 13.8251 29.6413C13.2236 29.5421 12.6133 29.5093 12.0049 29.5436C11.7963 29.5381 11.6623 29.5237 11.6652 29.2519C11.6769 28.2044 11.6736 27.157 11.6652 26.1091C11.6652 25.8962 11.7286 25.8133 11.9496 25.8133C12.8455 25.8163 13.7556 25.9158 14.5984 25.4806L14.6981 25.394C15.0939 25.0463 15.3795 24.5872 15.5188 24.0748C15.658 23.5625 15.6448 23.0197 15.4808 22.5149C15.2811 22.0304 14.9834 21.594 14.6071 21.2337L14.5325 21.3018L14.5019 21.2278C13.7172 20.9373 12.8787 20.8277 12.0471 20.9069C11.8393 20.9143 11.6572 20.9339 11.662 20.6111C11.6769 19.5621 11.6729 18.5128 11.662 17.4635C11.6601 17.2416 11.729 17.1714 11.9474 17.1792C12.3799 17.1951 12.8138 17.1914 13.2467 17.181C13.5917 17.2009 13.9363 17.1354 14.2509 16.99C14.5654 16.8447 14.8405 16.6238 15.0523 16.3465C15.3052 16.025 15.4786 15.6468 15.5583 15.2434C15.638 14.84 15.6215 14.4231 15.5103 14.0275C15.3181 13.4886 15.0092 13.0003 14.6064 12.5988L14.5318 12.6672L14.5012 12.5933C13.7187 12.2969 12.8791 12.189 12.0486 12.2779C11.734 12.2956 11.6554 12.1869 11.6598 11.8793C11.6762 10.7128 11.6845 9.54587 11.6561 8.37971C11.6467 7.99407 11.7508 7.90977 12.1199 7.91347C12.9776 7.92185 13.8355 7.92592 14.6934 7.92567C14.7735 7.93085 14.8543 7.92937 14.9351 7.92567C16.0273 7.92567 17.1194 7.92407 18.2115 7.92087C18.248 7.92087 18.2844 7.92087 18.3175 7.91754C29.54 7.92419 45.3484 7.92271 55.5985 7.9205C55.8868 7.9205 56.1082 7.86984 56.1082 8.33424C56.0934 24.1098 56.0918 39.8845 56.1034 55.6584" fill="#1C9DC9"/>
  <path d="M24.5063 31.8083C25.3037 31.6215 26.0037 31.1389 26.4689 30.4551C26.8234 29.9716 27.0722 29.4168 27.1986 28.8278C27.325 28.2388 27.3262 27.6292 27.2021 27.0398C27.0986 26.3642 26.8497 25.7201 26.4731 25.1534C26.0965 24.5868 25.6014 24.1114 25.0232 23.7613C24.6065 23.4845 24.138 23.2982 23.647 23.214C23.1561 23.1297 22.6533 23.1494 22.1702 23.2717C21.6642 23.402 21.1938 23.647 20.7943 23.9884C20.3949 24.3298 20.0768 24.7587 19.864 25.2428C19.7065 25.6305 19.5701 26.0266 19.4551 26.4293V27.8835H19.5046C19.5032 27.9538 19.5075 28.024 19.5174 28.0935C19.7606 29.3313 20.459 30.4284 21.4705 31.1616C21.9 31.4864 22.3939 31.7125 22.9179 31.8243C23.442 31.9362 23.9837 31.9311 24.5056 31.8094M22.5211 29.6945C22.1823 29.4607 21.8956 29.1575 21.6793 28.8042C21.463 28.4509 21.3221 28.0555 21.2655 27.6435C21.1348 26.8142 21.2575 25.9827 21.9514 25.3881C22.1187 25.235 22.3179 25.1222 22.5341 25.0581C22.7503 24.9941 22.978 24.9805 23.2001 25.0184C24.4779 25.2077 25.0513 26.0847 25.4044 27.1999C25.4581 27.4532 25.488 27.7113 25.4936 27.9704C25.4048 28.7487 25.1929 29.4863 24.3967 29.8808C24.0984 30.0325 23.7638 30.0953 23.4318 30.0619C23.0998 30.0284 22.784 29.9002 22.5208 29.6919" fill="#1C9DC9"/>
  <path d="M49.8866 30.4828C49.8111 29.9593 49.6148 29.4613 49.3138 29.0294C49.0128 28.5975 48.6155 28.2441 48.1544 27.9978C48.0931 27.9277 48.0076 27.8843 47.9156 27.8765C47.8876 27.7992 47.8064 27.7955 47.7507 27.7763C47.0288 27.5385 46.2582 27.4958 45.5151 27.6524C45.0664 27.7284 44.6406 27.907 44.2697 28.1745C44.226 28.1882 44.1663 28.1745 44.1521 28.2407C43.931 28.3524 43.7301 28.5015 43.5583 28.6818C43.4972 28.6725 43.4823 28.7287 43.4491 28.7605L43.2536 28.9724C42.8917 29.3336 42.6052 29.7653 42.4116 30.2417C42.349 30.2624 42.3683 30.3208 42.3566 30.3648C42.2198 30.5907 42.1185 30.837 42.0567 31.0947C41.9733 31.111 41.9165 31.1369 42.0133 31.2186C41.9891 31.4197 41.9642 31.6208 41.9387 31.822C41.7356 31.9118 41.7265 31.9477 41.8772 32.0642C41.861 33.0233 42.1583 33.9607 42.7225 34.73C42.7999 34.8519 42.9002 34.9571 43.0177 35.0395C43.3876 35.4071 43.8344 35.6852 44.3248 35.8531C44.8152 36.021 45.3365 36.0744 45.85 36.0093C46.7784 35.908 47.6494 35.5037 48.3325 34.8572C48.4296 34.7935 48.5125 34.7097 48.5757 34.6113C48.7471 34.4803 48.8923 34.3171 49.0034 34.1306C49.4687 33.5004 49.7919 32.774 49.9499 32.0028H49.9995V30.6717C49.9668 30.6522 49.9393 30.6249 49.9193 30.5921C49.8994 30.5594 49.8875 30.5223 49.8848 30.4839M47.1948 33.4699C47.1504 33.457 47.1377 33.4884 47.1249 33.5206C46.8358 33.8046 46.4801 34.0089 46.0915 34.1142C45.7029 34.2195 45.2942 34.2222 44.9042 34.1221C44.7515 34.0725 44.6023 34.0119 44.4579 33.941L44.2759 33.7561C44.0853 33.5677 43.9349 33.3416 43.834 33.0917C43.7331 32.8417 43.6839 32.5734 43.6894 32.3034C43.7053 31.5814 43.9728 30.8886 44.4444 30.3482C44.7985 29.8988 45.2923 29.5849 45.8449 29.4579C46.1277 29.3667 46.4275 29.3437 46.7205 29.3908C47.0135 29.4378 47.2917 29.5536 47.533 29.7289C47.8649 30.0036 48.084 30.3941 48.1475 30.8241C48.2207 31.3109 48.1718 31.8086 48.0054 32.2712C47.839 32.7338 47.5605 33.1463 47.1956 33.4707" fill="#1C9DC9"/>
  <path d="M38.1235 28.3701C38.1461 28.4378 38.1963 28.4267 38.248 28.4163C38.71 28.7257 39.2368 28.9213 39.7864 28.9874C40.336 29.0536 40.8933 28.9886 41.4137 28.7975C41.472 28.7727 41.5594 28.8308 41.5929 28.7365C41.8744 28.6495 42.1424 28.5223 42.3887 28.3586C42.9922 27.9845 43.4987 27.4688 43.8656 26.8549C43.9384 26.8427 43.9195 26.7809 43.9293 26.7351C43.9638 26.7185 43.9929 26.6924 44.0134 26.6596C44.0338 26.6269 44.0447 26.589 44.0447 26.5502C44.1175 26.5377 44.099 26.4763 44.1088 26.4304C44.2354 26.2615 44.3256 26.0674 44.3734 25.8607C44.388 25.7812 44.4772 25.7324 44.4605 25.6388C44.5631 25.5793 44.4969 25.4769 44.5205 25.3966C44.5908 25.3756 44.577 25.3227 44.5642 25.2728C44.6686 25.004 44.7147 24.7156 44.6996 24.4272C44.7673 24.4057 44.7572 24.3532 44.7451 24.3033C44.7977 23.6627 44.7182 23.0179 44.5118 22.4102C44.2502 21.4772 43.6444 20.6826 42.8204 20.1918C42.4302 19.9785 42.0814 19.652 41.5907 19.689C41.5907 19.5862 41.5816 19.4823 41.4563 19.4671C41.3489 19.4542 41.3038 19.5289 41.2925 19.6283C41.144 19.6316 40.9954 19.6409 40.8473 19.6376C40.2612 19.6344 39.6815 19.7625 39.1497 20.0127C38.6179 20.263 38.1469 20.6293 37.7704 21.0855L37.6509 21.2078C37.6148 21.2213 37.5838 21.2459 37.5624 21.2784C37.5409 21.3108 37.5301 21.3493 37.5315 21.3883C37.4834 21.4111 37.4417 21.4457 37.4099 21.4889C37.3782 21.5322 37.3574 21.5827 37.3495 21.636C37.3227 21.6467 37.2985 21.6632 37.2786 21.6845C37.2588 21.7057 37.2437 21.731 37.2345 21.7588C37.1558 21.768 37.1904 21.8479 37.158 21.886C36.9903 22.1691 36.8505 22.4683 36.7405 22.7792C36.3781 23.7216 36.2993 24.7519 36.514 25.7398C36.74 26.7764 37.3091 27.7029 38.1264 28.3649M38.3193 23.7631C38.394 23.7594 38.4744 23.7661 38.4839 23.6574C38.4877 23.6412 38.4878 23.6243 38.4843 23.6081C38.4808 23.5918 38.4737 23.5766 38.4636 23.5635C38.4535 23.5504 38.4406 23.5397 38.4259 23.5324C38.4112 23.525 38.3951 23.5211 38.3787 23.5209C38.636 22.8195 39.0898 22.2099 39.6842 21.7673C39.6936 21.7588 39.7206 21.7713 39.7409 21.7743C40.0234 21.6852 40.2455 21.4241 40.5764 21.4715C41.0381 21.3963 41.5107 21.5004 41.9001 21.7632C41.9041 21.8519 41.9635 21.8161 42.0093 21.8131C42.2293 21.9811 42.4148 22.1911 42.5554 22.4313C42.5423 22.4746 42.5692 22.4883 42.6027 22.4971C42.7741 22.8135 42.8797 23.1622 42.9129 23.5217C42.9129 23.5612 42.9107 23.6008 42.91 23.6404C42.811 23.7243 42.8758 23.7487 42.9551 23.7672L42.9773 23.7602L42.954 24.1281C42.8222 24.1591 42.812 24.2216 42.9082 24.3129C42.923 24.4775 42.898 24.6433 42.8353 24.7958C42.7516 24.8121 42.6956 24.8383 42.792 24.9197C42.7985 24.9853 42.7913 25.0517 42.7711 25.1144C42.7508 25.1771 42.7179 25.2348 42.6744 25.2839C42.523 25.3064 42.535 25.397 42.5852 25.5035L42.4815 25.7623L42.4134 25.8248C42.3147 25.84 42.2253 25.8923 42.1629 25.9715C42.1005 26.0506 42.0697 26.1507 42.0767 26.2518L41.8823 26.4918L41.6518 26.6837C41.6442 26.6788 41.6356 26.6756 41.6266 26.6742C41.6176 26.6729 41.6085 26.6735 41.5998 26.6759C41.5448 26.7007 41.3722 26.6064 41.4804 26.7972L41.2306 26.9643C41.1877 26.9784 41.1298 26.9643 41.1116 27.0261L40.9398 27.0438C40.8393 26.9373 40.7828 26.9651 40.7617 27.1026L40.6991 27.1455C40.458 27.2136 40.2054 27.2285 39.9581 27.1893C39.7108 27.15 39.4747 27.0576 39.2655 26.9181C39.2771 26.8664 39.343 26.8142 39.2848 26.7625C39.2265 26.7107 39.1803 26.7473 39.1446 26.8017C38.264 26.1731 37.9833 24.7337 38.3223 23.7653" fill="#1C9DC9"/>
  <path d="M26.8427 21.8205C26.8457 22.3657 26.8848 22.9101 26.96 23.45C27.1721 24.5912 27.7366 25.6343 28.5716 26.4278C28.584 26.4604 28.5971 26.4911 28.6411 26.4792C30.4632 28.1501 33.0461 27.8192 34.55 25.9435C34.566 25.9455 34.5822 25.9438 34.5974 25.9385C34.6126 25.9332 34.6265 25.9245 34.6378 25.9129C34.6492 25.9014 34.6579 25.8873 34.6631 25.8718C34.6683 25.8564 34.67 25.8399 34.6679 25.8237C35.4531 24.8078 35.8578 23.5418 35.81 22.2513C35.8105 21.5859 35.689 20.9262 35.4517 20.3061C35.4667 20.214 35.3789 20.1656 35.3615 20.0868C35.2285 19.7052 35.0314 19.35 34.779 19.0367C34.748 18.9548 34.6882 18.8875 34.6112 18.8478C34.594 18.6999 34.4761 18.6311 34.3756 18.5498L34.1856 18.3523C34.0372 18.1812 33.8576 18.0408 33.6566 17.939C33.6421 17.9029 33.6173 17.872 33.5854 17.8504C33.5535 17.8288 33.5159 17.8174 33.4775 17.8177C33.0839 17.5395 32.6351 17.3523 32.1626 17.2694C32.0668 17.3145 32.0126 17.1921 31.9238 17.2087L31.5109 17.2169C31.4458 17.1145 31.3518 17.1684 31.2674 17.171C30.6438 17.1908 30.032 17.3492 29.4752 17.6351L29.299 17.7134C29.2396 17.7179 29.1617 17.6576 29.1315 17.7634C29.145 17.9075 29.0001 17.919 28.9389 18.0004C28.9002 17.9977 28.8617 18.008 28.8292 18.0296C28.7968 18.0513 28.7722 18.083 28.7591 18.1202L28.1628 18.7258C28.0866 18.7677 28.0247 18.8322 27.9855 18.9107C27.8666 19.0387 27.7667 19.1837 27.6892 19.341L27.592 19.3647L27.6284 19.3976C27.6302 19.4172 27.6284 19.4371 27.6229 19.456L27.5191 19.6409C27.2027 20.2451 26.9945 20.9016 26.9043 21.5798C26.8216 21.5876 26.7568 21.6205 26.7426 21.7118C26.731 21.7858 26.779 21.812 26.8431 21.8187M28.7143 21.8826C28.7082 21.5867 28.7576 21.2923 28.8599 21.0152C28.8093 20.9102 28.7944 20.8193 28.9448 20.7934L29.0099 20.7309C29.0714 20.7246 29.149 20.7446 29.1665 20.6547C29.1807 20.5808 29.1279 20.559 29.0685 20.549C29.2579 20.1758 29.5176 19.8442 29.833 19.5729C30.124 19.3494 30.4469 19.1725 30.7905 19.0482L31.0264 19.0271C31.0923 18.9214 31.1862 18.995 31.2674 18.9901C31.3486 18.9853 31.4447 18.9332 31.5106 19.0338C31.6702 19.0163 31.8317 19.0342 31.9838 19.0863L32.1629 19.1469L32.2772 19.1698L32.4593 19.2852C33.0127 19.6295 33.4445 20.143 33.6927 20.752C33.7065 20.8215 33.7768 20.8666 33.7848 20.9368C33.7768 20.8647 33.7065 20.8196 33.6923 20.752C33.6442 20.8592 33.6311 20.9509 33.784 20.9708C34.0028 21.5506 34.0793 22.1757 34.0068 22.7922C33.9479 22.8007 33.8976 22.8181 33.9027 22.8942C33.9082 22.9538 33.9548 22.9649 34.0014 22.9737C34.0014 23.037 33.922 23.0847 33.965 23.1556C33.8958 23.2865 33.8563 23.4314 33.8496 23.5797C33.8253 23.6581 33.8001 23.7365 33.7738 23.8149C33.7411 23.8252 33.7134 23.8382 33.7276 23.8818C33.712 23.928 33.7294 23.9927 33.6595 24.0094C33.5241 23.9813 33.5179 23.9961 33.5656 24.236C33.3564 24.6647 33.0379 25.0284 32.6431 25.2894C32.5926 25.299 32.5444 25.3189 32.5016 25.3478C32.4588 25.3768 32.4222 25.4143 32.3941 25.458C32.3009 25.5005 32.2234 25.5793 32.1131 25.5815L32.0472 25.6288C31.8181 25.7226 31.5723 25.7673 31.3254 25.7599C31.0785 25.7525 30.8357 25.6933 30.6125 25.5859C30.6095 25.5098 30.6281 25.421 30.5178 25.4037C30.5015 25.3985 30.4843 25.3973 30.4675 25.4002C30.4507 25.403 30.4348 25.4098 30.421 25.42C30.4072 25.4302 30.396 25.4435 30.3882 25.4589C30.3805 25.4743 30.3763 25.4914 30.3762 25.5087C29.7249 25.1403 29.2208 24.5525 28.9509 23.8467C28.8198 23.5294 28.734 23.1947 28.6961 22.8528C28.6961 22.8125 28.6939 22.7719 28.6928 22.7316C28.6354 22.5147 28.623 22.288 28.6564 22.066C28.6171 21.9847 28.6906 21.9425 28.718 21.8845" fill="#1C9DC9"/>
  <path d="M43.7848 38.3002C43.5526 37.5872 43.2197 36.9123 42.7964 36.2966C42.0586 35.123 41.3172 33.9522 40.5721 32.784C39.868 31.6815 39.2054 30.543 38.1271 29.7522L38.0612 29.7049C37.6114 29.3769 37.1345 29.0889 36.636 28.8441L36.454 28.7454L36.3393 28.7228L35.9181 28.5612C35.2925 28.3932 34.654 28.2795 34.0094 28.2215C33.4766 28.2112 32.9438 28.2404 32.4152 28.3087C30.9232 28.5398 29.5376 29.2323 28.4471 30.292C27.8002 30.9394 27.2485 31.6781 26.8089 32.4853C26.2501 33.3904 25.6658 34.2789 25.1161 35.1899C24.6228 36.0078 24.0651 36.7846 23.6289 37.638C23.5383 37.6447 23.4524 37.6532 23.5692 37.7626C23.2713 38.6601 23.2094 39.6212 23.3898 40.5504C23.624 41.572 24.1766 42.4896 24.9654 43.1667C25.5142 43.6472 26.1709 43.9833 26.8777 44.1454C27.6037 44.3249 28.3615 44.3249 29.0875 44.1454C29.8942 43.9561 30.6074 43.5002 31.4334 43.369C32.2503 43.2385 33.3031 42.9807 34.2435 43.1527C34.2931 43.1556 34.3428 43.1556 34.3924 43.1527C34.8756 43.1896 35.3553 43.2648 35.8271 43.3775C36.6465 43.559 37.3885 43.9639 38.1905 44.1909C38.28 44.3957 38.315 44.4046 38.4289 44.2515C38.9976 44.3267 39.5747 44.3029 40.1356 44.1813C40.7997 44.0499 41.4275 43.7724 41.9746 43.3681C42.5218 42.9639 42.9752 42.4429 43.3028 41.8416C43.6177 41.282 43.8114 40.6605 43.8707 40.0188C43.9492 39.4848 43.9071 38.9398 43.7477 38.4248C43.8358 38.4067 43.8853 38.376 43.7841 38.2987M41.7254 40.9642C41.5116 41.3748 41.1994 41.7241 40.8177 41.9799C40.4359 42.2356 39.9969 42.3896 39.5411 42.4276C39.3725 42.4756 39.1966 42.4914 39.0223 42.4742C39.0118 42.3818 39.0558 42.2616 38.9022 42.2442C38.7751 42.2298 38.7154 42.2812 38.7238 42.4136C38.0853 42.3078 37.525 41.9654 36.9036 41.8002C35.9921 41.5394 35.0565 41.3754 34.1117 41.3106C33.555 41.2871 32.9974 41.2986 32.4422 41.345C31.8661 41.3883 31.2962 41.4937 30.7421 41.6593C30.1268 41.8442 29.5301 42.0867 28.9218 42.2838C28.5304 42.4397 28.1085 42.5003 27.6899 42.4607C27.2714 42.421 26.8677 42.2823 26.5115 42.0557C26.1449 41.833 25.8303 41.5323 25.5892 41.1743C25.3481 40.8163 25.1863 40.4094 25.115 39.9818C24.9939 39.1815 25.1848 38.3648 25.6472 37.7053C26.2388 36.7754 26.8326 35.8459 27.4016 34.9001C27.9658 33.9617 28.5851 33.0569 29.1974 32.1492C29.373 31.9239 29.5648 31.712 29.7711 31.5155L29.8356 31.4692C30.6231 30.7393 31.6105 30.2696 32.6668 30.1223C33.7741 29.9481 34.9074 30.0929 35.9377 30.5401C36.5758 30.8256 37.1543 31.2322 37.6422 31.7381C38.1755 32.3349 38.6389 32.9925 39.023 33.6977C39.1712 33.938 39.3117 34.1828 39.4555 34.4253C39.4432 34.4675 39.461 34.4812 39.5007 34.4741C40.1068 35.4303 40.7359 36.372 41.3034 37.354C41.4827 37.5954 41.6411 37.8521 41.7767 38.1213C41.764 38.1645 41.7909 38.1782 41.8244 38.1867C42.0408 38.6201 42.1453 39.1022 42.128 39.5878C42.1108 40.0734 41.9724 40.5467 41.7257 40.9631" fill="#1C9DC9"/>
</svg>