<svg xmlns="http://www.w3.org/2000/svg" width="160" height="160" viewBox="0 0 160 160" fill="none">
  <path fill-rule="evenodd" clip-rule="evenodd" d="M27.2639 139.185C27.2639 137.014 31.9526 135.156 41.3298 133.61C52.5777 131.932 63.9437 131.157 75.3173 131.293C86.6899 131.156 98.055 131.931 109.302 133.61C118.68 135.157 123.368 137.015 123.368 139.185C123.367 141.355 118.678 143.213 109.299 144.76C98.0515 146.422 86.688 147.189 75.3173 147.054C63.9459 147.188 52.5819 146.42 41.3336 144.759C31.9557 143.212 27.2671 141.354 27.2677 139.184" fill="black"/>
  <path fill-rule="evenodd" clip-rule="evenodd" d="M25.6581 148.203C23.1076 147.839 20.6401 147.039 18.3656 145.837C16.0999 144.525 14.9674 142.933 14.968 141.059C15.0809 140.226 15.452 139.449 16.03 138.835C17.0875 137.491 18.4029 136.368 19.9003 135.532C24.6828 132.706 31.566 131.294 40.5497 131.294C40.7705 131.294 42.4538 131.395 45.5996 131.598C48.7789 131.786 50.4629 131.88 50.6514 131.88C50.736 131.889 50.8215 131.881 50.9029 131.857C50.9843 131.832 51.0601 131.792 51.1259 131.739C51.5962 132.149 52.0161 132.613 52.3768 133.121C52.9323 133.823 53.3927 134.595 53.7463 135.417C51.4817 135.486 49.2165 135.297 46.9957 134.852C46.9742 134.839 46.9503 134.831 46.9254 134.828C45.2589 133.779 43.3652 133.138 41.4001 132.957V133.522C41.4406 133.534 41.4799 133.55 41.5178 133.569V133.593C41.5178 133.781 41.5415 133.851 41.5889 133.803C42.3242 133.845 43.0231 134.134 43.5705 134.623C43.6719 134.9 43.7124 135.195 43.6892 135.488C43.6892 136.613 42.6822 137.238 40.6684 137.363C39.8806 137.378 39.2837 137.394 38.8737 137.41C36.608 137.221 34.0829 137.127 31.2984 137.127L24.3361 137.806C24.5625 137.865 24.7777 137.961 24.9729 138.089C25.4909 138.208 26.024 138.247 26.5541 138.206C28.9147 138.144 30.9289 138.104 32.5967 138.089C30.3747 138.347 28.2717 139.224 26.5313 140.619C25.8559 141.097 25.2975 141.721 24.8972 142.442C24.497 143.164 24.265 143.966 24.2184 144.788C24.2821 146.059 24.7909 147.268 25.6572 148.207" fill="black"/>
  <path fill-rule="evenodd" clip-rule="evenodd" d="M53.7434 135.416H54.05L54.0974 135.392C54.1287 135.407 54.1439 135.47 54.1439 135.581C54.1439 135.752 54.0822 135.854 53.9541 135.885C53.9216 135.889 53.8898 135.897 53.8592 135.908C53.8934 135.982 53.9097 136.062 53.9067 136.143C53.9067 137.235 52.4043 137.704 49.3996 137.548C49.0887 136.902 48.6652 136.315 48.1488 135.815C47.5619 135.785 46.982 135.674 46.4253 135.487C46.0775 135.135 45.6797 134.836 45.2447 134.597V134.341C45.8126 134.473 46.3725 134.637 46.9216 134.832C46.9465 134.835 46.9704 134.843 46.9919 134.855C49.2128 135.3 51.4779 135.49 53.7425 135.421M38.8737 137.412C39.2837 137.395 39.8797 137.38 40.6684 137.365C42.681 137.239 43.6879 136.614 43.6892 135.49C43.7124 135.197 43.6719 134.902 43.5705 134.625C43.0231 134.136 42.3242 133.847 41.5889 133.804C41.5415 133.852 41.5177 133.781 41.5177 133.594V133.571C41.5336 133.117 41.9742 133.18 42.8398 133.759C43.1074 133.948 43.3434 134.127 43.5478 134.298C44.6018 134.729 45.6065 135.271 46.5449 135.913C48.0393 136.991 48.8106 138.108 48.8587 139.263C46.6656 138.471 44.3822 137.952 42.0606 137.717C41.8252 137.764 41.5662 137.811 41.2814 137.858H37.7415C37.695 137.904 37.6703 137.834 37.6703 137.646C37.6703 137.506 37.9866 137.428 38.6193 137.413L38.8737 137.412ZM25.6581 148.203C24.7919 147.265 24.283 146.055 24.2194 144.784C24.2659 143.962 24.4979 143.16 24.8982 142.439C25.2985 141.717 25.8569 141.094 26.5322 140.615C28.2727 139.22 30.3756 138.343 32.5976 138.085C33.489 137.957 34.387 137.879 35.2872 137.851L35.3347 137.898C35.3744 137.961 35.3908 138.036 35.3812 138.109C35.8557 138.109 36.2619 138.117 36.6083 138.133C37.0809 138.164 37.9307 138.265 39.1575 138.437C39.6706 138.523 40.1762 138.649 40.6693 138.814C44.7907 139.61 47.2608 140.125 48.0795 140.359C49.3792 140.65 50.5659 141.309 51.4961 142.256C51.9804 142.869 52.2312 143.633 52.2041 144.411C52.2041 145.394 51.4885 146.245 50.0573 146.964C47.4297 148.275 42.7794 148.931 36.1063 148.93C33.4583 148.944 30.8115 148.818 28.1769 148.553V148.624C28.1769 148.812 28.1532 148.907 28.1058 148.907L27.4917 148.929C27.1516 148.936 26.8135 148.876 26.4973 148.751C26.1811 148.627 25.8932 148.441 25.6506 148.204" fill="white"/>
  <path fill-rule="evenodd" clip-rule="evenodd" d="M50.6514 131.878C50.4616 131.878 48.7777 131.784 45.5996 131.596C42.4526 131.393 40.7693 131.292 40.5497 131.292C31.5654 131.292 24.6816 132.704 19.8984 135.53C18.4015 136.367 17.0862 137.489 16.0281 138.833C15.4501 139.447 15.079 140.224 14.9661 141.057C14.9661 142.932 16.099 144.524 18.3647 145.835C21.9211 147.897 27.8369 148.927 36.112 148.926C42.7806 148.926 47.4294 148.271 50.0583 146.96C51.4894 146.242 52.205 145.391 52.205 144.407C52.2312 143.629 51.981 142.866 51.498 142.253C50.5658 141.305 49.3767 140.646 48.0747 140.355C47.2567 140.121 44.7866 139.606 40.6646 138.81C40.1724 138.644 39.6674 138.518 39.1546 138.433C37.9272 138.26 37.0775 138.158 36.6055 138.128C34.67 138.035 31.3192 138.058 26.5531 138.199C26.0225 138.239 25.4888 138.2 24.9701 138.082C24.7751 137.954 24.5599 137.858 24.3333 137.8L31.2955 137.121C39.3827 137.121 45.2352 137.831 48.853 139.253C48.8061 138.098 48.0352 136.981 46.5401 135.904C44.9541 134.858 43.2198 134.053 41.3944 133.514V132.949C43.7436 133.142 45.9802 134.031 47.8138 135.502C48.4785 136.064 49.0171 136.757 49.3949 137.539C52.3996 137.695 53.9019 137.227 53.9019 136.134C53.6762 135.007 53.146 133.963 52.3683 133.113C52.0081 132.605 51.5889 132.142 51.1193 131.731C50.9858 131.838 50.8155 131.889 50.6448 131.873M53.2404 132.27C54.2072 133.393 54.7719 134.801 54.8462 136.276C54.8462 137.79 53.4457 138.547 50.6448 138.547C50.3186 138.535 49.9947 138.487 49.6786 138.406C49.7542 138.753 49.7933 139.106 49.7954 139.46V139.672C50.0852 139.792 50.3619 139.941 50.6211 140.117C51.4077 140.541 52.0616 141.172 52.5112 141.94C52.9608 142.709 53.1888 143.585 53.1702 144.473C53.1702 148.158 47.4832 150 36.1091 150C27.188 150 20.9021 148.744 17.2515 146.233C15.0838 144.766 14 143.01 14 140.964C14 138.404 15.9035 136.234 19.7104 134.454C23.9274 132.487 30.2759 131.113 38.756 130.333C41.6202 130.224 44.264 130.239 46.6872 130.379C47.9208 130.393 49.1513 130.503 50.3677 130.707C51.3597 130.535 52.3195 131.058 53.2471 132.276" fill="black"/>
  <path fill-rule="evenodd" clip-rule="evenodd" d="M69.437 122.322C69.2174 121.869 69.0051 121.448 68.8001 121.058C67.6794 119.039 66.4337 117.092 65.0704 115.226C64.5522 115.367 64.0255 115.5 63.4902 115.624C65.3143 116.905 67.0368 119.357 68.6578 122.978C69.4139 124.712 70.1848 126.781 70.9706 129.185C71.1604 129.75 71.3322 130.246 71.4898 130.683C70.9975 130.901 70.571 131.242 70.2524 131.673C69.9338 132.105 69.7342 132.611 69.6733 133.142C69.4766 134.208 69.3895 135.291 69.4132 136.375C69.4132 136.39 69.4917 137.561 69.6486 139.888C69.7065 140.963 69.9375 142.023 70.3329 143.026C62.3564 142.339 56.9205 140.302 54.0253 136.914C52.7871 135.423 51.9799 133.626 51.6897 131.715C51.6106 131.075 51.5711 129.685 51.5711 127.545C51.5534 125.948 51.6486 124.352 51.8558 122.768C51.976 122.621 52.0503 122.442 52.0693 122.253C52.0728 122.12 52.0648 121.986 52.0456 121.855C52.1233 121.364 52.2333 120.879 52.3749 120.403C52.9402 118.849 53.6351 117.345 54.4524 115.906C55.5424 113.763 56.933 111.784 58.5827 110.028C60.5594 108.037 62.6982 106.212 64.9774 104.57C65.8752 103.883 66.5363 103.369 66.9609 103.026C67.2595 102.823 67.5822 102.589 67.9289 102.323C68.3541 101.995 68.771 101.659 69.1798 101.315C69.4797 101.082 69.7777 100.823 70.0766 100.542C70.7846 99.8715 71.4926 99.1378 72.2006 98.3411C75.8513 94.2655 77.6766 90.5886 77.6766 87.3105C77.6799 86.7402 77.6003 86.1724 77.4403 85.6246L77.725 85.9514C77.6459 85.4359 77.5754 84.8815 77.5134 84.2882H77.4887C77.4948 84.2744 77.5047 84.2628 77.5174 84.2546C77.53 84.2464 77.5448 84.242 77.5599 84.242C83.9008 81.9936 88.4879 81.5798 91.3211 83.0007C93.8574 84.1887 95.9602 86.1278 97.34 88.5508C97.6077 88.6444 97.7342 88.9097 97.7196 89.3467C97.7187 89.3647 97.7141 89.3823 97.7062 89.3985C97.6982 89.4147 97.6869 89.4291 97.6731 89.4409L97.7196 89.4183C97.7377 89.4535 97.7618 89.4853 97.7908 89.5124C97.6425 90.3082 97.571 91.1162 97.5773 91.9254C97.5311 94.5487 98.6801 100.193 101.024 108.857C101.404 111.887 102.159 116.759 103.289 123.473C103.431 124.254 103.565 125.003 103.69 125.72C103.675 125.781 103.667 125.845 103.667 125.908C103.693 125.938 103.717 125.969 103.738 126.002C103.943 127.283 104.14 128.501 104.328 129.657C102.283 133.139 99.4197 133.92 95.738 131.999C95.7193 131.938 95.7109 131.874 95.7133 131.811C95.4457 128.86 95.2021 126.689 94.9826 125.299C94.6662 123.302 94.3277 120.218 93.9671 116.049C93.9206 115.612 93.8807 115.19 93.8494 114.783V114.737C94.1481 114.099 94.3011 113.403 94.2974 112.699C94.2893 111.651 93.9285 110.636 93.2724 109.815C92.2493 108.458 90.6603 107.872 88.5053 108.059C87.7242 108.025 86.9467 108.181 86.2396 108.512C85.5325 108.843 84.917 109.339 84.4462 109.958C83.884 110.736 83.5849 111.671 83.5921 112.628C83.5921 112.645 83.7502 113.262 84.0666 114.479C84.1302 114.682 84.1928 114.869 84.2564 115.044H84.2336C84.6588 118.074 85.3431 122.336 86.2864 127.831C86.7293 130.487 87.1152 132.837 87.4443 134.882C86.9959 135.465 86.3994 135.92 85.7157 136.2C85.032 136.48 84.2858 136.575 83.5532 136.474C83.538 136.098 83.5066 135.701 83.4582 135.281C83.3954 134.065 83.2687 132.853 83.0786 131.65C82.9132 130.763 82.5504 129.923 82.0166 129.191C81.6267 128.584 81.081 128.091 80.4355 127.762C79.6887 127.614 78.9159 127.663 78.1938 127.903C78.0268 127.941 77.8667 128.005 77.7193 128.091C77.7049 128.038 77.6969 127.983 77.6956 127.928C77.5532 126.726 77.3951 125.305 77.2211 123.666C77.1268 122.666 77.0246 121.565 76.9145 120.363C76.757 118.598 76.6153 117.044 76.4894 115.701C76.2169 115.69 75.9472 115.643 75.6874 115.561V115.771C75.792 115.71 75.9119 115.68 76.0331 115.685C76.1544 115.689 76.2718 115.728 76.3717 115.796L76.4182 115.771C76.4504 115.771 76.4656 115.866 76.4656 116.054C76.2957 116.435 76.072 116.79 75.8013 117.108C75.9436 118.45 76.1249 120.34 76.3451 122.776C74.7083 121.197 73.7561 120.299 73.4885 120.082C72.9574 119.617 72.2833 119.345 71.5761 119.309C70.9624 119.309 70.4199 119.801 69.9485 120.785C69.7008 121.272 69.5259 121.792 69.4294 122.329M46.3484 129.801C46.3272 129.782 46.3032 129.766 46.2772 129.754H46.3722L46.3484 129.801Z" fill="black"/>
  <path fill-rule="evenodd" clip-rule="evenodd" d="M104.318 129.655C104.775 132.402 105.136 134.635 105.403 136.352C105.705 136.527 105.976 136.75 106.205 137.011C106.485 137.342 106.715 137.71 106.889 138.105C107.198 138.737 107.391 139.42 107.459 140.119C107.6 141.431 107.214 142.235 106.301 142.532V141.01C106.291 140.395 106.128 139.791 105.826 139.253C105.89 139.831 105.921 140.214 105.921 140.4C105.92 140.734 105.839 141.064 105.686 141.362C105.683 141.776 105.706 142.191 105.756 142.603C105.621 142.675 105.494 142.761 105.377 142.859C105.05 143.038 104.687 143.143 104.315 143.164C103.78 143.227 103.489 143.266 103.441 143.281C103.426 143.281 103.269 143.298 102.967 143.328C102.982 143.281 103.006 143.21 103.038 143.118V143.096C102.833 143.128 102.605 143.152 102.354 143.167C102.102 143.199 101.848 143.214 101.595 143.213C100.927 143.242 100.262 143.112 99.6543 142.835C99.0469 142.558 98.5145 142.142 98.1012 141.621C98.0872 141.577 98.0632 141.537 98.0309 141.504L97.3229 140.357C96.928 139.455 96.6352 138.512 96.4498 137.546C96.1046 135.71 95.86 133.857 95.7171 131.995C99.3988 133.916 102.262 133.135 104.308 129.654M83.5389 136.469C84.2716 136.569 85.0179 136.474 85.7016 136.194C86.3853 135.914 86.9818 135.459 87.43 134.875C87.7609 136.811 88.0365 138.482 88.2566 139.889C88.5148 139.906 88.7691 139.961 89.0111 140.052C89.6617 140.258 90.2418 140.639 90.6872 141.153C91.4285 142.023 91.8674 143.106 91.939 144.244C92.0801 145.57 91.6941 146.375 90.7811 146.657V145.135C90.713 143.999 90.2058 142.933 89.3651 142.159C89.3556 142.151 89.3444 142.145 89.3323 142.141C89.3203 142.137 89.3075 142.136 89.2949 142.137C89.2034 142.084 89.1083 142.037 89.0102 141.997C88.8657 141.91 88.7038 141.854 88.5357 141.833C88.5365 141.92 88.5445 142.006 88.5594 142.092C88.879 142.264 89.1423 142.524 89.3186 142.84C89.354 142.876 89.3858 142.916 89.4135 142.958C89.4363 143.017 89.4683 143.073 89.5084 143.122C89.8793 143.725 90.0978 144.407 90.1453 145.112C90.1453 145.721 90.169 146.26 90.2164 146.729C90.2013 146.744 90.0912 146.831 89.8862 146.987C89.5478 147.181 89.168 147.293 88.7777 147.314C88.4959 147.312 88.216 147.36 87.951 147.455H87.4765C87.4926 147.386 87.5002 147.316 87.4993 147.245C87.5367 147.148 87.5529 147.044 87.5468 146.94V146.87C87.3235 147.011 87.0863 147.129 86.8388 147.222C86.8392 147.323 86.8469 147.425 86.8615 147.526C86.4819 147.526 86.1137 147.518 85.7521 147.502H85.7255C85.3498 147.551 84.9712 147.574 84.5924 147.573C83.9305 147.6 83.2714 147.472 82.6688 147.199C82.0661 146.926 81.5367 146.516 81.1236 146.002C80.6876 145.443 80.3447 144.819 80.1081 144.152C80.1555 144.137 80.2106 144.121 80.2732 144.106C80.7896 143.88 81.2549 143.553 81.6418 143.145C82.3258 142.455 82.8543 141.628 83.1922 140.72C83.53 139.811 83.6696 138.842 83.6015 137.876C83.6015 137.548 83.5864 137.078 83.5541 136.471M93.8399 114.782C93.7467 115.014 93.628 115.235 93.4859 115.441C93.4706 115.486 93.4626 115.533 93.4622 115.58C93.4261 115.616 93.3863 115.647 93.3436 115.674C93.2819 115.753 93.2183 115.84 93.1538 115.932V115.979L93.13 116.05C93.2091 116.956 93.2958 117.962 93.3901 119.071C93.6096 121.382 93.8456 123.389 94.0981 125.09C93.3882 127.821 92.4448 129.711 91.268 130.759C90.1038 131.805 89.317 132.203 88.9077 131.954C88.9077 132.171 88.9229 132.281 88.9551 132.281C88.9551 132.298 88.9786 132.298 89.0254 132.281L89.3101 132.328C90.5685 132.28 91.8023 131.476 93.0114 129.915C93.5913 129.233 94.0897 128.486 94.4967 127.69C94.5758 128.283 94.6782 129.602 94.8042 131.646C94.8926 133.326 95.0827 135 95.3736 136.657C95.0272 136.626 94.5878 136.58 94.0516 136.518C93.5169 136.487 92.9193 136.472 92.2588 136.472C91.1339 136.648 89.9993 136.757 88.8612 136.798H88.5765C88.3088 134.863 87.9707 132.567 87.5619 129.913C86.9482 125.838 86.3737 122.294 85.8385 119.281C85.5283 118.708 85.2832 118.103 85.1077 117.477C84.9318 117.015 84.8046 116.537 84.7281 116.049C84.518 115.74 84.3579 115.4 84.2535 115.041C84.19 114.87 84.1283 114.683 84.0637 114.476C83.7474 113.258 83.5892 112.642 83.5892 112.627C83.5807 111.67 83.8777 110.735 84.4377 109.957C84.9101 109.337 85.5275 108.84 86.2365 108.51C86.9455 108.18 87.7248 108.025 88.5072 108.061C90.6622 107.872 92.2512 108.458 93.2743 109.817C93.9262 110.639 94.2832 111.653 94.2888 112.699C94.2919 113.403 94.139 114.098 93.8409 114.736L93.8399 114.782ZM69.437 122.324C69.5334 121.785 69.7086 121.263 69.957 120.775C70.4284 119.792 70.9709 119.3 71.5847 119.299C72.2919 119.335 72.966 119.608 73.497 120.073C73.7646 120.292 74.7168 121.19 76.3536 122.766C76.3543 122.978 76.3699 123.189 76.4001 123.398C76.5425 125.069 76.6918 126.576 76.8481 127.919C76.6901 127.859 76.5228 127.827 76.3536 127.825C74.6068 127.825 73.2692 128.925 72.3411 131.126C71.7716 129.018 71.3234 127.472 70.9962 126.488C70.6021 125.255 70.2161 124.178 69.8384 123.256C69.8228 123.349 69.8148 123.444 69.8147 123.539C69.7467 123.582 69.676 123.621 69.603 123.656C69.4825 123.599 69.3891 123.498 69.343 123.374V123.046C69.3443 122.801 69.3762 122.558 69.4379 122.321M70.3348 143.025C69.9398 142.022 69.7088 140.962 69.6505 139.887C69.4942 137.56 69.4158 136.388 69.4151 136.373C69.3914 135.289 69.4785 134.206 69.6752 133.14C69.7361 132.609 69.9357 132.103 70.2543 131.671C70.5729 131.24 70.9994 130.899 71.4916 130.681L71.5866 130.752V131.174H71.6112C71.7523 131.596 71.8621 131.947 71.9406 132.228C71.5785 133.228 71.3861 134.281 71.3711 135.343C71.3838 135.56 71.4319 135.774 71.5135 135.975C71.5896 136.307 71.7177 136.625 71.8931 136.917C71.9996 136.88 72.1023 136.833 72.1996 136.776C72.2784 136.698 72.3259 136.658 72.342 136.658C72.3779 135.336 72.5761 134.023 72.9323 132.748C73.6068 130.417 74.7469 129.252 76.3527 129.252C76.4892 129.253 76.6245 129.277 76.7532 129.322C76.3042 129.534 75.9032 129.834 75.5745 130.205C75.2458 130.575 74.9962 131.007 74.8409 131.476C74.6889 132.389 74.6335 133.316 74.6757 134.24C74.6757 135.676 74.6915 136.473 74.7232 136.629C74.8586 137.55 75.1625 138.439 75.62 139.252C76.3761 140.829 76.8089 141.688 76.9183 141.829C77.2334 142.323 77.6326 142.759 78.098 143.117C77.605 143.182 77.1081 143.213 76.6108 143.211C74.6292 143.211 72.7574 143.149 70.9953 143.023H70.9706L70.9953 143.069C70.9953 143.193 70.9877 143.257 70.9706 143.257L70.9478 143.281C71.0114 143.328 70.9706 143.352 70.8302 143.352C70.7281 143.337 70.6306 143.3 70.5448 143.244C70.4589 143.187 70.3878 143.113 70.3348 143.025ZM93.4907 114.569C93.5081 114.519 93.532 114.471 93.5618 114.427H93.4669C93.466 114.483 93.474 114.538 93.4907 114.591V114.569Z" fill="white"/>
  <path fill-rule="evenodd" clip-rule="evenodd" d="M105.475 131.878L105.453 131.925V131.878H105.475Z" fill="#C8C8C8"/>
  <path fill-rule="evenodd" clip-rule="evenodd" d="M71.6103 131.176H71.5875V131.105C71.5863 131.118 71.5877 131.131 71.5916 131.143C71.5955 131.155 71.6019 131.166 71.6103 131.176Z" fill="#E9E4DA"/>
  <path fill-rule="evenodd" clip-rule="evenodd" d="M71.5847 130.754L71.4898 130.683H71.5135L71.5847 130.754Z" fill="#00BE97"/>
  <path fill-rule="evenodd" clip-rule="evenodd" d="M77.2495 129.001C77.2515 128.705 77.333 128.414 77.4859 128.159C77.485 128.214 77.493 128.269 77.5096 128.322C77.6569 128.235 77.817 128.172 77.9841 128.134C78.693 127.908 79.4472 127.86 80.1793 127.994C80.8168 128.315 81.3552 128.8 81.7376 129.4C82.2603 130.126 82.6149 130.957 82.7759 131.835C82.9644 133.006 83.0911 134.186 83.1555 135.371C83.1868 135.808 83.2191 136.205 83.2504 136.566C83.2817 137.159 83.2979 137.62 83.2979 137.947C83.3639 138.897 83.2256 139.85 82.8919 140.743C82.5583 141.636 82.037 142.449 81.3627 143.127C80.9845 143.529 80.5263 143.85 80.017 144.068C79.806 143.723 79.6618 143.342 79.5918 142.944C79.4513 142.912 79.2938 142.881 79.1173 142.85C79.2426 142.959 79.3773 143.076 79.5187 143.201L79.4941 143.365C79.481 143.41 79.473 143.457 79.4703 143.504C79.439 143.567 79.3526 143.598 79.2103 143.598C78.7185 143.591 78.2441 143.417 77.8655 143.106C77.415 142.748 77.0247 142.322 76.7095 141.842C76.6115 141.695 76.1853 140.849 75.4312 139.303C74.9885 138.502 74.6929 137.63 74.558 136.727C74.527 136.571 74.5115 135.79 74.5115 134.385C74.4676 133.476 74.523 132.565 74.6767 131.667C74.8305 131.208 75.0744 130.783 75.3943 130.418C75.7142 130.052 76.1038 129.753 76.5406 129.537C76.6982 129.442 76.8636 129.348 77.037 129.254L77.1072 129.396L77.1319 129.232L77.2495 129.091V129.001ZM77.0844 129.587C77.0178 129.62 76.9542 129.659 76.8946 129.704C76.945 129.721 76.9928 129.745 77.037 129.774H77.0607V129.727L77.0844 129.587ZM77.2268 130.266C77.0704 130.39 76.9429 130.547 76.8533 130.725C76.7637 130.903 76.714 131.098 76.7076 131.296L77.1081 133.192C77.4878 134.488 77.9917 135.136 78.62 135.136C78.7259 135.133 78.8282 135.098 78.9131 135.035C78.9981 134.972 79.0614 134.885 79.0945 134.785C79.2763 134.104 79.387 133.405 79.4248 132.702C79.5513 131.483 79.2982 130.703 78.6655 130.359C78.0366 129.983 77.557 129.952 77.2268 130.266ZM76.236 132.934C75.9196 132.607 75.6517 132.6 75.4321 132.912C75.1132 133.6 74.9822 134.359 75.0525 135.113C75.0525 135.128 75.1626 135.698 75.3828 136.823C75.6991 137.915 76.1082 138.462 76.6099 138.463C76.9718 138.463 77.2078 138.205 77.3179 137.689C77.3911 137.327 77.423 136.958 77.4128 136.588C77.5204 135.264 77.0964 133.95 76.2331 132.934M80.4564 138.114C80.3807 137.973 80.2693 137.853 80.1331 137.766C79.9969 137.68 79.8405 137.63 79.6791 137.622C78.9389 137.652 78.569 138.425 78.5697 139.939L78.6409 140.97C78.7984 141.594 79.1211 141.908 79.6089 141.912C80.0802 141.912 80.4184 141.568 80.6234 140.881C80.7405 140.422 80.796 139.95 80.7886 139.476C80.8071 139.002 80.6928 138.532 80.4583 138.118M80.1043 133.597L80.1755 134.651C80.333 135.401 80.6557 135.776 81.1435 135.776C81.9148 135.776 82.3001 135.065 82.2994 133.643C82.2994 131.958 81.9379 131.005 81.2147 130.787C80.4757 130.568 80.1059 131.505 80.1052 133.597M106.109 135.612C106.49 135.174 106.794 134.675 107.006 134.136C107.221 133.639 107.341 133.107 107.36 132.567C107.394 132.269 107.32 131.968 107.151 131.719C106.982 131.471 106.73 131.289 106.439 131.209C105.873 130.99 105.574 131.138 105.542 131.653C105.432 130.904 105.329 130.115 105.235 129.287C105.078 128.194 104.905 127.023 104.716 125.774C104.763 125.679 104.819 125.579 104.881 125.469C105.041 125.062 105.223 124.663 105.424 124.274C106.053 123.228 107.209 122.705 108.893 122.705C109.822 122.705 110.451 123.377 110.781 124.72C110.798 124.815 110.821 124.91 110.852 125.002C111.006 125.298 111.087 125.627 111.088 125.961C111.104 126.165 111.112 126.688 111.113 127.53C111.084 129.234 110.829 130.928 110.353 132.566C109.566 135.454 108.386 136.898 106.813 136.898C106.404 136.898 106.144 136.555 106.034 135.869C106.076 135.86 106.116 135.844 106.152 135.822C106.137 135.761 106.121 135.69 106.105 135.612M108.087 129.077C108.088 129.398 108.144 129.717 108.252 130.019C108.442 130.566 108.749 130.839 109.174 130.839C109.645 130.839 110.03 130.323 110.33 129.292C110.53 128.663 110.641 128.008 110.659 127.348C110.659 126.13 110.234 125.967 109.385 126.858C108.691 127.415 108.229 128.207 108.087 129.082M105.869 127.162V127.748C105.893 127.918 105.982 128.072 106.119 128.177C106.255 128.283 106.428 128.331 106.6 128.313C106.951 128.308 107.293 128.205 107.587 128.015C107.881 127.826 108.114 127.557 108.261 127.241C108.582 126.744 108.754 126.167 108.757 125.578C108.695 125.273 108.565 124.985 108.377 124.736C108.128 124.316 108.002 124.144 107.998 124.22C107.998 123.566 107.644 123.675 106.936 124.547C106.295 125.269 105.92 126.186 105.874 127.148" fill="#C8C8C8"/>
  <path fill-rule="evenodd" clip-rule="evenodd" d="M76.2322 132.932C77.0964 133.948 77.5208 135.262 77.4128 136.587C77.423 136.956 77.3912 137.325 77.3179 137.687C77.2068 138.202 76.9715 138.46 76.6099 138.46C76.1037 138.46 75.6947 137.914 75.3828 136.821C75.1619 135.697 75.0519 135.126 75.0525 135.111C74.9814 134.357 75.1123 133.597 75.4321 132.91C75.6529 132.596 75.9202 132.603 76.2341 132.932M77.2249 130.263C77.5558 129.949 78.036 129.981 78.6655 130.357C79.2944 130.7 79.5459 131.48 79.42 132.7C79.3829 133.404 79.2726 134.102 79.0907 134.783C79.0575 134.883 78.9941 134.97 78.9092 135.033C78.8243 135.096 78.722 135.131 78.6162 135.134C77.9873 135.134 77.484 134.486 77.1062 133.19L76.7067 131.293C76.7129 131.094 76.7625 130.899 76.852 130.721C76.9414 130.544 77.0686 130.387 77.2249 130.263ZM79.1135 138.645L79.16 138.599C79.1406 138.564 79.1323 138.523 79.1363 138.482C79.1356 138.538 79.1279 138.592 79.1135 138.645ZM80.1043 133.586C80.1043 131.495 80.4741 130.558 81.2137 130.776C81.9369 130.995 82.2985 131.947 82.2985 133.633C82.2985 135.053 81.9132 135.764 81.1426 135.765C80.6541 135.765 80.3314 135.39 80.1745 134.641L80.1043 133.586ZM80.4583 138.107C80.6923 138.521 80.8062 138.991 80.7876 139.465C80.7944 139.938 80.7389 140.411 80.6225 140.87C80.4181 141.557 80.0799 141.9 79.6079 141.9C79.1195 141.9 78.7965 141.586 78.639 140.959L78.5687 139.928C78.5687 138.414 78.9382 137.642 79.6772 137.61C79.8387 137.619 79.9953 137.668 80.1318 137.754C80.2683 137.84 80.3801 137.96 80.4564 138.101M106.109 135.595L105.992 135.549C105.96 135.534 105.945 135.471 105.945 135.36C105.959 135.276 105.991 135.196 106.04 135.126C105.882 134.096 105.717 132.964 105.544 131.73L105.567 131.707L105.544 131.683V131.648C105.575 131.132 105.874 130.984 106.44 131.203C106.732 131.284 106.984 131.465 107.153 131.714C107.322 131.963 107.396 132.264 107.362 132.562C107.343 133.102 107.223 133.634 107.008 134.131C106.795 134.67 106.492 135.168 106.11 135.605M105.875 127.151C105.921 126.19 106.295 125.273 106.937 124.551C107.644 123.678 107.998 123.568 107.999 124.223C107.999 124.149 108.127 124.317 108.378 124.738C108.567 124.989 108.697 125.279 108.758 125.586C108.755 126.176 108.584 126.753 108.264 127.249C108.115 127.561 107.882 127.825 107.59 128.011C107.298 128.198 106.959 128.299 106.611 128.303C106.439 128.322 106.267 128.274 106.13 128.168C105.994 128.062 105.904 127.908 105.881 127.738L105.875 127.151ZM108.093 129.072C108.234 128.195 108.697 127.402 109.393 126.844C110.242 125.953 110.667 126.117 110.667 127.335C110.648 127.995 110.537 128.649 110.336 129.279C110.038 130.31 109.652 130.825 109.18 130.825C108.755 130.825 108.449 130.552 108.261 130.006C108.152 129.704 108.096 129.385 108.096 129.064" fill="#AA5555"/>
  <path fill-rule="evenodd" clip-rule="evenodd" d="M77.4859 84.2872C78.3273 85.1294 79.1078 86.0295 79.8215 86.9808C80.6619 88.0842 81.4267 89.2425 82.1106 90.4477C82.1897 90.5732 82.7797 91.9006 83.8806 94.4297C84.45 95.7244 84.859 98.4723 85.1077 102.673C84.0903 98.8093 82.7572 95.0339 81.1217 91.3848C80.1274 89.3267 78.8914 87.3926 77.4394 85.6227C77.5972 86.1867 77.6767 86.7694 77.6757 87.3547C77.6757 90.6034 75.8506 94.2649 72.2006 98.3392C71.4926 99.151 70.7846 99.8929 70.0766 100.565C69.7767 100.83 69.4857 101.08 69.2035 101.313C68.7941 101.673 68.3772 102.009 67.9526 102.321L67.573 102.604C66.6673 103.37 65.7221 104.09 64.741 104.759C62.8914 106.108 61.155 107.604 59.5488 109.231C57.6211 111.11 55.9894 113.265 54.7086 115.625C53.6355 117.396 52.7875 119.293 52.1841 121.271C52.1181 121.468 52.0704 121.672 52.0418 121.878C52.0796 122.007 52.0953 122.142 52.0883 122.277C52.072 122.459 51.9979 122.631 51.8766 122.769C51.6699 124.362 51.5748 125.967 51.5919 127.572C51.5919 129.695 51.6312 131.084 51.7096 131.74C51.9819 133.646 52.7826 135.439 54.0225 136.92C56.981 140.385 62.606 142.438 70.8975 143.079C72.6754 143.188 74.5871 143.242 76.6327 143.242C77.7088 143.269 78.7828 143.135 79.8186 142.844C80.372 142.696 80.8873 142.433 81.3305 142.073C82.0396 141.304 82.4649 140.319 82.5367 139.279C82.6501 138.449 82.7053 137.611 82.7019 136.773C82.6709 134.955 82.4257 133.147 81.9711 131.386C81.4194 129.107 80.2549 128.31 78.4776 128.997L78.1473 129.139C78.751 129.48 79.2178 130.018 79.4694 130.661C79.8776 131.545 80.1099 132.499 80.1536 133.471C79.9961 133.066 79.7914 132.582 79.5396 132.02C78.8474 130.567 78.1869 129.724 77.558 129.49C77.4828 129.518 77.417 129.566 77.3682 129.629L77.2733 129.583C77.1313 129.464 76.9611 129.384 76.7788 129.349H76.6839L76.6592 129.303C76.558 129.285 76.4554 129.277 76.3527 129.278C75.6407 129.237 74.9354 129.434 74.3493 129.837C73.7633 130.24 73.3302 130.827 73.1193 131.503C72.5598 132.907 72.2487 134.397 72.1996 135.907C72.1364 137.405 72.1047 138.295 72.1047 138.577C72.0964 138.71 72.104 138.843 72.1275 138.974C72.1216 138.981 72.1144 138.987 72.1062 138.991C72.0981 138.995 72.0892 138.997 72.0801 138.998H72.0336C71.7442 138.333 71.6071 137.613 71.6321 136.89C71.4724 135.33 71.5763 133.755 71.9396 132.23C71.7498 131.621 71.4271 130.606 70.9716 129.185C70.955 129.12 70.9311 129.056 70.9004 128.996C70.1449 126.67 69.405 124.672 68.6806 123.001C66.1782 117.428 63.4326 114.641 60.4437 114.64C60.0628 114.702 59.6957 114.83 59.359 115.017C59.0449 115.221 58.6911 115.356 58.3207 115.415L57.8462 115.251C57.8342 115.272 57.8171 115.289 57.7965 115.302C57.7759 115.314 57.7525 115.32 57.7285 115.321C57.681 115.306 57.5937 115.143 57.4685 114.83C57.3419 114.487 58.2071 114.173 60.0641 113.889C60.9517 113.736 61.8622 113.778 62.7314 114.013C63.6006 114.248 64.4072 114.669 65.0941 115.248C66.4588 117.106 67.6954 119.054 68.7954 121.079C69.6515 122.729 70.3545 124.454 70.8956 126.231L70.9905 126.514C71.3214 127.497 71.7697 129.035 72.3354 131.129C73.2642 128.959 74.6017 127.874 76.3479 127.874C76.5252 127.875 76.7008 127.907 76.8671 127.968C76.7095 126.595 76.5514 125.072 76.3926 123.401V123.378C76.0306 119.411 75.7947 116.803 75.6846 115.555C75.9491 115.654 76.2284 115.71 76.5112 115.719C76.6377 117.077 76.7794 118.631 76.9364 120.379C77.0306 121.457 77.1255 122.456 77.2211 123.378C77.3786 125.142 77.5368 126.656 77.6956 127.921C77.6955 127.984 77.7038 128.048 77.7203 128.109C77.878 128.024 78.0435 127.953 78.2147 127.899C78.9397 127.672 79.7093 127.624 80.4573 127.758C81.0953 128.097 81.6386 128.587 82.0385 129.186C82.5632 129.93 82.9267 130.775 83.1061 131.666C83.2949 132.86 83.4216 134.064 83.4858 135.272C83.58 136.505 83.6275 137.379 83.6281 137.895C83.6281 140.877 82.5108 142.945 80.2761 144.101C80.2316 144.115 80.1912 144.139 80.1584 144.172H80.1119C80.3577 144.827 80.6996 145.442 81.1264 145.997C81.5436 146.513 82.0773 146.924 82.6842 147.197C83.2911 147.469 83.9542 147.597 84.6199 147.568H84.6664C84.669 147.543 84.6774 147.519 84.6911 147.498C84.7027 147.484 84.7194 147.475 84.7376 147.473V147.45C84.7376 147.435 84.7527 147.427 84.785 147.427C84.7841 147.421 84.7846 147.414 84.7866 147.408C84.7886 147.402 84.792 147.397 84.7965 147.392C84.801 147.387 84.8065 147.384 84.8126 147.382C84.8187 147.38 84.8251 147.379 84.8315 147.38C84.9792 147.413 85.1288 147.436 85.2795 147.45H85.3032C85.4455 147.466 85.5955 147.483 85.753 147.498C86.146 147.528 86.523 147.544 86.8843 147.544C86.8696 147.443 86.862 147.341 86.8615 147.24C86.8626 147.221 86.8708 147.205 86.8843 147.192C86.924 146.975 86.9478 146.754 86.9555 146.533C86.8267 145.495 86.5569 144.478 86.1535 143.512C85.996 143.09 85.8555 142.748 85.7284 142.481C86.2992 142.938 86.7391 143.536 87.0039 144.214C87.3015 144.81 87.494 145.452 87.5733 146.112V146.954C87.5782 147.056 87.5703 147.159 87.5496 147.259C87.5344 147.337 87.5183 147.408 87.5022 147.469C87.7869 147.454 87.9425 147.447 87.9767 147.447C88.2574 147.394 88.5405 147.355 88.8251 147.33C89.2063 147.297 89.5764 147.185 89.9118 147.002C90.0238 146.901 90.142 146.807 90.2658 146.72C90.2135 146.182 90.1897 145.642 90.1946 145.103C90.1398 144.407 89.9217 143.733 89.5578 143.136C89.5001 143.097 89.4581 143.039 89.4392 142.972C89.4155 142.92 89.3834 142.873 89.3443 142.831C89.1681 142.53 88.9163 142.28 88.6135 142.106H88.5907C88.2697 141.968 87.9613 141.804 87.6692 141.613C87.7014 141.613 87.9131 141.669 88.3069 141.777C88.5689 141.817 88.8232 141.896 89.0614 142.011C89.1456 142.056 89.2325 142.095 89.3215 142.128C89.3367 142.128 89.3517 142.133 89.3644 142.141C89.3771 142.149 89.3869 142.161 89.3927 142.175C90.2258 142.946 90.7276 144.005 90.7935 145.134V146.678C91.721 146.382 92.1063 145.57 91.9494 144.243C91.8721 143.107 91.4342 142.025 90.6985 141.152C90.2501 140.658 89.681 140.287 89.0463 140.075H89.0235C88.78 139.979 88.5246 139.916 88.2642 139.887H88.2415C87.6981 139.841 87.1511 139.865 86.6138 139.957C86.5919 139.97 86.5677 139.978 86.5427 139.981C86.2488 139.995 85.9567 140.034 85.6695 140.098C85.3436 140.164 85.0114 140.195 84.6787 140.192C84.6567 140.193 84.6349 140.189 84.6144 140.181C84.594 140.173 84.5755 140.16 84.5601 140.145C84.4652 140.13 84.5525 140.067 84.8201 139.956C85.0568 139.862 85.4582 139.721 86.0245 139.534C86.6882 139.253 87.403 139.11 88.1247 139.113C87.6995 136.333 87.0858 132.585 86.2836 127.87C86.0159 126.278 85.7629 124.779 85.5243 123.374C84.9739 119.983 84.5411 117.212 84.226 115.059H85.0527C85.5145 117.403 86.0045 120.175 86.5227 123.378C86.8688 125.392 87.2149 127.57 87.561 129.911C87.9703 132.581 88.3164 134.893 88.5993 136.845H88.884C90.0222 136.786 91.1566 136.669 92.2825 136.493C92.9272 136.493 93.5172 136.509 94.0525 136.539C94.603 136.603 95.0433 136.656 95.3745 136.703C95.1039 135.036 94.9227 133.355 94.8317 131.668C94.6893 129.622 94.5792 128.295 94.5014 127.686C94.0942 128.483 93.5951 129.229 93.0142 129.911C91.8191 131.472 90.5853 132.284 89.3129 132.346L89.0282 132.276C88.9969 132.308 88.9808 132.308 88.9808 132.276C88.9343 132.276 88.9096 132.174 88.9096 131.972C89.3348 132.223 90.1298 131.817 91.2946 130.754C92.4587 129.708 93.3945 127.834 94.1018 125.133C94.024 124.568 93.9535 123.982 93.8902 123.377C93.7327 122.081 93.5672 120.644 93.3939 119.066C93.2376 117.224 93.1041 115.685 92.9934 114.451H93.819C93.8665 114.95 93.9139 115.481 93.9614 116.044C94.229 119.041 94.4805 121.485 94.7159 123.375C94.8102 124.108 94.9051 124.756 95.0006 125.319C95.205 126.708 95.441 128.886 95.7086 131.853C95.9762 134.476 96.236 136.381 96.4878 137.567C96.6381 138.359 96.8605 139.135 97.1521 139.887C97.3954 140.509 97.7292 141.092 98.1429 141.619C98.5524 142.146 99.0834 142.568 99.6913 142.849C100.299 143.131 100.966 143.263 101.636 143.236C101.888 143.236 102.131 143.228 102.367 143.211V143.117C102.368 143.108 102.37 143.099 102.374 143.091C102.379 143.083 102.385 143.076 102.392 143.07C102.423 142.774 102.438 142.547 102.438 142.391C102.314 141.362 102.052 140.354 101.659 139.393C101.532 139.041 101.383 138.696 101.211 138.363C101.798 138.804 102.241 139.407 102.487 140.096C102.795 140.689 102.995 141.331 103.076 141.994V143.118L103.053 143.142C103.038 143.22 103.022 143.29 103.006 143.352C103.29 143.337 103.448 143.329 103.48 143.329C103.511 143.313 103.796 143.274 104.335 143.211C104.718 143.175 105.088 143.055 105.419 142.86C105.623 142.705 105.741 142.619 105.773 142.604C105.741 142.26 105.717 141.847 105.702 141.363V140.986C105.646 140.279 105.418 139.595 105.038 138.995C104.992 138.95 104.959 138.894 104.943 138.832C104.916 138.789 104.884 138.75 104.848 138.714C104.672 138.413 104.42 138.163 104.117 137.989H104.08C103.759 137.852 103.451 137.687 103.159 137.496C103.191 137.496 103.395 137.543 103.773 137.638C104.043 137.688 104.305 137.775 104.552 137.896C104.636 137.939 104.723 137.978 104.812 138.012C104.825 138.011 104.838 138.013 104.85 138.017C104.862 138.021 104.873 138.028 104.883 138.036C105.252 138.408 105.571 138.826 105.832 139.278C106.134 139.807 106.298 140.403 106.307 141.011V142.556C107.219 142.259 107.604 141.448 107.463 140.12C107.391 139.424 107.208 138.744 106.92 138.106C106.748 137.709 106.508 137.345 106.212 137.029C105.99 136.763 105.727 136.534 105.433 136.35C105.162 136.177 104.868 136.043 104.559 135.952H104.536C104.331 135.875 103.686 135.594 102.601 135.11C102.787 135.054 102.977 135.015 103.17 134.992C103.18 134.984 103.191 134.977 103.203 134.973C103.215 134.969 103.228 134.967 103.241 134.969C103.948 134.961 104.648 135.104 105.294 135.39C104.914 133.048 104.396 129.918 103.738 126C103.716 125.966 103.693 125.935 103.666 125.905C103.665 125.85 103.673 125.795 103.689 125.741C103.563 125.007 103.436 124.265 103.31 123.516C103.312 123.468 103.304 123.421 103.287 123.377C102.166 116.725 101.408 111.885 101.015 108.857C98.687 100.192 97.5463 94.5549 97.5925 91.9461C97.5895 91.1305 97.6529 90.316 97.7823 89.5106C97.7704 89.4848 97.7548 89.461 97.7358 89.4399C96.9663 90.0216 96.283 90.7077 95.7057 91.478C94.6517 92.6961 93.8175 94.8661 93.2031 97.9879C92.6052 101.127 92.3774 102.876 92.5198 103.234C92.3774 103.14 92.2749 102.797 92.2123 102.203C92.118 101.47 92.5432 99.0892 93.4878 95.0607C93.7362 93.813 94.1652 92.6076 94.7614 91.4818C95.2852 90.374 96.1007 89.4271 97.1217 88.7411C97.1821 88.6809 97.2541 88.6335 97.3334 88.6017C97.603 88.4129 97.8888 88.2481 98.1875 88.1091C98.5172 87.9692 98.8562 87.8518 99.2021 87.7578C99.2343 87.7428 99.2581 87.7428 99.2732 87.7578C99.352 87.8991 99.4232 88.031 99.4868 88.1562C99.0293 88.3898 98.7614 89.1938 98.6829 90.5682C98.7152 90.7723 98.7389 91.2953 98.7541 92.1373C98.7541 92.4029 98.7623 92.6682 98.7788 92.9331C98.884 95.639 99.2472 98.3289 99.8635 100.967C99.9578 101.389 100.053 101.764 100.148 102.091C100.47 103.309 100.714 104.545 100.879 105.793C101.493 108.228 101.941 110.109 102.225 111.436L102.294 111.787C102.357 112.084 102.421 112.398 102.484 112.729C103.015 115.721 103.611 119.271 104.27 123.378C104.285 123.566 104.309 123.754 104.341 123.943C104.456 123.747 104.583 123.558 104.721 123.378C104.817 123.234 104.928 123.101 105.051 122.979C105.644 122.329 106.399 121.846 107.24 121.579C108.081 121.312 108.978 121.269 109.841 121.456C110.517 121.985 111.086 122.637 111.517 123.378C111.684 123.691 111.819 124.02 111.918 124.361C112.05 125.37 112.097 126.389 112.059 127.406C112.008 128.149 111.89 128.885 111.705 129.607C111.463 130.844 111.116 132.058 110.668 133.237C109.739 135.735 108.676 137.289 107.481 137.899C107.651 138.47 107.754 139.06 107.788 139.655C107.93 141.544 107.757 142.559 107.269 142.7C105.728 143.729 103.906 144.26 102.049 144.222H101.983L100.33 144.083C100.284 144.098 100.252 144.09 100.236 144.058L100.189 143.964C97.9076 143.371 96.3574 141.216 95.5387 137.5H88.6951C88.7894 138.156 88.8761 138.773 88.9551 139.35C88.9703 139.35 88.9779 139.289 88.9779 139.162C88.9621 139.036 89.4736 139.309 90.5125 139.982C91.5502 140.637 92.1478 141.909 92.3053 143.798C92.4318 145.672 92.2509 146.679 91.7624 146.819C90.2296 147.866 88.403 148.407 86.5427 148.364H86.238C85.6994 148.445 85.1552 148.484 84.6104 148.482C82.1713 148.482 80.4013 147.132 79.3004 144.432C78.4205 144.649 77.5156 144.752 76.6089 144.736C74.5792 144.736 72.6754 144.682 70.8975 144.572C62.1966 143.9 56.2888 141.668 53.174 137.875C51.8518 136.26 51.0027 134.315 50.7198 132.253C50.718 132.213 50.71 132.174 50.696 132.136H50.5309C50.5467 130.903 50.5622 130.224 50.5774 130.098C50.594 130.022 50.6023 129.943 50.6021 129.865C50.6044 129.73 50.5885 129.596 50.5546 129.466V127.804C50.5546 127.164 50.5784 126.516 50.6258 125.86L51.1449 121.925C53.0804 116.866 54.8662 113.314 56.5023 111.269C58.1227 109.208 61.395 106.406 66.3193 102.861C67.6963 101.991 68.9571 100.952 70.0719 99.7689C70.7402 99.0135 71.4493 98.2944 72.1959 97.6149C72.7508 97.0654 73.2576 96.4699 73.7105 95.8349C74.6096 94.6309 75.3621 93.3255 75.9522 91.9461C76.6195 90.504 76.9813 88.9413 77.0151 87.3547C77.012 86.6261 76.8251 85.9099 76.4713 85.2714C76.0784 84.5845 75.8269 84.1707 75.7168 84.0301C75.5711 83.7904 75.3968 83.5691 75.1977 83.3708C74.9301 83.0424 74.757 82.8318 74.6786 82.7389C74.8684 82.5976 75.0639 82.4657 75.2689 82.3405C75.9037 82.8119 76.5029 83.3287 77.0616 83.8869C77.204 84.0113 77.3464 84.145 77.4868 84.2844M50.772 115.364C50.8185 115.052 50.8422 114.998 50.8422 115.201L50.772 115.364ZM74.4669 131.618C75.285 131.227 76.1423 131.516 77.0389 132.485C77.0857 132.594 77.6127 133.648 78.62 135.647L78.5953 135.974C78.6124 136.005 78.5257 136.021 78.3353 136.021C78.2087 136.021 77.863 135.381 77.298 134.101C76.7285 132.788 76.036 132.132 75.2205 132.133C75.0024 132.12 74.7843 132.157 74.5836 132.243C74.3829 132.328 74.2051 132.459 74.0645 132.625C73.9084 132.817 73.7663 133.02 73.6394 133.233L73.4277 133.163C73.4031 133.079 73.3951 132.992 73.404 132.905C73.4171 132.605 73.5276 132.318 73.719 132.085C73.9104 131.853 74.1725 131.689 74.466 131.617M104.627 125.855C104.817 127.121 104.99 128.307 105.146 129.416C105.462 131.976 105.761 134.131 106.043 135.879C106.217 135.973 106.377 136.091 106.517 136.231C107.509 136.293 108.517 135.513 109.539 133.888C110.426 132.466 110.945 130.848 111.049 129.179C110.498 129.849 109.794 130.379 108.996 130.726C108.935 130.719 108.878 130.694 108.831 130.655C108.784 130.64 108.76 130.553 108.76 130.397C109.013 130.711 109.485 130.407 110.176 129.484C110.73 128.901 111.042 128.131 111.049 127.329C111.055 126.473 110.976 125.618 110.813 124.777C110.708 124.273 110.498 123.796 110.195 123.378C110.04 123.177 109.839 123.015 109.61 122.906C109.38 122.796 109.128 122.741 108.873 122.746C108.715 122.746 108.559 122.753 108.398 122.768C108.666 122.922 108.906 123.12 109.106 123.353C109.253 123.734 109.317 124.141 109.296 124.548C109.281 125.272 109.012 125.968 108.537 126.517C108.066 127.109 107.798 127.452 107.735 127.547C107.816 127.37 107.919 127.205 108.042 127.054C108.476 126.424 108.721 125.685 108.75 124.922C108.772 124.577 108.748 124.231 108.679 123.892C108.39 123.512 108.058 123.166 107.688 122.862C107.181 122.941 106.694 123.116 106.254 123.378C105.886 123.617 105.579 123.937 105.357 124.314C105.134 124.704 104.943 125.111 104.787 125.531C104.724 125.657 104.67 125.766 104.622 125.859" fill="black"/>
  <path fill-rule="evenodd" clip-rule="evenodd" d="M84.4234 100.986H84.4709V101.032C84.4576 101.044 84.4489 101.061 84.4462 101.079C84.4461 101.046 84.4383 101.015 84.4234 100.986Z" fill="#FF0000"/>
  <path fill-rule="evenodd" clip-rule="evenodd" d="M77.3435 84.307C77.3475 84.1425 77.3634 83.9785 77.391 83.8163C77.595 83.9557 77.7924 84.0894 77.9813 84.2137C78.0126 83.9482 78.2565 83.8719 78.712 83.9802C78.7756 83.9952 78.8468 84.0112 78.9237 84.0263C79.1603 84.1048 79.9471 84.425 81.284 84.987C83.6799 86.1033 86.2494 86.808 88.883 87.0712C90.8201 87.1551 92.7545 86.8525 94.5716 86.1812C95.2713 85.9569 95.9568 85.6912 96.6244 85.3854C97.0186 85.1813 97.4276 84.9782 97.8516 84.776C97.9592 84.8215 98.0695 84.8605 98.1818 84.8928C98.2283 84.9079 98.253 84.9634 98.253 85.0567L98.2995 85.0096C98.3827 85.0902 98.4912 85.1401 98.607 85.1509C98.6706 85.1979 98.6934 85.3458 98.6782 85.5954C98.2125 86.7106 97.61 87.7646 96.8845 88.7335C96.5049 89.3269 96.0642 90.0059 95.5624 90.7707C93.5701 93.902 92.0878 97.3255 91.1702 100.915C90.6831 103.133 90.2585 105.733 89.8966 108.715C89.7596 109.991 89.7045 111.274 89.7315 112.556C89.7437 113.865 89.436 115.158 88.8346 116.323C88.4045 113.64 88.1131 110.937 87.9615 108.224C87.8072 105.446 87.4523 102.683 86.8995 99.9553C86.5534 98.6286 86.1207 97.2473 85.6012 95.8113C85.1066 94.4744 84.515 93.1747 83.8312 91.9226C82.7017 90.0343 81.3381 88.294 79.7721 86.7425C79.1742 86.1655 78.7022 85.705 78.3561 85.3609C77.6791 84.6752 77.3407 84.3239 77.3407 84.307M96.744 86.6521C96.7311 86.6512 96.7181 86.6528 96.7059 86.6571C96.6936 86.6613 96.6824 86.6679 96.6728 86.6766L96.744 86.7934C96.7858 86.7068 96.8416 86.6276 96.9091 86.5589C96.8464 86.5745 96.7892 86.6061 96.744 86.6521ZM89.0263 107.707C89.0274 107.689 89.0321 107.672 89.0402 107.656C89.0484 107.639 89.0598 107.625 89.0738 107.613L88.9314 107.591L89.0263 107.707Z" fill="white"/>
  <path fill-rule="evenodd" clip-rule="evenodd" d="M74.8428 56.4159C74.641 56.4622 74.4436 56.5252 74.2524 56.6042C74.162 56.6244 74.0746 56.656 73.9924 56.6984C71.0172 56.8847 68.1839 58.0269 65.9207 59.9524C64.1247 61.6724 62.9615 63.9403 62.6171 66.3935C62.5403 66.6478 62.477 66.9059 62.4273 67.1668C62.0801 68.7929 62.1204 70.477 62.5449 72.085C63.1582 74.1615 64.168 76.1017 65.5193 77.7999C65.7724 78.1591 66.0238 78.4868 66.2738 78.7832C66.5578 79.1116 66.8176 79.3941 67.0529 79.6308L67.0064 79.6544C66.1719 79.2952 65.6841 79.0846 65.543 79.0224C61.5469 77.2549 58.7389 74.9186 57.1192 72.0134L57.0945 72.0379C57.048 71.9437 56.992 71.8966 56.9294 71.8966C56.9085 71.8752 56.8811 71.8613 56.8514 71.857C56.8216 71.8528 56.7914 71.8584 56.7652 71.8731C56.7275 71.865 56.6882 71.87 56.6537 71.8871C56.6192 71.9042 56.5916 71.9325 56.5754 71.9672C56.518 72.0064 56.4763 72.0644 56.4577 72.1311C56.4577 72.1939 56.1192 72.8965 55.4422 74.2389C54.6673 73.4648 54.2198 72.4261 54.1914 71.3353C54.0783 68.6782 54.4378 66.0222 55.2534 63.489L55.2781 63.4682V63.2582C55.2781 63.2413 55.2705 63.2337 55.2543 63.2337C55.2082 63.1674 55.1416 63.1178 55.0645 63.0925L55.0882 63.1169C55.0104 63.0538 54.9478 63.0388 54.8984 63.0698C54.8548 63.0688 54.8114 63.0767 54.771 63.0929C54.7305 63.1091 54.6938 63.1333 54.6631 63.164H54.6868C53.7732 64.3049 53.0339 65.2499 52.4689 65.9989C52.5789 65.312 52.634 64.9525 52.634 64.9205C53.2995 61.2198 54.6435 57.6716 56.5991 54.4522C58.2051 51.5893 59.9781 48.822 61.9091 46.1642C62.3964 45.3674 62.9324 44.6009 63.5139 43.8689C67.1482 38.7266 69.4297 35.4145 70.3585 33.9327C71.0817 32.7611 71.7185 31.6447 72.2689 30.5836C72.2812 30.5971 72.2981 30.6056 72.3164 30.6071C72.3164 30.5921 72.3316 30.5761 72.3638 30.56C72.3638 30.529 72.3543 30.5139 72.3391 30.5139C72.1493 30.1077 72.0158 29.9045 71.9387 29.9045C66.3709 29.1869 60.1796 34.074 53.3648 44.5659C49.8558 49.8891 47.244 52.8476 45.5294 53.4416C45.3575 53.512 45.1732 53.5479 44.9872 53.5471C44.8012 53.5463 44.6172 53.5088 44.446 53.4369C44.2747 53.3649 44.1195 53.26 43.9894 53.128C43.8593 52.9961 43.757 52.8399 43.6882 52.6684C43.1217 51.2474 42.8724 49.7215 42.9575 48.1957C42.9094 39.8737 42.9799 32.6446 43.1691 26.5083C43.3589 20.4505 46.0419 16.7266 51.218 15.3364C52.5622 14.9328 53.9344 14.6278 55.3236 14.4238C54.8042 15.22 54.0803 16.3674 53.1522 17.8662C52.3652 19.1698 51.664 20.5226 51.0529 21.916C50.6587 22.8365 50.399 23.4684 50.2737 23.8119C50.1313 24.1258 49.6435 25.2814 48.8103 27.2787C48.7735 27.3521 48.7494 27.431 48.7391 27.5123V27.5848C48.7239 27.6319 48.7315 27.6555 48.7638 27.6555C48.7968 27.6549 48.8293 27.6469 48.8587 27.6319C48.9871 27.512 49.0912 27.3688 49.1652 27.21C49.4816 26.6487 50.0481 25.6101 50.865 24.0944C52.4853 21.0662 53.6966 18.8337 54.4989 17.3971C55.1039 16.31 55.7653 15.2547 56.4805 14.2355L56.6229 14.1413H56.8127C56.8723 14.0968 56.9358 14.0577 57.0025 14.0245C58.8576 11.5425 60.6582 10.4179 62.4045 10.6509C64.4184 10.9485 67.4474 12.5025 71.4916 15.3129C72.1826 15.7807 72.8981 16.2955 73.6384 16.8575C74.9443 17.7949 76.6671 19.0987 78.8069 20.7689C79.2941 21.1293 79.7503 21.4495 80.1755 21.7295C80.2546 22.3078 80.3096 22.7451 80.3406 23.0415V23.1121L80.3634 23.1357C80.3725 23.1351 80.3814 23.1328 80.3895 23.1287C80.3977 23.1247 80.4049 23.119 80.4108 23.1121C80.5563 23.0677 80.6984 23.0129 80.836 22.9482L80.8825 22.9953H80.93C81.1198 22.9012 81.3229 22.7919 81.544 22.6676V22.644H81.5905C81.631 22.6423 81.671 22.6343 81.7091 22.6205H81.7329C81.8957 22.5153 82.0698 22.4284 82.252 22.3615C82.2547 22.358 82.2583 22.3551 82.2623 22.3532C82.2663 22.3512 82.2708 22.3502 82.2752 22.3502C82.2797 22.3502 82.2842 22.3512 82.2882 22.3532C82.2922 22.3551 82.2957 22.358 82.2985 22.3615C82.3056 22.3559 82.3115 22.349 82.3158 22.341C82.32 22.3331 82.3226 22.3243 82.3232 22.3153C82.329 22.3085 82.3361 22.303 82.344 22.2989C82.352 22.2949 82.3607 22.2925 82.3697 22.2918C82.3879 22.2902 82.4049 22.2818 82.4171 22.2682H82.4636C82.7151 22.1741 82.9904 22.0799 83.2903 21.9857L83.313 22.0328C84.1311 21.83 84.7053 21.6972 85.0356 21.6344C87.373 21.3079 89.7401 21.2447 92.0918 21.446C91.6868 21.4771 91.2953 21.6041 90.9501 21.8165C90.605 22.0289 90.3163 22.3205 90.1082 22.6666C89.3504 23.7515 88.8798 25.0082 88.7397 26.3209C88.4708 29.8967 88.0694 33.3708 87.5354 36.7431C87.0007 40.1625 86.6781 42.2625 86.5673 43.0429C86.1244 44.5109 85.7075 45.7667 85.3165 46.8102C84.8049 49.1014 83.6419 51.1989 81.9654 52.8539C81.9371 52.8754 81.9049 52.891 81.8705 52.9001C81.3675 53.1958 80.8873 53.4783 80.4317 53.742C80.2419 53.8369 80.0454 53.9386 79.8424 54.0472C79.6505 54.1511 79.4535 54.2454 79.252 54.3297C78.3555 54.736 76.8845 55.4307 74.839 56.414M118.027 83.7466L117.91 83.6053C118.145 82.8242 118.381 81.8328 118.618 80.6311C118.62 80.5673 118.612 80.5037 118.593 80.4427C118.574 80.407 118.546 80.3759 118.514 80.3515C118.481 80.3271 118.443 80.31 118.403 80.3014C118.329 80.2709 118.247 80.2627 118.168 80.2779C118.104 80.2779 118.049 80.325 118.003 80.4192C116.872 81.8848 115.434 83.09 113.789 83.952C112.144 84.8139 110.33 85.3123 108.472 85.4127C109.899 84.4551 111.138 83.2489 112.131 81.8526C112.289 81.6806 112.447 81.501 112.606 81.3139C113.655 80.375 114.547 79.2763 115.249 78.0589C115.817 76.8629 116.176 75.5798 116.311 74.2643C116.767 71.7123 116.299 69.0822 114.989 66.84C113.494 64.3579 110.922 62.4533 107.272 61.1259C106.862 60.7668 106.587 60.525 106.446 60.4007C105.683 59.7715 104.965 59.0905 104.298 58.3626C103.627 57.6774 103.012 56.9415 102.456 56.1616C101.288 54.2241 100.683 52.0029 100.71 49.745C100.684 47.8359 100.779 45.9272 100.995 44.03C101.185 42.6097 101.343 41.3298 101.469 40.1902C101.564 39.0336 101.611 38.4089 101.612 38.3159C101.768 37.5349 101.996 36.2621 102.295 34.4978C102.806 31.7884 103.029 29.0332 102.959 26.2776C102.848 24.2175 101.519 22.8748 98.9733 22.2494V22.2033C100.933 22.5007 102.872 22.9229 104.778 23.4672C105.486 23.7635 106.186 24.0775 106.878 24.409L106.973 24.4326C107.597 24.6916 108.204 24.9888 108.79 25.3226C109.279 25.6143 109.783 25.88 110.3 26.1184C110.333 26.1185 110.366 26.1269 110.395 26.1429C110.565 26.2287 110.731 26.323 110.892 26.4254C111.024 26.4751 111.151 26.5382 111.271 26.6138H111.319C111.328 26.6222 111.339 26.6286 111.351 26.6327C111.363 26.6367 111.376 26.6383 111.389 26.6374H111.414C111.422 26.6367 111.431 26.6343 111.439 26.6302C111.447 26.6262 111.454 26.6206 111.46 26.6138C111.492 26.5987 111.507 26.5827 111.507 26.5667L111.531 26.5912C111.56 26.5485 111.601 26.5156 111.649 26.497V26.4725C112.185 26.0676 112.838 25.5602 113.609 24.9506L113.631 24.9741C113.705 24.8552 113.802 24.7518 113.916 24.6699H113.94L113.965 24.6463C117.362 21.9465 120.454 20.6973 123.239 20.8988C125.576 21.2244 127.783 22.1623 129.633 23.616C129.65 23.616 129.666 23.6311 129.681 23.6621C129.799 23.7198 129.91 23.7909 130.011 23.8741C130.057 23.8943 130.105 23.9097 130.153 23.9202L130.177 23.9447C130.213 23.9885 130.244 24.0351 130.272 24.0841C130.452 24.2667 130.65 24.4317 130.862 24.5767C130.989 24.7008 131.123 24.8181 131.263 24.928C131.94 25.4893 133.057 26.4807 134.614 27.9022C136.565 29.6509 138.107 32.9375 139.241 37.7622C139.241 37.771 139.244 37.7797 139.248 37.7876C139.252 37.7955 139.258 37.8026 139.264 37.8083H139.364V37.7622C138.893 33.0298 137.555 29.6882 135.352 27.7374C134.895 27.3475 134.478 26.9805 134.101 26.6364C134.069 26.6053 134.046 26.5827 134.031 26.5658C134.085 26.5493 134.14 26.5413 134.196 26.5422C134.307 26.5272 134.432 26.5036 134.576 26.4716C135.598 26.2537 137.541 26.8549 140.405 28.2752C143.252 29.7275 144.849 32.9049 145.196 37.8074C145.542 42.7576 144.15 51.2048 141.02 63.149C140.482 65.3701 139.69 67.523 138.66 69.5656C138.645 69.5656 138.636 69.5731 138.636 69.5901C137.881 70.8082 137.125 71.3237 136.37 71.1366C136.364 71.1295 136.357 71.1236 136.349 71.1194C136.341 71.1152 136.332 71.1127 136.323 71.1121C134.717 70.488 133.057 66.608 131.343 59.4721C128.101 46.0285 123.688 38.487 118.103 36.8476H118.079C117.897 36.8938 117.722 36.9651 117.561 37.0596C117.543 37.0596 117.536 37.0671 117.536 37.0831C117.505 37.0988 117.497 37.1142 117.513 37.1293C117.513 37.1382 117.516 37.147 117.52 37.1551C117.524 37.1632 117.529 37.1704 117.536 37.1763H117.607C117.683 39.0073 117.888 40.8308 118.221 42.6333C118.301 43.149 118.419 43.658 118.575 44.1562C118.559 44.1719 118.559 44.1797 118.575 44.1797C118.969 46.2875 119.725 49.7227 120.841 54.4851C120.841 54.4883 120.841 54.4914 120.843 54.4944C120.844 54.4973 120.845 54.5 120.848 54.5022C120.85 54.5044 120.853 54.506 120.856 54.507C120.859 54.5079 120.862 54.5082 120.865 54.5077C120.895 54.7068 120.943 54.9028 121.007 55.0936H120.983C122.116 60.0745 122.871 64.0716 123.249 67.0848C123.83 70.8128 123.718 74.6149 122.919 78.3029V78.35C122.919 78.365 122.824 78.7484 122.634 79.4971C122.381 78.701 122.082 77.7798 121.737 76.7338C121.706 76.6085 121.659 76.5379 121.595 76.5219C121.529 76.49 121.457 76.4739 121.383 76.4748C121.351 76.4789 121.32 76.4893 121.291 76.5054C121.263 76.5216 121.238 76.5432 121.218 76.569C121.161 76.6363 121.12 76.7164 121.1 76.8026C120.847 80.0675 119.872 82.3317 118.175 83.595C118.138 83.644 118.099 83.6905 118.056 83.7344C118.053 83.7342 118.05 83.7347 118.047 83.7359C118.044 83.7371 118.041 83.739 118.039 83.7413C118.037 83.7436 118.035 83.7464 118.034 83.7495C118.033 83.7525 118.033 83.7557 118.033 83.7588" fill="black"/>
  <path fill-rule="evenodd" clip-rule="evenodd" d="M73.9924 56.6984C74.0743 56.6554 74.1618 56.6237 74.2524 56.6042C74.4433 56.5246 74.6409 56.4616 74.8428 56.4159C77.6747 55.4634 79.5864 54.784 80.5779 54.3778C80.2318 54.4406 80.4596 54.3081 81.2612 53.9803C82.4027 53.3684 83.3568 52.4623 84.0229 51.3574C85.0229 49.8989 85.7876 48.2945 86.2893 46.6021C86.8397 44.8377 87.1149 43.8934 87.1149 43.7691C87.2044 43.0031 87.3464 42.2442 87.5401 41.4974C87.8387 40.1387 88.1453 38.4434 88.4597 36.4116C88.7742 34.3798 89.0589 31.4287 89.3139 27.5585C89.3462 26.141 89.7796 24.761 90.5647 23.5764C91.068 22.9366 91.7248 22.4321 92.4752 22.109C93.2255 21.7859 94.0455 21.6544 94.8601 21.7267V21.6796H94.9778C95.0031 21.6824 95.0274 21.6907 95.049 21.7041C95.4659 21.7336 95.8778 21.812 96.2761 21.9377H96.2999C96.4249 21.9067 96.5516 21.8832 96.6795 21.867C97.0591 21.9141 97.4511 21.9697 97.8601 22.0309C100.85 23.3426 102.305 25.1006 102.226 27.3051C102.131 29.4587 102.005 31.1292 101.846 32.3165C101.673 33.4869 101.5 34.5094 101.327 35.3841C101.137 36.243 100.972 37.1719 100.831 38.1709C100.69 39.1542 100.541 40.6765 100.384 42.7378C100.226 44.7841 100.076 46.7748 99.9338 48.7099C99.779 49.9141 99.7555 51.1314 99.8635 52.3406C100.011 52.9742 100.216 53.5932 100.476 54.1904C100.828 55.0458 101.295 55.8501 101.864 56.5816C102.384 57.2673 102.637 57.6104 102.623 57.611L105.786 60.5392L107.367 61.2879C107.823 61.5698 108.767 62.0775 110.199 62.8108C112.077 64.0235 113.573 65.7363 114.517 67.7533C115.46 69.7702 115.812 72.01 115.533 74.2163C115.515 74.3828 115.484 74.5475 115.438 74.7089V74.7315C115.181 75.8335 114.76 76.8913 114.188 77.8696C114.014 78.1836 113.818 78.5195 113.598 78.8774C113.092 79.6428 112.486 80.5014 111.781 81.4533L111.805 81.4768C111.45 81.8746 111.064 82.2428 110.649 82.5778C109.579 83.6546 107.439 84.7867 104.229 85.974L101.864 86.5598C98.9069 87.2932 96.4451 87.933 94.4786 88.4793C92.8055 88.9192 91.1651 89.4737 89.5692 90.1388C88.7947 90.4734 88.0587 90.8899 87.374 91.381C87.2608 91.463 87.1576 91.5578 87.0665 91.6636C87.3974 91.1945 86.6894 90.3277 84.9426 89.0632C82.8306 87.551 80.6233 86.1744 78.3343 84.9418C75.9117 83.6151 74.0867 82.5536 72.8592 81.7575L72.6694 81.6162L72.6457 81.6633C72.3148 81.4749 71.4806 81.0219 70.143 80.3042C68.6502 79.4133 67.2984 78.3082 66.1314 77.0248C65.5523 76.4123 65.0236 75.7546 64.5503 75.0583C64.4948 75.0069 64.4539 74.942 64.4317 74.8699L64.4089 74.8473C64.3735 74.8112 64.3418 74.7718 64.314 74.7296C64.1887 74.5271 64.0777 74.3322 63.9837 74.1447C63.461 73.1625 63.1858 72.0693 63.1818 70.9585C63.1398 69.629 63.195 68.2982 63.3469 66.9765V66.8823C63.5203 65.6012 63.9285 64.3624 64.5512 63.2271C65.2766 61.9927 66.1831 60.8722 67.2408 59.9025C68.2584 58.8366 69.5223 58.0327 70.9232 57.5602C72.0253 57.2318 73.0481 56.943 73.9914 56.6937" fill="white"/>
  <path fill-rule="evenodd" clip-rule="evenodd" d="M117.914 83.6082L118.031 83.7494V83.773L117.914 83.6082ZM98.962 22.2456H98.9145V22.1995H98.962V22.2456Z" fill="#FF0000"/>
  <path fill-rule="evenodd" clip-rule="evenodd" d="M71.8675 14.7987C72.5445 15.2514 73.2445 15.7508 73.9677 16.2971L73.9914 16.3206C74.0005 16.3213 74.0094 16.3237 74.0175 16.3277C74.0257 16.3318 74.0329 16.3374 74.0389 16.3442C75.3284 17.2659 77.0433 18.5697 79.1837 20.2556C79.8759 20.7579 80.458 21.1792 80.93 21.5195L81.0476 21.6372H81.0723C81.0813 21.6379 81.09 21.6403 81.098 21.6443C81.106 21.6484 81.113 21.654 81.1188 21.6608V21.6843C81.1778 21.7236 81.2416 21.7552 81.3086 21.7785C81.369 21.8091 81.4327 21.8328 81.4984 21.8491C81.6411 21.7781 81.7914 21.7231 81.9464 21.6853C81.9461 21.682 81.9465 21.6787 81.9477 21.6757C81.9488 21.6726 81.9506 21.6698 81.953 21.6676C81.9554 21.6653 81.9582 21.6636 81.9614 21.6626C81.9645 21.6616 81.9678 21.6613 81.9711 21.6617C81.9756 21.6447 81.9835 21.6288 81.9942 21.6148C82.005 21.6008 82.0184 21.5891 82.0338 21.5804C82.0492 21.5716 82.0661 21.566 82.0837 21.5638C82.1013 21.5616 82.1191 21.5628 82.1362 21.5675C82.7642 21.2719 83.4314 21.0667 84.1178 20.9582C87.0915 20.3491 91.2768 20.3881 96.6738 21.075H96.7203C97.1948 21.1221 97.7035 21.1852 98.2549 21.2633L99.1033 21.4027L99.128 21.4263C101.116 21.6797 103.075 22.1193 104.98 22.7392H105.004C105.019 22.7392 105.043 22.7627 105.075 22.8089L105.098 22.8324C105.821 23.055 106.523 23.3386 107.198 23.68C108.039 24.0115 108.859 24.3946 109.652 24.8272C109.825 24.9207 110.172 25.116 110.69 25.413L110.713 25.4365C111.093 25.7191 111.35 25.8349 111.492 25.7878C111.502 25.7793 111.513 25.7728 111.525 25.7688C111.538 25.7647 111.551 25.7632 111.563 25.7643C111.567 25.7638 111.57 25.7641 111.573 25.7651C111.576 25.7661 111.579 25.7678 111.581 25.7701C111.584 25.7724 111.585 25.7752 111.586 25.7783C111.587 25.7814 111.588 25.7846 111.587 25.7878C111.599 25.7619 111.615 25.7381 111.635 25.7172C112.078 25.3405 112.596 24.9267 113.191 24.4759C113.297 24.3551 113.416 24.2456 113.545 24.1491C117.117 21.3374 120.359 20.0412 123.269 20.2603L123.293 20.2838C125.228 20.3774 127.494 21.3223 130.09 23.1187L130.113 23.1423C130.128 23.1573 130.16 23.1884 130.208 23.2364C130.236 23.2579 130.268 23.2736 130.302 23.2826V23.3071C130.27 23.3071 130.255 23.3146 130.255 23.3306L130.208 23.3542V23.3692L130.255 23.3447L130.35 23.3212V23.2977C130.666 23.5783 131.382 24.1638 132.499 25.0542C132.671 25.1634 132.836 25.2727 132.993 25.3819C133.886 25.437 134.771 25.5783 135.636 25.8038C137.771 26.3716 139.825 27.2055 141.748 28.2855C144.314 29.6123 145.722 32.774 145.972 37.7706C146.223 42.7673 144.776 51.2779 141.63 63.3025C141.118 65.6087 140.3 67.8375 139.199 69.931C139.196 69.9307 139.192 69.9311 139.189 69.9323C139.186 69.9334 139.183 69.9352 139.181 69.9376C139.179 69.9399 139.177 69.9428 139.176 69.9459C139.175 69.949 139.175 69.9523 139.175 69.9555C138.184 71.5478 137.162 72.1255 136.107 71.6885C134.283 71.0606 132.474 67.0242 130.679 59.5795C127.611 46.8228 123.489 39.5001 118.312 37.6115C118.402 39.2549 118.599 40.8909 118.902 42.5089C118.972 43.0071 119.075 43.5001 119.21 43.9848C119.635 46.1246 120.398 49.5754 121.498 54.3373C121.517 54.5275 121.549 54.7163 121.593 54.9024L121.617 54.9259C121.632 54.9259 121.64 54.9334 121.64 54.9504C122.773 59.9464 123.528 63.9511 123.906 66.9643V66.9756C124.488 70.7828 124.368 74.6634 123.552 78.4281V78.4526C123.537 78.5468 123.442 78.9377 123.267 79.6233V79.6939C123.11 80.0223 122.96 80.3049 122.819 80.5416C122.76 80.586 122.696 80.6251 122.629 80.6584H122.607C122.525 80.6647 122.444 80.6488 122.371 80.6122C122.32 80.5665 122.279 80.5098 122.253 80.4465V80.4229C122.063 79.7988 121.841 79.0962 121.588 78.3151C121.145 81.015 120.131 82.9435 118.544 84.1007C118.198 84.3975 117.828 84.6635 117.435 84.8956V84.9201C117.369 84.9512 117.293 84.9591 117.222 84.9427C117.158 84.9277 117.104 84.9116 117.057 84.8956C117 84.845 116.96 84.7798 116.939 84.7073V84.5434C117.235 83.6367 117.479 82.7141 117.67 81.7801C115.046 84.3739 112.539 85.8434 110.148 86.1888C106.943 86.7332 103.774 87.4682 100.658 88.3898C96.7105 89.4967 94.2727 90.1667 93.3445 90.3996C92.4163 90.6326 91.4724 90.906 90.5125 91.22C89.3793 91.5671 88.2682 91.9817 87.1852 92.4613C87.0428 92.5244 86.9005 92.5781 86.76 92.6252C87.0763 92.4531 86.1086 91.5634 83.8568 89.956C81.7935 88.4607 79.6248 87.1142 77.3672 85.9269C75.3995 84.8652 72.8899 83.5931 69.8384 82.1107C69.7562 82.0623 69.6691 82.0228 69.5784 81.9929C66.4003 80.4314 63.8673 79.1358 61.9793 78.106C59.827 76.861 58.0502 75.0665 56.8335 72.9091C56.6292 73.3486 56.3147 73.9733 55.8902 74.7833V74.8068C55.843 74.8687 55.7874 74.9238 55.7251 74.9707H55.4887C54.4821 74.6116 53.8216 73.4249 53.5071 71.4106L53.4843 71.3833C53.4172 69.165 53.6729 66.9487 54.2436 64.8028C53.3932 65.8338 52.764 66.6535 52.3559 67.2619C52.3077 67.317 52.2394 67.3508 52.1661 67.3561C52.1039 67.372 52.0385 67.372 51.9763 67.3561C51.939 67.3484 51.9042 67.3313 51.8753 67.3066C51.8464 67.2819 51.8244 67.2503 51.8112 67.2148C51.7892 67.1892 51.7736 67.1588 51.7655 67.1261C51.7574 67.0934 51.7571 67.0593 51.7647 67.0264C51.7974 66.7136 51.8129 66.3992 51.8112 66.0846L51.8358 66.0385C51.9459 65.2574 52.001 64.8515 52.001 64.8207C52.6902 61.0527 54.0318 57.4316 55.9661 54.1178C57.222 51.9033 59.0205 49.1177 61.3615 45.761C61.8487 45.0264 62.3757 44.2692 62.9426 43.4894C66.5768 38.3677 68.8659 35.0651 69.8099 33.5814C70.4547 32.5197 71.0288 31.4972 71.5325 30.5139C66.281 30.092 60.3969 34.878 53.8801 44.872C50.2927 50.3973 47.5721 53.4576 45.7183 54.0528C45.4729 54.1609 45.2078 54.2181 44.9394 54.2208C44.6709 54.2235 44.4047 54.1717 44.1572 54.0686C43.9097 53.9654 43.686 53.8132 43.4999 53.6212C43.3138 53.4291 43.1693 53.2014 43.0751 52.9519C42.4792 51.4479 42.2135 49.8351 42.296 48.2211C42.2169 39.8521 42.2957 32.6073 42.5323 26.4867C42.7056 20.0697 45.5528 16.1426 51.0737 14.7054V14.7299C52.5204 14.308 53.995 13.987 55.4868 13.7692V13.7928C55.5383 13.777 55.5928 13.7731 55.646 13.7812C55.6993 13.7894 55.75 13.8094 55.7943 13.8399L55.8171 13.8634C55.9034 13.8064 56.0001 13.7667 56.1018 13.7466C56.2036 13.7308 56.3063 13.7226 56.4093 13.7222C56.4141 13.7026 56.4228 13.6842 56.4349 13.6681C56.447 13.6519 56.4621 13.6383 56.4796 13.628C58.5093 10.9281 60.5156 9.73511 62.4984 10.0491C64.6072 10.3109 67.7302 11.8941 71.8675 14.7987ZM56.4805 14.2336L55.3246 14.4219C53.9352 14.626 52.5629 14.9317 51.219 15.3364C46.0416 16.7272 43.3583 20.4515 43.1691 26.5093C42.9793 32.6449 42.9087 39.874 42.9575 48.1966C42.8726 49.7224 43.1219 51.2483 43.6882 52.6693C43.757 52.8408 43.8593 52.9971 43.9894 53.129C44.1195 53.2609 44.2747 53.3659 44.446 53.4378C44.6172 53.5098 44.8012 53.5472 44.9872 53.548C45.1732 53.5488 45.3575 53.513 45.5294 53.4425C47.2453 52.8492 49.8571 49.8903 53.3648 44.5659C60.1771 34.0765 66.3684 29.1894 71.9387 29.9045C72.0174 29.9045 72.1503 30.108 72.3401 30.5139C72.3553 30.5139 72.3629 30.529 72.3629 30.561C72.3306 30.5761 72.3154 30.5921 72.3154 30.6071C72.3065 30.6065 72.2978 30.6041 72.2898 30.6C72.2818 30.596 72.2747 30.5904 72.2689 30.5836C71.7172 31.6453 71.0798 32.7617 70.3566 33.9327C69.4278 35.4158 67.1463 38.726 63.512 43.8633C62.9319 44.5968 62.3966 45.3642 61.9091 46.1613C59.9784 48.8193 58.2054 51.5867 56.5991 54.4494C54.6431 57.6693 53.2979 61.2177 52.6302 64.9186C52.6302 64.9494 52.5751 65.3082 52.4651 65.9951C53.0307 65.2467 53.77 64.3024 54.683 63.1621H54.6593C54.6898 63.1311 54.7265 63.1067 54.767 63.0905C54.8075 63.0743 54.851 63.0666 54.8946 63.068C54.9427 63.0372 55.006 63.0526 55.0844 63.1141L55.0598 63.0906C55.137 63.1155 55.2038 63.1652 55.2496 63.2318C55.2667 63.2318 55.2743 63.2394 55.2743 63.2544V63.4645L55.2496 63.489C54.4351 66.0225 54.0757 68.6783 54.1876 71.3353C54.2164 72.4259 54.6642 73.4643 55.4394 74.238C56.1151 72.8956 56.4533 72.193 56.4539 72.1302C56.4728 72.0639 56.5145 72.0063 56.5716 71.9672C56.588 71.9327 56.6157 71.9047 56.6501 71.8876C56.6845 71.8705 56.7237 71.8654 56.7614 71.8731C56.7876 71.8582 56.818 71.8525 56.8478 71.857C56.8776 71.8614 56.905 71.8757 56.9256 71.8975C56.9892 71.8975 57.0442 71.9437 57.0907 72.0388L57.1154 72.0143C58.7358 74.9183 61.544 77.2524 65.5401 79.0168C65.6825 79.0796 66.1703 79.2905 67.0036 79.6497L67.1687 79.6732C67.1365 79.6582 67.1051 79.6421 67.0738 79.6261H67.0558C66.8204 79.3913 66.5613 79.1106 66.2785 78.7841C66.0254 78.4865 65.7724 78.1585 65.5193 77.7999C64.1683 76.1019 63.1585 74.162 62.5449 72.0859C62.1204 70.478 62.0801 68.7938 62.4273 67.1677C62.4734 66.9061 62.5368 66.6478 62.6171 66.3945C62.9597 63.9415 64.1217 61.6735 65.9169 59.9534C68.2528 57.9171 71.0838 56.5211 74.13 55.9035C75.8739 55.5026 77.5866 54.9783 79.2549 54.3344C80.1603 53.9179 81.0358 53.4403 81.8752 52.9048C81.9097 52.896 81.942 52.8803 81.9701 52.8586C83.6473 51.2045 84.8105 49.1071 85.3212 46.8159C85.7141 45.7698 86.1311 44.5141 86.5721 43.0486C86.6822 42.2675 87.0048 40.1676 87.5401 36.7488C88.0747 33.3758 88.4762 29.9014 88.7445 26.3256C88.8849 25.0136 89.3555 23.7576 90.113 22.6732C90.3213 22.3275 90.6101 22.0365 90.9553 21.8246C91.3004 21.6127 91.6918 21.4861 92.0965 21.4555C89.7448 21.2534 87.3776 21.3166 85.0403 21.6438C84.7094 21.7066 84.1349 21.8394 83.3168 22.0422C83.6471 21.948 83.7496 21.9009 83.6243 21.9009C83.5133 21.932 83.4032 21.9622 83.2941 21.9951C82.9942 22.0887 82.7186 22.1829 82.4674 22.2777H82.4209C82.415 22.2846 82.4078 22.2902 82.3996 22.2943C82.3915 22.2983 82.3826 22.3007 82.3735 22.3012C82.3644 22.3018 82.3556 22.3043 82.3476 22.3085C82.3396 22.3128 82.3326 22.3186 82.327 22.3257C82.3264 22.3347 82.3238 22.3434 82.3196 22.3514C82.3153 22.3593 82.3094 22.3663 82.3023 22.3718C82.2995 22.3683 82.296 22.3655 82.292 22.3635C82.288 22.3616 82.2835 22.3605 82.279 22.3605C82.2746 22.3605 82.2701 22.3616 82.2661 22.3635C82.2621 22.3655 82.2585 22.3683 82.2558 22.3718C82.0738 22.4389 81.8998 22.5254 81.7367 22.6299H81.7129C81.6748 22.6437 81.6348 22.6517 81.5943 22.6535H81.5478V22.6779C81.327 22.8035 81.1223 22.9125 80.9338 23.0048H80.8863L80.8398 22.9586C80.702 23.0227 80.5599 23.0775 80.4146 23.1225C80.4089 23.1293 80.4018 23.1349 80.3938 23.1389C80.3858 23.1429 80.3771 23.1454 80.3681 23.146L80.3425 23.1131V23.0424C80.3112 22.7467 80.2561 22.3078 80.1774 21.7305C79.7535 21.4498 79.2973 21.1296 78.8088 20.7698C76.6678 19.1003 74.944 17.7968 73.6375 16.8594C72.8985 16.298 72.1829 15.7825 71.4907 15.3129C67.4471 12.5031 64.4187 10.9504 62.4054 10.6546C60.6585 10.4192 58.8553 11.5431 56.9958 14.0264C56.9292 14.0596 56.8657 14.0987 56.806 14.1432H56.6162C56.5911 14.1403 56.5669 14.1322 56.545 14.1196C56.5129 14.1529 56.4886 14.1927 56.4739 14.2364M64.4279 74.8728C64.4393 74.9437 64.4725 75.0094 64.5228 75.0611H64.5465C65.0198 75.7575 65.5485 76.4151 66.1276 77.0276C67.2946 78.3111 68.6464 79.4162 70.1393 80.3071C71.4812 81.026 72.317 81.4796 72.6466 81.668L72.6704 81.6209C72.734 81.668 72.7966 81.7151 72.8602 81.7622C74.0876 82.5583 75.9126 83.6198 78.3353 84.9465C80.6247 86.1789 82.8323 87.5555 84.9445 89.0679C86.6901 90.3331 87.3981 91.1999 87.0684 91.6683C87.1591 91.5625 87.262 91.4677 87.375 91.3857C88.0593 90.8954 88.7946 90.4792 89.5682 90.1444C91.1641 89.4783 92.8045 88.9225 94.4777 88.4811C96.4441 87.9349 98.9066 87.2951 101.865 86.5617L104.224 85.9759C107.435 84.7886 109.575 83.6565 110.644 82.5797C110.871 82.4077 111.084 82.2188 111.282 82.0146C111.466 81.8466 111.64 81.6663 111.8 81.4749L111.776 81.4514C112.484 80.4989 113.09 79.6403 113.593 78.8755C113.813 78.5164 114.01 78.1804 114.184 77.8678C114.755 76.8891 115.177 75.8315 115.435 74.7296C115.481 74.5609 115.513 74.3885 115.53 74.2144C115.809 72.0081 115.456 69.7683 114.513 67.7514C113.569 65.7344 112.073 64.0217 110.195 62.809C108.764 62.0756 107.82 61.568 107.363 61.286L105.777 60.5392L102.615 57.611C102.631 57.611 102.379 57.2679 101.86 56.5816C101.289 55.8515 100.821 55.0477 100.468 54.1922C100.207 53.5953 100.002 52.9762 99.8541 52.3425C99.7466 51.1332 99.7705 49.916 99.9252 48.7118C100.066 46.776 100.216 44.7853 100.373 42.7397C100.529 40.6796 100.679 39.1573 100.821 38.1728C100.963 37.1738 101.129 36.2449 101.317 35.3859C101.49 34.5113 101.662 33.4888 101.836 32.3184C101.993 31.1311 102.12 29.4606 102.215 27.307C102.294 25.1056 100.839 23.3491 97.8497 22.0375C97.4403 21.9747 97.0471 21.9195 96.67 21.8717C96.5423 21.8884 96.4155 21.912 96.2904 21.9424H96.2666C95.8684 21.8166 95.4564 21.7382 95.0395 21.7088C95.0177 21.6959 94.9935 21.6875 94.9683 21.6843H94.8507C94.7411 21.6699 94.6309 21.662 94.5204 21.6608C94.6153 21.6758 94.7254 21.7003 94.8507 21.7314C94.036 21.6592 93.2161 21.7907 92.4657 22.1138C91.7154 22.4369 91.0586 22.9414 90.5552 23.5811C89.7701 24.7658 89.3367 26.1457 89.3044 27.5632C89.0513 31.4347 88.7685 34.3857 88.4559 36.4163C88.1434 38.4469 87.8362 40.1421 87.5344 41.5021C87.3415 42.249 87.1994 43.008 87.1092 43.7738C87.1092 43.8994 86.834 44.8437 86.2836 46.6068C85.7824 48.2994 85.0178 49.9039 84.0172 51.3621C83.3518 52.4638 82.3998 53.3675 81.2612 53.9784C80.4589 54.3068 80.2308 54.4393 80.5769 54.3759C79.507 54.7978 77.3985 55.5397 74.2515 56.6014C73.2449 56.8821 72.1354 57.2023 70.9232 57.5621C69.5231 58.0371 68.2608 58.8437 67.2456 59.9119C66.1866 60.8813 65.2794 62.0021 64.5541 63.2375C63.9311 64.3724 63.5229 65.6109 63.3497 66.8918V66.9859C63.1978 68.3076 63.1426 69.6384 63.1846 70.968C63.19 72.0788 63.4658 73.1719 63.9884 74.1542C64.0827 74.3425 64.1925 74.5375 64.3178 74.739C64.346 74.7809 64.3777 74.8203 64.4127 74.8567L64.4279 74.8728ZM134.026 26.5573L134.072 26.4631L131.24 24.9166C131.1 24.8072 130.966 24.6899 130.84 24.5654C130.627 24.4213 130.43 24.2569 130.249 24.0747C130.222 24.0252 130.19 23.9779 130.154 23.9334L130.131 23.9098C130.082 23.8984 130.034 23.8826 129.988 23.8628C129.887 23.7807 129.776 23.7103 129.658 23.6527C129.643 23.6207 129.627 23.6056 129.612 23.6056C127.76 22.1526 125.552 21.2147 123.215 20.8885C120.431 20.6857 117.34 21.9348 113.941 24.636L113.918 24.6595H113.893C113.779 24.7418 113.683 24.8455 113.609 24.9647L113.586 24.9402C112.815 25.5505 112.162 26.0581 111.627 26.4631V26.4867C111.579 26.5058 111.538 26.5386 111.508 26.5808L111.485 26.5573C111.485 26.5724 111.469 26.5884 111.437 26.6044C111.431 26.6112 111.424 26.6168 111.416 26.6208C111.408 26.6249 111.4 26.6273 111.391 26.6279H111.376C111.364 26.629 111.351 26.6275 111.338 26.6234C111.326 26.6194 111.315 26.6129 111.305 26.6044H111.258C111.138 26.5293 111.011 26.4662 110.878 26.416C110.718 26.3136 110.552 26.2193 110.382 26.1335C110.353 26.1183 110.32 26.1102 110.287 26.1099C109.77 25.8712 109.266 25.6055 108.777 25.3141C108.191 24.9798 107.584 24.6825 106.96 24.4241L106.865 24.3996C106.174 24.0725 105.474 23.7604 104.765 23.4634C102.844 22.9167 100.888 22.4939 98.9117 22.1976C98.6924 22.1515 98.4713 22.1119 98.2473 22.0808C98.4665 22.127 98.6877 22.1825 98.9117 22.2447H98.9591C101.508 22.8688 102.837 24.2115 102.945 26.2729C103.015 29.0285 102.792 31.7838 102.281 34.4931C101.982 36.2574 101.754 37.5302 101.597 38.3112C101.597 38.4054 101.55 39.0289 101.455 40.1845C101.329 41.3241 101.17 42.6044 100.981 44.0253C100.766 45.9222 100.671 47.8306 100.696 49.7393C100.669 51.9976 101.273 54.219 102.442 56.1569C103.114 57.0525 103.886 57.8698 104.743 58.5934C105.398 59.1828 106.083 59.738 106.796 60.2566C107.029 60.428 107.283 60.5697 107.551 60.6786C110.593 61.9489 113.182 64.0946 114.983 66.839C116.294 69.0808 116.765 71.7105 116.312 74.2634C116.176 75.5783 115.817 76.861 115.25 78.0571C114.548 79.2745 113.655 80.3737 112.606 81.3139C112.449 81.5022 112.291 81.6818 112.132 81.8526C111.139 83.2483 109.9 84.4541 108.474 85.4117C110.332 85.3124 112.147 84.8147 113.793 83.953C115.439 83.0913 116.877 81.8861 118.008 80.4201C118.055 80.3259 118.111 80.2807 118.174 80.2807C118.253 80.2652 118.334 80.273 118.409 80.3033C118.449 80.3117 118.486 80.3285 118.519 80.3525C118.552 80.3766 118.579 80.4073 118.599 80.4427C118.616 80.5039 118.624 80.5674 118.622 80.6311C118.386 81.8322 118.15 82.8236 117.915 83.6053C117.915 83.6855 117.898 83.7649 117.867 83.8389C117.915 83.801 117.972 83.7769 118.032 83.7692C118.033 83.7511 118.041 83.7342 118.055 83.7221C118.098 83.6779 118.138 83.6307 118.174 83.5808C119.872 82.3169 120.848 80.0531 121.1 76.7894C121.119 76.7029 121.159 76.6224 121.217 76.5548C121.237 76.5292 121.262 76.5076 121.29 76.4914C121.319 76.4753 121.35 76.4648 121.382 76.4607C121.456 76.4592 121.53 76.4753 121.596 76.5078C121.658 76.5228 121.706 76.5935 121.736 76.7178C122.082 77.7638 122.381 78.6852 122.633 79.482C122.823 78.7286 122.918 78.3518 122.918 78.333V78.2869C123.716 74.5987 123.827 70.7968 123.247 67.0688C122.868 64.055 122.113 60.0576 120.983 55.0766H121.007C120.943 54.8859 120.895 54.6903 120.864 54.4917C120.861 54.4922 120.858 54.4919 120.855 54.4909C120.851 54.4899 120.849 54.4882 120.846 54.4859C120.844 54.4836 120.842 54.4808 120.841 54.4777C120.84 54.4747 120.84 54.4714 120.84 54.4682C119.723 49.7051 118.968 46.2699 118.576 44.1628C118.559 44.1628 118.559 44.1552 118.576 44.1383C118.419 43.6406 118.3 43.1318 118.221 42.6163C117.888 40.8138 117.683 38.9904 117.607 37.1594H117.537C117.53 37.1536 117.524 37.1464 117.52 37.1383C117.515 37.1302 117.513 37.1214 117.512 37.1123C117.497 37.0972 117.505 37.0812 117.537 37.0652C117.536 37.062 117.537 37.0587 117.538 37.0557C117.539 37.0526 117.54 37.0498 117.543 37.0475C117.545 37.0452 117.548 37.0435 117.551 37.0425C117.554 37.0415 117.557 37.0412 117.561 37.0417C117.723 36.9473 117.897 36.8766 118.08 36.8316H118.103C123.688 38.4704 128.101 46.0116 131.343 59.4551C133.059 66.591 134.719 70.4713 136.323 71.0961C136.332 71.0967 136.341 71.0991 136.349 71.1032C136.357 71.1072 136.364 71.1128 136.37 71.1196C137.125 71.308 137.881 70.7925 138.636 69.5731C138.636 69.57 138.636 69.5668 138.637 69.5639C138.638 69.5609 138.64 69.5583 138.642 69.5561C138.645 69.5539 138.647 69.5523 138.65 69.5513C138.654 69.5503 138.657 69.5501 138.66 69.5505C139.69 67.5078 140.482 65.355 141.02 63.1339C144.152 51.1891 145.544 42.7419 145.196 37.7923C144.85 32.8885 143.253 29.7111 140.404 28.2601C137.541 26.8386 135.598 26.2374 134.575 26.4565C134.433 26.4876 134.307 26.5121 134.195 26.5272C134.14 26.5263 134.084 26.5342 134.03 26.5507" fill="black"/>
  <path fill-rule="evenodd" clip-rule="evenodd" d="M55.3236 14.4238L56.4796 14.2355C55.7639 15.2543 55.1025 16.3097 54.4979 17.3971C53.6957 18.8331 52.4837 21.0662 50.8621 24.0963C50.044 25.6101 49.4778 26.648 49.1633 27.21C49.0893 27.3688 48.9852 27.512 48.8568 27.6319C48.8277 27.6477 48.7951 27.6561 48.7619 27.6564C48.7296 27.6564 48.722 27.6319 48.7372 27.5858V27.5151C48.7473 27.4335 48.7714 27.3542 48.8084 27.2806C49.6429 25.2821 50.1307 24.1271 50.2718 23.8157C50.3983 23.4722 50.6581 22.8396 51.051 21.9179C51.6623 20.5246 52.3636 19.1718 53.1503 17.8681C54.0803 16.368 54.8048 15.22 55.3236 14.4238ZM131.248 24.9166L134.08 26.4631L134.033 26.5573L134.102 26.6279C134.482 26.9563 134.899 27.323 135.354 27.728C137.555 29.6807 138.893 33.0223 139.366 37.7527V37.7989H139.248C139.241 37.7931 139.236 37.7861 139.232 37.7782C139.228 37.7703 139.225 37.7616 139.225 37.7527C138.091 32.9281 136.549 29.6415 134.598 27.8928C133.04 26.4725 131.923 25.4811 131.247 24.9185" fill="white"/>
  <path fill-rule="evenodd" clip-rule="evenodd" d="M64.5522 75.0574H64.5285C64.4779 75.0059 64.4447 74.94 64.4336 74.869C64.4545 74.9414 64.4962 75.0066 64.5522 75.0574Z" fill="#FF0000"/>
  <path fill-rule="evenodd" clip-rule="evenodd" d="M84.636 34.2379C84.9806 34.5084 85.2516 34.86 85.4247 35.2608C85.5977 35.6616 85.6672 36.0989 85.6268 36.5331C85.5867 36.9165 85.4514 37.284 85.2331 37.6029C85.0148 37.9217 84.7204 38.1819 84.376 38.3602C83.6838 38.7369 81.5677 38.5106 78.0278 37.6812C76.9104 37.43 75.9661 37.2504 75.1949 37.1424C75.2423 37.1114 75.3059 37.0643 75.3847 37.0012C77.3511 35.9551 79.1916 35.0576 80.9062 34.3085C82.6221 33.5739 83.8654 33.5503 84.636 34.2379ZM106.608 37.5163C107.804 37.1892 109.369 37.9935 111.303 39.9293C113.208 41.865 114.309 43.0282 114.608 43.4187C112.079 43.2194 109.565 42.8675 107.079 42.3648C106.407 42.1304 105.789 41.7644 105.263 41.2883C104.985 41.024 104.778 40.6947 104.662 40.3304C104.546 39.9662 104.524 39.5789 104.598 39.2041C104.708 38.391 105.377 37.8287 106.605 37.5173M114.706 43.5157L114.611 43.4216L114.706 43.4451V43.5157Z" fill="white"/>
  <path fill-rule="evenodd" clip-rule="evenodd" d="M81.0167 34.5572C79.4486 35.2429 77.7733 36.0537 75.9906 36.9899C76.6074 37.0965 77.307 37.2378 78.0889 37.4135L78.0914 37.4141C79.8568 37.8277 81.258 38.0888 82.2995 38.2002C82.8204 38.2559 83.2443 38.2734 83.575 38.2557C83.9121 38.2376 84.1244 38.1841 84.243 38.1196L84.2479 38.1169C84.5518 37.9595 84.8117 37.7299 85.0044 37.4484C85.1968 37.1674 85.3162 36.8435 85.352 36.5055C85.3878 36.1169 85.3255 35.7256 85.1707 35.3669C85.0157 35.0077 84.7729 34.6926 84.4644 34.4502C84.4599 34.4466 84.4555 34.443 84.4512 34.4392C83.8126 33.8696 82.7173 33.8312 81.0167 34.5572ZM84.8144 34.027C83.9142 33.2304 82.5259 33.3171 80.7969 34.0555L80.7947 34.0565C79.0725 34.8095 77.2255 35.7106 75.254 36.7593C75.2388 36.7674 75.2244 36.7769 75.211 36.7876C75.1374 36.8466 75.0799 36.8882 75.0393 36.9155C74.9451 36.9791 74.9 37.0935 74.9259 37.2035C74.9518 37.3135 75.0433 37.3964 75.1562 37.4123C75.917 37.5188 76.8529 37.6966 77.9654 37.9466C79.7394 38.3622 81.1657 38.629 82.2401 38.7439C82.7773 38.8014 83.2334 38.8217 83.6048 38.8018C83.9684 38.7823 84.2791 38.7232 84.5064 38.6003C84.8902 38.401 85.2183 38.1107 85.4616 37.7553C85.7054 37.3991 85.8566 36.9886 85.9015 36.5604L85.9018 36.5572C85.9463 36.0777 85.8696 35.5947 85.6786 35.152C85.4887 34.7119 85.1918 34.3254 84.8144 34.027ZM108.806 37.6308C109.625 38.0518 110.524 38.7594 111.503 39.7388L111.504 39.7404C113.402 41.6698 114.519 42.8484 114.831 43.2554C114.897 43.3412 114.905 43.4574 114.853 43.5519C114.801 43.6464 114.697 43.7018 114.589 43.6932C112.049 43.4927 109.523 43.1376 107.026 42.6299C107.014 42.6274 107.002 42.6241 106.99 42.6199C106.283 42.3733 105.633 41.9882 105.079 41.4875L105.074 41.4829C104.763 41.1869 104.531 40.8179 104.401 40.41C104.272 40.0047 104.247 39.5738 104.329 39.1566C104.465 38.1869 105.272 37.5751 106.536 37.2512C107.224 37.0633 107.988 37.2103 108.806 37.6308ZM108.551 38.1162C107.804 37.732 107.188 37.64 106.681 37.7789L106.677 37.7802C105.491 38.0834 104.963 38.5928 104.875 39.2377C104.874 39.2432 104.873 39.2486 104.872 39.254C104.807 39.5839 104.826 39.9248 104.928 40.2454C105.03 40.5649 105.211 40.8538 105.454 41.0858C105.948 41.5319 106.527 41.8759 107.156 42.0979C109.405 42.5546 111.678 42.8863 113.964 43.0916C113.434 42.5099 112.486 41.5228 111.109 40.1227C110.151 39.1643 109.299 38.5004 108.551 38.1162Z" fill="black"/>
  <path fill-rule="evenodd" clip-rule="evenodd" d="M79.9401 42.0597C79.2195 41.48 78.3872 41.0522 77.4943 40.8025C76.6014 40.5528 75.6665 40.4864 74.7469 40.6074C73.8332 40.6969 72.9473 40.9697 72.143 41.4092C71.3387 41.8486 70.6327 42.4457 70.0679 43.1641C69.5032 43.8825 69.0913 44.7073 68.8574 45.5884C68.6235 46.4695 68.5723 47.3885 68.7071 48.2898C68.8031 49.205 69.0872 50.0908 69.5418 50.8927C69.9964 51.6945 70.6119 52.3954 71.3502 52.9519C72.8163 54.0723 74.6626 54.5858 76.5018 54.3847C78.3411 54.1837 80.0305 53.2837 81.2156 51.8735C82.013 50.8627 82.5197 49.6566 82.6819 48.3831C82.5881 49.8953 82.0275 51.3422 81.0761 52.5271C80.4641 53.3303 79.6909 53.9988 78.8054 54.4905C77.9199 54.9822 76.9413 55.2863 75.9313 55.3836C73.8878 55.6218 71.8318 55.0531 70.2071 53.8001C68.5825 52.5471 67.5194 50.7104 67.2475 48.6863C67.1043 47.6824 67.1687 46.66 67.4366 45.6815C67.7045 44.703 68.1704 43.7889 68.8058 42.9949C69.4156 42.1913 70.1887 41.5237 71.0749 41.0354C71.9612 40.547 72.9409 40.2488 73.9506 40.16C74.9614 40.0329 75.9877 40.1083 76.9685 40.3819C77.9494 40.6555 78.865 41.1216 79.6611 41.7527C79.7721 41.8628 79.8822 41.9646 79.9914 42.0578L79.9401 42.0597Z" fill="#999999"/>
  <path fill-rule="evenodd" clip-rule="evenodd" d="M82.6781 48.384C82.5174 49.6571 82.0116 50.8631 81.2147 51.8735C80.0301 53.2844 78.3408 54.185 76.5013 54.3864C74.6619 54.5879 72.8154 54.0744 71.3493 52.9537C70.6117 52.397 69.9967 51.6963 69.5421 50.8949C69.0876 50.0935 68.8031 49.2082 68.7062 48.2936C68.5714 47.3921 68.6226 46.4728 68.8567 45.5915C69.0908 44.7102 69.5029 43.8854 70.068 43.1669C70.6331 42.4485 71.3394 41.8515 72.144 41.4122C72.9486 40.9728 73.8348 40.7003 74.7488 40.6112C75.6676 40.4902 76.6015 40.5564 77.4936 40.8058C78.3857 41.0551 79.2172 41.4824 79.9373 42.0616C80.8862 42.7812 81.6352 43.7282 82.1142 44.8139C82.5931 45.8995 82.7862 47.0882 82.6753 48.2682L82.6781 48.384Z" fill="white"/>
  <path fill-rule="evenodd" clip-rule="evenodd" d="M82.0166 47.7511C82.1021 48.434 82.0502 49.1269 81.864 49.7897C81.6778 50.4525 81.361 51.0721 80.9319 51.6126C80.0697 52.7299 78.7964 53.4624 77.391 53.6497C75.9667 53.7927 74.5429 53.375 73.4258 52.4866C72.8677 52.069 72.3988 51.5454 72.0464 50.9464C71.694 50.3474 71.4651 49.6848 71.373 48.9971C71.2766 48.3008 71.3253 47.5923 71.5161 46.9154C71.7069 46.2385 72.0359 45.6077 72.4825 45.0622C72.9044 44.5101 73.4365 44.0504 74.0456 43.7117C74.6547 43.373 75.3277 43.1626 76.0224 43.0938C77.4372 42.9385 78.8569 43.3394 79.9774 44.2105C81.0979 45.0816 81.8299 46.3536 82.0166 47.7539M76.5653 43.9377C76.4315 43.8171 76.2717 43.7287 76.098 43.6791C75.9244 43.6295 75.7416 43.6201 75.5637 43.6517C75.3858 43.6833 75.2177 43.755 75.0721 43.8612C74.9265 43.9674 74.8075 44.1054 74.7241 44.2645C74.5781 44.4432 74.4734 44.6515 74.4176 44.8748C74.3392 45.0847 74.3388 45.3155 74.4164 45.5257C74.4939 45.7359 74.6444 45.9118 74.8409 46.0219C74.9673 46.146 75.121 46.2394 75.2898 46.2947C75.4587 46.35 75.6381 46.3658 75.8141 46.3408C75.9902 46.3158 76.158 46.2507 76.3044 46.1506C76.4509 46.0505 76.572 45.9182 76.6583 45.7639C77.2239 45.0293 77.1923 44.4202 76.5634 43.9367" fill="black"/>
  <path fill-rule="evenodd" clip-rule="evenodd" d="M103.35 51.8725L103.303 52.0609C103.053 53.3507 103.185 54.6846 103.683 55.9016C104.02 56.7466 104.53 57.5135 105.18 58.1542C105.829 58.7949 106.605 59.2958 107.459 59.6256C108.306 59.9962 109.221 60.1895 110.147 60.1936C111.073 60.1976 111.989 60.0123 112.84 59.6492C113.706 59.3218 114.496 58.8229 115.161 58.1828C115.826 57.5427 116.354 56.7749 116.71 55.9261C117.091 55.0979 117.298 54.2013 117.318 53.2912C117.338 52.381 117.171 51.4763 116.828 50.6322C116.491 49.7805 115.98 49.0077 115.327 48.3625C114.673 47.7174 113.892 47.2141 113.032 46.8846C112.185 46.514 111.271 46.3187 110.346 46.3106C109.421 46.3025 108.504 46.4818 107.651 46.8375H107.603C107.737 46.7807 107.864 46.7103 107.983 46.6275C108.925 46.2331 109.938 46.0338 110.961 46.0419C111.984 46.0499 112.994 46.2653 113.929 46.6746C114.877 47.0358 115.737 47.5917 116.452 48.3059C117.168 49.0201 117.724 49.8764 118.082 50.8186C118.48 51.751 118.677 52.7554 118.66 53.7675C118.644 54.7797 118.415 55.7773 117.988 56.6965C117.594 57.6291 117.012 58.4718 116.277 59.1727C115.543 59.8736 114.671 60.4178 113.717 60.7718C112.78 61.1659 111.772 61.369 110.754 61.369C109.737 61.369 108.729 61.1659 107.792 60.7718C106.848 60.3982 105.991 59.835 105.277 59.1175C104.562 58.4 104.004 57.5438 103.639 56.6024C102.997 55.0298 102.914 53.2872 103.404 51.6616C103.386 51.7228 103.371 51.7934 103.356 51.8716" fill="#999999"/>
  <path fill-rule="evenodd" clip-rule="evenodd" d="M103.35 51.8735C103.587 50.7452 104.103 49.6935 104.853 48.814C105.604 47.9345 106.563 47.255 107.646 46.8376C108.499 46.4818 109.416 46.3025 110.341 46.3106C111.266 46.3187 112.18 46.514 113.027 46.8846C113.887 47.2141 114.668 47.7174 115.322 48.3625C115.975 49.0077 116.487 49.7805 116.823 50.6322C117.167 51.4763 117.333 52.381 117.313 53.2912C117.293 54.2013 117.086 55.0979 116.705 55.9261C116.349 56.7749 115.822 57.5428 115.156 58.1828C114.491 58.8229 113.701 59.3218 112.835 59.6492C111.985 60.0123 111.068 60.1976 110.142 60.1936C109.216 60.1895 108.301 59.9962 107.454 59.6256C106.6 59.2958 105.825 58.795 105.175 58.1542C104.525 57.5135 104.015 56.7466 103.678 55.9016C103.18 54.6846 103.048 53.3507 103.298 52.0609L103.35 51.8735Z" fill="white"/>
  <path fill-rule="evenodd" clip-rule="evenodd" d="M109.722 51.1238C109.762 51.2963 109.841 51.4575 109.954 51.595C110.066 51.7326 110.208 51.8429 110.37 51.9175C110.532 51.9921 110.709 52.029 110.887 52.0254C111.065 52.0219 111.241 51.978 111.399 51.897C111.617 51.8367 111.806 51.7032 111.936 51.5193C112.065 51.3354 112.126 51.1127 112.107 50.8893C112.13 50.6628 112.089 50.4345 111.989 50.23C111.643 49.3861 111.092 49.1036 110.336 49.3823C109.582 49.68 109.377 50.2576 109.722 51.1153M106.963 48.7353C107.611 48.4676 108.306 48.3292 109.007 48.328C109.709 48.3267 110.404 48.4627 111.052 48.728C111.701 48.9934 112.291 49.383 112.788 49.8745C113.285 50.3661 113.679 50.9499 113.948 51.5928C114.47 52.9066 114.445 54.3722 113.878 55.6676C113.312 56.963 112.251 57.9824 110.928 58.502C109.611 59.0327 108.138 59.0327 106.821 58.502C105.534 57.9394 104.52 56.8974 103.999 55.6005C103.479 54.3036 103.492 52.8556 104.037 51.5683C104.31 50.9264 104.709 50.3451 105.212 49.8586C105.714 49.372 106.31 48.9902 106.963 48.7353Z" fill="black"/>
  <path fill-rule="evenodd" clip-rule="evenodd" d="M84.1643 56.9791C84.1162 57.4186 84.8635 57.7699 86.406 58.033C87.9314 58.3136 89.7723 58.5554 91.9285 58.7582C94.0987 58.961 95.8924 59.1873 97.3096 59.4372C98.7408 59.6721 99.5431 59.5939 99.7164 59.2027C99.874 58.826 99.0635 58.2094 97.285 57.353C95.4505 56.4584 93.4672 55.9028 91.4322 55.7133C89.7044 55.4778 87.9491 55.5332 86.2399 55.8772C84.9182 56.2055 84.226 56.5725 84.1634 56.9781M83.667 53.8626C86.5997 52.7878 89.7651 52.4956 92.8472 53.015C93.0199 53.047 93.1775 53.0781 93.3217 53.1091C96.2557 53.4765 99.0443 54.5899 101.417 56.3415C103.697 58.0939 104.633 59.9304 104.223 61.8511C103.966 62.4624 103.616 63.0309 103.185 63.537C102.556 64.3959 100.44 65.2467 96.837 66.0893C93.235 66.964 91.2452 67.5652 90.8675 67.8929C90.504 68.2197 90.2534 68.4467 90.1082 68.571C90.1108 68.5525 90.1077 68.5337 90.0994 68.5169C90.0911 68.5001 90.078 68.4862 90.0617 68.4768C90.061 68.4529 90.054 68.4297 90.0415 68.4092C90.0291 68.3888 90.0115 68.3718 89.9906 68.3601C89.9368 68.3431 89.8788 68.3455 89.8267 68.3669C89.7746 68.3883 89.7318 68.4272 89.7058 68.4768C89.472 68.0741 89.1948 67.6977 88.8792 67.3542C88.2813 66.6516 86.8024 65.8162 84.4424 64.848C82.0824 63.8798 80.5007 62.8024 79.6972 61.6157C79.2971 61.0377 79.0345 60.3771 78.9293 59.6837C78.8241 58.9903 78.8789 58.2822 79.0898 57.6129C79.4827 56.1606 81.0087 54.9115 83.668 53.8654" fill="black"/>
  <path fill-rule="evenodd" clip-rule="evenodd" d="M84.1653 56.9791C84.2286 56.5741 84.921 56.2074 86.2428 55.879C87.9514 55.5336 89.7066 55.4776 91.4341 55.7133C93.4692 55.9024 95.4525 56.4581 97.2869 57.353C99.0648 58.2119 99.8756 58.8285 99.7193 59.2027C99.5447 59.5939 98.7421 59.6721 97.3116 59.4372C95.8956 59.1861 94.1019 58.9597 91.9304 58.7582C89.7754 58.5554 87.9346 58.3136 86.4079 58.033C84.8666 57.7674 84.1185 57.4161 84.1653 56.9791Z" fill="white"/>
  <path fill-rule="evenodd" clip-rule="evenodd" d="M82.6069 52.7164C84.3898 51.983 86.2948 51.5859 88.2244 51.5457C93.7289 51.3574 97.9847 52.3877 100.992 54.6368C100.965 54.6351 100.938 54.628 100.914 54.6159C100.889 54.6037 100.867 54.5868 100.85 54.5661C98.8611 53.8292 96.8273 53.2189 94.7605 52.739C92.357 52.2963 89.907 52.1546 87.468 52.3171C85.3916 52.306 83.3274 52.6305 81.3561 53.2777C81.7022 53.1214 82.1191 52.933 82.6069 52.7126" fill="black"/>
  <path fill-rule="evenodd" clip-rule="evenodd" d="M86.6888 92.6007C85.1692 92.2315 83.7403 91.562 82.4874 90.6323C81.1505 89.6641 79.0739 86.7837 76.2578 81.9911L100.496 86.2076C95.9174 89.627 92.8415 91.6334 91.268 92.2268C89.8152 92.8081 88.2192 92.9394 86.6898 92.6035" fill="white"/>
  <path fill-rule="evenodd" clip-rule="evenodd" d="M71.7972 71.9908C71.9871 72.0843 72.1838 72.1861 72.3876 72.2959C72.3865 72.2832 72.388 72.2703 72.3921 72.2582C72.3962 72.246 72.4027 72.2349 72.4113 72.2253C72.49 72.2893 72.5612 72.343 72.6229 72.3892L72.6476 72.4137L72.6713 72.3892L72.7188 72.4353C80.7262 76.153 86.4838 75.7163 89.9915 71.1252C93.0595 76.2111 98.0233 78.1622 104.883 76.9787C103.194 78.6581 101.386 80.216 99.4735 81.6407C98.2783 82.4984 96.9253 83.5912 95.4144 84.9192C95.4312 84.9388 95.4397 84.9641 95.4381 84.9898C95.3913 85.2234 95.0455 85.6058 94.4008 86.1369C94.0296 86.4489 93.6349 86.7323 93.2202 86.9846C92.8611 87.2833 92.4646 87.5346 92.0405 87.7324C91.0926 88.1773 90.0304 88.3245 88.996 88.1543C87.518 87.9515 85.6145 86.8584 83.2855 84.8749C81.8405 83.6603 80.4912 82.3379 79.2492 80.9193C77.172 78.4523 75.6852 76.6801 74.7887 75.6027C73.9296 74.6709 73.1851 73.6412 72.5707 72.5352L72.4341 72.3675C72.2148 72.2432 72.0013 72.1179 71.7972 71.9908ZM94.0762 86.1369L94.0288 86.2537C94.2651 86.0371 94.509 85.8007 94.7614 85.5511C94.5251 85.7395 94.2964 85.9345 94.0762 86.1369Z" fill="#834141"/>
  <path fill-rule="evenodd" clip-rule="evenodd" d="M81.6389 83.7259C81.041 83.1168 79.452 81.5157 76.8718 78.9226C73.9933 75.9767 71.5033 72.68 69.4616 69.1116C71.7261 70.9859 72.6776 71.868 72.3164 71.7582C71.9368 71.6326 72.6292 72.6322 74.3938 74.7569C76.1407 76.8798 78.5558 79.4635 81.6389 82.5081C82.4412 83.367 83.3614 84.3431 84.3997 85.4362C86.1308 87.2006 87.4525 88.0903 88.3648 88.1054C89.1152 88.132 89.8663 88.0853 90.6074 87.966C91.484 87.6783 92.2998 87.2333 93.0142 86.6531C93.926 86.0103 94.7859 85.298 95.5862 84.5227V84.5001C96.5782 83.5783 97.8215 82.462 99.3159 81.1509C100.442 80.0645 101.64 79.0551 102.903 78.1296C103.677 77.6414 104.41 77.0931 105.097 76.4899C105.978 75.7088 106.191 75.818 105.734 76.8176C104.227 77.9232 102.777 79.1038 101.391 80.3551C99.5342 82.0567 97.8348 83.5708 96.2923 84.8975C95.0023 86.0057 93.6298 87.0157 92.1867 87.9189C90.9982 88.6336 89.5758 88.8603 88.2215 88.5508C86.7351 88.1916 85.3784 87.4296 84.3029 86.3498C83.0925 85.2102 82.2036 84.3359 81.6361 83.7268" fill="black"/>
  <path fill-rule="evenodd" clip-rule="evenodd" d="M111.186 68.7368C111.19 68.7691 111.198 68.8008 111.21 68.831C111.21 68.846 111.242 68.8621 111.305 68.8781C111.269 68.8282 111.229 68.781 111.186 68.7368ZM68.3759 63.3496C68.8644 62.8033 69.2342 62.5302 69.4854 62.5302C69.6897 62.5302 69.603 62.8579 69.2253 63.5134C68.8746 64.0982 68.6645 64.7554 68.6113 65.4338L69.1076 66.5348C69.5453 67.4464 70.0663 68.3162 70.6641 69.1333C72.6723 71.7833 75.6269 73.5694 78.9208 74.1249C82.8701 74.906 85.8046 74.4147 87.7242 72.651C88.3601 72.0644 88.8803 71.3652 89.2579 70.5894C89.3689 70.4179 89.4629 70.2616 89.5426 70.1184C89.5099 69.8613 89.5507 69.6002 89.6603 69.365C89.7161 69.3663 89.7715 69.3742 89.8254 69.3885C89.8406 69.3885 89.8643 69.4206 89.8966 69.4827C90.0404 69.6189 90.16 69.7781 90.2506 69.9536L90.3911 70.2362C90.8472 70.908 91.7995 72.1415 93.2477 73.9366C94.6789 75.733 96.9835 76.7244 100.162 76.9109C103.372 77.1149 105.85 76.1706 107.596 74.0779C108.973 72.5393 110.003 70.7267 110.617 68.7613C110.319 68.058 109.956 67.3836 109.532 66.7467C109.359 66.4811 109.169 66.1923 108.963 65.8802C109.608 66.3825 110.025 66.7028 110.214 66.8409C110.387 66.9652 110.529 67.0754 110.639 67.1687C110.929 67.4775 111.197 67.8061 111.441 68.1519C111.614 68.371 111.842 68.6988 112.125 69.1352C112.204 69.2608 112.299 69.4325 112.41 69.6504L112.435 69.6739C112.457 69.7553 112.489 69.834 112.53 69.9084H112.505C112.616 70.0968 112.719 70.2685 112.812 70.4236C112.907 70.5956 113.017 70.7752 113.143 70.9623C113.189 71.0879 113.102 71.0251 112.883 70.7739C112.457 70.2434 112.166 69.8846 112.01 69.6974L112.858 70.7739C111.994 69.8993 111.499 69.5091 111.373 69.6033C110.75 70.3366 110.27 71.178 109.956 72.085C109.291 73.565 108.309 74.8829 107.077 75.9464C105.598 77.3516 103.379 77.9371 100.422 77.7029C97.8364 77.6406 95.3456 76.7264 93.3417 75.1044C93.1323 74.9096 92.9029 74.7369 92.6574 74.5893C92.3113 74.2125 91.6663 73.4707 90.7223 72.3637C90.4395 72.0498 90.2348 71.8081 90.1082 71.6385C89.9527 71.9325 89.724 72.1821 89.4439 72.3637C88.8302 72.8661 88.4129 73.1941 88.1921 73.3479C87.6891 73.5655 87.2241 73.7605 86.8008 73.9328C86.501 74.0642 86.2095 74.2133 85.9277 74.3792L85.4085 74.5676C83.29 75.334 80.9893 75.4563 78.8003 74.9189C74.7877 74.1397 71.8219 72.413 69.9029 69.7389C69.3009 68.929 68.8332 68.0289 68.5173 67.0726C68.5015 66.9621 68.3993 66.6026 68.2108 65.9942C67.5781 66.0112 66.7676 66.9637 65.7793 68.8517L66.0393 67.5878C66.4482 66.0033 67.2512 64.546 68.375 63.3496M110.006 67.261L109.959 67.2845C109.981 67.2724 110.005 67.2644 110.03 67.261V67.2374L110.006 67.261Z" fill="black"/>
  <path fill-rule="evenodd" clip-rule="evenodd" d="M81.9445 91.6391C80.2299 90.4838 78.3343 87.2674 76.2578 81.9901C79.0739 86.784 81.1505 89.6644 82.4874 90.6313C83.2271 91.1604 84.0177 91.6157 84.8476 91.9904C85.4448 92.2399 86.0603 92.4437 86.6888 92.5997C88.2183 92.935 89.8141 92.8036 91.267 92.223C91.8109 91.992 92.339 91.7262 92.8481 91.4272C95.5039 89.8455 98.0577 88.101 100.495 86.2038C100.635 86.1096 100.77 86.0154 100.895 85.9213C98.7606 88.0252 96.4294 89.923 93.9329 91.5891C91.7305 93.0094 89.9292 93.6809 88.529 93.6037C87.2355 93.5272 85.9538 93.3151 84.7053 92.9708C83.7269 92.6569 82.7976 92.2087 81.9445 91.6391Z" fill="black"/>
  <path fill-rule="evenodd" clip-rule="evenodd" d="M74.0636 78.1748C74.5111 77.9373 74.9868 77.7564 75.4796 77.6361C75.5128 77.636 75.5454 77.6275 75.5745 77.6116C76.0544 77.5019 76.5454 77.4472 77.0379 77.4486C77.2817 77.4334 77.5263 77.441 77.7687 77.4712C78.6252 77.5044 79.467 77.7034 80.2466 78.0571C80.4216 78.0813 80.5861 78.1541 80.7212 78.2671C80.7361 78.2977 80.7608 78.3225 80.7914 78.3377C80.9338 78.4319 81.0761 78.5327 81.2166 78.6419C81.4417 78.7707 81.6483 78.9291 81.8306 79.1128C81.4759 79.2703 81.1363 79.4595 80.8161 79.6779L81.1454 80.0057C81.1894 79.9625 81.2292 79.9152 81.264 79.8644C81.4068 79.7386 81.5923 79.6713 81.7832 79.676H81.9948C82.0897 79.629 82.1913 79.5819 82.3013 79.5367C82.5555 79.3895 82.8364 79.2934 83.128 79.2541V79.224C83.1556 79.2048 83.1894 79.1964 83.2229 79.2004H83.2874C83.87 79.0426 84.4608 78.9168 85.0574 78.8237C85.1514 78.8072 85.2467 78.799 85.3421 78.7992C85.4582 78.7671 85.5765 78.7438 85.6961 78.7295H86.239C86.3331 78.7126 86.4295 78.7126 86.5237 78.7295C87.576 78.7587 88.6214 78.9079 89.6394 79.1741C89.9359 79.2508 90.2275 79.3452 90.5125 79.4566C90.5913 79.5028 90.6615 79.5423 90.7242 79.5734C90.8227 79.6217 90.9178 79.6764 91.0089 79.7373H91.1038C91.199 79.7277 91.2952 79.7397 91.3851 79.7723C91.4751 79.805 91.5564 79.8574 91.6229 79.9256C91.7463 80.0431 91.8222 80.2011 91.8365 80.3702C91.8982 80.4333 91.9617 80.4954 92.0263 80.5585C92.1959 80.7279 92.3543 80.9078 92.5008 81.0973C92.9338 81.6623 93.2985 82.2759 93.5875 82.9253C93.6521 83.0509 93.6993 83.1846 93.7279 83.3228C93.9674 83.8717 94.1725 84.4347 94.342 85.0086C94.3965 85.21 94.4844 85.401 94.602 85.5737C94.5317 85.6099 94.4676 85.6569 94.4122 85.7131C94.3989 85.7254 94.3908 85.7422 94.3894 85.7602L94.3647 85.8544H94.2945V85.8073C93.9781 86.0585 93.6871 86.3096 93.4214 86.5608H93.3739C92.8597 86.979 92.3064 87.3477 91.7216 87.6618L91.4151 87.9443C91.3548 87.9134 91.2911 87.8897 91.2253 87.8737C91.193 87.8737 91.1778 87.8812 91.1778 87.8963C90.9593 87.9944 90.7295 88.0656 90.4936 88.1082C89.7836 88.2276 89.0556 88.1847 88.3648 87.9829C87.4463 87.7916 86.5882 87.3822 85.8641 86.7896C85.8489 86.7896 85.8242 86.7727 85.7929 86.7425C85.3057 86.3206 85.0542 85.9929 85.0384 85.7593V85.7367C85.0226 85.7066 85.0164 85.6725 85.0206 85.6388C85.0249 85.6052 85.0393 85.5736 85.0621 85.5483H85.0384C85.0697 85.5022 85.1001 85.4541 85.1333 85.4089C85.1493 85.3286 85.1731 85.2501 85.2045 85.1744C85.2171 85.1344 85.2326 85.0954 85.251 85.0576C85.4069 84.6542 85.4789 84.2236 85.4626 83.7918C85.4493 83.7064 85.4417 83.6202 85.4399 83.5338C85.4074 83.3542 85.3051 83.1946 85.1551 83.0892C85.1467 83.0988 85.1404 83.1101 85.1365 83.1222C85.1325 83.1343 85.1311 83.1472 85.1324 83.1599C85.1739 83.2188 85.2209 83.2736 85.2728 83.3237V83.3463L84.8476 83.7909C84.6123 84.2756 84.3845 84.7597 84.1643 85.2432C83.0999 87.3299 81.82 89.3013 80.3453 91.1258L79.7759 91.8284C79.6816 91.9219 79.595 92.0161 79.5159 92.1109C79.2796 92.3605 79.0518 92.6035 78.8316 92.838C78.4855 93.1651 78.147 93.4618 77.8161 93.728C76.5381 94.8509 74.8713 95.4386 73.1658 95.3677C72.0302 95.3455 70.9441 94.9024 70.1212 94.1255C70.0783 94.0821 70.0313 94.043 69.9808 94.0087C69.9333 93.9475 69.8944 93.8919 69.8621 93.8448C69.5863 93.522 69.3622 93.1589 69.1978 92.7683C69.181 92.7031 69.1571 92.64 69.1266 92.5799C69.0752 92.4584 69.0358 92.3323 69.0089 92.2032C68.9086 91.8913 68.8449 91.569 68.8191 91.2426C68.7374 90.574 68.7139 89.8997 68.7489 89.2271C68.7489 89.0243 68.7568 88.8293 68.7726 88.6422C68.7874 88.3827 68.8191 88.1244 68.8675 87.869C68.8668 87.7983 68.8748 87.7277 68.8912 87.6589C68.9545 87.1899 69.0412 86.7212 69.1513 86.2528C69.1665 86.1916 69.1836 86.1285 69.1987 86.0644C69.2956 85.5886 69.4224 85.1193 69.5784 84.6592C69.7979 83.9736 70.051 83.3021 70.3376 82.6447C70.5762 82.0917 70.86 81.5591 71.1861 81.0521C71.3123 80.8345 71.4461 80.6226 71.5875 80.4201C72.0473 79.7769 72.6047 79.2082 73.2398 78.7342C73.4443 78.562 73.667 78.4123 73.9041 78.2878C73.9526 78.2404 74.0083 78.201 74.0693 78.171" fill="#CC9999"/>
  <path fill-rule="evenodd" clip-rule="evenodd" d="M85.0375 85.763C85.0533 85.9979 85.3048 86.3256 85.792 86.7463C86.5335 87.3648 87.4177 87.7915 88.3658 87.9886C89.2871 88.2604 90.2724 88.2273 91.1731 87.8944C91.9621 87.5494 92.7005 87.1002 93.3682 86.5589C93.6681 86.3253 93.9753 86.0757 94.2898 85.8101V85.8563H94.3553L94.379 85.7621C94.3806 85.744 94.3891 85.7271 94.4027 85.715C94.4584 85.6591 94.5224 85.6121 94.5925 85.5756C94.4749 85.4028 94.387 85.2119 94.3325 85.0105C94.1628 84.4366 93.9577 83.8736 93.7184 83.3247C93.6896 83.1866 93.6424 83.0529 93.578 82.9272C92.6182 80.8194 91.3044 79.5703 89.6366 79.1797C88.3542 78.8285 87.0243 78.6785 85.6952 78.7352C84.8817 78.8291 84.0769 78.9866 83.2884 79.2061H83.2172C83.1837 79.2022 83.15 79.2106 83.1223 79.2296V79.2541C82.8308 79.2928 82.5501 79.3888 82.2966 79.5367C81.4155 79.9372 80.6093 80.4833 79.9126 81.1519C78.1271 82.5809 76.7583 84.4569 75.9474 86.5862C75.5855 87.6002 75.5381 87.6156 75.8051 86.6323C76.0556 85.6227 76.3876 84.6347 76.7978 83.6778C77.3366 82.5607 78.1479 81.5947 79.1581 80.8675C79.9683 80.172 80.8644 79.5817 81.8249 79.111C81.6427 78.9271 81.4361 78.7687 81.2109 78.6401C80.1999 77.9291 79.0038 77.5223 77.7658 77.4684C74.4625 77.2028 71.9845 78.9295 70.3319 82.6484C69.4942 84.5523 68.9681 86.5766 68.7736 88.645C68.653 89.8365 68.7328 91.0396 69.0099 92.2051C69.2495 93.1152 69.7879 93.9202 70.54 94.4927C71.2921 95.0653 72.215 95.3729 73.1629 95.3668C75.3654 95.5388 77.5681 94.3603 79.7712 91.8312C81.9942 89.202 83.8081 86.2572 85.1523 83.0949C85.6085 83.4848 85.5693 84.3045 85.0346 85.554H85.0583C85.035 85.5833 85.0204 85.6185 85.0162 85.6556C85.012 85.6927 85.0184 85.7303 85.0346 85.764M84.7043 86.6305C84.562 86.5843 84.4927 86.5768 84.4927 86.6079C83.1186 88.9434 81.4959 91.1258 79.6525 93.1177C77.4653 95.601 75.1446 96.686 72.6903 96.3727C71.5999 96.2974 70.5643 95.8699 69.7418 95.1557C68.9192 94.4414 68.3548 93.4795 68.1349 92.417C67.924 91.6152 67.8442 90.7849 67.8985 89.9579C67.9549 89.5388 67.9866 89.1168 67.9934 88.694C68.3395 84.0879 69.8501 80.6606 72.5252 78.4121C75.4989 75.9144 78.8974 76.0004 82.7208 78.6702C84.2021 78.1485 85.7846 77.9722 87.3456 78.155C87.8937 78.2918 88.4564 78.363 89.0216 78.3669L89.7334 78.5289C90.6218 78.8454 91.4393 79.3311 92.1402 79.9586C93.0158 80.7187 93.744 81.6312 94.2888 82.6513C94.6499 83.6294 94.9417 84.6315 95.1619 85.65V85.7442C95.1035 85.8184 95.0401 85.8886 94.9721 85.9542C94.9277 85.9404 94.8871 85.9165 94.8535 85.8845C94.5394 86.1181 94.2641 86.3376 94.0278 86.5438C93.2663 87.1197 92.4613 87.6367 91.6201 88.0903C90.5787 88.6453 89.3616 88.7802 88.2225 88.467C87.2722 88.3014 86.3746 87.9161 85.6021 87.3425C85.3457 87.0593 85.0424 86.8217 84.7053 86.6399" fill="black"/>
  <path d="M94.2888 82.3433H85.0375V88.1656H94.2888V82.3433Z" fill="black"/>
  <path fill-rule="evenodd" clip-rule="evenodd" d="M94.2898 85.8101C93.9734 86.0757 93.6662 86.3269 93.3682 86.5636C92.7009 87.1042 91.9632 87.5531 91.175 87.8981C90.2741 88.2317 89.2882 88.2648 88.3667 87.9923C87.4195 87.795 86.5361 87.3686 85.7948 86.751C85.3064 86.3291 85.0533 86.0013 85.0356 85.7678C86.8919 83.4716 88.8036 82.332 90.7707 82.3489C91.779 82.6423 92.6386 83.3026 93.1775 84.1977C93.5806 84.7135 93.9511 85.2536 94.2869 85.8148" fill="black"/>
</svg>