<svg xmlns="http://www.w3.org/2000/svg" width="181" height="180" viewBox="0 0 181 180" fill="none">
  <path d="M72.0169 93.1574C73.5778 92.8236 74.9479 91.9611 75.8584 90.7389C76.5523 89.875 77.0393 88.8837 77.2868 87.8313C77.5344 86.7788 77.5368 85.6895 77.2939 84.6361C77.0907 83.4297 76.6033 82.2796 75.8663 81.2678C75.1294 80.2559 74.161 79.4071 73.03 78.7818C72.2139 78.2866 71.2961 77.9532 70.3344 77.8025C69.3727 77.6519 68.3878 77.6873 67.4415 77.9066C66.451 78.1393 65.5303 78.5771 64.7484 79.1871C63.9666 79.7971 63.3439 80.5635 62.9272 81.4287C62.6192 82.1214 62.3522 82.8291 62.1273 83.5487V86.1476H62.2225C62.2197 86.2731 62.228 86.3986 62.2473 86.5229C62.7256 88.7347 64.0949 90.6944 66.0765 92.0029C66.9172 92.5832 67.8838 92.9873 68.9095 93.1871C69.9351 93.387 70.9954 93.3778 72.0169 93.1603M68.1328 89.3809C67.4699 88.9631 66.9087 88.4211 66.4855 87.7898C66.0624 87.1585 65.7866 86.452 65.676 85.7158C65.4855 84.9939 65.5101 84.2376 65.7471 83.5277C65.984 82.8177 66.4245 82.1808 67.0213 81.685C67.3487 81.4114 67.7385 81.2099 68.1616 81.0955C68.5847 80.9812 69.0302 80.957 69.4648 81.0247C71.9651 81.3635 73.0869 82.9297 73.7793 84.925C73.8846 85.3775 73.9431 85.8383 73.9542 86.3012C73.7803 87.6918 73.3664 89.0095 71.8078 89.7159C71.224 89.9869 70.5694 90.099 69.9197 90.0392C69.2701 89.9794 68.6519 89.7502 68.137 89.378" fill="#1C9DC9"/>
  <path d="M121.688 90.7879C121.54 89.8523 121.156 88.9624 120.567 88.1907C119.978 87.419 119.2 86.7874 118.298 86.3473C118.178 86.2222 118.011 86.1446 117.831 86.1304C117.776 85.9922 117.616 85.9855 117.508 85.9519C116.095 85.5266 114.587 85.4502 113.133 85.7302C112.255 85.866 111.421 86.185 110.696 86.663C110.61 86.688 110.489 86.663 110.466 86.7811C110.033 86.9806 109.64 87.247 109.304 87.569C109.184 87.5527 109.155 87.6525 109.091 87.7091L108.709 88.0872C108 88.7329 107.44 89.5046 107.061 90.356C106.939 90.3934 106.976 90.4971 106.957 90.5767C106.69 90.9804 106.492 91.4205 106.371 91.881C106.208 91.9108 106.096 91.9568 106.286 92.1017L106.14 93.1805C105.742 93.3407 105.726 93.405 106.02 93.6133C105.989 95.3274 106.571 97.0028 107.676 98.3773C107.827 98.5951 108.024 98.783 108.254 98.9301C108.978 99.587 109.852 100.084 110.812 100.384C111.772 100.684 112.792 100.78 113.797 100.663C115.614 100.482 117.318 99.76 118.655 98.6048C118.845 98.4909 119.007 98.3411 119.131 98.1652C119.467 97.9314 119.751 97.6401 119.968 97.3072C120.88 96.1813 121.513 94.8831 121.823 93.5048H121.92V91.1238C121.856 91.0888 121.802 91.04 121.763 90.9815C121.724 90.923 121.701 90.8565 121.696 90.7879M116.431 96.1239C116.344 96.1009 116.319 96.1575 116.294 96.2141C115.729 96.7217 115.032 97.0868 114.272 97.2749C113.511 97.463 112.711 97.4679 111.948 97.289C111.649 97.2004 111.357 97.0923 111.074 96.9656L110.715 96.6345C110.342 96.2979 110.048 95.8937 109.85 95.4471C109.653 95.0005 109.557 94.521 109.567 94.0384C109.599 92.7482 110.122 91.5099 111.045 90.5441C111.738 89.7409 112.705 89.1799 113.787 88.9529C114.34 88.7893 114.927 88.7475 115.5 88.8308C116.074 88.914 116.619 89.1202 117.091 89.4328C117.741 89.9236 118.169 90.6213 118.294 91.3896C118.437 92.2596 118.341 93.149 118.016 93.9757C117.69 94.8023 117.145 95.5395 116.431 96.1191" fill="#1C9DC9"/>
  <path d="M98.6678 87.0124C98.7123 87.1333 98.8117 87.1141 98.911 87.0949C99.8147 87.6479 100.845 87.9977 101.92 88.1165C102.995 88.2353 104.085 88.1198 105.104 87.7792C105.218 87.7351 105.385 87.8387 105.455 87.6708C106.006 87.5163 106.53 87.2902 107.012 86.999C108.194 86.3303 109.185 85.4088 109.903 84.3117C110.043 84.2897 110.006 84.1803 110.028 84.0977C110.095 84.0683 110.152 84.0219 110.191 83.9641C110.231 83.9062 110.253 83.8391 110.254 83.7705C110.393 83.7484 110.357 83.639 110.379 83.5565C110.627 83.2545 110.803 82.9075 110.896 82.5382C110.924 82.3962 111.103 82.3088 111.066 82.1438C111.267 82.0372 111.14 81.8558 111.183 81.7109C111.321 81.6735 111.294 81.5814 111.268 81.4892C111.472 81.0089 111.562 80.4933 111.533 79.9777C111.665 79.9393 111.646 79.8491 111.622 79.756C111.725 78.6112 111.569 77.459 111.165 76.373C110.653 74.705 109.467 73.2845 107.854 72.4074C107.167 71.8908 106.328 71.5777 105.446 71.5091C105.446 71.3249 105.429 71.1397 105.184 71.1128C104.977 71.0897 104.886 71.2232 104.863 71.4007C104.572 71.4065 104.281 71.4228 103.991 71.417C102.844 71.4118 101.709 71.6413 100.668 72.0892C99.6275 72.5371 98.7059 73.1923 97.9693 74.0082L97.7354 74.2271C97.6648 74.2512 97.6042 74.2954 97.5622 74.3532C97.5203 74.4111 97.499 74.4798 97.5015 74.5495C97.4074 74.5904 97.3257 74.6521 97.2636 74.7293C97.2015 74.8065 97.1609 74.8967 97.1455 74.992C97.093 75.011 97.0455 75.0404 97.0066 75.0782C96.9676 75.116 96.938 75.1613 96.9199 75.2108C96.7657 75.2271 96.8329 75.3701 96.7708 75.4382C96.4425 75.9441 96.1687 76.4786 95.9533 77.0342C95.2443 78.718 95.0902 80.5591 95.5103 82.3242C95.9522 84.1772 97.0659 85.8337 98.6657 87.0172M99.0456 78.7848C99.1915 78.778 99.3488 78.7895 99.3674 78.5928C99.3749 78.5638 99.3752 78.5335 99.3683 78.5044C99.3614 78.4752 99.3475 78.4479 99.3276 78.4244C99.3077 78.401 99.2823 78.382 99.2533 78.3689C99.2244 78.3559 99.1926 78.3491 99.1604 78.349C99.6639 77.0953 100.552 76.0057 101.716 75.2146C101.734 75.1992 101.789 75.2223 101.826 75.2271C102.38 75.0678 102.814 74.6013 103.462 74.6858C104.364 74.5523 105.287 74.7383 106.049 75.2069C106.056 75.3653 106.173 75.3029 106.256 75.2962C106.687 75.5962 107.05 75.9714 107.326 76.4008C107.301 76.4786 107.353 76.5025 107.419 76.5179C107.755 77.0829 107.961 77.7059 108.026 78.3481C108.026 78.4191 108.026 78.4892 108.02 78.5602C107.827 78.7109 107.953 78.7521 108.108 78.7867L108.152 78.7742L108.106 79.4316C107.848 79.4873 107.828 79.5986 108.016 79.7598C108.044 80.0545 107.994 80.351 107.87 80.6236C107.707 80.6524 107.597 80.6994 107.785 80.8453C107.798 80.9626 107.784 81.0811 107.744 81.1932C107.704 81.3052 107.64 81.4083 107.555 81.4959C107.259 81.5363 107.281 81.6975 107.38 81.8885L107.173 82.353L107.039 82.4643C106.846 82.4914 106.671 82.5849 106.549 82.7263C106.427 82.8677 106.366 83.0465 106.38 83.2273L105.999 83.6563L105.548 83.9998C105.533 83.9909 105.516 83.985 105.498 83.9827C105.48 83.9804 105.462 83.9817 105.444 83.9864C105.341 84.0306 104.999 83.8616 105.211 84.2033L104.722 84.5018C104.638 84.5267 104.524 84.5018 104.489 84.6121L104.153 84.6438C103.956 84.4519 103.842 84.5037 103.804 84.7494L103.682 84.8262C103.21 84.9478 102.716 84.9744 102.232 84.9044C101.748 84.8344 101.286 84.6693 100.876 84.4202C100.899 84.3242 101.028 84.235 100.915 84.1419C100.801 84.0488 100.708 84.115 100.64 84.2119C99.8194 83.5593 99.2275 82.694 98.9408 81.7271C98.654 80.7602 98.6855 79.7359 99.0311 78.7857" fill="#1C9DC9"/>
  <path d="M76.5911 75.3096C76.597 76.2839 76.6737 77.2567 76.8209 78.2214C77.2362 80.2609 78.341 82.1248 79.9753 83.543C79.9991 83.6006 80.025 83.6562 80.1119 83.639C80.9156 84.3268 81.8657 84.8509 82.9011 85.1777C83.9364 85.5044 85.034 85.6265 86.1233 85.5361C87.2126 85.4457 88.2694 85.1448 89.2258 84.6528C90.1821 84.1607 91.0167 83.4885 91.676 82.6792C91.7072 82.6828 91.7389 82.6797 91.7687 82.6703C91.7984 82.6608 91.8254 82.6451 91.8477 82.6245C91.8699 82.6038 91.8868 82.5788 91.8971 82.5512C91.9073 82.5236 91.9106 82.4942 91.9068 82.4652C93.4436 80.6498 94.2358 78.3876 94.1422 76.0812C94.1434 74.8922 93.9058 73.7134 93.4415 72.6051C93.4705 72.441 93.2966 72.3546 93.2646 72.2135C93.0047 71.5319 92.6196 70.8971 92.1262 70.3373C92.0655 70.1912 91.9486 70.0712 91.7981 70.0004C91.765 69.7336 91.5331 69.6166 91.3376 69.4678L90.966 69.1146C90.6756 68.809 90.3242 68.5584 89.9311 68.3766C89.9028 68.312 89.8541 68.2569 89.7916 68.2182C89.7291 68.1795 89.6554 68.1592 89.5803 68.1597C88.8099 67.6624 87.9314 67.328 87.0065 67.1798C86.8191 67.2605 86.7125 67.0416 86.5397 67.0714L85.7315 67.0858C85.6031 66.9025 85.421 66.9994 85.2544 67.0042C84.0338 67.0401 82.8366 67.3238 81.7471 67.8353L81.4024 67.9754C81.2865 67.9831 81.1334 67.8795 81.0754 68.0647C81.1013 68.3219 80.8187 68.343 80.6987 68.4879C80.6229 68.4832 80.5476 68.5016 80.484 68.5402C80.4205 68.5788 80.3724 68.6356 80.3468 68.7019L79.1794 69.7845C79.03 69.8601 78.909 69.9763 78.8328 70.1175C78.6002 70.3459 78.405 70.6045 78.2532 70.8853L78.0628 70.9275L78.1332 70.9861C78.1369 71.0212 78.1334 71.0567 78.1228 71.0907L77.9158 71.4189C77.2964 72.4985 76.8888 73.6716 76.7122 74.8835C76.5498 74.8969 76.4235 74.9564 76.3955 75.1196C76.3728 75.2539 76.468 75.299 76.5922 75.3115M80.2547 75.4257C80.2435 74.8968 80.3412 74.3708 80.5424 73.8758C80.4389 73.6838 80.4141 73.5255 80.7091 73.4804L80.8374 73.369C80.9574 73.3575 81.1096 73.393 81.1479 73.2328C81.1758 73.1022 81.0723 73.061 80.9564 73.0408C81.3261 72.3741 81.8335 71.7813 82.4498 71.2961C83.019 70.8968 83.6507 70.5806 84.3229 70.3584L84.7845 70.321C84.9139 70.129 85.095 70.2634 85.2564 70.2519C85.4179 70.2404 85.6031 70.1502 85.7325 70.3296C86.0447 70.2993 86.3604 70.332 86.6577 70.4256L87.0085 70.534L87.2321 70.5753L87.5871 70.7817C88.6673 71.3973 89.5099 72.3141 89.9943 73.4007C90.0212 73.5245 90.1588 73.6051 90.1743 73.7337C90.1588 73.6051 90.0212 73.5245 89.9932 73.4007C89.899 73.5927 89.8742 73.7558 90.1723 73.7923C90.6004 74.8285 90.7499 75.9458 90.6079 77.0476C90.492 77.063 90.3906 77.0937 90.401 77.23C90.4113 77.3365 90.5045 77.3557 90.5935 77.372C90.5935 77.4843 90.4382 77.564 90.5189 77.6974C90.3835 77.9313 90.3064 78.1903 90.2933 78.4555L90.1453 78.8759C90.0812 78.8941 90.0274 78.9181 90.0543 78.9959C90.0232 79.0784 90.0543 79.1945 89.9208 79.2233C89.6558 79.1724 89.6434 79.1993 89.7376 79.6283C89.3282 80.3945 88.7045 81.0448 87.9317 81.5113C87.8327 81.5284 87.7384 81.5639 87.6547 81.6157C87.5709 81.6674 87.4993 81.7345 87.4442 81.8126C87.2621 81.8884 87.11 82.0295 86.8937 82.0334L86.7643 82.1178C86.3159 82.2854 85.835 82.3651 85.3518 82.3519C84.8686 82.3387 84.3935 82.2328 83.9566 82.041C83.9504 81.9048 83.9876 81.7464 83.7713 81.7157C83.7391 81.7063 83.7049 81.7041 83.6716 81.7093C83.6382 81.7145 83.6067 81.727 83.5796 81.7458C83.5525 81.7645 83.5307 81.789 83.5158 81.8171C83.5009 81.8453 83.4934 81.8763 83.494 81.9076C82.2213 81.2484 81.2367 80.1978 80.7101 78.9373C80.4524 78.3704 80.2834 77.7722 80.2081 77.1609C80.2081 77.0889 80.2082 77.0169 80.2019 76.944C80.0886 76.556 80.0636 76.1504 80.1285 75.753C80.0519 75.6071 80.1957 75.5322 80.2496 75.4286" fill="#1C9DC9"/>
  <path d="M109.749 104.758C109.294 103.484 108.643 102.278 107.814 101.178C106.37 99.0805 104.919 96.9876 103.462 94.8993C102.084 92.929 100.787 90.8954 98.6771 89.4798L98.5488 89.3953C97.6667 88.81 96.7318 88.2963 95.7546 87.8598L95.3954 87.6832L95.1709 87.6429L94.3429 87.355C93.1185 87.0545 91.8686 86.8513 90.6069 86.7475C89.5641 86.7294 88.5213 86.7816 87.4867 86.9039C84.566 87.3165 81.8534 88.5541 79.7186 90.4481C78.4518 91.605 77.3713 92.925 76.5104 94.3676C75.4165 95.9847 74.273 97.5731 73.1987 99.2008C72.2332 100.662 71.1413 102.05 70.2875 103.576C70.1106 103.588 69.9419 103.603 70.1706 103.799C69.5873 105.403 69.466 107.12 69.8187 108.781C70.277 110.606 71.3582 112.246 72.9017 113.456C73.9761 114.315 75.2615 114.915 76.645 115.205C78.0659 115.526 79.549 115.526 80.9698 115.205C82.5491 114.866 83.9442 114.053 85.5617 113.816C87.3602 113.412 89.2178 113.282 91.0612 113.432C91.1584 113.438 91.2559 113.438 91.3531 113.432C92.2988 113.499 93.2376 113.633 94.1608 113.835C95.7649 114.159 97.2169 114.883 98.7868 115.29C98.9628 115.657 99.0311 115.674 99.2536 115.399C100.366 115.533 101.496 115.49 102.593 115.273C103.894 115.039 105.123 114.543 106.194 113.821C107.266 113.099 108.154 112.167 108.795 111.093C109.412 110.093 109.791 108.982 109.907 107.835C110.06 106.881 109.978 105.907 109.666 104.987C109.839 104.954 109.935 104.9 109.74 104.761M105.711 109.524C105.293 110.258 104.682 110.882 103.935 111.34C103.188 111.797 102.328 112.072 101.436 112.14C101.106 112.225 100.762 112.254 100.421 112.223C100.4 112.058 100.486 111.839 100.186 111.812C99.9377 111.786 99.8207 111.881 99.8373 112.115C98.5871 111.923 97.4911 111.314 96.2741 111.019C94.4902 110.553 92.6589 110.259 90.8098 110.143C89.72 110.101 88.6285 110.122 87.5415 110.205C86.4141 110.282 85.2988 110.47 84.2143 110.766C83.0107 111.095 81.8423 111.534 80.6511 111.882C79.885 112.161 79.0591 112.269 78.2397 112.199C77.4204 112.128 76.6303 111.88 75.933 111.475C75.2155 111.077 74.5997 110.539 74.1278 109.899C73.656 109.26 73.3393 108.532 73.1998 107.768C72.9626 106.338 73.3361 104.879 74.2409 103.7C75.3989 102.038 76.5611 100.377 77.6737 98.6863C78.7862 96.9953 79.9898 95.3926 81.1924 93.7707C81.536 93.368 81.9113 92.9895 82.3152 92.6382L82.4415 92.5557C83.9828 91.2513 85.9151 90.4119 87.9824 90.1487C90.1497 89.8375 92.3676 90.0962 94.3843 90.8954C95.6334 91.4055 96.7659 92.1323 97.7209 93.0365C98.7647 94.1037 99.6715 95.2795 100.423 96.5404C100.713 96.9694 100.988 97.4042 101.27 97.8408C101.246 97.9167 101.281 97.9368 101.358 97.9282C102.545 99.6374 103.775 101.32 104.886 103.074C105.238 103.505 105.55 103.964 105.817 104.446C105.792 104.523 105.845 104.547 105.91 104.563C106.334 105.337 106.538 106.199 106.504 107.067C106.47 107.935 106.199 108.78 105.717 109.524" fill="#1C9DC9"/>
  <path d="M49.7363 171C46.4608 170.136 43.4979 168.734 42.1318 165.682C41.352 163.944 40.9358 162.084 40.9054 160.201C40.8123 142.113 40.8361 124.032 40.8361 105.95C40.8361 77.3238 40.8399 48.6977 40.8475 20.0713C40.8527 12.9204 45.0565 9 52.7303 9C77.8048 9 102.879 9 127.954 9C135.634 9 139.833 12.9195 139.833 20.0703C139.833 66.4092 139.833 112.748 139.833 159.088C139.833 166.094 137.993 168.563 130.95 170.995L49.7363 171ZM133.928 30.6896H46.7558V138.531H133.928V30.6896ZM46.6637 144.085C46.6637 149.747 46.6502 155.228 46.6637 160.705C46.674 163.85 48.5524 165.6 51.9541 165.6C77.5453 165.61 103.137 165.61 128.728 165.6C132.131 165.6 134.006 163.85 134.013 160.699C134.032 155.584 134.02 150.47 134.013 145.355C134.013 144.949 133.947 144.544 133.91 144.083L46.6637 144.085ZM134.023 25.1175C134.023 23.27 134.023 21.5905 134.023 19.911C134.023 15.9291 132.353 14.3898 128.034 14.3898C102.909 14.3898 77.783 14.3898 52.6568 14.3898C52.0887 14.3733 51.5201 14.3855 50.9534 14.4262C49.919 14.4879 48.9393 14.8788 48.1796 15.5327C47.42 16.1866 46.9269 17.0636 46.7837 18.0156C46.5829 20.3515 46.7361 22.7182 46.7361 25.1175H134.023Z" fill="#1C9DC9"/>
  <path d="M90.2551 162.817C88.8941 162.817 87.527 162.89 86.1723 162.804C84.2572 162.703 82.4475 161.958 81.0817 160.708C79.716 159.459 78.8878 157.791 78.752 156.017C78.3795 151.139 80.7028 147.491 85.0971 146.978C88.5833 146.575 92.11 146.575 95.5962 146.978C99.9904 147.491 102.311 151.139 101.934 156.023C101.798 157.797 100.968 159.465 99.6015 160.713C98.2346 161.962 96.424 162.705 94.5085 162.805C93.0969 162.893 91.6729 162.818 90.2551 162.818M90.2551 157.462C91.4431 157.462 92.6353 157.49 93.8193 157.456C94.1328 157.474 94.4469 157.429 94.7405 157.325C95.034 157.221 95.3002 157.06 95.521 156.853C95.7419 156.646 95.9124 156.397 96.021 156.124C96.1297 155.851 96.174 155.559 96.1509 155.268C96.2772 153.349 95.7173 152.263 94.1494 152.174C91.6104 152.031 89.0643 152.031 86.5252 152.174C84.9584 152.263 84.3985 153.349 84.5258 155.269C84.503 155.56 84.5476 155.852 84.6565 156.125C84.7654 156.398 84.9361 156.647 85.1572 156.854C85.3782 157.061 85.6445 157.222 85.9381 157.326C86.2317 157.429 86.5459 157.474 86.8595 157.456C87.9896 157.49 89.1239 157.462 90.2551 157.462Z" fill="#1C9DC9"/>
  <path d="M90.5138 17.1202C95.0622 17.1202 99.6117 17.0549 104.157 17.1701C105.259 17.2002 106.314 17.5896 107.138 18.2699C107.436 18.5917 107.64 18.9788 107.731 19.3945C107.822 19.8102 107.797 20.2406 107.658 20.6447C107.518 21.0488 107.27 21.4131 106.936 21.703C106.602 21.9929 106.194 22.1986 105.75 22.3007C105.034 22.4653 104.298 22.5383 103.561 22.5176C94.749 22.5317 85.9371 22.5345 77.1252 22.5262C76.7847 22.5262 76.4411 22.5406 76.1016 22.5166C74.0774 22.3698 72.8593 21.2776 72.9317 19.6874C73.0031 18.1355 74.1653 17.1576 76.1875 17.1413C80.9626 17.1019 85.7387 17.1288 90.5138 17.125" fill="#1C9DC9"/>
  <path d="M123.875 17.1192C126.78 17.1192 128.215 18.0268 128.178 19.8419C128.143 21.6423 126.698 22.5291 123.791 22.5234C123.677 22.5234 123.564 22.5234 123.451 22.5234C120.889 22.4984 119.481 21.5118 119.51 19.7642C119.538 18.0616 120.872 17.148 123.366 17.1211C123.536 17.1211 123.706 17.1211 123.876 17.1211" fill="#1C9DC9"/>
</svg>