<svg xmlns="http://www.w3.org/2000/svg" width="181" height="180" viewBox="0 0 181 180" fill="none">
  <path d="M149.448 161.999H31.8847C31.778 161.913 31.6586 161.844 31.5307 161.794C23.3532 160.076 18.6666 154.327 18.6666 145.981C18.6666 115.614 18.6666 85.2462 18.6666 54.8781C18.6666 52.1027 19.5896 51.1934 22.3868 51.1934C25.2306 51.1934 28.0744 51.1934 31.041 51.1934V49.6762C31.041 45.3651 31.041 41.0537 31.041 36.7419C31.041 34.1594 32.0183 33.2014 34.6243 33.1971C37.5148 33.1971 40.4054 33.1971 43.4197 33.1971C43.4197 29.3076 43.4881 25.5677 43.3893 21.8331C43.2874 21.067 43.4243 20.2881 43.7813 19.6024C44.1384 18.9166 44.6983 18.3571 45.3851 18H162.667V148.781C162.571 149.083 162.449 149.379 162.384 149.687C161.873 152.385 160.633 154.892 158.8 156.939C156.966 158.986 154.608 160.495 151.979 161.303C151.153 161.588 150.292 161.769 149.448 162M24.2903 56.8407V58.4836C24.2903 87.6366 24.2903 116.789 24.2903 145.94C24.2903 146.41 24.2837 146.879 24.3076 147.349C24.4014 149.877 25.4974 152.264 27.3545 153.985C29.2117 155.706 31.6779 156.621 34.2106 156.527C36.7433 156.434 39.135 155.34 40.8596 153.486C42.5842 151.633 43.5004 149.171 43.4066 146.644C43.436 134.412 43.4153 122.179 43.4175 109.945C43.3989 109.476 43.409 109.005 43.4479 108.537C43.5212 107.854 43.8439 107.223 44.3544 106.763C44.8648 106.303 45.5272 106.047 46.2149 106.043C46.9027 106.04 47.5674 106.29 48.0822 106.745C48.597 107.2 48.9256 107.829 49.0053 108.511C49.0474 108.979 49.0586 109.45 49.039 109.919C49.039 121.637 48.9857 133.354 49.0704 145.071C49.2785 148.98 48.1746 152.847 45.9334 156.059C45.8976 156.108 45.9584 156.228 45.9855 156.377H47.2354C80.4189 156.377 113.602 156.377 146.785 156.377C153.046 156.377 157.039 152.367 157.039 146.074C157.039 105.766 157.039 65.4589 157.039 25.1515V23.6982H49.0411V25.4224C49.0411 44.3573 49.0411 63.2921 49.0411 82.227C49.0603 82.7422 49.0516 83.2581 49.0151 83.7724C48.9577 84.4698 48.64 85.1203 48.1247 85.5949C47.6095 86.0695 46.9344 86.3335 46.2333 86.3348C45.5321 86.336 44.8561 86.0743 44.3392 85.6015C43.8223 85.1287 43.5023 84.4793 43.4425 83.7821C43.4086 83.3133 43.4006 82.843 43.4186 82.3733C43.4186 68.4062 43.4186 54.4392 43.4186 40.4721V38.8899H36.6657V40.7582C36.6657 74.7872 36.6657 108.814 36.6657 142.839C36.6657 145.429 35.751 146.749 33.9217 146.796C32.04 146.844 31.0421 145.473 31.0421 142.834V56.8407H24.2903Z" fill="#1C9DC9"/>
  <path d="M48.9824 96.4931C48.9818 95.9577 48.8224 95.4345 48.5244 94.9897C48.2264 94.5449 47.8032 94.1985 47.3083 93.9942C46.8134 93.7899 46.2691 93.737 45.7441 93.8422C45.2191 93.9473 44.7371 94.2058 44.3591 94.5849C43.981 94.964 43.7239 95.4467 43.6202 95.9719C43.5165 96.4972 43.5709 97.0414 43.7765 97.5357C43.9821 98.0301 44.3297 98.4523 44.7753 98.7491C45.2209 99.0459 45.7445 99.2038 46.2799 99.203C46.9966 99.1994 47.6828 98.9124 48.1887 98.4047C48.6946 97.897 48.9792 97.2098 48.9803 96.4931" fill="#1C9DC9"/>
  <path d="M148.585 80.8083C148.585 95.0483 148.585 109.288 148.585 123.527C148.585 127.952 146.816 129.513 141.805 129.515C115.64 129.52 89.4766 129.52 63.3131 129.515C58.4072 129.515 56.5668 127.939 56.5657 123.73C56.5599 95.0983 56.5599 66.4662 56.5657 37.8337C56.5657 33.7184 58.4137 32.0833 63.0791 32.0811C89.4195 32.0732 115.76 32.0732 142.099 32.0811C146.73 32.0811 148.582 33.741 148.585 37.8596C148.593 52.178 148.593 66.4942 148.585 80.8083ZM61.8302 125.889H142.458V36.3248H61.8302V125.889Z" fill="#1C9DC9"/>
  <path d="M144.652 138.189C145.119 138.172 145.587 138.18 146.053 138.213C146.749 138.275 147.395 138.585 147.864 139.081C148.334 139.577 148.593 140.224 148.591 140.894C148.59 141.565 148.327 142.21 147.854 142.704C147.382 143.198 146.734 143.504 146.038 143.562C145.572 143.595 145.104 143.602 144.637 143.585H60.501C57.9125 143.585 56.6003 142.707 56.5624 140.945C56.519 139.14 57.8821 138.188 60.5173 138.188L144.652 138.189Z" fill="#1C9DC9"/>
  <path d="M48.982 96.5584C48.9697 97.0938 48.7989 97.6134 48.4911 98.0517C48.1834 98.4899 47.7526 98.827 47.2533 99.0204C46.7539 99.2137 46.2084 99.2546 45.6858 99.1379C45.1632 99.0212 44.687 98.7522 44.3173 98.3647C43.9477 97.9773 43.7012 97.489 43.6092 96.9615C43.5171 96.434 43.5836 95.891 43.8002 95.4013C44.0169 94.9116 44.3738 94.4972 44.8261 94.2104C45.2783 93.9236 45.8054 93.7774 46.3407 93.7903C47.0569 93.8108 47.736 94.113 48.2305 94.6314C48.7251 95.1497 48.9951 95.8422 48.982 96.5584Z" fill="#1C9DC9"/>
  <path d="M62.1915 42.9163L62.0377 43.0549L61.9749 42.9023L62.1915 42.9142" fill="#1C9DC9"/>
  <path d="M61.9749 69.0637L62.1817 68.8872C62.173 69.0161 62.1222 69.0973 61.9749 69.0637Z" fill="#1C9DC9"/>
  <path d="M76.3522 93.8057L76.0501 94.0223C76.0945 93.8718 76.1584 93.743 76.3522 93.8057Z" fill="#1C9DC9"/>
  <path d="M60.9249 83.3959C60.8099 83.0513 61.014 82.9776 61.2909 82.9624C61.2985 83.216 61.1953 83.3753 60.9249 83.3959Z" fill="#1C9DC9"/>
  <path d="M58.7268 84.2657C58.7724 83.9915 58.9613 84.0337 59.1492 84.076C59.0721 84.2808 59.0406 84.5973 58.7268 84.2657Z" fill="#1C9DC9"/>
  <path d="M82.1824 81.6914C83.8346 81.3211 85.2848 80.3644 86.2486 79.0089C86.9833 78.0508 87.499 76.9514 87.7612 75.7842C88.0234 74.6169 88.0261 73.4087 87.7691 72.2403C87.5547 70.9015 87.039 69.625 86.2588 68.502C85.4786 67.3789 84.4532 66.4369 83.2554 65.7429C82.3921 65.1946 81.4215 64.8253 80.4045 64.6583C79.3875 64.4912 78.346 64.5299 77.3451 64.772C76.2968 65.0299 75.3222 65.5151 74.4945 66.1914C73.6669 66.8677 73.0077 67.7173 72.5664 68.6766C72.2403 69.4448 71.9575 70.2297 71.7193 71.0278V73.9098H71.8192C71.8161 74.0492 71.8248 74.1886 71.8453 74.3266C72.3502 76.7793 73.798 78.9529 75.8941 80.405C76.7838 81.0493 77.8069 81.4979 78.8927 81.7201C79.9785 81.9422 81.1009 81.9324 82.1824 81.6914ZM78.0717 77.4998C77.3698 77.0365 76.7757 76.4354 76.3277 75.7352C75.8797 75.0351 75.5877 74.2514 75.4705 73.4349C75.2692 72.6351 75.2951 71.7972 75.5452 71.0105C75.7954 70.2239 76.2605 69.5179 76.8911 68.9679C77.2377 68.6643 77.6504 68.4408 78.0984 68.314C78.5463 68.1872 79.018 68.1604 79.4781 68.2355C82.1248 68.6112 83.313 70.3461 84.0396 72.5622C84.1509 73.0643 84.2127 73.5756 84.2242 74.0892C84.0407 75.632 83.6019 77.0925 81.9522 77.8755C81.3342 78.1762 80.6412 78.3005 79.9534 78.2342C79.2657 78.1679 78.6114 77.9137 78.0662 77.5009" fill="#1C9DC9"/>
  <path d="M135.351 79.1915C135.192 78.1221 134.779 77.1047 134.146 76.2223C133.513 75.3398 132.677 74.6173 131.706 74.1134C131.577 73.9704 131.397 73.8816 131.204 73.8654C131.144 73.7076 130.973 73.7 130.856 73.6608C129.335 73.1744 127.712 73.087 126.146 73.4073C125.201 73.5624 124.304 73.927 123.523 74.4736C123.431 74.5019 123.302 74.4736 123.275 74.6085C122.81 74.8367 122.387 75.1413 122.025 75.5094C121.896 75.4899 121.864 75.6052 121.797 75.6705L121.385 76.1057C120.622 76.8438 120.019 77.7261 119.611 78.6996C119.48 78.7421 119.52 78.8618 119.501 78.9521C119.213 79.4138 118.999 79.9171 118.869 80.4438C118.694 80.4776 118.574 80.5298 118.779 80.6963L118.621 81.929C118.192 82.1129 118.179 82.1858 118.492 82.4241C118.457 84.3841 119.083 86.3 120.272 87.8721C120.435 88.1211 120.646 88.3359 120.893 88.5042C121.672 89.2552 122.613 89.8234 123.645 90.1666C124.677 90.5099 125.775 90.6193 126.856 90.4867C128.812 90.2796 130.647 89.4535 132.085 88.1321C132.29 88.002 132.465 87.8307 132.598 87.6294C132.959 87.3626 133.264 87.0302 133.499 86.6502C134.48 85.3613 135.161 83.8754 135.494 82.2979H135.599V79.5777C135.53 79.5378 135.472 79.4819 135.43 79.415C135.388 79.3481 135.363 79.2722 135.357 79.1936M129.691 85.2955C129.597 85.2694 129.571 85.3336 129.544 85.4043C128.935 85.9848 128.186 86.4024 127.367 86.6176C126.549 86.8328 125.688 86.8384 124.867 86.6339C124.545 86.5325 124.231 86.4089 123.927 86.2639L123.54 85.8853C123.139 85.5004 122.822 85.0383 122.609 84.5277C122.397 84.0171 122.293 83.4688 122.305 82.917C122.338 81.4417 122.901 80.026 123.895 78.9216C124.641 78.0032 125.681 77.3617 126.845 77.1024C127.441 76.9161 128.072 76.8691 128.69 76.9653C129.307 77.0614 129.893 77.298 130.401 77.6562C131.1 78.2176 131.562 79.0156 131.695 79.8944C131.85 80.8893 131.747 81.9066 131.396 82.852C131.046 83.7975 130.459 84.6405 129.69 85.3031" fill="#1C9DC9"/>
  <path d="M111.039 75.1525C111.085 75.2905 111.192 75.2677 111.296 75.2471C112.252 75.879 113.342 76.2787 114.479 76.4144C115.617 76.5501 116.77 76.4181 117.848 76.0288C117.968 75.9788 118.145 76.0973 118.219 75.9049C118.802 75.7271 119.357 75.4671 119.867 75.1329C121.116 74.3688 122.165 73.3159 122.924 72.0623C123.072 72.0373 123.033 71.9123 123.057 71.8177C123.128 71.7841 123.188 71.7311 123.23 71.665C123.272 71.5989 123.295 71.5222 123.296 71.4437C123.443 71.4187 123.404 71.2936 123.428 71.199C123.688 70.8536 123.873 70.4573 123.971 70.0356C124 69.8736 124.188 69.7736 124.151 69.5855C124.368 69.4637 124.229 69.2593 124.275 69.0907C124.42 69.0473 124.391 68.9418 124.365 68.8374C124.581 68.2886 124.676 67.6998 124.645 67.1108C124.785 67.0673 124.764 66.964 124.739 66.8574C124.848 65.549 124.684 64.2322 124.256 62.991C123.715 61.0855 122.461 59.4626 120.755 58.4602C120.028 57.8698 119.141 57.5121 118.208 57.4338C118.208 57.2239 118.19 57.0119 117.93 56.9804C117.713 56.9543 117.614 57.1065 117.592 57.3066C117.284 57.3131 116.976 57.3316 116.67 57.325C115.456 57.3187 114.256 57.5804 113.155 58.0916C112.054 58.6028 111.079 59.3508 110.3 60.2825L110.052 60.5326C109.977 60.5602 109.913 60.6106 109.869 60.6768C109.824 60.743 109.802 60.8215 109.805 60.9012C109.705 60.9479 109.619 61.0185 109.553 61.1067C109.487 61.1949 109.444 61.298 109.428 61.4068C109.372 61.4285 109.322 61.4621 109.281 61.5053C109.24 61.5485 109.208 61.6003 109.189 61.6569C109.026 61.6764 109.098 61.8384 109.031 61.9167C108.682 62.4945 108.391 63.1052 108.162 63.7401C107.412 65.6644 107.249 67.7683 107.693 69.7855C108.161 71.9033 109.339 73.7965 111.031 75.1492M111.434 65.7418C111.588 65.7342 111.759 65.7473 111.775 65.5244C111.782 65.4914 111.783 65.457 111.776 65.4239C111.768 65.3908 111.754 65.3597 111.733 65.3329C111.712 65.3062 111.685 65.2845 111.655 65.2695C111.625 65.2544 111.591 65.2464 111.558 65.246C112.09 63.8134 113.03 62.5684 114.26 61.6645C114.28 61.6471 114.337 61.6732 114.378 61.6786C114.963 61.497 115.423 60.9632 116.107 61.0599C117.063 60.9064 118.041 61.1192 118.847 61.6558C118.855 61.8363 118.979 61.7645 119.071 61.758C119.527 62.1008 119.912 62.5296 120.203 63.0203C120.176 63.1084 120.232 63.1367 120.301 63.1541C120.656 63.7999 120.875 64.512 120.943 65.246C120.943 65.3265 120.943 65.408 120.937 65.4885C120.732 65.6603 120.866 65.706 121.03 65.7473L121.076 65.7332L121.028 66.4845C120.756 66.5486 120.734 66.6758 120.934 66.8596C120.963 67.196 120.91 67.5345 120.78 67.8458C120.606 67.8795 120.49 67.9328 120.689 68.0991C120.703 68.2332 120.688 68.3686 120.646 68.4967C120.604 68.6247 120.536 68.7426 120.446 68.8428C120.133 68.8885 120.158 69.0733 120.262 69.2919L120.045 69.8225L119.904 69.9497C119.7 69.9806 119.515 70.0872 119.385 70.2483C119.256 70.4094 119.192 70.6133 119.206 70.8195L118.803 71.3099L118.325 71.7024C118.309 71.6922 118.292 71.6854 118.273 71.6826C118.254 71.6798 118.235 71.681 118.217 71.6861C118.108 71.7372 117.746 71.5437 117.969 71.933L117.452 72.2744C117.363 72.3026 117.243 72.2744 117.205 72.4005L116.849 72.4364C116.641 72.2189 116.523 72.2754 116.48 72.5571L116.351 72.6451C115.852 72.7842 115.328 72.8147 114.816 72.7346C114.304 72.6545 113.815 72.4657 113.382 72.1809C113.406 72.0721 113.543 71.9688 113.422 71.8623C113.302 71.7557 113.205 71.8307 113.133 71.9427C112.265 71.197 111.639 70.2087 111.336 69.1045C111.033 68.0003 111.066 66.8305 111.431 65.7451" fill="#1C9DC9"/>
  <path d="M87.0838 61.2738C87.0898 62.4084 87.1694 63.5412 87.322 64.6646C87.7523 67.0399 88.8974 69.2107 90.5913 70.8624C90.6168 70.93 90.6434 70.9943 90.7327 70.9732C91.5656 71.7746 92.5503 72.3853 93.6234 72.7662C94.6965 73.147 95.8343 73.2896 96.9634 73.1845C98.0926 73.0795 99.1882 72.7293 100.18 72.1565C101.171 71.5836 102.036 70.8008 102.72 69.8585C102.752 69.863 102.785 69.8597 102.816 69.8488C102.847 69.8379 102.876 69.8197 102.899 69.7955C102.922 69.7714 102.939 69.742 102.95 69.7097C102.96 69.6774 102.963 69.6429 102.959 69.6091C104.552 67.4946 105.373 64.8597 105.275 62.1736C105.277 60.7886 105.03 59.4155 104.549 58.1245C104.58 57.9327 104.399 57.8319 104.366 57.6679C104.096 56.8738 103.696 56.1344 103.183 55.4827C103.121 55.3121 102.999 55.1719 102.843 55.0893C102.808 54.779 102.569 54.6383 102.366 54.4687L101.981 54.0576C101.68 53.7015 101.315 53.4095 100.908 53.1977C100.878 53.1225 100.828 53.0582 100.763 53.0132C100.698 52.9681 100.622 52.9444 100.544 52.945C99.7455 52.3659 98.835 51.9763 97.8765 51.8037C97.6818 51.8979 97.5723 51.643 97.3926 51.6773L96.5556 51.694C96.4226 51.4801 96.2365 51.5931 96.061 51.5987C94.7956 51.6402 93.5544 51.9705 92.4248 52.5661L92.0675 52.729C91.9473 52.7378 91.7888 52.6182 91.7282 52.832C91.7559 53.1323 91.4613 53.1556 91.3368 53.3251C91.2583 53.3196 91.1801 53.341 91.1143 53.386C91.0484 53.431 90.9985 53.4972 90.972 53.5745L89.7628 54.8344C89.6078 54.9225 89.4824 55.0578 89.4033 55.2223C89.1622 55.4886 88.9597 55.7902 88.8024 56.1176L88.6057 56.1675L88.6791 56.2362C88.683 56.2772 88.6794 56.3185 88.6684 56.3581L88.4557 56.7404C87.8136 57.998 87.3911 59.3645 87.2082 60.7762C87.0402 60.7917 86.9094 60.8615 86.8806 61.051C86.8572 61.2084 86.9551 61.2594 87.0848 61.2727M90.8806 61.4056C90.8691 60.7896 90.9706 60.1769 91.1794 59.6005C91.0731 59.3789 91.0465 59.1927 91.3517 59.1395L91.4846 59.0099C91.6091 58.9966 91.7665 59.0376 91.8037 58.8514C91.8324 58.6985 91.7261 58.6519 91.6048 58.6298C91.9879 57.8536 92.5137 57.1635 93.1523 56.5986C93.7424 56.1337 94.3973 55.7656 95.0943 55.5071L95.5729 55.4638C95.7069 55.2422 95.8919 55.3973 96.0621 55.3829C96.2322 55.3685 96.4216 55.2644 96.5556 55.4738C96.8785 55.4383 97.2051 55.4761 97.5127 55.5846L97.8765 55.7109L98.1083 55.7586L98.4763 55.998C99.5992 56.7144 100.475 57.7832 100.979 59.0508C100.881 59.2725 100.855 59.4653 101.165 59.5063C101.609 60.713 101.764 62.0141 101.617 63.2972C101.497 63.3149 101.392 63.3515 101.404 63.51C101.415 63.6341 101.511 63.6563 101.604 63.6751C101.604 63.8059 101.442 63.9034 101.528 64.0541C101.387 64.3275 101.307 64.6305 101.294 64.9406L101.139 65.4304C101.073 65.4514 101.017 65.4791 101.046 65.57C101.014 65.6664 101.046 65.8016 100.908 65.8348C100.633 65.7761 100.62 65.8071 100.717 66.3069C100.293 67.1993 99.6464 67.9566 98.8453 68.4999C98.7427 68.5198 98.645 68.5612 98.5582 68.6216C98.4714 68.682 98.3972 68.7601 98.3401 68.8512C98.1508 68.9398 97.9934 69.1038 97.7701 69.1083L97.6361 69.2069C97.1713 69.4021 96.6726 69.4949 96.1716 69.4795C95.6707 69.464 95.1782 69.3407 94.7252 69.1171C94.7188 68.9587 94.7571 68.7736 94.5327 68.7381C94.4995 68.7273 94.4643 68.7248 94.4299 68.7309C94.3956 68.7369 94.3631 68.7513 94.3351 68.7729C94.3071 68.7945 94.2844 68.8227 94.2689 68.8552C94.2533 68.8876 94.2453 68.9235 94.2456 68.9598C92.9267 68.1921 91.9062 66.969 91.3602 65.5013C91.0916 64.8368 90.9161 64.1356 90.8391 63.4191C90.8391 63.3349 90.8391 63.2507 90.8327 63.1665C90.7151 62.7145 90.689 62.2421 90.7561 61.7791C90.6764 61.6095 90.8253 61.522 90.8816 61.4012" fill="#1C9DC9"/>
  <path d="M122.352 94.595C121.876 93.1602 121.195 91.8019 120.328 90.5627C118.818 88.2009 117.299 85.8435 115.773 83.4903C114.332 81.2711 112.976 78.98 110.768 77.3823L110.632 77.2869C109.711 76.6272 108.735 76.0479 107.715 75.5553L107.339 75.356L107.104 75.3099L106.245 74.9884C104.964 74.6502 103.656 74.4215 102.337 74.3047C101.246 74.2842 100.154 74.3429 99.072 74.4805C96.0161 74.945 93.178 76.3389 90.9446 78.4721C89.6199 79.775 88.4901 81.2615 87.5899 82.8859C86.4456 84.7076 85.2486 86.496 84.1236 88.3295C83.1135 89.9754 81.9766 91.5389 81.0781 93.2587C80.8924 93.2716 80.7163 93.2898 80.9557 93.5095C80.3454 95.3158 80.2185 97.2499 80.5875 99.1202C81.067 101.176 82.1984 103.023 83.8134 104.386C84.9373 105.353 86.2821 106.029 87.7295 106.356C89.216 106.717 90.7677 106.717 92.2543 106.356C93.9064 105.974 95.3674 105.057 97.0581 104.791C98.9396 104.334 100.883 104.187 102.812 104.356C102.914 104.362 103.015 104.362 103.117 104.356C104.106 104.431 105.088 104.582 106.054 104.809C107.732 105.175 109.251 105.988 110.893 106.449C111.077 106.861 111.149 106.877 111.382 106.571C112.546 106.722 113.728 106.674 114.876 106.429C116.237 106.166 117.523 105.607 118.644 104.794C119.765 103.98 120.694 102.931 121.365 101.721C122.01 100.595 122.407 99.3436 122.528 98.0519C122.689 96.9772 122.602 95.8801 122.276 94.8436C122.456 94.8072 122.557 94.745 122.354 94.5896M118.138 99.9539C117.7 100.78 117.061 101.483 116.279 101.998C115.498 102.512 114.598 102.822 113.665 102.899C113.32 102.995 112.959 103.027 112.602 102.993C112.581 102.806 112.671 102.564 112.357 102.53C112.097 102.501 111.973 102.608 111.992 102.871C110.684 102.656 109.536 101.97 108.263 101.636C106.397 101.112 104.481 100.782 102.546 100.652C101.406 100.604 100.264 100.627 99.1268 100.721C97.9472 100.808 96.7802 101.02 95.6454 101.353C94.3862 101.723 93.1635 102.211 91.9172 102.61C91.1154 102.924 90.251 103.047 89.3934 102.967C88.5358 102.887 87.7089 102.607 86.9791 102.151C86.2279 101.702 85.5832 101.096 85.0894 100.375C84.5957 99.6531 84.2647 98.8332 84.1193 97.9715C83.8715 96.3612 84.2624 94.7178 85.2089 93.3905C86.4209 91.5185 87.6361 89.6486 88.8008 87.7444C89.9656 85.8402 91.2237 84.0346 92.4775 82.2087C92.837 81.7553 93.2295 81.3291 93.652 80.9335L93.784 80.8403C95.3965 79.3712 97.418 78.4257 99.5809 78.1292C101.848 77.7786 104.169 78.0696 106.278 78.9693C107.585 79.5439 108.769 80.3622 109.768 81.3803C110.861 82.582 111.809 83.906 112.596 85.3259C112.899 85.8092 113.186 86.3021 113.482 86.7907C113.457 86.8754 113.493 86.8979 113.574 86.8893C114.816 88.8181 116.103 90.7084 117.266 92.6854C117.634 93.1711 117.959 93.6878 118.237 94.2296C118.211 94.3164 118.266 94.3442 118.335 94.3614C118.778 95.2335 118.992 96.2037 118.957 97.181C118.921 98.1583 118.638 99.1105 118.133 99.9486" fill="#1C9DC9"/>
</svg>