<svg xmlns="http://www.w3.org/2000/svg" width="180" height="180" viewBox="0 0 180 180" fill="none">
  <path d="M41.0957 35.449L40.8858 35.6414L40.7998 35.4334L41.0957 35.449Z" fill="#1C9DC9"/>
  <path d="M41.068 71.6737L41.3496 71.4304C41.3373 71.6093 41.2697 71.7205 41.068 71.6737Z" fill="#1C9DC9"/>
  <path d="M60.3037 106.852L59.8942 107.146C59.9546 106.938 60.0355 106.759 60.3037 106.852Z" fill="#1C9DC9"/>
  <path d="M39.1544 91.7115C38.9977 91.2362 39.2752 91.1333 39.652 91.1145C39.6622 91.465 39.522 91.6844 39.1544 91.7115Z" fill="#1C9DC9"/>
  <path d="M37.1322 92.586C37.1947 92.2064 37.4507 92.2657 37.7056 92.3239C37.6032 92.6078 37.5643 93.0436 37.1322 92.586Z" fill="#1C9DC9"/>
  <path d="M161.672 20.3185C160.679 18.5154 159.021 18.0204 157.157 18.0193C126.18 18.0121 77.7272 18.0141 45.5209 18.0027C41.067 17.9937 36.6131 18.0072 32.1592 18.0433C31.2474 18.0592 30.3745 18.4218 29.713 19.0594C29.0514 19.697 28.6493 20.5634 28.5859 21.4874C28.6012 25.231 28.5234 28.9829 28.6483 32.7255C28.6985 34.2438 28.2572 34.6566 26.8053 34.5557C22.8849 34.2833 19.6207 35.3679 17.9999 39.438V40.2949C18.3655 40.5809 18.3624 40.8658 17.9999 41.1518V41.7227C18.3624 42.0076 18.3655 42.2936 17.9999 42.5796V43.4364C18.3798 44.5401 19.0082 45.5384 19.8352 46.3518C20.6621 47.1651 21.6647 47.771 22.763 48.1212C24.2739 48.4149 25.8191 48.4812 27.349 48.3177C28.3483 48.3 28.6442 48.6297 28.6227 49.6259C28.5664 52.2412 28.5552 54.8607 28.6279 57.475C28.6565 58.5149 28.4139 58.881 27.3234 58.8373C25.2211 58.595 23.0943 58.9639 21.1904 59.9011C20.4775 60.3044 19.8529 60.8508 19.3546 61.5071C18.8563 62.1634 18.4946 62.9158 18.2917 63.7185C18.2252 63.9265 18.3102 64.2052 18.004 64.2884V64.5744C18.3696 64.8603 18.3665 65.1453 18.004 65.4312V66.0021C18.3665 66.2881 18.3696 66.573 18.004 66.859V67.4299C18.9255 69.7884 20.2986 71.8141 22.8357 72.4214C24.4029 72.672 25.9937 72.7345 27.5753 72.6076C28.3534 72.6003 28.6391 72.802 28.6258 73.6381C28.5797 76.4458 28.5674 79.2535 28.6258 82.0529C28.6473 83.0221 28.2378 83.1199 27.4576 83.1074C25.3558 82.8921 23.2351 83.2377 21.305 84.1098C20.5344 84.5072 19.862 85.0759 19.3378 85.7738C18.8136 86.4717 18.4511 87.2806 18.2774 88.1405C18.2313 88.3266 18.2272 88.5117 18.004 88.5679V88.8528C18.3696 89.1388 18.3665 89.4237 18.004 89.7097V90.2806C18.3665 90.5665 18.3696 90.8515 18.004 91.1374V91.7083C18.8109 93.2318 19.4375 94.801 21.005 95.8627C22.5726 96.9244 24.2036 96.8818 25.891 96.8964C28.6084 96.9192 28.6094 96.9036 28.6094 99.623C28.6094 101.807 28.5695 103.996 28.6279 106.181C28.6524 107.093 28.4231 107.428 27.4678 107.391C25.769 107.247 24.0585 107.412 22.417 107.879C21.3539 108.171 20.396 108.767 19.6573 109.597C18.9187 110.427 18.4304 111.455 18.2508 112.558C18.2283 112.662 18.089 112.752 18.004 112.846V113.132C18.3696 113.418 18.3665 113.703 18.004 113.989V114.56C18.3665 114.846 18.3696 115.131 18.004 115.417V115.988C18.579 117.498 19.4868 118.855 20.6579 119.954C22.2439 121.178 24.0542 121.192 25.8972 121.186C28.6074 121.178 28.6074 121.186 28.6074 123.916V128.767C28.6074 131.644 28.6074 131.634 25.6975 131.657C25.0023 131.647 24.3077 131.698 23.6211 131.809C22.3482 132.006 21.1526 132.553 20.1628 133.389C19.1731 134.226 18.4267 135.321 18.004 136.556V137.413C18.3696 137.699 18.3665 137.984 18.004 138.27V138.841C18.3665 139.126 18.3696 139.411 18.004 139.697V140.554C18.7961 142.554 20.2884 144.186 22.1938 145.136C22.4508 145.046 22.762 144.806 22.7856 145.358C24.2835 145.392 25.7845 145.499 27.2784 145.437C28.292 145.394 28.6555 145.623 28.6371 146.747C28.5726 150.553 28.6422 154.362 28.6371 158.169C28.6138 158.671 28.6933 159.172 28.8705 159.641C29.0478 160.11 29.3189 160.537 29.6668 160.894C30.0147 161.251 30.4317 161.531 30.8916 161.716C31.3514 161.901 31.8441 161.987 32.3384 161.969C56.372 161.969 93.1806 161.975 119.201 161.977C119.341 161.992 119.483 162 119.624 162C131.974 161.969 144.322 161.989 156.67 161.965C158.011 161.965 159.39 162.028 160.554 161.04C161.125 160.557 161.216 159.667 162 159.408V21.1567C161.511 21.0319 161.814 20.5837 161.669 20.3185M24.4043 44.025C24.1066 44.0316 23.8108 43.9748 23.536 43.8581C23.2612 43.7414 23.0135 43.5675 22.809 43.3476C22.6045 43.1277 22.4476 42.8668 22.3485 42.5815C22.2494 42.2962 22.2103 41.9931 22.2337 41.6915C22.1764 39.9403 22.8624 38.9358 24.3521 38.8671C26.3118 38.7767 28.2777 38.8203 30.2405 38.8141C32.4377 38.8079 34.635 38.7954 36.8322 38.8141C38.8134 38.8339 39.6551 39.6263 39.6602 41.4066C39.6653 43.2378 38.8411 44.0354 36.8855 44.051C34.8756 44.0666 32.8647 44.051 30.8548 44.051V44.0271C28.7046 44.0271 26.5545 44.0562 24.4043 44.0157M24.6378 68.3055C24.3053 68.341 23.9693 68.2991 23.6551 68.1831C23.341 68.067 23.057 67.8798 22.8247 67.6356C22.5924 67.3915 22.4179 67.0968 22.3144 66.774C22.211 66.4511 22.1813 66.1086 22.2276 65.7723C22.2132 64.0367 22.9852 63.1393 24.6767 63.1112C27.6214 63.0634 30.5681 63.0395 33.5118 63.105C35.0251 63.1383 36.565 62.7868 38.0568 63.3608C39.48 63.9088 39.8742 64.5515 39.6489 66.2964C39.631 66.5785 39.5584 66.8542 39.4355 67.1078C39.3125 67.3613 39.1415 67.5878 38.9323 67.7742C38.7231 67.9606 38.4798 68.1033 38.2162 68.1941C37.9527 68.2849 37.6741 68.3221 37.3964 68.3034C35.2002 68.3533 33.0019 68.317 30.8046 68.317C28.7476 68.317 26.6907 68.343 24.6337 68.3055M24.519 92.5912C24.2097 92.6115 23.8997 92.5641 23.6099 92.4521C23.3202 92.3401 23.0576 92.1662 22.8398 91.9422C22.6221 91.7182 22.4542 91.4492 22.3477 91.1535C22.2412 90.8579 22.1985 90.5424 22.2224 90.2286C22.1733 88.4919 22.8767 87.45 24.3675 87.4209C28.6678 87.3512 32.9681 87.2597 37.2592 87.4354C39.0141 87.5072 39.8885 87.9637 39.651 91.1094C39.6612 91.4598 39.5209 91.6803 39.1544 91.7063C38.97 91.9076 38.7453 92.0664 38.4954 92.1721C38.2455 92.2777 37.9762 92.3277 37.7056 92.3187C37.6032 92.6026 37.5643 93.0384 37.1322 92.5808C32.9282 92.5808 28.7241 92.6068 24.52 92.587M24.4494 116.865C24.1399 116.876 23.8319 116.818 23.5462 116.697C23.2604 116.576 23.0037 116.394 22.7933 116.163C22.5829 115.932 22.4238 115.658 22.3267 115.36C22.2296 115.061 22.1969 114.745 22.2306 114.432C22.1958 112.718 22.9217 111.721 24.4484 111.692C27.907 111.626 31.3667 111.628 34.8254 111.671C35.9255 111.518 37.0453 111.605 38.109 111.929C39.4401 112.532 39.907 113.215 39.6448 114.914C39.592 115.481 39.3217 116.006 38.8922 116.373C38.4627 116.741 37.9083 116.922 37.3483 116.879C35.151 116.912 32.9538 116.888 30.7565 116.888C30.7565 116.888 30.7565 116.881 30.7565 116.877C28.6534 116.877 26.5483 116.907 24.4463 116.867M30.7125 141.179V141.151C28.6084 141.151 26.5043 141.182 24.4002 141.14C23.0139 141.112 22.2501 140.185 22.2245 138.666C22.203 137.022 22.9054 136.046 24.3511 135.983C26.3118 135.897 28.2777 135.939 30.2415 135.934C32.4387 135.934 34.637 135.916 36.8343 135.934C38.839 135.954 39.65 136.717 39.6561 138.52C39.6622 140.35 38.837 141.152 36.8834 141.17C34.8254 141.189 32.7684 141.17 30.7104 141.17M157.8 156.548C157.8 157.491 157.55 157.713 156.645 157.707C150.224 157.667 143.802 157.678 137.381 157.689C133.58 157.695 129.779 157.706 125.979 157.721C125.738 157.697 125.497 157.686 125.256 157.687H34.5909C34.2631 157.67 33.9346 157.673 33.607 157.693C32.9927 157.761 32.8084 157.523 32.8135 156.897C32.8401 153.375 32.8401 149.852 32.8135 146.33C32.8084 145.637 33.0367 145.426 33.7063 145.442C35.1111 145.475 36.5189 145.467 37.9227 145.407C39.2967 145.351 40.6061 144.8 41.6168 143.853C42.5151 143.042 43.1947 142.011 43.5914 140.859C43.9881 139.706 44.0887 138.47 43.8837 137.267C43.6587 135.963 43.0532 134.758 42.1457 133.807C41.2382 132.857 40.0705 132.205 38.794 131.937C37.1474 131.664 35.4765 131.574 33.8107 131.667C32.9916 131.667 32.7951 131.408 32.8084 130.618C32.8524 128.001 32.9036 125.378 32.793 122.765C32.7367 121.434 33.137 121.084 34.4107 121.14C35.9804 121.363 37.5768 121.29 39.1206 120.926C40.6044 120.489 41.8917 119.54 42.761 118.243C43.6303 116.945 44.0273 115.381 43.8837 113.819C43.828 112.36 43.2956 110.961 42.3704 109.843C41.4453 108.725 40.1802 107.952 38.7745 107.646C37.1238 107.418 35.4574 107.33 33.7923 107.383C33.094 107.364 32.7951 107.223 32.8053 106.438C32.8452 103.583 32.8534 100.726 32.8053 97.8708C32.7899 96.9858 33.1575 96.8621 33.8896 96.8839C35.2007 96.9474 36.5143 96.9377 37.8244 96.8548C38.8118 96.7663 39.7676 96.4562 40.6228 95.9471C41.4779 95.4379 42.2111 94.7422 42.7695 93.9103C43.3278 93.0784 43.6974 92.131 43.8514 91.1365C44.0055 90.1419 43.9403 89.125 43.6605 88.1592C43.1214 86.5944 42.2427 85.1729 41.0895 83.9996L40.8848 84.1899L40.8008 83.9819C40.0933 84.0214 39.5476 83.5296 38.8831 83.3663C37.1914 83.0873 35.4749 82.9953 33.7637 83.0918C33.177 83.0762 32.8002 83.0356 32.8084 82.2713C32.8411 79.3253 32.8319 76.3793 32.8084 73.4322C32.8084 72.8332 32.9865 72.6003 33.608 72.6003C36.1278 72.6086 38.6875 72.8883 41.0578 71.6644L41.3383 71.421C42.4515 70.4429 43.2546 69.1519 43.6464 67.7108C44.0381 66.2697 44.001 64.7431 43.5397 63.3234C42.9779 61.9609 42.1408 60.7333 41.0824 59.7201L40.8725 59.9115L40.7865 59.7035C38.5795 58.8864 36.2212 58.5781 33.8824 58.8009C33.2978 58.8217 32.7858 58.8768 32.7992 57.969C32.8411 55.0188 32.8299 52.0676 32.7992 49.1163C32.794 48.4924 32.9875 48.2948 33.6019 48.3167C34.8183 48.3614 36.0387 48.351 37.2561 48.3219C38.2265 48.3779 39.1958 48.1936 40.0805 47.7847C40.9652 47.3759 41.7387 46.7547 42.3346 45.9748C43.0456 45.0707 43.5335 44.007 43.7576 42.8724C43.9816 41.7378 43.9354 40.5653 43.6226 39.4526C43.082 37.9369 42.2132 36.5637 41.0803 35.4345L40.8704 35.6268L40.7844 35.4189C38.5836 34.5854 36.2224 34.2818 33.8865 34.5318C33.0019 34.5817 32.7807 34.276 32.793 33.4108C32.8391 30.13 32.8626 26.848 32.7828 23.5682C32.7561 22.4836 33.049 22.2465 34.0872 22.2569C36.4995 22.2805 38.9121 22.2919 41.325 22.2912C41.5503 22.3058 41.7776 22.3016 42.0049 22.2912C45.0765 22.2912 48.1482 22.2867 51.2198 22.2777C51.3222 22.2777 51.4246 22.2777 51.5178 22.2684C83.081 22.2871 127.542 22.2829 156.371 22.2767C157.182 22.2767 157.804 22.1342 157.804 23.4403C157.762 67.8091 157.758 112.176 157.791 156.54" fill="#1C9DC9"/>
  <path d="M68.9238 89.4611C71.1666 88.9357 73.1352 87.5783 74.4436 85.6551C75.4406 84.2953 76.1403 82.735 76.4959 81.0785C76.8515 79.422 76.8549 77.7075 76.5057 76.0496C76.2146 74.1496 75.5146 72.3381 74.4554 70.7443C73.3962 69.1505 72.0039 67.8136 70.3777 66.8289C69.2057 66.0505 67.888 65.5264 66.5072 65.2895C65.1264 65.0526 63.7123 65.1079 62.3536 65.452C60.9303 65.8184 59.6073 66.5076 58.4839 67.4677C57.3605 68.4279 56.4659 69.6341 55.8673 70.9957C55.4245 72.086 55.0407 73.2 54.7174 74.3327V78.4226H54.8567C54.8527 78.6202 54.8647 78.8177 54.8925 79.0133C55.5764 82.4945 57.5407 85.5802 60.3857 87.6423C61.5937 88.5557 62.9827 89.1917 64.4565 89.5063C65.9304 89.8208 67.4539 89.8065 68.9218 89.4642M63.3406 83.516C62.3877 82.8586 61.5811 82.0056 60.9729 81.0121C60.3646 80.0185 59.9682 78.9065 59.8092 77.7477C59.4416 75.4153 59.7867 73.0766 61.7382 71.4044C62.2087 70.9736 62.7689 70.6563 63.377 70.4763C63.9851 70.2962 64.6254 70.258 65.2501 70.3645C68.844 70.8969 70.4566 73.3636 71.4497 76.4999C71.6009 77.2125 71.6849 77.9382 71.7006 78.667C71.4508 80.856 70.8549 82.9306 68.6156 84.0401C67.7766 84.4668 66.8357 84.6433 65.9019 84.5493C64.9682 84.4552 64.0798 84.0945 63.3396 83.5088" fill="#1C9DC9"/>
  <path d="M140.306 85.7331C140.094 84.2607 139.542 82.8601 138.695 81.6455C137.848 80.4309 136.731 79.4367 135.434 78.744C135.262 78.547 135.021 78.4249 134.763 78.4029C134.684 78.1856 134.455 78.1751 134.299 78.1211C132.268 77.4522 130.101 77.3321 128.011 77.7727C126.749 77.9865 125.551 78.4886 124.508 79.241C124.386 79.2795 124.218 79.241 124.178 79.4272C123.556 79.7413 122.991 80.1609 122.508 80.6678C122.336 80.6418 122.294 80.7998 122.201 80.8893L121.651 81.4851C120.633 82.501 119.827 83.7152 119.283 85.0551C119.106 85.1133 119.161 85.2776 119.128 85.4014C118.743 86.0367 118.458 86.7294 118.284 87.4541C118.05 87.4999 117.89 87.5727 118.162 87.8025C118.094 88.3682 118.024 88.9339 117.952 89.4996C117.381 89.7523 117.356 89.8532 117.779 90.1807C117.734 92.8782 118.57 95.5148 120.157 97.6784C120.375 98.0212 120.657 98.317 120.987 98.5488C122.028 99.5826 123.284 100.365 124.663 100.837C126.042 101.309 127.509 101.46 128.953 101.276C131.564 100.991 134.014 99.8545 135.935 98.0361C136.208 97.8569 136.441 97.6213 136.619 97.3446C137.101 96.9761 137.51 96.5172 137.822 95.9927C139.131 94.2203 140.04 92.1771 140.484 90.0081H140.623V86.2645C140.532 86.2095 140.454 86.1327 140.398 86.0407C140.342 85.9487 140.309 85.8442 140.301 85.7362M132.735 94.1344C132.61 94.098 132.575 94.1864 132.539 94.2769C131.726 95.0757 130.725 95.6503 129.632 95.9464C128.539 96.2425 127.39 96.2502 126.293 95.9688C125.863 95.8291 125.444 95.6589 125.038 95.4592L124.526 94.9393C123.99 94.4095 123.567 93.7734 123.283 93.0706C122.999 92.3677 122.861 91.613 122.876 90.8535C122.921 88.8231 123.673 86.8745 125 85.3546C125.996 84.0907 127.384 83.2078 128.939 82.8505C129.734 82.5941 130.577 82.5295 131.401 82.6618C132.225 82.7941 133.008 83.1197 133.686 83.6128C134.62 84.3853 135.236 85.4836 135.415 86.6929C135.62 88.0622 135.483 89.4621 135.015 90.7631C134.547 92.0641 133.764 93.2243 132.737 94.1365" fill="#1C9DC9"/>
  <path d="M107.222 79.7911C107.286 79.9815 107.427 79.9503 107.572 79.9211C108.872 80.7913 110.354 81.3413 111.899 81.5274C113.445 81.7136 115.012 81.5307 116.476 80.9933C116.64 80.9236 116.886 81.0869 116.98 80.8217C117.772 80.577 118.525 80.2191 119.218 79.7589C120.915 78.7066 122.34 77.2563 123.372 75.5297C123.577 75.4953 123.523 75.3217 123.551 75.1927C123.648 75.1461 123.73 75.0725 123.787 74.9805C123.845 74.8885 123.875 74.7818 123.876 74.6728C124.08 74.6374 124.028 74.4648 124.056 74.3359C124.412 73.8607 124.666 73.3147 124.8 72.7334C124.841 72.5098 125.092 72.3725 125.045 72.1095C125.334 71.942 125.147 71.654 125.214 71.4283C125.411 71.369 125.373 71.2203 125.337 71.08C125.63 70.3241 125.76 69.513 125.718 68.7017C125.908 68.6414 125.879 68.4937 125.846 68.3534C125.993 66.5516 125.77 64.7382 125.189 63.0291C124.454 60.4049 122.75 58.17 120.432 56.7897C119.335 56.1897 118.354 55.2715 116.974 55.3755C116.974 55.0864 116.948 54.7942 116.596 54.7515C116.294 54.7151 116.167 54.9252 116.135 55.2049C115.717 55.2143 115.3 55.2403 114.883 55.2309C113.234 55.222 111.604 55.5823 110.108 56.2861C108.613 56.99 107.288 58.0201 106.229 59.3031L105.893 59.6474C105.792 59.6851 105.704 59.7545 105.644 59.8456C105.584 59.9368 105.553 60.045 105.557 60.1548C105.422 60.2191 105.305 60.3164 105.215 60.4379C105.126 60.5595 105.068 60.7016 105.045 60.8516C104.97 60.8817 104.902 60.9282 104.846 60.9878C104.79 61.0474 104.748 61.1188 104.722 61.1968C104.501 61.2228 104.598 61.4474 104.507 61.5545C104.035 62.3508 103.642 63.1923 103.332 64.0669C102.313 66.7172 102.092 69.615 102.696 72.3933C103.331 75.3088 104.932 77.9147 107.23 79.7766M107.773 66.8341C107.983 66.8237 108.209 66.8424 108.236 66.5367C108.246 66.4911 108.247 66.4437 108.237 66.398C108.227 66.3523 108.207 66.3094 108.179 66.2725C108.15 66.2357 108.114 66.2058 108.073 66.1851C108.031 66.1644 107.986 66.1534 107.94 66.1529C108.664 64.1801 109.94 62.4655 111.612 61.2207C111.638 61.1968 111.714 61.2322 111.771 61.2405C112.566 60.9899 113.19 60.2557 114.121 60.3888C115.419 60.1773 116.749 60.4703 117.844 61.2093C117.855 61.4588 118.022 61.358 118.151 61.3497C118.77 61.822 119.291 62.4127 119.687 63.0884C119.65 63.21 119.726 63.2485 119.82 63.2735C120.302 64.1631 120.599 65.1439 120.692 66.155C120.692 66.2663 120.686 66.3776 120.684 66.4888C120.406 66.7249 120.588 66.7935 120.811 66.8455L120.874 66.8257L120.808 67.8604C120.437 67.9478 120.409 68.1235 120.679 68.3804C120.721 68.8433 120.65 69.3095 120.474 69.7385C120.239 69.7842 120.081 69.8581 120.352 70.0869C120.371 70.2716 120.35 70.4581 120.293 70.6344C120.237 70.8108 120.144 70.9732 120.022 71.1112C119.596 71.1746 119.63 71.4294 119.771 71.7289L119.479 72.4568L119.288 72.6325C119.01 72.6752 118.758 72.8225 118.583 73.0451C118.407 73.2676 118.321 73.5491 118.341 73.8336L117.794 74.5085L117.146 75.0482C117.124 75.0344 117.1 75.0253 117.075 75.0215C117.049 75.0177 117.024 75.0194 116.999 75.0264C116.845 75.096 116.359 74.8309 116.663 75.3674L115.961 75.8375C115.84 75.877 115.677 75.8375 115.626 76.0111L115.143 76.0611C114.86 75.7616 114.702 75.8396 114.642 76.2264L114.466 76.347C113.788 76.5384 113.077 76.5804 112.382 76.4701C111.687 76.3598 111.022 76.0998 110.434 75.7075C110.467 75.5619 110.652 75.4153 110.488 75.2697C110.325 75.1241 110.195 75.2271 110.094 75.3799C107.617 73.6121 106.828 69.5638 107.781 66.8403" fill="#1C9DC9"/>
  <path d="M75.4951 61.3705C75.5033 62.9039 75.6134 64.435 75.8248 65.9533C76.4215 69.1631 78.0091 72.0966 80.3575 74.3286C80.3923 74.4201 80.4292 74.5064 80.5531 74.4731C85.6776 79.1724 92.9421 78.2417 97.1717 72.9663C97.2167 72.9721 97.2623 72.9673 97.3051 72.9524C97.3479 72.9375 97.3868 72.9129 97.4188 72.8804C97.4508 72.8479 97.4751 72.8083 97.4898 72.7648C97.5045 72.7213 97.5091 72.675 97.5035 72.6294C99.7118 69.7722 100.85 66.2117 100.715 62.5819C100.717 60.7106 100.375 58.8553 99.7079 57.111C99.7499 56.8521 99.5031 56.7159 99.454 56.4944C99.0799 55.4213 98.5257 54.4221 97.8158 53.5411C97.7287 53.3107 97.5605 53.1213 97.3437 53.0097C97.2956 52.5938 96.9639 52.4003 96.6813 52.1716L96.1468 51.6163C95.7295 51.1348 95.2243 50.74 94.6591 50.4536C94.6184 50.3521 94.5486 50.2654 94.4588 50.2046C94.369 50.1438 94.2633 50.1117 94.1554 50.1126C93.0485 49.33 91.7861 48.8036 90.4571 48.5704C90.1878 48.6973 90.0353 48.3531 89.7854 48.3999L88.6244 48.4227C88.4411 48.1347 88.1769 48.2865 87.9394 48.2938C86.1854 48.3493 84.4648 48.7948 82.8988 49.5989L82.4032 49.8193C82.2363 49.8318 82.0172 49.6623 81.9322 49.9597C81.9701 50.3653 81.5626 50.3975 81.3906 50.6263C81.2817 50.6189 81.1734 50.6478 81.0821 50.7086C80.9908 50.7694 80.9216 50.8588 80.8848 50.9632L79.2077 52.6665C78.9933 52.7844 78.8194 52.9658 78.7091 53.1865C78.3746 53.5465 78.0938 53.9543 77.8756 54.3969L77.6023 54.4635L77.7046 54.556C77.7099 54.6113 77.7047 54.6671 77.6893 54.7203L77.3975 55.2403C76.5073 56.9395 75.9218 58.786 75.6681 60.6935C75.4357 60.7153 75.2535 60.8079 75.2135 61.0647C75.1808 61.2727 75.3159 61.3465 75.4961 61.3653M80.7589 61.5452C80.7416 60.7129 80.8805 59.885 81.1684 59.1056C81.0261 58.8102 80.9841 58.5544 81.407 58.4816L81.5903 58.3059C81.7633 58.2882 81.9814 58.3444 82.0305 58.0917C82.0705 57.8837 81.922 57.8223 81.7551 57.7943C82.2876 56.7448 83.0182 55.812 83.9053 55.0489C84.7236 54.4205 85.6317 53.9229 86.5981 53.5733L87.2616 53.5141C87.4469 53.2166 87.7111 53.4236 87.9394 53.4101C88.1677 53.3965 88.438 53.2499 88.6233 53.5328C89.0723 53.4836 89.5265 53.534 89.9544 53.6804L90.4581 53.851L90.7796 53.9155L91.2916 54.2399C92.848 55.2082 94.0624 56.6523 94.7605 58.3652C94.7994 58.5607 94.997 58.6875 95.0195 58.8851C94.997 58.6823 94.7994 58.5555 94.7595 58.3652C94.6243 58.6667 94.5874 58.9246 95.0175 58.9808C95.6327 60.6113 95.8478 62.3694 95.6441 64.1033C95.4782 64.1272 95.3369 64.1761 95.3513 64.3903C95.3666 64.5577 95.4977 64.5889 95.6287 64.6139C95.6287 64.7917 95.4055 64.9259 95.5264 65.1255C95.3317 65.4934 95.2208 65.901 95.2018 66.3183C95.1335 66.5387 95.0625 66.7592 94.9888 66.9797C94.8967 67.0088 94.8188 67.0452 94.8588 67.1679C94.8148 67.2979 94.8639 67.4798 94.6673 67.5266C94.2864 67.4476 94.269 67.4892 94.4032 68.1641C93.8149 69.3696 92.9189 70.3927 91.8086 71.1268C91.6664 71.1537 91.531 71.2095 91.4107 71.291C91.2903 71.3725 91.1874 71.478 91.1083 71.6009C90.8462 71.7205 90.6281 71.942 90.3179 71.9483L90.1325 72.0814C89.4882 72.3452 88.797 72.4707 88.1025 72.4499C87.4081 72.4291 86.7254 72.2626 86.0974 71.9607C86.0892 71.7465 86.1414 71.497 85.8312 71.4481C85.7854 71.4336 85.737 71.4303 85.6897 71.4382C85.6424 71.4462 85.5976 71.4653 85.5589 71.494C85.5202 71.5227 85.4887 71.5602 85.4668 71.6035C85.4449 71.6468 85.4333 71.6947 85.4329 71.7434C83.6012 70.7074 82.1833 69.054 81.4244 67.0691C81.0557 66.1767 80.8144 65.2355 80.7077 64.2738C80.7077 64.1605 80.7015 64.0461 80.6985 63.9328C80.5371 63.3228 80.5022 62.6854 80.5961 62.0609C80.4855 61.8322 80.6923 61.7136 80.7691 61.5504" fill="#1C9DC9"/>
  <path d="M123.145 107.72C122.492 105.714 121.555 103.816 120.365 102.084C118.29 98.7838 116.204 95.4908 114.109 92.2054C112.129 89.1044 110.265 85.9026 107.232 83.6783L107.047 83.5452C105.782 82.6229 104.441 81.8129 103.039 81.1243L102.527 80.8466L102.204 80.7832L101.02 80.3288C99.26 79.8561 97.4641 79.5363 95.6513 79.3731C94.1529 79.3443 92.6544 79.4264 91.1677 79.6185C86.9715 80.2685 83.0745 82.2162 80.0074 85.1965C78.1879 87.0174 76.6362 89.095 75.3999 91.3652C73.8282 93.9108 72.1849 96.4097 70.6388 98.972C69.2514 101.272 67.6829 103.457 66.4563 105.857C66.2013 105.876 65.9597 105.9 66.2883 106.208C65.4503 108.732 65.2763 111.435 65.7836 114.048C66.4424 116.922 67.9965 119.502 70.2149 121.407C71.7586 122.758 73.6056 123.703 75.5934 124.159C77.6353 124.664 79.7665 124.664 81.8084 124.159C84.0773 123.627 86.0831 122.345 88.4063 121.976C90.7039 121.608 93.6649 120.884 96.3096 121.367C96.4491 121.375 96.5889 121.375 96.7284 121.367C98.0876 121.471 99.4367 121.682 100.764 121.999C103.068 122.51 105.155 123.649 107.411 124.287C107.662 124.863 107.761 124.888 108.081 124.458C109.681 124.669 111.304 124.602 112.881 124.26C114.749 123.891 116.515 123.11 118.054 121.973C119.593 120.836 120.868 119.371 121.789 117.68C122.675 116.106 123.219 114.358 123.386 112.553C123.607 111.051 123.489 109.518 123.04 108.07C123.288 108.019 123.427 107.933 123.143 107.715M117.352 115.212C116.751 116.367 115.873 117.349 114.8 118.069C113.726 118.788 112.491 119.221 111.209 119.328C110.735 119.463 110.24 119.507 109.75 119.459C109.72 119.199 109.844 118.861 109.412 118.812C109.055 118.772 108.887 118.916 108.911 119.288C107.115 118.991 105.539 118.028 103.791 117.563C101.228 116.83 98.5962 116.369 95.939 116.186C94.3733 116.12 92.8052 116.152 91.2435 116.283C89.6233 116.405 88.0204 116.701 86.4619 117.167C84.7316 117.687 83.0534 118.369 81.3425 118.923C80.2418 119.362 79.0551 119.532 77.8778 119.421C76.7006 119.309 75.5654 118.919 74.5634 118.282C73.5325 117.656 72.6475 116.81 71.9695 115.803C71.2914 114.796 70.8364 113.652 70.6357 112.449C70.2952 110.198 70.8322 107.901 72.1327 106.046C73.7965 103.431 75.4664 100.817 77.0668 98.1567C78.6538 95.5175 80.3954 92.9728 82.1176 90.4199C82.6114 89.7862 83.1508 89.1904 83.7312 88.6375L83.9124 88.5075C86.1275 86.4545 88.9043 85.1334 91.8752 84.7192C94.9896 84.2294 98.1768 84.6365 101.075 85.8943C102.869 86.6971 104.496 87.8407 105.869 89.2635C107.369 90.9421 108.672 92.7916 109.752 94.775C110.169 95.4509 110.564 96.1393 110.969 96.8215C110.934 96.94 110.984 96.9785 111.096 96.9588C112.8 99.6479 114.57 102.297 116.166 105.058C116.67 105.737 117.115 106.459 117.497 107.216C117.461 107.338 117.537 107.376 117.631 107.4C118.24 108.619 118.534 109.975 118.485 111.341C118.436 112.707 118.047 114.038 117.354 115.209" fill="#1C9DC9"/>
</svg>