<svg xmlns="http://www.w3.org/2000/svg" width="32" height="32" viewBox="0 0 32 32" fill="none">
  <path fill-rule="evenodd" clip-rule="evenodd" d="M2.66666 10.3907C2.66666 6.12503 6.12443 2.66663 10.3907 2.66663H21.6093C25.8755 2.66663 29.3333 6.12445 29.3333 10.3907V21.6087C29.3333 25.8749 25.875 29.3333 21.6088 29.3333H10.3912C6.12513 29.3333 2.66666 25.8756 2.66666 21.6093V10.3907ZM10.3907 5.00708C7.41715 5.00708 5.00712 7.41751 5.00712 10.3907V21.6093C5.00712 24.5827 7.41749 26.9928 10.3912 26.9928H21.6088C24.5824 26.9928 26.9929 24.5823 26.9929 21.6087V10.3907C26.9929 7.41705 24.5829 5.00708 21.6093 5.00708H10.3907Z" fill="white"/>
  <path fill-rule="evenodd" clip-rule="evenodd" d="M16 11.2982C13.4033 11.2982 11.2983 13.4033 11.2983 16C11.2983 18.5966 13.4033 20.7017 16 20.7017C18.5967 20.7017 20.7017 18.5966 20.7017 16C20.7017 13.4033 18.5967 11.2982 16 11.2982ZM8.95782 16C8.95782 12.1107 12.1107 8.95778 16 8.95778C19.8893 8.95778 23.0422 12.1107 23.0422 16C23.0422 19.8892 19.8893 23.0421 16 23.0421C12.1107 23.0421 8.95782 19.8892 8.95782 16Z" fill="white"/>
  <path d="M23.1301 10.128C23.8249 10.128 24.3882 9.56473 24.3882 8.86988C24.3882 8.17504 23.8249 7.61176 23.1301 7.61176C22.4352 7.61176 21.8719 8.17504 21.8719 8.86988C21.8719 9.56473 22.4352 10.128 23.1301 10.128Z" fill="white"/>
</svg>