<svg xmlns="http://www.w3.org/2000/svg" width="32" height="32" viewBox="0 0 32 32" fill="none">
  <path fill-rule="evenodd" clip-rule="evenodd" d="M16 29.3333C23.3638 29.3333 29.3333 23.3638 29.3333 16C29.3333 8.63616 23.3638 2.66663 16 2.66663C8.63621 2.66663 2.66667 8.63616 2.66667 16C2.66667 23.3638 8.63621 29.3333 16 29.3333ZM18.1585 6.67178C17.5779 6.67256 16.9963 6.67335 16.4128 6.68238L16.4134 6.68296C16.3981 8.68787 16.3991 10.6933 16.4 12.7011C16.4006 13.8234 16.4011 14.9464 16.3988 16.0705C16.3963 16.4475 16.3967 16.824 16.3971 17.2003C16.3981 18.2129 16.3991 19.2242 16.3434 20.2385C16.3353 20.5199 16.1941 20.7674 16.057 21.0077C16.046 21.0269 16.0351 21.046 16.0243 21.065C15.5717 21.803 14.7393 22.307 13.8707 22.3163C12.5605 22.4324 11.3332 21.3596 11.1483 20.0833C11.1469 20.0208 11.1446 19.9578 11.1424 19.8946C11.1298 19.5346 11.1169 19.1675 11.2538 18.832C11.4487 18.2743 11.8216 17.7961 12.3149 17.4711C12.9893 17.0027 13.8911 16.9327 14.6628 17.1824C14.6628 16.6904 14.6712 16.1986 14.6796 15.7068C14.6909 15.0471 14.7022 14.3874 14.6932 13.7273C13.0038 13.4111 11.1996 13.9455 9.91159 15.0672C8.77525 16.0303 8.04317 17.446 7.90317 18.926C7.88911 19.3117 7.89222 19.6978 7.9125 20.0833C8.0735 21.9033 9.17892 23.599 10.7498 24.5254C11.6978 25.0842 12.809 25.3875 13.9214 25.324C15.735 25.2936 17.5008 24.3212 18.5181 22.8296C19.1504 21.9336 19.5092 20.8515 19.5698 19.7642C19.5856 18.2705 19.5846 16.774 19.5837 15.2758C19.5831 14.5038 19.5826 13.7313 19.5844 12.9585C19.9887 13.2227 20.4017 13.4811 20.845 13.6818C21.8629 14.1648 22.9899 14.3981 24.1117 14.4349V11.303C22.9147 11.1694 21.6844 10.7745 20.8147 9.91171C19.9432 9.06996 19.515 7.85721 19.4538 6.66663C19.0223 6.67061 18.5907 6.67119 18.1585 6.67178Z" fill="white"/>
</svg>