<svg xmlns="http://www.w3.org/2000/svg" width="64" height="64" viewBox="0 0 64 64" fill="none">
  <path d="M12.7469 34.298C14.1285 33.9442 15.3412 33.0302 16.1472 31.7352C16.7611 30.8196 17.1918 29.7691 17.4105 28.6539C17.6293 27.5387 17.631 26.3845 17.4157 25.2685C17.2365 23.9894 16.8053 22.7699 16.1529 21.697C15.5004 20.6241 14.6428 19.7242 13.6412 19.0614C12.9197 18.5387 12.1088 18.1868 11.2592 18.0278C10.4096 17.8688 9.53965 17.9061 8.70365 18.1374C7.82691 18.384 7.01191 18.8479 6.31986 19.4944C5.62782 20.1408 5.07673 20.9529 4.70797 21.8697C4.43535 22.6038 4.199 23.3538 4 24.1165V26.8702H4.08404C4.0816 27.0033 4.08903 27.1363 4.10624 27.268C4.52829 29.6118 5.73913 31.6889 7.49226 33.0764C8.2364 33.6912 9.09197 34.1193 9.99978 34.3309C10.9076 34.5426 11.846 34.5329 12.7501 34.3024M9.31252 30.2981C8.72556 29.8555 8.22875 29.2812 7.85417 28.6122C7.4796 27.9433 7.23558 27.1945 7.13788 26.4144C6.96967 25.6502 6.99144 24.8496 7.20087 24.0981C7.4103 23.3466 7.79953 22.6722 8.32707 22.1469C8.61693 21.8569 8.96207 21.6434 9.33671 21.5222C9.71135 21.4011 10.1058 21.3754 10.4906 21.4473C12.7041 21.8055 13.6975 23.4661 14.3095 25.5836C14.404 26.0633 14.4571 26.5519 14.4681 27.0427C14.3143 28.5168 13.9472 29.9126 12.5654 30.6607C12.0484 30.948 11.4687 31.0668 10.8935 31.0034C10.3182 30.94 9.77086 30.697 9.3149 30.3025" fill="#1C9DC9"/>
  <path d="M59.791 31.3429C59.6509 30.4229 59.2865 29.5477 58.7276 28.7888C58.1687 28.0299 57.4311 27.4087 56.575 26.9758C56.4611 26.8527 56.3023 26.7764 56.1315 26.7627C56.0797 26.6271 55.9276 26.6198 55.8256 26.5871C54.4852 26.1692 53.0547 26.0943 51.675 26.3698C50.8418 26.5033 50.0509 26.8169 49.3622 27.287C49.2772 27.3115 49.1702 27.287 49.1438 27.403C48.7324 27.599 48.3589 27.8612 48.0392 28.1781C47.9254 28.1617 47.8974 28.2597 47.8379 28.3161L47.4742 28.6885C46.8022 29.3232 46.2704 30.0819 45.9108 30.919C45.7953 30.9557 45.8301 31.0578 45.8089 31.1354C45.5546 31.5326 45.3666 31.9655 45.2515 32.4185C45.0969 32.4471 44.9915 32.4928 45.1716 32.6357L45.0331 33.6975C44.6559 33.8551 44.6389 33.918 44.9193 34.123C44.8891 35.8084 45.441 37.4559 46.4886 38.8077C46.6322 39.022 46.8184 39.2068 47.0366 39.3517C47.7233 39.9977 48.5528 40.4865 49.4633 40.7816C50.3738 41.0767 51.3418 41.1706 52.2952 41.0562C54.0188 40.878 55.6358 40.1676 56.9038 39.0315C57.0841 38.9195 57.2378 38.7723 57.355 38.5995C57.6734 38.3695 57.943 38.0831 58.1494 37.7558C59.0139 36.6485 59.6143 35.372 59.9083 34.0168H60V31.6728C59.94 31.6387 59.8894 31.5912 59.8524 31.5343C59.8155 31.4775 59.7932 31.4129 59.7876 31.3461M54.7932 36.5928C54.7083 36.5699 54.687 36.6254 54.6641 36.6818C54.1273 37.1809 53.4668 37.5399 52.7452 37.7249C52.0235 37.9098 51.2647 37.9146 50.5407 37.7386C50.2571 37.6513 49.9803 37.5449 49.7123 37.4201L49.3724 37.0934C49.0183 36.7624 48.7389 36.365 48.5515 35.9258C48.3641 35.4865 48.2728 35.0149 48.2831 34.5403C48.3126 33.2716 48.8094 32.0541 49.6851 31.1044C50.3425 30.3148 51.2596 29.7633 52.2859 29.5404C52.8109 29.3801 53.3675 29.3397 53.9116 29.4224C54.4557 29.505 54.9723 29.7084 55.4203 30.0165C56.0364 30.4991 56.4433 31.1852 56.5614 31.9407C56.6974 32.7962 56.6068 33.6708 56.2979 34.4837C55.989 35.2965 55.4718 36.0214 54.7941 36.5911" fill="#1C9DC9"/>
  <path d="M37.7033 28.2893C37.7451 28.4188 37.8378 28.3975 37.9305 28.378C38.7729 28.9685 39.7335 29.342 40.7358 29.4688C41.7381 29.5957 42.7545 29.4724 43.704 29.1088C43.8101 29.0618 43.9662 29.1727 44.0314 28.9926C44.5451 28.8266 45.0341 28.5838 45.4835 28.2716C46.5847 27.5577 47.5088 26.5739 48.1782 25.4026C48.3085 25.3787 48.2768 25.2625 48.2943 25.1747C48.3567 25.1433 48.4095 25.0939 48.4467 25.0321C48.484 24.9703 48.5041 24.8986 48.5048 24.8253C48.635 24.8013 48.6033 24.6852 48.6217 24.5965C48.8527 24.2741 49.0172 23.9036 49.1043 23.5092C49.1302 23.3575 49.2939 23.2644 49.263 23.0888C49.45 22.9753 49.3323 22.7802 49.3724 22.6268C49.501 22.586 49.4751 22.4884 49.4559 22.3909C49.6474 21.8785 49.7328 21.3283 49.7064 20.7777C49.83 20.7369 49.8116 20.6402 49.7899 20.5418C49.8858 19.3194 49.7407 18.0892 49.364 16.9296C48.886 15.1484 47.7792 13.6318 46.2743 12.6958C45.562 12.2887 44.9257 11.6652 44.0305 11.7362C44.0305 11.5402 44.0138 11.3424 43.785 11.3131C43.5888 11.2883 43.507 11.4311 43.4861 11.6209C43.2155 11.6271 42.9441 11.6448 42.6736 11.6386C41.604 11.6325 40.5463 11.8768 39.5758 12.3543C38.6053 12.8318 37.7458 13.5307 37.0587 14.4012L36.8407 14.6344C36.775 14.6602 36.7186 14.7074 36.6795 14.7691C36.6404 14.8309 36.6205 14.9041 36.6228 14.9785C36.5345 15.0216 36.4577 15.0874 36.3994 15.1699C36.3411 15.2525 36.303 15.3492 36.2887 15.4512C36.2397 15.4716 36.1955 15.5031 36.1592 15.5436C36.1228 15.584 36.0952 15.6324 36.0783 15.6853C35.9347 15.7031 35.9948 15.8547 35.9389 15.9283C35.633 16.4686 35.3779 17.0395 35.1773 17.6329C34.515 19.4304 34.3697 21.3961 34.7598 23.2813C35.1716 25.2601 36.21 27.029 37.7016 28.2929M38.0565 19.5024C38.1927 19.4953 38.3396 19.5077 38.3563 19.3002C38.3634 19.2692 38.3638 19.237 38.3574 19.2059C38.3511 19.1747 38.3382 19.1455 38.3197 19.1205C38.3012 19.0954 38.2777 19.0751 38.2507 19.061C38.2238 19.047 38.1943 19.0396 38.1643 19.0394C38.6338 17.701 39.462 16.5378 40.5467 15.6933C40.5642 15.6774 40.6152 15.7013 40.6502 15.7066C41.1663 15.5372 41.5688 15.0379 42.1742 15.1284C43.0165 14.9851 43.8787 15.184 44.5892 15.6853C44.5967 15.8547 44.7053 15.7865 44.7863 15.7811C45.1897 16.101 45.5301 16.5017 45.7883 16.9606C45.7649 17.0431 45.8134 17.0697 45.8718 17.0857C46.1842 17.6881 46.3769 18.3521 46.438 19.0368C46.438 19.1122 46.438 19.1875 46.4321 19.2629C46.2518 19.4234 46.3695 19.4696 46.5157 19.5041L46.5557 19.4908L46.5131 20.1924C46.2726 20.2518 46.2535 20.3697 46.4296 20.5471C46.4557 20.8614 46.4089 21.1778 46.2935 21.4685C46.1407 21.4996 46.0388 21.5492 46.215 21.7044C46.2267 21.8297 46.2136 21.9561 46.1766 22.0757C46.1397 22.1952 46.0797 22.3053 46.0004 22.3988C45.724 22.4414 45.7499 22.6144 45.8376 22.8183L45.648 23.3141L45.5236 23.4338C45.3436 23.4627 45.1805 23.5626 45.0666 23.7134C44.9527 23.8642 44.8965 24.0551 44.909 24.2479L44.5541 24.7056L44.1366 25.0718C44.1226 25.0624 44.1069 25.0562 44.0905 25.0536C44.0741 25.051 44.0574 25.0521 44.0414 25.0568C43.9412 25.1046 43.6239 24.9237 43.8234 25.2882L43.3675 25.6066C43.289 25.6332 43.183 25.6066 43.1504 25.7246L42.8364 25.7583C42.6535 25.5552 42.55 25.6084 42.5116 25.8709L42.3972 25.9525C41.9572 26.0824 41.4961 26.1109 41.0449 26.0361C40.5937 25.9613 40.1627 25.7849 39.7809 25.5188C39.8018 25.4195 39.9229 25.321 39.816 25.2217C39.7091 25.1224 39.6256 25.1924 39.5605 25.2962C37.9538 24.0954 37.4411 21.3506 38.0574 19.5024" fill="#1C9DC9"/>
  <path d="M17.7595 16.165C17.7649 17.1193 17.8381 18.0722 17.9786 19.0171C18.3757 21.0146 19.4317 22.8401 20.9938 24.2291C21.0169 24.286 21.0417 24.3397 21.1239 24.3194C21.8919 24.9932 22.8 25.5068 23.7896 25.827C24.7791 26.1472 25.8283 26.267 26.8695 26.1787C27.9107 26.0903 28.921 25.7958 29.8352 25.314C30.7494 24.8323 31.5473 24.1739 32.1776 23.3814C32.2075 23.385 32.2378 23.382 32.2663 23.3727C32.2949 23.3634 32.3208 23.3481 32.3421 23.3278C32.3634 23.3076 32.3795 23.283 32.3893 23.2559C32.3991 23.2288 32.4022 23.2 32.3984 23.1715C33.8686 21.394 34.627 19.1783 34.5386 16.9191C34.5395 15.7546 34.3122 14.6001 33.8683 13.5147C33.8966 13.352 33.7296 13.2706 33.6971 13.1307C33.448 12.4629 33.079 11.8411 32.6065 11.293C32.5484 11.1498 32.4364 11.0321 32.2923 10.9628C32.2606 10.7016 32.0355 10.5837 31.8523 10.4413L31.497 10.0956C31.2193 9.79607 30.8833 9.55048 30.5074 9.37239C30.4803 9.30925 30.434 9.25528 30.3743 9.21743C30.3146 9.17958 30.2444 9.1596 30.1726 9.16007C29.4365 8.67309 28.5969 8.34543 27.7131 8.20017C27.5342 8.28152 27.4323 8.06513 27.2662 8.09441L26.4958 8.10824C26.3734 7.92846 26.1987 8.02689 26.0403 8.02689C24.8737 8.06193 23.7294 8.33961 22.6879 8.84038L22.3583 8.97785C22.247 8.98518 22.1015 8.88024 22.045 9.0649C22.0698 9.31708 21.7993 9.33742 21.6846 9.47978C21.6121 9.47509 21.54 9.49306 21.4792 9.53096C21.4185 9.56885 21.3725 9.62458 21.3482 9.68965L20.2353 10.7472C20.0926 10.8211 19.977 10.9346 19.904 11.0726C19.6816 11.2966 19.495 11.5504 19.3501 11.8259L19.1686 11.8674L19.2362 11.9251C19.2397 11.9596 19.2362 11.9944 19.2259 12.0276L19.0316 12.353C18.4394 13.4105 18.0498 14.5597 17.881 15.7469C17.7261 15.7599 17.6054 15.8184 17.5789 15.9779C17.5575 16.1097 17.6482 16.1536 17.7672 16.165M21.2677 16.2773C21.257 15.7593 21.3502 15.2441 21.5425 14.7593C21.4483 14.5754 21.4201 14.416 21.7017 14.3721L21.8242 14.2631C21.9397 14.2525 22.081 14.2867 22.1169 14.1297C22.1435 14.0011 22.045 13.9621 21.9337 13.945C22.287 13.2922 22.7719 12.7117 23.3608 12.2367C23.905 11.8456 24.509 11.5359 25.1517 11.3183L25.5935 11.2816C25.7167 11.0962 25.8922 11.2255 26.0446 11.2141C26.197 11.2027 26.3759 11.1141 26.4992 11.2906C26.7975 11.2602 27.0992 11.2915 27.3835 11.3825L27.7183 11.4883L27.9323 11.5281L28.2747 11.7299C29.3115 12.3318 30.1208 13.2307 30.5861 14.2972C30.6118 14.4184 30.7436 14.4973 30.7573 14.6226C30.7428 14.4965 30.6109 14.4176 30.5861 14.2972C30.4962 14.4851 30.4723 14.6454 30.7573 14.6804C31.1666 15.6951 31.3097 16.7893 31.1742 17.8684C31.0638 17.8831 30.9671 17.914 30.9791 18.0474C30.9893 18.1515 31.0758 18.171 31.1631 18.1865C31.1631 18.2971 31.0142 18.3785 31.0921 18.5046C30.9626 18.7337 30.8889 18.9875 30.8763 19.2473L30.7342 19.6589C30.6734 19.6768 30.6212 19.6996 30.6486 19.7761C30.6195 19.8574 30.6486 19.9705 30.5211 19.9989C30.2642 19.9493 30.2565 19.9754 30.3456 20.3959C29.9543 21.1463 29.3583 21.7832 28.6197 22.2401C28.5251 22.2569 28.4351 22.2918 28.3551 22.3425C28.275 22.3932 28.2066 22.4589 28.154 22.5354C27.9828 22.6102 27.8347 22.7477 27.6284 22.7518L27.5051 22.8331C27.0765 22.9973 26.6168 23.0754 26.1549 23.0625C25.6931 23.0497 25.239 22.9461 24.8213 22.7583C24.8161 22.6249 24.8512 22.4695 24.6441 22.4394C24.6136 22.4302 24.5813 22.428 24.5497 22.4328C24.5182 22.4377 24.4882 22.4496 24.4624 22.4675C24.4366 22.4854 24.4155 22.5088 24.401 22.5359C24.3864 22.5629 24.3788 22.5929 24.3787 22.6232C23.1624 21.9775 22.2214 20.9487 21.718 19.7142C21.4718 19.1589 21.3103 18.5729 21.2386 17.9742C21.2386 17.9037 21.2366 17.8329 21.2326 17.7619C21.124 17.3819 21.0998 16.9846 21.1615 16.5953C21.0879 16.453 21.2257 16.3789 21.2771 16.2773" fill="#1C9DC9"/>
  <path d="M47.8987 45.4412C47.4782 44.1982 46.8754 43.0214 46.1091 41.9478C44.7736 39.902 43.4314 37.8601 42.0826 35.8224C40.8084 33.9002 39.6087 31.9157 37.6567 30.5348L37.5374 30.4538C36.7231 29.8821 35.8599 29.38 34.9575 28.953L34.6261 28.7804L34.4181 28.7407L33.6559 28.4587C32.5233 28.1654 31.3673 27.9669 30.2002 27.8655C29.2356 27.8477 28.2709 27.8987 27.3138 28.0179C24.612 28.4204 22.1029 29.6278 20.1282 31.4756C18.9569 32.6044 17.9579 33.8923 17.1621 35.2997C16.1505 36.8783 15.0909 38.4268 14.0967 40.0151C13.2036 41.4405 12.1911 42.7954 11.4041 44.2832C11.2384 44.2946 11.0843 44.31 11.2955 44.5004C10.7561 46.0658 10.6441 47.7418 10.9708 49.3625C11.3946 51.1436 12.3947 52.7433 13.8224 53.924C14.8162 54.7615 16.0052 55.3473 17.2847 55.6298C18.5992 55.9427 19.9712 55.9427 21.2856 55.6298C22.7462 55.3 24.037 54.505 25.5325 54.2749C27.0113 54.0472 28.9177 53.5974 30.6195 53.8981C30.7091 53.9032 30.799 53.9032 30.8887 53.8981C31.7636 53.9626 32.632 54.0938 33.4861 54.2903C34.9699 54.6071 36.3129 55.3121 37.7653 55.7108C37.931 56.0682 37.9906 56.0836 38.1969 55.8162C39.2264 55.9472 40.2711 55.9059 41.2864 55.6938C42.4894 55.4652 43.6265 54.9815 44.6177 54.2767C45.609 53.5719 46.4303 52.6632 47.0238 51.6145C47.594 50.6388 47.9445 49.5552 48.0519 48.4363C48.1939 47.5055 48.1177 46.5553 47.8291 45.6576C47.989 45.626 48.0776 45.5725 47.8978 45.438M44.1696 50.0846C43.7825 50.8006 43.2172 51.4098 42.526 51.8557C41.8347 52.3017 41.0397 52.5702 40.2143 52.6364C39.909 52.7199 39.5904 52.7473 39.2748 52.7174C39.2558 52.5553 39.3353 52.3463 39.0577 52.3163C38.8282 52.2912 38.7189 52.3835 38.7346 52.6112C37.5747 52.4273 36.5639 51.8301 35.4388 51.5416C33.7889 51.0871 32.0952 50.8012 30.385 50.6883C29.377 50.6472 28.3673 50.6672 27.3618 50.7482C26.3189 50.8237 25.2871 51.0073 24.2839 51.296C23.1704 51.6202 22.0901 52.0416 20.9881 52.3851C20.2796 52.657 19.5158 52.7626 18.7579 52.6935C18.0001 52.6244 17.2694 52.3825 16.6244 51.9873C15.9608 51.5992 15.391 51.075 14.9545 50.4507C14.518 49.8265 14.225 49.1171 14.0959 48.3715C13.8762 46.9757 14.2219 45.5511 15.0594 44.4008C16.1307 42.78 17.2052 41.1593 18.235 39.5095C19.2566 37.8734 20.3775 36.2956 21.4861 34.7138C21.8038 34.3209 22.1508 33.9514 22.5242 33.6085L22.641 33.5274C24.0665 32.2544 25.8538 31.4349 27.7661 31.1774C29.7708 30.8742 31.8222 31.1268 33.6874 31.9067C34.8428 32.4045 35.8903 33.1136 36.7736 33.9958C37.7391 35.0368 38.5779 36.1838 39.2732 37.4139C39.5416 37.8329 39.7951 38.2599 40.0561 38.6829C40.0337 38.7566 40.066 38.7801 40.1389 38.768C41.2367 40.4349 42.3759 42.0767 43.4024 43.7922C43.7278 44.213 44.0153 44.6606 44.2615 45.1301C44.2383 45.2054 44.2872 45.2297 44.3444 45.2443C44.7361 45.9999 44.9252 46.8404 44.8939 47.687C44.8626 48.5337 44.6119 49.3586 44.1654 50.0846" fill="#1C9DC9"/>
  <path d="M27 34H33V48H29.7815V36.6H27V34Z" fill="#1C9DC9"/>
</svg>