<svg xmlns="http://www.w3.org/2000/svg" width="48" height="48" viewBox="0 0 48 48" fill="none">
  <g opacity="0.4">
    <path d="M9.56018 25.7235C10.5964 25.4581 11.5059 24.7726 12.1104 23.8014C12.5708 23.1147 12.8938 22.3268 13.0579 21.4904C13.2219 20.654 13.2233 19.7884 13.0618 18.9514C12.9274 17.9921 12.604 17.0775 12.1146 16.2728C11.6253 15.4681 10.9821 14.7932 10.2309 14.2961C9.68976 13.904 9.08159 13.6401 8.44441 13.5209C7.80723 13.4016 7.15474 13.4296 6.52774 13.603C5.87018 13.788 5.25893 14.136 4.7399 14.6208C4.22086 15.1056 3.80754 15.7147 3.53098 16.4023C3.32651 16.9528 3.14925 17.5154 3 18.0874V20.1527H3.06303C3.0612 20.2525 3.06677 20.3522 3.07968 20.451C3.39622 22.2088 4.30435 23.7666 5.61919 24.8073C6.1773 25.2684 6.81897 25.5895 7.49983 25.7482C8.18069 25.907 8.88449 25.8996 9.56256 25.7268M6.98439 22.7236C6.54417 22.3916 6.17156 21.9609 5.89063 21.4592C5.6097 20.9574 5.42668 20.3959 5.35341 19.8108C5.22725 19.2376 5.24358 18.6372 5.40065 18.0736C5.55772 17.5099 5.84965 17.0041 6.2453 16.6102C6.46269 16.3927 6.72155 16.2325 7.00253 16.1417C7.28351 16.0508 7.57935 16.0316 7.86796 16.0855C9.52807 16.3541 10.2731 17.5996 10.7321 19.1877C10.803 19.5474 10.8428 19.9139 10.851 20.282C10.7357 21.3876 10.4604 22.4345 9.42401 22.9955C9.03631 23.211 8.60155 23.3001 8.17009 23.2526C7.73863 23.205 7.32814 23.0227 6.98617 22.7269" fill="#1C9DC9"/>
    <path d="M44.8433 23.5071C44.7382 22.8171 44.4649 22.1608 44.0457 21.5916C43.6265 21.0224 43.0734 20.5565 42.4313 20.2319C42.3458 20.1395 42.2267 20.0823 42.0986 20.072C42.0597 19.9703 41.9457 19.9648 41.8692 19.9403C40.8639 19.6269 39.791 19.5707 38.7562 19.7774C38.1313 19.8775 37.5382 20.1127 37.0216 20.4653C36.9579 20.4836 36.8776 20.4653 36.8579 20.5522C36.5493 20.6993 36.2691 20.8959 36.0294 21.1335C35.944 21.1213 35.923 21.1948 35.8784 21.2371L35.6057 21.5164C35.1016 21.9924 34.7028 22.5614 34.4331 23.1892C34.3464 23.2168 34.3726 23.2934 34.3566 23.3516C34.1659 23.6494 34.0249 23.9741 33.9386 24.3139C33.8226 24.3353 33.7436 24.3696 33.8787 24.4768L33.7748 25.2731C33.4919 25.3913 33.4792 25.4385 33.6894 25.5922C33.6668 26.8563 34.0807 28.0919 34.8665 29.1058C34.9742 29.2665 35.1138 29.4051 35.2775 29.5137C35.7925 29.9983 36.4146 30.3649 37.0975 30.5862C37.7803 30.8075 38.5063 30.8779 39.2214 30.7921C40.5141 30.6585 41.7268 30.1257 42.6779 29.2736C42.8131 29.1896 42.9284 29.0792 43.0163 28.9496C43.255 28.7771 43.4573 28.5623 43.6121 28.3168C44.2604 27.4864 44.7107 26.529 44.9312 25.5126H45V23.7546C44.955 23.729 44.917 23.6934 44.8893 23.6508C44.8616 23.6081 44.8449 23.5597 44.8407 23.5096M41.0949 27.4446C41.0312 27.4274 41.0153 27.4691 40.9981 27.5113C40.5955 27.8857 40.1001 28.1549 39.5589 28.2937C39.0177 28.4324 38.4485 28.4359 37.9055 28.304C37.6928 28.2385 37.4852 28.1587 37.2842 28.0651L37.0293 27.8201C36.7637 27.5718 36.5542 27.2737 36.4137 26.9443C36.2731 26.6149 36.2046 26.2612 36.2123 25.9053C36.2345 24.9537 36.607 24.0406 37.2638 23.3283C37.7569 22.7361 38.4447 22.3225 39.2144 22.1553C39.6082 22.0351 40.0257 22.0048 40.4337 22.0668C40.8418 22.1288 41.2292 22.2813 41.5652 22.5124C42.0273 22.8743 42.3325 23.3889 42.421 23.9555C42.5231 24.5971 42.4551 25.2531 42.2234 25.8628C41.9917 26.4724 41.6038 27.016 41.0956 27.4433" fill="#1C9DC9"/>
    <path d="M28.2775 21.217C28.3088 21.3141 28.3783 21.2982 28.4478 21.2835C29.0797 21.7263 29.8002 22.0065 30.5519 22.1016C31.3036 22.1968 32.0659 22.1043 32.778 21.8316C32.8576 21.7963 32.9747 21.8795 33.0235 21.7445C33.4089 21.6199 33.7756 21.4379 34.1126 21.2037C34.9385 20.6683 35.6316 19.9304 36.1337 19.052C36.2314 19.034 36.2076 18.9469 36.2207 18.881C36.2675 18.8575 36.3071 18.8204 36.3351 18.774C36.363 18.7277 36.378 18.674 36.3786 18.619C36.4763 18.601 36.4525 18.5139 36.4662 18.4474C36.6395 18.2056 36.7629 17.9277 36.8282 17.6319C36.8477 17.5182 36.9704 17.4483 36.9472 17.3166C37.0875 17.2315 36.9992 17.0851 37.0293 16.9701C37.1257 16.9395 37.1063 16.8663 37.0919 16.7932C37.2355 16.4088 37.2996 15.9962 37.2798 15.5833C37.3725 15.5527 37.3587 15.4802 37.3424 15.4063C37.4143 14.4895 37.3056 13.5669 37.023 12.6972C36.6645 11.3613 35.8344 10.2238 34.7057 9.52182C34.1715 9.21652 33.6943 8.74893 33.0229 8.80214C33.0229 8.65514 33.0104 8.50681 32.8388 8.48486C32.6916 8.46624 32.6302 8.57332 32.6146 8.71566C32.4116 8.72032 32.2081 8.73363 32.0052 8.72897C31.203 8.72436 30.4097 8.90764 29.6818 9.26575C28.954 9.62387 28.3094 10.148 27.794 10.8009L27.6305 10.9758C27.5812 10.9952 27.5389 11.0305 27.5096 11.0768C27.4803 11.1232 27.4654 11.1781 27.4671 11.2339C27.4009 11.2662 27.3433 11.3156 27.2995 11.3775C27.2558 11.4394 27.2273 11.5119 27.2166 11.5884C27.1798 11.6037 27.1466 11.6274 27.1194 11.6577C27.0921 11.688 27.0714 11.7243 27.0587 11.764C26.951 11.7773 26.9961 11.8911 26.9541 11.9463C26.7247 12.3515 26.5334 12.7797 26.383 13.2247C25.8863 14.5728 25.7773 16.0471 26.0698 17.461C26.3787 18.9451 27.1575 20.2718 28.2762 21.2197M28.5424 14.6268C28.6445 14.6215 28.7547 14.6308 28.7673 14.4751C28.7725 14.4519 28.7728 14.4277 28.7681 14.4044C28.7633 14.381 28.7536 14.3592 28.7398 14.3403C28.7259 14.3215 28.7082 14.3063 28.688 14.2958C28.6679 14.2852 28.6457 14.2797 28.6232 14.2796C28.9754 13.2757 29.5965 12.4033 30.41 11.77C30.4232 11.758 30.4614 11.776 30.4877 11.78C30.8747 11.6529 31.1766 11.2785 31.6306 11.3463C32.2624 11.2388 32.909 11.388 33.4419 11.764C33.4475 11.8911 33.5289 11.8398 33.5897 11.8358C33.8923 12.0757 34.1476 12.3763 34.3412 12.7205C34.3237 12.7823 34.36 12.8023 34.4039 12.8143C34.6382 13.2661 34.7827 13.7641 34.8285 14.2776C34.8285 14.3341 34.8285 14.3907 34.8241 14.4472C34.6888 14.5676 34.7771 14.6022 34.8867 14.6281L34.9168 14.6181L34.8849 15.1443C34.7045 15.1888 34.6901 15.2773 34.8222 15.4103C34.8417 15.6461 34.8067 15.8833 34.7201 16.1014C34.6055 16.1247 34.5291 16.1619 34.6613 16.2783C34.67 16.3723 34.6602 16.4671 34.6325 16.5567C34.6048 16.6464 34.5597 16.729 34.5003 16.7991C34.293 16.8311 34.3124 16.9608 34.3782 17.1137L34.236 17.4856L34.1427 17.5754C34.0077 17.5971 33.8854 17.6719 33.8 17.7851C33.7145 17.8982 33.6724 18.0413 33.6818 18.186L33.4156 18.5292L33.1024 18.8039C33.0919 18.7968 33.0802 18.7921 33.0679 18.7902C33.0556 18.7882 33.043 18.789 33.031 18.7926C32.9559 18.8285 32.7179 18.6928 32.8676 18.9662L32.5256 19.205C32.4667 19.2249 32.3872 19.205 32.3628 19.2934L32.1273 19.3187C31.9901 19.1664 31.9125 19.2063 31.8837 19.4032L31.7979 19.4644C31.4679 19.5618 31.1221 19.5832 30.7837 19.5271C30.4453 19.471 30.122 19.3387 29.8357 19.1391C29.8514 19.0646 29.9422 18.9908 29.862 18.9163C29.7818 18.8418 29.7192 18.8943 29.6704 18.9722C28.4654 18.0716 28.0808 16.0129 28.543 14.6268" fill="#1C9DC9"/>
    <path d="M13.3196 12.1237C13.3236 12.8395 13.3786 13.5541 13.484 14.2628C13.7817 15.7609 14.5738 17.1301 15.7453 18.1718C15.7626 18.2145 15.7813 18.2548 15.8429 18.2395C16.419 18.7449 17.1 19.1301 17.8422 19.3703C18.5843 19.6104 19.3712 19.7003 20.1521 19.634C20.9331 19.5678 21.6907 19.3468 22.3764 18.9855C23.062 18.6242 23.6605 18.1304 24.1332 17.5361C24.1556 17.5387 24.1784 17.5365 24.1998 17.5295C24.2211 17.5226 24.2406 17.5111 24.2565 17.4959C24.2725 17.4807 24.2846 17.4622 24.292 17.4419C24.2993 17.4216 24.3016 17.4 24.2988 17.3787C25.4014 16.0455 25.9703 14.3837 25.904 12.6893C25.9047 11.8159 25.7342 10.9501 25.4012 10.136C25.4224 10.014 25.2972 9.95296 25.2728 9.84802C25.086 9.34717 24.8092 8.88085 24.4549 8.46977C24.4113 8.36233 24.3273 8.27406 24.2192 8.22207C24.1955 8.02622 24.0266 7.93776 23.8892 7.83099L23.6227 7.57169C23.4145 7.34705 23.1625 7.16286 22.8805 7.0293C22.8602 6.98194 22.8255 6.94146 22.7807 6.91307C22.736 6.88468 22.6833 6.8697 22.6295 6.87006C22.0774 6.50482 21.4477 6.25908 20.7848 6.15013C20.6506 6.21114 20.5742 6.04884 20.4497 6.07081L19.8718 6.08118C19.78 5.94634 19.649 6.02017 19.5303 6.02017C18.6553 6.04645 17.797 6.25471 17.016 6.63028L16.7688 6.73339C16.6853 6.73888 16.5761 6.66018 16.5338 6.79867C16.5524 6.98781 16.3495 7.00306 16.2635 7.10983C16.2091 7.10632 16.155 7.1198 16.1094 7.14822C16.0639 7.17664 16.0294 7.21844 16.0111 7.26724L15.1764 8.06039C15.0694 8.11582 14.9827 8.20096 14.928 8.30444C14.7612 8.47248 14.6213 8.66282 14.5126 8.8694L14.3764 8.90052L14.4272 8.94383C14.4298 8.96969 14.4272 8.99578 14.4195 9.02071L14.2737 9.26475C13.8296 10.0579 13.5374 10.9198 13.4108 11.8101C13.2946 11.8199 13.204 11.8638 13.1841 11.9834C13.1681 12.0823 13.2361 12.1152 13.3254 12.1237M15.9508 12.2079C15.9427 11.8195 16.0127 11.4331 16.1569 11.0695C16.0862 10.9316 16.0651 10.812 16.2763 10.7791L16.3681 10.6973C16.4548 10.6894 16.5607 10.715 16.5877 10.5972C16.6076 10.5008 16.5338 10.4716 16.4503 10.4587C16.7153 9.96914 17.0789 9.53381 17.5206 9.17751C17.9288 8.88419 18.3817 8.6519 18.8638 8.48869L19.1951 8.46123C19.2876 8.32213 19.4192 8.41913 19.5335 8.41059C19.6477 8.40205 19.7819 8.33555 19.8744 8.46794C20.0981 8.44511 20.3244 8.46863 20.5376 8.53689L20.7887 8.6162L20.9492 8.6461L21.206 8.79741C21.9836 9.24887 22.5906 9.92302 22.9396 10.7229C22.9589 10.8138 23.0577 10.873 23.068 10.967C23.0571 10.8724 22.9582 10.8132 22.9396 10.7229C22.8722 10.8639 22.8542 10.9841 23.068 11.0103C23.375 11.7714 23.4823 12.592 23.3807 13.4013C23.2979 13.4123 23.2253 13.4355 23.2343 13.5355C23.242 13.6136 23.3068 13.6283 23.3723 13.6399C23.3723 13.7229 23.2606 13.7839 23.319 13.8784C23.2219 14.0503 23.1666 14.2406 23.1572 14.4355L23.0507 14.7442C23.0051 14.7576 22.9659 14.7747 22.9865 14.832C22.9646 14.8931 22.9865 14.9779 22.8908 14.9992C22.6982 14.962 22.6924 14.9815 22.7592 15.2969C22.4657 15.8597 22.0187 16.3374 21.4648 16.6801C21.3939 16.6927 21.3263 16.7188 21.2663 16.7569C21.2063 16.7949 21.155 16.8441 21.1155 16.9015C20.9871 16.9577 20.876 17.0608 20.7213 17.0638L20.6288 17.1248C20.3074 17.248 19.9626 17.3066 19.6162 17.2969C19.2698 17.2872 18.9292 17.2096 18.616 17.0687C18.6121 16.9687 18.6384 16.8521 18.4831 16.8296C18.4602 16.8227 18.436 16.821 18.4123 16.8246C18.3886 16.8283 18.3662 16.8372 18.3468 16.8506C18.3274 16.864 18.3116 16.8816 18.3007 16.9019C18.2898 16.9222 18.2841 16.9446 18.284 16.9674C17.3718 16.4831 16.6661 15.7115 16.2885 14.7857C16.1038 14.3692 15.9828 13.9297 15.9289 13.4806C15.9289 13.4278 15.9274 13.3747 15.9244 13.3214C15.843 13.0364 15.8249 12.7385 15.8712 12.4465C15.8159 12.3397 15.9193 12.2842 15.9578 12.2079" fill="#1C9DC9"/>
    <path d="M35.924 34.0809C35.6087 33.1486 35.1566 32.2661 34.5818 31.4609C33.5802 29.9265 32.5735 28.3951 31.5619 26.8668C30.6063 25.4252 29.7065 23.9367 28.2426 22.9011L28.1531 22.8403C27.5423 22.4116 26.8949 22.035 26.2181 21.7148L25.9696 21.5853L25.8136 21.5555L25.2419 21.344C24.3925 21.124 23.5254 20.9752 22.6502 20.8991C21.9267 20.8858 21.2031 20.924 20.4853 21.0134C18.459 21.3153 16.5772 22.2209 15.0961 23.6067C14.2177 24.4533 13.4685 25.4192 12.8716 26.4748C12.1129 27.6587 11.3182 28.8201 10.5725 30.0113C9.90267 31.0804 9.14335 32.0966 8.55304 33.2124C8.42876 33.2209 8.31319 33.2325 8.47164 33.3753C8.06705 34.5493 7.98308 35.8064 8.22806 37.0219C8.54597 38.3577 9.29605 39.5575 10.3668 40.443C11.1122 41.0711 12.0039 41.5105 12.9636 41.7223C13.9494 41.957 14.9784 41.957 15.9642 41.7223C17.0597 41.475 18.0278 40.8788 19.1494 40.7062C20.2585 40.5354 21.6883 40.1981 22.9646 40.4236C23.0319 40.4274 23.0993 40.4274 23.1665 40.4236C23.8227 40.472 24.474 40.5703 25.1146 40.7177C26.2274 40.9553 27.2347 41.4841 28.324 41.7831C28.4482 42.0512 28.493 42.0627 28.6477 41.8621C29.4198 41.9604 30.2034 41.9294 30.9648 41.7704C31.867 41.5989 32.7199 41.2361 33.4633 40.7075C34.2067 40.1789 34.8227 39.4974 35.2678 38.7109C35.6955 37.9791 35.9584 37.1664 36.0389 36.3272C36.1454 35.6291 36.0883 34.9165 35.8718 34.2432C35.9917 34.2195 36.0582 34.1794 35.9234 34.0785M33.1272 37.5634C32.8369 38.1005 32.4129 38.5573 31.8945 38.8918C31.376 39.2263 30.7798 39.4276 30.1607 39.4773C29.9317 39.5399 29.6928 39.5605 29.4561 39.538C29.4418 39.4165 29.5015 39.2597 29.2933 39.2372C29.1212 39.2184 29.0392 39.2877 29.051 39.4584C28.181 39.3205 27.423 38.8725 26.5791 38.6562C25.3417 38.3153 24.0714 38.1009 22.7887 38.0162C22.0327 37.9854 21.2755 38.0004 20.5214 38.0612C19.7392 38.1177 18.9654 38.2555 18.2129 38.472C17.3778 38.7151 16.5675 39.0312 15.7411 39.2889C15.2097 39.4927 14.6368 39.5719 14.0685 39.5201C13.5001 39.4683 12.9521 39.2869 12.4683 38.9905C11.9706 38.6994 11.5433 38.3062 11.2159 37.8381C10.8885 37.3699 10.6688 36.8378 10.5719 36.2786C10.4071 35.2318 10.6664 34.1633 11.2946 33.3006C12.098 32.085 12.9039 30.8695 13.6763 29.6321C14.4424 28.405 15.2832 27.2217 16.1146 26.0354C16.3528 25.7406 16.6131 25.4636 16.8931 25.2064L16.9807 25.1456C18.0499 24.1908 19.3903 23.5762 20.8246 23.3831C22.3281 23.1556 23.8666 23.3451 25.2655 23.9301C26.1321 24.3034 26.9177 24.8352 27.5802 25.4969C28.3043 26.2776 28.9334 27.1379 29.4549 28.0604C29.6562 28.3746 29.8463 28.6949 30.0421 29.0122C30.0253 29.0675 30.0495 29.0851 30.1042 29.076C30.9275 30.3262 31.7819 31.5575 32.5518 32.8441C32.7959 33.1597 33.0115 33.4955 33.1962 33.8475C33.1788 33.9041 33.2154 33.9223 33.2583 33.9332C33.5521 34.4999 33.6939 35.1303 33.6704 35.7653C33.6469 36.4002 33.459 37.019 33.1241 37.5634" fill="#1C9DC9"/>
    <path d="M23.93 30.4031C25.9659 30.7121 27 31.9171 27 33.5084C27 35.3315 25.5296 37 22.3142 37C20.7307 37 19.0987 36.5829 18 35.8413L19.018 33.9256C19.8743 34.5435 21.07 34.8989 22.2496 34.8989C23.5583 34.8989 24.3662 34.389 24.3662 33.5084C24.3662 32.6896 23.7361 32.1798 22.2496 32.1798H21.0539V30.5267L23.3806 28.0084H18.5655V26H26.4829V27.6222L23.93 30.4031Z" fill="#1C9DC9"/>
  </g>
</svg>