<svg xmlns="http://www.w3.org/2000/svg" width="104" height="104" viewBox="0 0 104 104" fill="none">
  <path d="M86.312 1.95151e-06H17.688C13.0049 -0.00219997 8.51222 1.85902 5.19604 5.17516C1.87986 8.49129 0.01113 12.9914 0 17.6878V86.3122C0.01113 91.0086 1.87986 95.5087 5.19604 98.8249C8.51222 102.141 13.0049 104.002 17.688 104H86.312C90.9951 104.002 95.4878 102.141 98.804 98.8249C102.12 95.5087 103.989 91.0086 104 86.3122V17.6878C103.979 12.9946 102.107 8.5004 98.7927 5.18647C95.4787 1.87254 90.992 0.00802819 86.312 1.95151e-06Z" fill="white"/>
  <path fill-rule="evenodd" clip-rule="evenodd" d="M76.8294 103.94C74.7259 101.299 72.8356 98.4937 71.1765 95.5515C68.745 91.4202 66.3746 82.361 67.1648 81.0853C65.3854 82.3495 63.9786 84.0712 63.0921 86.0693C61.8779 88.9429 61.1784 92.0087 61.0257 95.1259C60.9038 97.2536 60.8436 101.204 60.9038 103.94H76.8294Z" fill="black"/>
  <path d="M59.4454 103.94C58.8064 100.857 57.9947 97.8129 57.014 94.8219C56.5279 93.6651 55.9808 92.4513 55.3118 91.1748C54.6785 90.0137 53.9677 88.8968 53.1844 87.8317C51.5516 85.767 49.3859 84.1905 46.9226 83.2732C47.5306 84.7324 47.1046 89.5338 46.6754 92.2084C45.8696 96.2955 44.4362 100.232 42.4264 103.879L59.4454 103.94Z" fill="black"/>
  <path fill-rule="evenodd" clip-rule="evenodd" d="M36.7133 81.3282C36.2535 81.2102 35.7852 81.129 35.3126 81.0853C31.3578 80.3557 27.5323 78.4718 25.7699 76.8911C24.8024 75.9094 24.0446 74.7401 23.543 73.4546C23.0413 72.1692 22.8064 70.7947 22.8524 69.4151C22.8524 69.4151 22.8524 69.1111 22.6052 69.1111C22.5733 69.1026 22.54 69.1006 22.5073 69.1052C22.4746 69.1098 22.4431 69.121 22.4148 69.138C22.3864 69.155 22.3618 69.1776 22.3422 69.2043C22.3227 69.231 22.3088 69.2614 22.3012 69.2937C21.7541 70.5091 21.268 71.4816 20.964 72.2682C20.903 71.6601 20.842 71.2957 20.842 71.2957C20.6443 67.8423 21.0768 64.3816 22.1183 61.0839C22.7263 58.8348 23.6986 56.0388 25.0358 52.5131L25.9479 50.1426C28.0753 44.7933 29.3515 41.3288 29.9027 39.8093C30.2677 38.5939 30.6319 37.4958 30.875 36.4051H30.9359V36.2837C30.6888 35.9796 30.5108 35.797 30.4498 35.797C25.3415 36.344 20.9071 42.0576 17.1385 52.8775C15.1932 58.4085 13.4918 61.5698 12.0936 62.4811C11.9546 62.5831 11.7968 62.6562 11.6293 62.6962C11.4617 62.7361 11.288 62.7421 11.1181 62.7138C10.9483 62.6854 10.7858 62.6234 10.6402 62.5312C10.4946 62.439 10.3688 62.3186 10.2702 62.1771C9.47193 61.0242 8.91371 59.7216 8.62897 58.3474C6.8081 50.9366 5.28795 44.4323 4.13363 38.9624C2.97931 33.4925 5.22945 28.6895 9.29965 25.529C13.3723 22.4289 17.019 21.4564 18.5993 21.2738C20.4226 21.0912 22.5541 21.2126 26.7438 22.8544C30.0337 24.2555 33.2047 25.9224 36.2255 27.8384C37.4154 26.95 38.7001 26.197 40.056 25.5935C42.8517 24.5304 45.7734 23.836 48.7476 23.5278V23.589C45.2829 23.9533 43.8238 25.7166 44.3709 28.9985C44.9179 32.2804 45.2829 35.4434 45.5244 38.6021C45.7947 41.7344 45.8555 44.8812 45.7064 48.0215C45.6455 50.4532 45.5845 52.0942 44.0042 54.1607C43.3936 54.8701 42.6998 55.5029 41.9378 56.0454C41.0867 56.7138 39.6308 57.8689 37.5611 59.6314C35.9067 61.1045 34.4188 62.7557 33.1243 64.5551C31.4563 66.3973 30.5633 68.8149 30.6319 71.3023C30.6163 73.0254 31.1031 74.7155 32.0326 76.1649C33.3655 78.0809 34.9384 79.8173 36.7125 81.3315" fill="black"/>
  <path fill-rule="evenodd" clip-rule="evenodd" d="M78.2878 71.7245C78.9964 69.7469 79.0542 67.5935 78.4526 65.5805C77.851 63.5675 76.6216 61.801 74.9451 60.5402C73.3201 59.0207 71.5252 57.6948 69.5962 56.5891C67.2257 55.3125 65.5235 54.4011 64.6122 53.9144C63.758 53.5054 62.944 53.0169 62.1808 52.4553C60.2965 50.7532 59.8738 49.1122 59.3243 46.802C58.5995 43.7364 58.0504 40.6318 57.6797 37.5032C57.3147 34.4031 57.0717 31.1815 57.0115 27.8996C56.8896 24.6177 55.1272 23.0973 51.6626 23.4625V23.4022C54.644 23.1236 57.6491 23.2461 60.5981 23.7666C62.0516 24.1028 63.4597 24.613 64.7918 25.2861C67.3908 22.8259 70.1748 20.5702 73.1193 18.5388C76.8879 16.1072 78.9543 15.5643 80.8386 15.3784C84.3076 15.3164 87.7362 16.1317 90.8081 17.7489C95.4279 20.0625 98.5275 24.3136 98.4706 29.9057C98.4097 35.559 98.1666 42.184 97.8016 49.7823C97.8148 51.1856 97.5244 52.5751 96.9505 53.855C96.8851 54.0131 96.7886 54.1563 96.6667 54.2761C96.5448 54.3959 96.4001 54.4898 96.2411 54.5522C96.0822 54.6146 95.9124 54.6443 95.7418 54.6393C95.5712 54.6343 95.4033 54.5949 95.2483 54.5234C93.668 53.9153 91.4186 51.0589 88.441 46.0749C82.6669 36.1672 77.1961 31.4261 72.0902 31.8516C72.0292 31.8516 71.9075 32.0339 71.7252 32.3986V32.52H71.7862C72.2723 33.4925 72.7584 34.5262 73.4274 35.6805C74.2176 37.0785 76.1629 40.1787 79.2625 45.0412C79.7486 45.7708 80.1745 46.5004 80.5997 47.2292C82.2294 49.7654 83.7306 52.3825 85.0975 55.0704C86.9208 58.7778 88.015 61.9994 88.2581 64.8566C88.2581 64.8566 88.3191 65.221 88.38 65.8291C87.8939 65.0996 87.2858 64.2485 86.4957 63.1545C86.4543 63.0996 86.3972 63.0585 86.3321 63.0368C86.2669 63.0151 86.1966 63.0138 86.1307 63.0331C85.8835 63.0942 85.9486 63.3975 85.9486 63.3975C86.2658 64.7439 86.2999 66.1419 86.0486 67.5023C85.7974 68.8627 85.2664 70.1557 84.4894 71.299C83.0888 73.1829 79.6283 75.7972 75.9206 77.2555C75.7987 77.3167 75.3735 77.4985 74.5834 77.8025C76.1393 75.9912 77.3915 73.9385 78.2911 71.7245" fill="black"/>
  <path fill-rule="evenodd" clip-rule="evenodd" d="M40.1169 45.0412C41.1099 45.4657 41.9747 46.1436 42.6252 47.0074C43.2757 47.8713 43.6893 48.891 43.8246 49.9649C44.0073 51.1686 43.8163 52.3995 43.2775 53.4906C42.9417 54.2587 42.4489 54.9477 41.8312 55.5132C41.2134 56.0786 40.4843 56.5079 39.691 56.7733C38.8999 57.075 38.0564 57.2143 37.2106 57.1829C36.3648 57.1516 35.5339 56.9502 34.7672 56.5907C33.9981 56.2493 33.3056 55.7558 32.7312 55.1396C32.1568 54.5234 31.7124 53.7973 31.4245 53.0047C31.1022 52.2326 30.9413 51.4024 30.952 50.5654C30.9626 49.7284 31.1445 48.9026 31.4863 48.139C31.8282 47.3754 32.3228 46.6903 32.9394 46.1262C33.5561 45.562 34.2817 45.1309 35.0712 44.8594C35.8795 44.5405 36.7446 44.3921 37.6126 44.4235C38.4807 44.4549 39.3337 44.6646 40.1169 45.0412Z" fill="white"/>
  <path fill-rule="evenodd" clip-rule="evenodd" d="M43.219 49.5997C42.7619 48.3851 41.8435 47.4017 40.6648 46.8648C39.6417 46.3748 38.4777 46.267 37.3823 46.5607C37.5721 46.6496 37.7398 46.7794 37.8736 46.941C38.0074 47.1025 38.104 47.2918 38.1562 47.4951C38.2085 47.6985 38.2153 47.9109 38.1761 48.1172C38.1369 48.3235 38.0526 48.5185 37.9294 48.6883C37.8684 48.9012 37.7596 49.0973 37.6114 49.2615C37.4632 49.4258 37.2795 49.5538 37.0744 49.636C36.8693 49.7181 36.6481 49.7521 36.4279 49.7354C36.2076 49.7186 35.9941 49.6516 35.8037 49.5394C35.5332 49.4441 35.3023 49.2606 35.148 49.0182C34.9938 48.7759 34.9249 48.4887 34.9526 48.2025V48.0199C34.6548 48.3807 34.3904 48.7679 34.1624 49.1767C33.8875 49.7526 33.7347 50.3794 33.7137 51.0175C33.6927 51.6557 33.804 52.2913 34.0405 52.8841C34.2683 53.4774 34.6114 54.0194 35.0498 54.4785C35.4883 54.9377 36.0134 55.3049 36.5947 55.5587C37.7805 56.104 39.1305 56.1694 40.3633 55.7413C40.9555 55.5146 41.4969 55.1721 41.956 54.7338C42.4151 54.2956 42.7828 53.7702 43.0378 53.1882C43.3091 52.6336 43.4652 52.0295 43.4963 51.4126C43.5275 50.7957 43.4331 50.1789 43.219 49.5997Z" fill="black"/>
  <path fill-rule="evenodd" clip-rule="evenodd" d="M62.971 48.8701C62.9088 47.7808 63.1279 46.6938 63.6071 45.7142C64.0863 44.7345 64.8093 43.8955 65.7064 43.278C67.0909 42.2695 68.818 41.8534 70.5082 42.1212C71.3484 42.2225 72.1572 42.5027 72.8805 42.943C73.6037 43.3833 74.2248 43.9736 74.702 44.6744C75.1855 45.3532 75.5264 46.1235 75.704 46.9385C75.8816 47.7535 75.8922 48.5962 75.7352 49.4155C75.6015 50.2543 75.3012 51.0577 74.8523 51.7781C74.4034 52.4985 73.8149 53.1213 73.1217 53.6096C72.4392 54.1129 71.6606 54.4699 70.8344 54.6581C70.0083 54.8463 69.1523 54.8618 68.3199 54.7035C67.4933 54.6085 66.6967 54.3369 65.9837 53.907C65.2706 53.4771 64.6577 52.899 64.1863 52.2115C63.44 51.2534 63.0147 50.0834 62.971 48.8685" fill="white"/>
  <path fill-rule="evenodd" clip-rule="evenodd" d="M72.3332 46.1955C72.0154 45.7865 71.6479 45.419 71.2391 45.1015C71.3372 45.2974 71.4199 45.5008 71.4862 45.7097C71.5618 45.986 71.543 46.2798 71.4328 46.5443C71.3226 46.8087 71.1274 47.0285 70.8782 47.1688C70.7118 47.3133 70.515 47.4183 70.3025 47.4758C70.09 47.5333 69.8673 47.542 69.651 47.501C69.4347 47.4601 69.2305 47.3707 69.0535 47.2395C68.8765 47.1083 68.7313 46.9387 68.6289 46.7433C67.9607 45.7708 68.0208 44.9809 68.8761 44.4298C68.9442 44.365 69.0304 44.3226 69.1232 44.3083C68.5048 44.2117 67.8733 44.2425 67.2671 44.3987C66.661 44.555 66.0929 44.8335 65.5977 45.2172C65.0694 45.5825 64.6197 46.0505 64.2752 46.5934C63.9307 47.1363 63.6985 47.743 63.5922 48.3777C63.4855 49.0021 63.506 49.6416 63.6522 50.2579C63.7985 50.8742 64.0676 51.4544 64.4433 51.9636C64.8098 52.4928 65.2783 52.943 65.8211 53.2875C66.364 53.6321 66.9702 53.8641 67.6039 53.9698C68.2415 54.0665 68.8918 54.036 69.5176 53.88C70.1434 53.7241 70.7324 53.4457 71.2506 53.0609C71.7789 52.6956 72.2286 52.2276 72.5731 51.6847C72.9175 51.1418 73.1498 50.5351 73.256 49.9005C73.3979 48.5954 73.0748 47.2821 72.344 46.193" fill="black"/>
  <path fill-rule="evenodd" clip-rule="evenodd" d="M74.1549 64.4914C73.8024 64.0943 73.4165 63.7283 73.0014 63.3975C72.6364 63.0934 71.6642 62.2407 71.2391 62.6076C70.8139 62.9744 71.7252 63.4586 71.9682 63.6412C72.4575 64.0184 72.9057 64.4463 73.3055 64.9178C73.1858 66.7698 72.6675 68.5739 71.7862 70.2059C71.2156 71.3205 70.3784 72.2759 69.3495 72.9866C68.3205 73.6973 67.132 74.1412 65.8901 74.2785C63.0336 74.7652 60.7818 74.4 59.143 73.1217C57.5042 71.8435 56.5295 71.1156 56.0434 70.6297C55.8479 70.4223 55.7025 70.1728 55.6183 69.9001C55.6792 69.7787 55.8004 69.6572 55.9223 69.4746C56.1695 69.1102 57.8066 68.1377 60.7835 66.6174C63.7603 65.0971 65.4032 64.1254 65.9503 63.0314C66.2841 62.5305 66.4343 61.9289 66.3754 61.3293C66.3145 59.5058 65.0992 58.1069 62.7287 57.0138C60.2503 55.9847 57.5564 55.5873 54.8874 55.857H54.4623C51.6438 56.0565 48.9234 56.9774 46.5609 58.5316C44.4335 60.0511 43.4003 61.4491 43.3393 62.8472C43.297 63.4843 43.4012 64.1227 43.6441 64.7129C43.887 65.3032 44.2619 65.8296 44.74 66.2514C46.1574 67.3146 47.8391 67.9664 49.6011 68.1352C51.9081 68.4996 53.3698 68.9252 54.038 69.4118C54.646 69.8985 54.9501 70.1414 55.0102 70.2017C55.0282 70.4666 55.0077 70.7327 54.9492 70.9916C54.7683 71.7666 54.4601 72.506 54.0372 73.1796C52.7609 75.1246 50.2685 76.2186 46.6218 76.34C43.6091 76.5324 40.6351 75.5772 38.2944 73.6654C37.5868 73.0795 36.9355 72.4283 36.3491 71.7204C36.1462 71.4045 35.9008 71.1181 35.6199 70.8694C35.5041 70.2566 35.5674 69.6233 35.802 69.0458C35.9841 68.3773 35.9841 68.0733 35.802 68.0733C35.5549 68.1344 35.3159 68.4377 35.0119 69.0458C34.293 70.3511 33.8974 71.8104 33.8584 73.301L33.9194 74.4578C34.4055 72.5731 34.8916 71.5403 35.4387 71.4188C35.7427 71.9055 35.8638 72.2087 35.9248 72.2699C36.4152 73.0543 37.0313 73.7522 37.7481 74.3355C38.9354 75.3804 40.3516 76.13 41.8818 76.5235L47.9599 79.988C48.7277 80.4365 49.4594 80.9445 50.1482 81.5075C50.6343 81.8115 50.9993 82.1156 51.3635 82.3585C51.6675 82.6015 52.2146 82.9667 52.9438 83.4525C53.8616 84.0223 54.8685 84.4332 55.9223 84.6679C56.8087 84.8497 57.726 84.8118 58.5945 84.5575C59.463 84.3032 60.2565 83.8402 60.9062 83.2088C61.7766 82.4391 62.5893 81.6061 63.3376 80.7168C64.1278 79.8079 65.2219 78.5891 66.6803 77.0093L66.8022 76.8878C66.9242 76.7664 66.9843 76.6449 67.1063 76.5235C68.2598 75.2469 69.1117 74.3958 69.4767 74.0315C69.6588 73.8489 69.8417 73.7274 69.9628 73.6059C70.7093 73.1824 71.3366 72.576 71.7862 71.8435C72.6121 70.6309 73.2476 69.2983 73.6705 67.8923C73.9301 67.0972 74.1333 66.2846 74.2785 65.4606C74.4606 65.6432 75.6792 66.6761 76.1019 67.0413C75.567 66.1089 74.9131 65.2506 74.1566 64.4881" fill="black"/>
  <path fill-rule="evenodd" clip-rule="evenodd" d="M61.4517 81.8149C60.4153 82.9877 58.9899 83.7436 57.44 83.9425C55.6776 84.3069 53.3673 83.2129 50.3888 80.6597C50.636 80.5986 51.118 80.3557 51.848 80.0516C52.503 79.7007 53.2327 79.5131 53.9754 79.5046C54.7045 79.5046 55.376 79.9913 56.1027 81.0241C56.7254 81.8452 57.2746 82.7197 57.744 83.6376C57.7103 82.8352 57.4581 82.0574 57.0148 81.3885L56.5287 80.5986C56.4068 80.5986 56.5897 80.3557 57.1368 79.869C57.6635 79.3889 58.3183 79.0731 59.0211 78.9601C59.8978 78.9366 60.7561 79.2154 61.4525 79.75L62.5467 80.5399C62.2173 80.9947 61.8513 81.4216 61.4525 81.8165" fill="#E0C0C0"/>
  <path fill-rule="evenodd" clip-rule="evenodd" d="M66.0714 76.4045C64.8205 77.5765 63.6998 78.8807 62.7288 80.2945C61.9944 79.4808 61.0464 78.891 59.9933 78.5924C59.2793 78.38 58.519 78.3819 57.806 78.5979C57.0931 78.8139 56.4589 79.2345 55.9816 79.8079C55.9206 79.7467 55.9207 79.7467 55.9207 79.6864C55.2524 78.8354 54.0363 78.6527 52.456 79.2609C51.588 79.5106 50.7666 79.9014 50.0246 80.4176C48.0192 79.0807 46.4381 78.0471 45.3447 77.4431L44.6156 77.0787C45.2838 77.1399 45.8918 77.1399 46.621 77.1399C48.928 77.0184 52.8828 75.9831 54.5834 73.7357C55.0392 73.1089 55.4262 72.4346 55.7377 71.7245C55.9198 71.846 56.2848 72.0889 56.5889 72.2715C57.683 73.0614 58.4122 73.5481 58.7772 73.8522C60.6005 75.4328 63.6384 75.4328 66.2535 74.9461C66.8891 74.8399 67.5182 74.6978 68.1378 74.5206C67.6517 74.885 66.9843 75.5534 66.0714 76.4045Z" fill="#834141"/>
  <path fill-rule="evenodd" clip-rule="evenodd" d="M53.7323 58.5349C52.1564 58.6859 50.6161 59.0966 49.1735 59.7503C48.0794 60.2973 47.5323 60.784 47.5932 61.1484C47.6542 61.5128 48.3834 61.6954 49.7816 61.635C51.4718 61.5443 53.1559 61.3617 54.8265 61.0881C56.4364 60.822 58.0589 60.6395 59.6876 60.5411C60.9639 60.4196 61.6931 60.237 61.754 59.8115C61.815 59.4471 60.9639 59.0819 59.1999 58.6547C57.3928 58.3381 55.5483 58.2971 53.729 58.5333" fill="white"/>
</svg>